<svg width="26" height="29" viewBox="0 0 26 29" fill="none" xmlns="http://www.w3.org/2000/svg">
<path d="M17.7144 21.3527V22.8063C17.7144 23.9629 17.2548 25.0721 16.4366 25.8899C15.6183 26.7077 14.5086 27.1672 13.3515 27.1672C12.1943 27.1672 11.0846 26.7077 10.2663 25.8899C9.44813 25.0721 8.98846 23.9629 8.98846 22.8063V21.3527M17.7144 21.3527H8.98846M17.7144 21.3527H23.5318C23.9175 21.3527 24.2874 21.1996 24.5601 20.927C24.8329 20.6543 24.9861 20.2846 24.9861 19.8991V19.0473C24.986 18.6618 24.8327 18.2921 24.56 18.0196L23.8183 17.2782C23.7274 17.1876 23.6553 17.08 23.6061 16.9615C23.5569 16.843 23.5317 16.716 23.5318 16.5877V11.1774M8.98846 21.3527H3.17113C2.78542 21.3527 2.4155 21.1996 2.14276 20.927C1.87002 20.6543 1.7168 20.2846 1.7168 19.8991V19.0473C1.71688 18.6618 1.87016 18.2921 2.14292 18.0196L2.88463 17.2768C2.97541 17.1864 3.04746 17.079 3.09662 16.9608C3.14579 16.8426 3.17111 16.7158 3.17113 16.5877V11.1774C3.17082 9.58662 3.54365 8.01797 4.25969 6.59733C4.97573 5.17669 6.01504 3.94363 7.29418 2.99715C8.57332 2.05066 10.0567 1.41712 11.6251 1.14737C13.1936 0.877619 14.8035 0.979182 16.3256 1.4439H16.3285" stroke="#272D35" stroke-width="2" stroke-linecap="round" stroke-linejoin="round"/>
<path d="M8.98868 21.3527V22.8063C8.98868 23.9629 9.44835 25.0721 10.2666 25.8899C11.0848 26.7077 12.1945 27.1672 13.3517 27.1672C14.5088 27.1672 15.6186 26.7077 16.4368 25.8899C17.255 25.0721 17.7147 23.9629 17.7147 22.8063V21.3527M8.98868 21.3527H17.7147M8.98868 21.3527H3.17135C2.78563 21.3527 2.41572 21.1996 2.14298 20.927C1.87024 20.6543 1.71702 20.2846 1.71702 19.8991V19.0473C1.7171 18.6618 1.87038 18.2921 2.14313 18.0196L2.88484 17.2782C2.97574 17.1876 3.04784 17.08 3.09701 16.9615C3.14618 16.843 3.17144 16.716 3.17135 16.5877V11.1774M17.7147 21.3527H23.532C23.9177 21.3527 24.2876 21.1996 24.5604 20.927C24.8331 20.6543 24.9863 20.2846 24.9863 19.8991V19.0473C24.9862 18.6618 24.833 18.2921 24.5602 18.0196L23.8185 17.2768C23.7277 17.1864 23.6557 17.079 23.6065 16.9608C23.5573 16.8426 23.532 16.7158 23.532 16.5877V11.1774C23.5323 9.58662 23.1595 8.01797 22.4434 6.59733C21.7274 5.17669 20.6881 3.94363 19.4089 2.99715C18.1298 2.05066 16.6465 1.41712 15.078 1.14737C13.5095 0.877619 11.8996 0.979182 10.3776 1.4439H10.3747" stroke="#272D35" stroke-width="2" stroke-linecap="round" stroke-linejoin="round"/>
</svg>
