<svg width="19" height="19" viewBox="0 0 19 19" fill="none" xmlns="http://www.w3.org/2000/svg">
<g id="ri:bike-line">
<path id="Vector" d="M4.82458 9.48556H3.73657V5.90102H2.28589V4.4672H6.63793V5.90102H5.18725V7.90549L12.305 6.02002L11.8843 4.4672H9.5393V3.03338H12.4247C12.5871 3.02984 12.746 3.08027 12.8759 3.17659C13.0058 3.2729 13.0993 3.40954 13.1413 3.56461L14.2678 7.71981L12.8664 8.09117L12.6808 7.40509L4.82458 9.48556ZM4.46191 14.5039C4.84666 14.5039 5.21564 14.3529 5.4877 14.084C5.75975 13.8151 5.91259 13.4504 5.91259 13.0701C5.91259 12.6898 5.75975 12.3251 5.4877 12.0562C5.21564 11.7874 4.84666 11.6363 4.46191 11.6363C4.07717 11.6363 3.70818 11.7874 3.43612 12.0562C3.16407 12.3251 3.01123 12.6898 3.01123 13.0701C3.01123 13.4504 3.16407 13.8151 3.43612 14.084C3.70818 14.3529 4.07717 14.5039 4.46191 14.5039ZM4.46191 15.9377C3.69242 15.9377 2.95445 15.6356 2.41034 15.0978C1.86623 14.56 1.56055 13.8307 1.56055 13.0701C1.56055 12.3096 1.86623 11.5802 2.41034 11.0424C2.95445 10.5046 3.69242 10.2025 4.46191 10.2025C5.2314 10.2025 5.96937 10.5046 6.51349 11.0424C7.0576 11.5802 7.36328 12.3096 7.36328 13.0701C7.36328 13.8307 7.0576 14.56 6.51349 15.0978C5.96937 15.6356 5.2314 15.9377 4.46191 15.9377ZM13.8913 14.5039C14.4685 14.5039 15.0219 14.2773 15.43 13.874C15.8381 13.4707 16.0674 12.9236 16.0674 12.3532C16.0674 11.7828 15.8381 11.2357 15.43 10.8324C15.0219 10.4291 14.4685 10.2025 13.8913 10.2025C13.3142 10.2025 12.7607 10.4291 12.3527 10.8324C11.9446 11.2357 11.7153 11.7828 11.7153 12.3532C11.7153 12.9236 11.9446 13.4707 12.3527 13.874C12.7607 14.2773 13.3142 14.5039 13.8913 14.5039ZM13.8913 15.9377C12.9295 15.9377 12.007 15.5601 11.3269 14.8879C10.6467 14.2156 10.2646 13.3039 10.2646 12.3532C10.2646 11.4025 10.6467 10.4908 11.3269 9.81854C12.007 9.14631 12.9295 8.76865 13.8913 8.76865C14.8532 8.76865 15.7757 9.14631 16.4558 9.81854C17.136 10.4908 17.5181 11.4025 17.5181 12.3532C17.5181 13.3039 17.136 14.2156 16.4558 14.8879C15.7757 15.5601 14.8532 15.9377 13.8913 15.9377Z" fill="#272D35"/>
</g>
</svg>
