<svg width="28" height="24" viewBox="0 0 28 24" fill="none" xmlns="http://www.w3.org/2000/svg">
<g id="Vector">
<path id="Vector_2" d="M24.9804 3.2H21.0288L19.0784 0.356001C19.0031 0.246317 18.901 0.156422 18.7813 0.0943129C18.6616 0.0322034 18.5279 -0.000194563 18.3922 8.79031e-07H9.60784C9.47211 -0.000194563 9.33843 0.0322034 9.2187 0.0943129C9.09897 0.156422 8.9969 0.246317 8.92157 0.356001L6.9698 3.2H3.01961C2.21876 3.2 1.45071 3.50905 0.884422 4.05915C0.318136 4.60926 0 5.35537 0 6.13333V21.0667C0 21.8446 0.318136 22.5907 0.884422 23.1408C1.45071 23.691 2.21876 24 3.01961 24H24.9804C25.7812 24 26.5493 23.691 27.1156 23.1408C27.6819 22.5907 28 21.8446 28 21.0667V6.13333C28 5.35537 27.6819 4.60926 27.1156 4.05915C26.5493 3.50905 25.7812 3.2 24.9804 3.2ZM26.3529 21.0667C26.3529 21.4203 26.2083 21.7594 25.9509 22.0095C25.6935 22.2595 25.3444 22.4 24.9804 22.4H3.01961C2.65559 22.4 2.30647 22.2595 2.04907 22.0095C1.79167 21.7594 1.64706 21.4203 1.64706 21.0667V6.13333C1.64706 5.77971 1.79167 5.44057 2.04907 5.19053C2.30647 4.94048 2.65559 4.8 3.01961 4.8H7.41177C7.5475 4.8002 7.68117 4.7678 7.80091 4.70569C7.92064 4.64358 8.02271 4.55368 8.09804 4.444L10.0484 1.6H17.9502L19.902 4.444C19.9773 4.55368 20.0794 4.64358 20.1991 4.70569C20.3188 4.7678 20.4525 4.8002 20.5882 4.8H24.9804C25.3444 4.8 25.6935 4.94048 25.9509 5.19053C26.2083 5.44057 26.3529 5.77971 26.3529 6.13333V21.0667ZM14 7.46667C12.8598 7.46667 11.7453 7.7951 10.7973 8.41044C9.8493 9.02577 9.11042 9.90038 8.67411 10.9236C8.23779 11.9469 8.12363 13.0729 8.34606 14.1592C8.56849 15.2455 9.11753 16.2433 9.92374 17.0265C10.7299 17.8096 11.7571 18.343 12.8754 18.5591C13.9936 18.7751 15.1527 18.6642 16.2061 18.2404C17.2594 17.8165 18.1597 17.0988 18.7932 16.1779C19.4266 15.2569 19.7647 14.1742 19.7647 13.0667C19.7647 11.5815 19.1574 10.1571 18.0763 9.10687C16.9952 8.05667 15.5289 7.46667 14 7.46667ZM14 17.0667C13.1856 17.0667 12.3895 16.8321 11.7124 16.3925C11.0352 15.953 10.5074 15.3283 10.1958 14.5974C9.88414 13.8665 9.80259 13.0622 9.96147 12.2863C10.1204 11.5104 10.5125 10.7977 11.0884 10.2382C11.6642 9.67883 12.3979 9.29787 13.1967 9.14353C13.9954 8.98919 14.8234 9.0684 15.5758 9.37115C16.3282 9.6739 16.9712 10.1866 17.4237 10.8444C17.8762 11.5022 18.1176 12.2755 18.1176 13.0667C18.1176 14.1275 17.6838 15.145 16.9116 15.8951C16.1394 16.6452 15.0921 17.0667 14 17.0667Z" fill="#272D35"/>
</g>
</svg>
