<svg width="132" height="112" viewBox="0 0 132 112" fill="none" xmlns="http://www.w3.org/2000/svg">
<g clip-path="url(#clip0_361_1860)">
<path d="M105.241 46.1098C105.721 46.3398 105.701 47.0898 106.161 47.4298C106.611 47.7798 106.971 48.2198 107.341 48.6498C107.531 48.8598 107.781 48.9998 108.081 49.0998C108.371 49.1898 108.341 49.6498 108.831 49.5298C108.871 49.5198 108.891 49.5798 108.911 49.6098C109.381 50.0998 110.001 50.4898 110.291 51.1198C110.631 51.8598 111.291 52.2898 111.741 52.9098C112.971 53.4598 113.571 54.6298 114.491 55.4798C114.631 55.6098 114.801 55.7398 114.921 55.8798C114.921 55.9098 114.911 55.9598 114.861 56.1298C114.821 56.2798 114.891 56.2798 114.941 56.2698C115.001 56.2298 115.021 56.2298 115.061 56.4498C115.061 56.4898 115.101 56.3798 115.111 56.3498C115.161 56.2898 115.141 56.1698 115.221 56.1998C116.031 56.2998 116.021 56.3098 116.631 55.9898C116.701 55.9498 116.821 56.1298 116.911 56.1298C117.261 56.1098 117.621 56.1098 117.971 56.0398C118.291 55.9698 118.631 56.2298 118.931 55.7898C119.001 55.6998 119.141 55.7698 119.241 55.7698C119.581 55.7698 119.921 55.8198 120.271 55.7998C120.671 55.7698 121.041 56.0298 121.481 55.7098C121.681 55.5698 121.861 56.0298 121.971 55.9598C122.181 55.8298 122.371 55.8298 122.551 55.8998C122.731 55.9698 122.861 56.1698 123.031 56.2198C123.181 56.2698 123.391 56.1298 123.551 56.1698C123.951 56.2598 124.311 56.5498 124.721 56.5298C125.171 56.5098 125.531 56.6898 125.891 56.8798C126.271 57.0798 126.621 57.3398 127.001 57.5498C127.291 57.7298 127.411 58.0598 127.581 58.3298C127.761 58.5798 128.221 58.6098 128.091 59.1298C128.091 59.1498 128.121 59.1598 128.131 59.1798L128.651 59.9598C128.801 60.2198 128.931 60.4798 129.091 60.7298C129.651 61.5598 130.161 62.4698 130.521 63.4498C130.631 63.7198 130.841 63.9998 130.571 64.3498C130.511 64.4198 130.651 64.5198 130.621 64.5998C130.511 64.9098 131.201 65.0098 130.931 65.3498C130.681 65.6398 130.891 65.8698 130.881 66.1298C130.851 66.4198 130.901 66.7098 130.881 66.9898C130.881 67.1898 130.911 67.3698 131.081 67.5498C130.651 67.7298 130.881 68.0698 130.661 68.2898C130.521 68.4298 130.321 68.6498 130.431 68.7898C130.661 69.1198 130.461 69.3598 130.411 69.6198C130.311 70.0098 130.051 70.3298 130.161 70.8198C130.191 71.0198 130.021 71.1898 129.901 71.3398C129.781 71.4798 129.561 71.5598 129.461 71.7098C129.261 71.9698 129.091 72.2398 129.091 72.6398C129.091 72.9998 128.571 73.0298 128.731 73.5198C128.751 73.5898 128.671 73.6398 128.611 73.6698C128.271 73.7898 128.031 73.9498 127.971 74.3498C127.921 74.6798 127.551 74.8298 127.331 75.0598C127.091 75.2998 126.871 75.5798 126.561 75.7098C126.361 75.7898 126.641 76.2998 126.231 76.1898C126.011 76.1298 125.861 76.3598 125.691 76.4698C125.521 76.5898 125.391 76.7898 125.181 76.8298C124.071 77.0598 123.451 77.9398 122.371 78.3098C121.961 78.4898 121.611 78.9698 121.021 78.6498C120.841 79.1198 120.371 78.9598 120.111 79.2598C119.951 79.4598 119.771 79.4898 119.581 79.5298C118.981 79.7098 118.321 79.6898 117.691 79.7398C117.371 79.7398 117.051 79.6998 116.731 79.6698C116.411 79.6498 116.091 79.6198 115.771 79.5398C114.931 79.3998 114.081 79.1998 113.281 78.8498C113.071 78.7398 112.841 78.6498 112.741 78.3198C112.671 78.0798 112.401 77.8898 112.031 77.9598C111.961 77.9698 111.851 77.9498 111.841 77.8898C111.821 77.1598 111.081 77.3098 110.761 76.9498C110.071 76.2998 109.851 75.3698 109.381 74.6398C109.281 74.4798 109.331 74.2098 108.931 74.2498C109.141 73.9798 108.961 73.9598 108.751 73.8498C108.521 73.7498 108.411 73.4598 108.511 73.2498C108.651 72.9598 108.511 72.7998 108.451 72.5998C108.401 72.3898 108.281 72.1898 108.241 71.9798C108.161 71.5198 108.071 71.0698 108.001 70.6198L107.921 69.2598C107.911 69.0798 108.041 68.8998 108.091 68.7198C108.151 68.5498 107.961 68.3498 108.271 68.1998C108.391 68.1598 108.291 68.0598 108.291 67.9998C108.371 67.7398 108.231 67.4698 107.881 67.4398C107.451 67.3598 107.391 66.8698 106.831 66.9498C106.671 66.9698 106.641 66.7598 106.531 66.6798C106.061 66.3698 105.931 65.6998 105.201 65.6698C105.281 65.3098 105.071 65.1898 104.901 65.0498C104.771 64.9398 104.761 64.6898 104.421 64.8398C104.381 64.8598 104.341 64.8198 104.321 64.7798C104.241 64.5798 104.271 64.2998 104.071 64.1898C103.901 64.0998 103.641 64.1398 103.501 63.9998C103.001 63.4698 102.771 62.6798 102.141 62.2798C102.191 61.9398 102.001 61.8198 101.841 61.6498C101.701 61.4998 101.511 61.4298 101.321 61.3398C101.221 61.2998 101.131 61.2498 101.051 61.1998C100.941 61.1198 100.801 60.9898 100.701 60.8598C100.471 60.5598 100.241 60.2698 99.9809 60.0098C100.011 59.7498 100.011 59.5198 99.9609 59.2798C99.9109 59.0298 99.8909 58.7598 99.9009 58.4798C99.9009 58.2598 99.9009 58.1498 99.9309 57.9798C99.9709 57.6698 100.041 57.3598 100.051 57.0398C100.051 56.8798 99.9509 56.6798 100.301 56.5798C100.381 56.5598 100.371 56.3798 100.281 56.3198C100.081 56.1898 100.231 56.0898 100.161 55.9798C99.9809 55.6698 100.861 55.4998 100.271 55.1498L100.391 54.2198C100.431 53.9098 100.451 53.5998 100.511 53.2898C100.541 53.1498 100.481 52.9998 100.721 52.8698C100.881 52.7898 100.941 52.5498 100.821 52.4398C100.531 52.1598 100.691 51.9398 100.711 51.6998C100.781 50.9798 100.861 50.2598 100.981 49.5498C101.031 49.2398 101.201 48.9398 101.321 48.6398C101.441 48.3298 101.241 47.9698 101.591 47.6998C101.611 47.6798 101.611 47.6498 101.591 47.6198C101.561 47.4898 101.471 47.3498 101.501 47.2298C101.541 47.0698 101.851 46.8998 101.741 46.7898C101.521 46.5798 101.801 46.4898 101.841 46.3598C101.971 45.9698 102.621 45.8098 103.371 45.9498C103.541 45.9798 103.711 46.0498 103.841 46.1198C104.621 46.5798 104.571 46.5798 104.551 47.1598C104.521 47.8898 103.961 48.5398 104.041 49.2898C103.561 49.7098 103.771 50.2498 103.621 50.7198C103.461 51.2198 103.051 51.6898 103.241 52.2098C103.421 52.7298 103.311 53.2098 103.241 53.6998C103.191 54.0698 102.981 54.4198 102.891 54.7898C102.801 55.1698 102.861 55.5798 102.711 55.9498C102.611 56.1798 102.311 56.3898 102.441 56.6298C102.731 57.1598 102.361 57.6198 102.491 58.1198C102.521 58.2598 102.541 58.3998 102.551 58.5298V58.8298C102.551 58.9298 102.551 59.0398 102.551 59.1298C102.601 59.1598 102.651 59.1898 102.721 59.1998C102.801 59.2198 102.881 59.2298 102.941 59.2398C103.051 59.2898 103.221 59.4398 103.331 59.5598C103.441 59.6798 103.561 59.7798 103.571 60.0198C103.571 60.2698 103.761 60.4498 104.081 60.4398C104.221 60.4398 104.381 60.4898 104.371 60.6098C104.351 61.0898 104.701 61.2298 104.941 61.4698C105.101 61.6198 105.031 62.0198 105.221 62.0098C105.541 61.9998 105.601 62.2098 105.761 62.3298C105.881 62.4198 106.071 62.4598 105.941 62.7598C105.911 62.8398 105.991 62.9598 106.071 62.9398C106.521 62.8298 106.581 63.1598 106.771 63.3398C107.231 63.7598 107.671 64.1998 108.101 64.6598C108.451 65.0398 109.101 65.0898 109.351 65.5798C109.761 65.4298 110.231 66.1398 110.631 66.5598C110.661 66.6098 110.731 66.6398 110.731 66.6998V66.8898L110.681 67.2598L110.581 67.9698L110.561 68.2098V68.3798C110.541 68.4998 110.521 68.6198 110.441 68.7498C110.261 69.0798 110.521 69.4098 110.531 69.7498C110.531 69.9398 110.771 70.0898 110.461 70.3298C110.421 70.3598 110.451 70.4398 110.501 70.4598C110.951 70.5998 110.911 70.9098 110.821 71.1598C110.671 71.5698 110.931 71.8498 111.001 72.1798C111.061 72.4698 111.241 72.6998 111.341 72.9598C111.411 73.1498 111.581 73.2798 111.531 73.5598C111.501 73.7698 111.821 73.8298 111.941 73.9698C112.071 74.1098 112.161 74.2798 112.271 74.4398C112.401 74.5998 112.551 74.7498 112.691 74.8998C112.831 75.0498 112.961 75.2198 113.121 75.3498C113.291 75.4898 113.481 75.6098 113.631 75.7798C113.761 75.9598 113.851 76.1898 114.021 76.3198C114.511 76.7098 115.221 76.5298 115.691 76.8798C115.931 76.6398 116.011 76.8798 116.151 76.9698C116.281 77.0498 116.441 77.2298 116.631 76.9598C116.681 76.8798 116.761 76.8998 116.821 76.8898C116.961 76.8598 117.051 77.1398 117.231 76.9498C117.351 76.8098 117.511 76.9898 117.661 76.9498C117.811 76.9098 118.001 77.0998 118.101 76.7298C118.421 77.2498 118.581 76.4198 118.871 76.5898C118.971 76.6498 119.061 76.6598 119.161 76.6898C119.211 76.7098 119.281 76.7598 119.311 76.7298C119.611 76.4398 119.931 76.2598 120.281 76.1498C120.641 76.0598 121.001 75.9398 121.301 75.6898C121.371 75.6298 121.401 75.4998 121.451 75.4098C121.481 75.3698 121.511 75.3398 121.561 75.3298C122.021 75.3198 122.031 75.2598 122.261 74.8798C122.321 74.7798 122.441 74.7498 122.511 74.6798C122.711 74.4798 122.991 74.4098 123.081 74.0498C123.171 73.6998 123.651 73.8398 124.001 73.7998C124.311 73.7598 124.611 73.7198 124.821 73.5098C125.091 73.2598 125.351 73.0098 125.591 72.7498C125.841 72.4898 126.111 72.2498 126.321 71.9698C126.381 71.8998 126.521 71.8598 126.471 71.7598C126.291 71.3498 126.191 71.0698 126.841 71.3198C126.871 71.3298 126.911 71.2698 126.891 71.2298C126.641 70.8398 126.931 70.7898 127.051 70.6298C127.291 70.3498 127.321 69.9698 127.421 69.6298C127.491 69.2798 127.521 68.9498 127.731 68.6698C127.781 68.5798 127.711 68.4098 127.861 68.3798C128.181 68.3198 127.741 68.1398 127.861 68.0598C127.971 67.9898 127.851 67.8198 127.961 67.7598C128.411 67.5398 128.361 67.1698 128.201 66.8898C128.061 66.6198 127.921 66.3798 128.041 66.1398C128.151 65.8998 128.151 65.6598 128.131 65.4298C128.101 65.1998 127.991 64.9798 127.951 64.7498C127.911 64.5098 127.811 64.2798 127.721 64.0498C127.621 63.8198 127.541 63.5898 127.391 63.3798C127.281 63.2098 127.321 62.9198 126.901 62.9498C126.821 62.9498 126.811 62.8498 126.801 62.7798C126.761 62.6198 126.801 62.4098 126.701 62.2798C126.611 62.1498 126.391 62.1098 126.261 62.0198C126.151 61.9398 126.121 61.8198 125.881 61.8698C125.711 61.8998 125.701 61.7198 125.761 61.4798C125.881 60.9998 125.941 60.4698 125.581 60.2998C125.281 60.1298 125.061 59.8598 124.741 59.7098C124.611 59.6398 124.511 59.5398 124.291 59.6298C124.101 59.6998 123.931 59.5498 123.821 59.3698C123.661 59.0898 123.441 58.9398 123.111 59.0698C123.001 59.1198 122.901 59.0798 122.801 59.0598C122.231 58.8698 121.631 58.7498 121.021 58.6498C120.871 58.6298 120.711 58.6898 120.621 58.3898C120.491 58.7098 120.351 58.5798 120.221 58.5398C120.021 58.4998 119.831 58.3398 119.631 58.2998C119.391 58.2498 119.151 58.2798 118.911 58.4898C118.691 58.6798 118.411 58.3698 118.191 58.6698C118.151 58.7198 118.041 58.5398 117.981 58.5598C117.711 58.6498 117.381 58.3698 117.181 58.8498C117.161 58.8898 117.111 58.8998 117.081 58.8598C116.701 58.4298 116.441 58.8398 116.151 59.0098C116.071 59.0598 115.991 59.0798 115.911 59.0698C115.821 59.0698 115.771 59.0498 115.581 59.0398C115.271 59.0298 114.991 59.0198 114.711 59.0898C114.481 59.1498 114.251 59.2398 114.011 59.3298C113.691 59.0598 113.361 58.7198 113.141 58.3298C113.071 58.1998 113.001 58.0798 112.921 57.9598L112.741 57.6798C112.651 57.5398 112.541 57.4098 112.421 57.2898C112.191 57.0398 111.941 56.8198 111.721 56.5698C111.271 56.0498 110.801 55.5598 110.301 55.0898C110.081 54.8898 109.761 54.7798 109.531 54.5898C109.271 54.3798 109.071 54.1198 108.841 53.8798C108.621 53.6498 108.401 53.4398 108.201 53.1998C108.101 53.0898 107.901 53.0598 108.021 52.7698C108.041 52.7098 108.001 52.6298 107.941 52.6398C107.531 52.6598 107.371 52.4598 107.381 52.0698C107.381 51.9598 107.251 51.9298 107.221 51.8298C107.131 51.5698 106.781 51.5898 106.551 51.4798C106.341 51.3798 106.381 50.9998 105.941 51.1498C105.881 51.1698 105.801 51.0998 105.821 51.0298C106.041 50.2098 104.831 50.6798 105.011 49.9098C104.591 50.0698 104.811 49.6098 104.671 49.5598C104.471 49.4798 104.251 49.4098 104.121 49.2598C103.991 49.1098 103.871 48.9598 103.711 48.8398C103.431 48.6198 103.311 48.2298 102.831 48.1998C102.671 48.1998 102.461 48.0798 102.601 47.7498C102.621 47.6898 102.561 47.6398 102.521 47.6098C102.161 47.4098 102.091 46.8198 102.451 46.3398C102.661 46.0598 102.981 45.7598 103.271 45.5498C103.421 45.4398 103.621 45.4898 103.781 45.4698C104.071 45.4498 104.421 45.3598 104.631 45.4398C104.881 45.5398 105.001 45.7898 105.221 46.0198L105.241 46.1098Z" fill="#231815"/>
<path d="M28.2295 31.0897C27.7295 31.0097 27.5795 30.2997 27.0795 30.1097C26.5795 29.9197 26.1495 29.5997 25.7095 29.3097C25.4895 29.1597 25.2295 29.1097 24.9295 29.0997C24.6395 29.0997 24.5595 28.6597 24.1395 28.9097C24.0995 28.9297 24.0795 28.8797 24.0495 28.8597C23.4995 28.5297 22.8495 28.3497 22.4295 27.8397C21.9495 27.2397 21.2395 27.0297 20.6795 26.5797C20.2295 26.5197 19.8395 26.3697 19.4695 26.1697C19.2695 26.0597 19.1495 25.9797 18.8995 25.8197L17.9095 25.1897L17.4695 24.1297L17.3495 23.7897L17.0595 23.0597C17.0995 22.8597 17.1195 22.6997 17.1895 22.5197C17.2195 22.4297 17.2495 22.3497 17.2895 22.2597C17.3195 22.1997 17.3595 22.1697 17.3995 22.1297C17.6795 21.8697 17.2095 21.5697 17.6395 21.2697C17.6795 21.2397 17.5695 21.1997 17.5395 21.1597C17.4795 21.0697 17.3595 20.9797 17.3795 20.8897C17.5395 20.3197 17.5195 20.2997 17.1795 19.9497C17.1395 19.9097 17.2895 19.7897 17.2695 19.7297C17.2095 19.4897 17.1295 19.2497 16.9695 19.0597C16.8495 18.8897 16.9095 18.5397 16.4395 18.6297C16.3395 18.6497 16.3495 18.5297 16.3095 18.4697C16.1495 18.3097 16.0195 18.1197 15.8395 17.9897C15.6095 17.8697 15.5295 17.5197 15.0995 17.6697C14.9195 17.7497 15.0095 17.2997 14.8995 17.3397C14.6995 17.4197 14.5895 17.3897 14.4995 17.2997C14.3995 17.2197 14.3595 17.0097 14.2495 16.9497C14.1495 16.8997 13.9595 17.0197 13.8595 16.9797C13.5995 16.8897 13.3795 16.6397 13.0895 16.7297C12.7795 16.8397 12.5595 16.7497 12.3195 16.6997C12.0695 16.6797 11.8295 16.5797 11.5795 16.5897C11.3895 16.6197 11.2395 16.4297 11.0495 16.3197C10.8595 16.2197 10.6795 16.5397 10.4795 16.1097C10.4795 16.0897 10.4495 16.1097 10.4395 16.1097C10.0495 16.0797 9.61953 16.0297 9.21953 16.1297C8.52953 16.3097 7.88953 16.6697 7.25953 17.0697C7.07953 17.1897 6.99953 17.4397 6.61953 17.2797C6.53953 17.2497 6.52953 17.3897 6.45953 17.3897C6.15953 17.3897 6.48953 18.0097 6.12953 17.9097C5.79953 17.8197 5.77953 18.0897 5.61953 18.2097C5.43953 18.3397 5.31953 18.5297 5.16953 18.6897C5.05953 18.7997 5.01953 18.9397 5.08953 19.1597C4.65953 19.0197 4.73953 19.3997 4.46953 19.4397C4.28953 19.4697 4.06953 19.5597 4.11953 19.7197C4.27953 20.0597 4.05953 20.1397 3.98953 20.3197C3.86953 20.5697 3.66953 20.8197 3.81953 21.1797C3.88953 21.3297 3.74953 21.4497 3.67953 21.5797C3.60953 21.6897 3.41953 21.7697 3.35953 21.8997C3.24953 22.1297 3.19953 22.3797 3.37953 22.6697C3.52953 22.9197 3.08953 23.1097 3.48953 23.3897C3.53953 23.4297 3.51953 23.4897 3.47953 23.5297C3.27953 23.7397 3.14953 23.9497 3.36953 24.2297C3.54953 24.4597 3.38953 24.7197 3.37953 24.9697C3.35953 25.2297 3.44953 25.4997 3.35953 25.7597C3.28953 25.9297 3.86953 25.9797 3.51953 26.1897C3.31953 26.3097 3.44953 26.5097 3.44953 26.6697C3.44953 26.8397 3.55953 26.9997 3.48953 27.1597C3.13953 28.0597 3.68953 28.8297 3.80953 29.6297C3.85953 29.9897 4.29953 30.1797 3.97953 30.6697C4.41953 30.7297 4.24953 31.1297 4.59953 31.1797C4.80953 31.2097 4.84953 31.3097 4.90953 31.4197L5.24953 31.8297C5.35953 31.9697 5.47953 32.0297 5.58953 32.1397C5.69953 32.2397 5.80953 32.2397 5.90953 32.3197C6.03953 32.3797 6.27953 32.4497 6.46953 32.4897C7.00953 32.6097 7.57953 32.5597 8.12953 32.5397C8.28953 32.5397 8.43953 32.4997 8.60953 32.7297C8.73953 32.8997 8.97953 32.9197 9.13953 32.6097C9.16953 32.5497 9.23953 32.4997 9.25953 32.5397C9.61953 33.0697 9.90953 32.4697 10.2095 32.3997C10.8095 32.2697 11.4995 32.4697 12.0795 32.2397C12.1995 32.1897 12.3995 32.2897 12.3595 31.9197C12.5595 32.1697 12.5795 32.0097 12.6195 31.8397C12.6395 31.7497 12.6895 31.6897 12.7495 31.6597C12.7495 31.3097 13.3495 32.3297 13.5695 32.6597C13.7295 32.9397 13.6995 32.7697 13.7395 32.7797L13.8195 32.7097L13.9795 32.5497L14.1295 32.3797C14.1295 32.3797 14.1995 32.2997 14.2195 32.2697C14.2195 32.2697 14.2395 32.2397 14.2195 32.2497L14.2695 32.2097L14.6395 31.8797L15.1295 31.4697C16.2795 32.1797 16.5995 32.4397 17.1595 32.8397C17.2795 32.9297 17.3395 33.1197 17.4395 33.2497C17.5395 33.3797 17.7695 33.3097 17.7395 33.6497C17.7295 33.7797 17.9095 33.7797 17.9995 33.8297C18.3295 34.0197 18.5995 34.3897 19.0195 34.3397C19.4395 34.2897 19.6095 34.7397 20.0995 34.4997C20.2395 34.4297 20.3195 34.6297 20.4395 34.6597C20.9395 34.8097 21.2195 35.3997 21.8995 35.2097C21.9095 35.5697 22.1295 35.6197 22.3195 35.7097C22.4595 35.7697 22.5295 36.0097 22.8095 35.7597C22.8395 35.7297 22.8895 35.7597 22.9095 35.7897C23.0295 35.9497 23.0695 36.2297 23.2795 36.2697C23.4595 36.3097 23.6795 36.1897 23.8495 36.2797C24.4395 36.6297 24.8295 37.2997 25.4995 37.4897C25.5295 37.8197 25.7395 37.8797 25.9195 37.9897C26.2395 38.1897 26.7095 38.0497 27.0095 38.3097L27.1195 38.3997L27.1595 38.4497C27.1595 38.4497 27.2095 38.5097 27.2395 38.5297C27.2995 38.5697 27.3795 38.5897 27.4295 38.5097C27.5295 38.3797 27.5695 38.3697 27.6295 38.3997C27.6895 38.4397 27.7795 38.5197 27.8195 38.5097C27.8295 38.5097 27.8195 38.4397 27.8595 38.5097C27.8795 38.5297 27.9295 38.6097 28.0495 38.7997C28.1195 38.9097 28.0995 38.7997 28.0095 38.6397C27.8295 38.3197 27.9495 38.4697 27.8895 38.3497C27.7995 38.1897 27.9395 38.3497 28.0395 38.4197C28.1395 38.4997 28.1995 38.4697 27.9195 38.1697L27.9495 37.9597C27.9595 37.8597 27.9495 37.9297 28.0095 37.5397C28.0295 37.4097 27.9795 37.2697 28.2195 37.1497C28.3795 37.0697 28.4395 36.8497 28.3095 36.7397C28.0095 36.4797 28.1695 36.2697 28.1895 36.0497C28.2495 35.3797 28.3195 34.6997 28.4295 34.0397C28.4795 33.7497 28.6495 33.4697 28.7595 33.1897C28.8695 32.8997 28.6795 32.5597 29.0095 32.3097C29.0295 32.2897 29.0295 32.2597 29.0095 32.2297C28.9795 32.1097 28.8895 31.9797 28.9195 31.8597C28.9595 31.7097 29.2695 31.5497 29.1495 31.4497C28.9295 31.2497 29.2095 31.1697 29.2495 31.0497C29.3695 30.6897 30.0195 30.5297 30.7795 30.6697C30.9495 30.6997 31.1195 30.7597 31.2495 30.8297C32.0295 31.2597 31.9895 31.2597 31.9695 31.7997C31.9495 32.4897 31.3995 33.0897 31.4895 33.7897C31.0095 34.1797 31.2395 34.6897 31.0895 35.1297C30.9395 35.5897 30.5295 36.0297 30.7295 36.5297C30.9195 37.0197 30.8095 37.4697 30.7495 37.9297C30.7395 38.0297 30.7195 38.0797 30.6895 38.2097L30.5795 38.6097C30.4995 38.8697 30.4195 39.1197 30.3695 39.3697C30.2695 39.8897 30.2995 40.5497 30.1395 40.9897C30.0395 41.2597 29.7695 41.2197 29.8695 41.7297C29.9295 42.0597 29.9495 42.3397 29.9395 42.5697C29.5395 42.3997 29.0495 41.9897 28.6795 41.9397C28.3095 41.8797 27.8595 41.6497 27.4195 41.4197C26.9795 41.1797 26.5495 40.9397 26.0695 40.7697C25.7595 40.6497 25.6795 40.6597 25.4895 40.5897C25.3295 40.5397 25.1695 40.4797 25.0295 40.3897C24.8995 40.3097 24.7695 40.2497 24.7095 40.0297C24.6495 39.7997 24.4395 39.6797 24.1395 39.7797C24.0195 39.8197 23.8595 39.8197 23.8295 39.7097C23.7395 39.2497 23.3795 39.2197 23.0995 39.0697C22.9195 38.9797 22.8895 38.5797 22.7195 38.6397C22.4295 38.7497 22.3195 38.5697 22.1395 38.4997C22.0095 38.4497 21.8295 38.4697 21.8695 38.1497C21.8795 38.0597 21.7795 37.9797 21.7095 38.0197C21.3195 38.2597 21.1895 37.9597 20.9695 37.8497C20.4495 37.5897 19.9395 37.2997 19.4395 36.9997C19.0295 36.7497 18.4095 36.8897 18.0695 36.5097C17.6195 36.7097 17.4095 36.3997 17.1395 36.2397C16.9295 36.1197 16.7895 35.8797 16.6195 35.6997C16.4495 35.5097 16.2095 35.4597 16.0695 35.1897C15.8995 34.8497 15.4795 34.8297 15.1995 34.6297C15.1195 34.5697 15.0095 34.5697 14.9195 34.5297C14.8195 34.4797 14.7695 34.4097 14.8395 34.2297C14.8495 34.1797 14.8095 34.1597 14.7795 34.2097C14.6495 34.3797 14.5995 34.4297 14.5595 34.3997C14.5295 34.3797 14.4995 34.2897 14.4595 34.1897C14.4295 34.0797 14.3395 33.9597 14.3495 33.9697C14.3495 33.9997 14.2895 34.0397 14.2495 34.0797C14.2095 34.1097 14.1595 34.1397 14.1095 34.1597C14.0795 34.1597 14.0295 34.1897 14.0195 34.1897L13.7895 34.2997C13.6395 34.3697 13.4795 34.4397 13.3295 34.4797C13.0995 34.5397 12.9095 34.6897 12.6395 34.5997C12.4295 34.5297 12.2595 34.7997 12.0495 34.8797C11.8495 34.9597 11.6295 34.9897 11.4195 35.0297C11.1895 35.0797 10.9495 35.1197 10.7195 35.1497C10.4895 35.1797 10.2495 35.2197 10.0095 35.2397C9.74953 35.2697 9.49953 35.3197 9.23953 35.2897C8.99953 35.2697 8.75953 35.1097 8.51953 35.0897C7.85953 35.0297 7.13953 35.3997 6.46953 35.1097C6.22953 35.3497 6.07953 35.1097 5.90953 35.0097C5.73953 34.9097 5.57953 34.7497 5.30953 34.9697C5.23953 35.0297 5.14953 34.9797 5.05953 34.9697C4.86953 34.9597 4.78953 34.5897 4.47953 34.6697C4.24953 34.7097 4.03953 34.4597 3.87953 34.3397C3.67953 34.2197 3.61953 33.8997 3.21953 34.0297C3.32953 33.3797 2.50953 33.6497 2.43953 33.1797C2.43953 33.0397 2.39953 32.9197 2.37953 32.7897C2.37953 32.7297 2.39953 32.6297 2.34953 32.5997C1.39953 32.0297 1.42953 30.9597 1.01953 30.1597C0.969534 30.0597 0.839534 29.9897 0.769534 29.8897C0.729534 29.8497 0.709534 29.7897 0.709534 29.7297C0.779534 29.1997 0.759534 29.2097 0.469534 28.7997C0.399534 28.6997 0.419534 28.5597 0.379534 28.4497C0.269534 28.1497 0.299534 27.8397 0.0395341 27.5497C-0.220466 27.2597 0.149534 26.8597 0.289534 26.5197C0.429534 26.2197 0.599534 25.9297 0.569534 25.6197C0.509534 24.8297 0.569534 24.0397 0.669534 23.2497C0.679534 23.1497 0.779534 23.0297 0.689534 22.9597C0.319534 22.6797 0.109534 22.4097 0.809534 22.3197C0.839534 22.3197 0.859534 22.2297 0.819534 22.2097C0.449534 21.9297 0.689534 21.7097 0.769534 21.4897C1.04953 20.6697 0.899534 19.6397 1.54953 18.8597C1.64953 18.7397 1.66953 18.4997 1.83953 18.4897C2.17953 18.4897 1.83953 18.1297 2.01953 18.0697C2.16953 18.0197 2.13953 17.7697 2.29953 17.7597C2.85953 17.7097 3.01953 17.3197 3.14953 16.9497C3.25953 16.5997 3.40953 16.2497 3.71953 16.1197C4.34953 15.8897 4.69953 15.3997 5.21953 15.0497C5.46953 14.8697 5.73953 14.6897 6.00953 14.5197C6.26953 14.3397 6.54953 14.1797 6.82953 14.0197C7.05953 13.8897 7.37953 13.9197 7.46953 13.4897C7.48953 13.3997 7.61953 13.3897 7.70953 13.3897C7.92953 13.3697 8.15953 13.4397 8.34953 13.3897C8.53953 13.3397 8.69953 13.1397 8.88953 13.0197C9.03953 12.9197 9.20953 12.9597 9.34953 12.7297C9.44953 12.5597 9.69953 12.6497 9.91953 12.8197C10.3595 13.1897 10.7495 13.5497 11.2095 13.5097C11.6295 13.4697 12.0395 13.5597 12.4395 13.6197C12.6095 13.6397 12.7695 13.6897 12.9895 13.5497C13.1895 13.4297 13.4495 13.5797 13.6095 13.7497C13.8695 14.0097 14.0995 14.1597 14.4795 14.0497C14.6095 14.0197 14.7295 14.0597 14.8395 14.1097C15.4895 14.3897 16.1195 14.7197 16.7395 15.1497C16.8895 15.2397 17.0895 15.3097 17.0295 15.6197C17.3295 15.4297 17.4095 15.6397 17.5095 15.7597C17.6795 15.9297 17.7395 16.2197 17.8795 16.4097C18.0495 16.6397 18.2595 16.8097 18.5895 16.9297C18.8995 17.0497 18.8495 17.4597 19.2195 17.5897C19.2895 17.6097 19.1795 17.8097 19.2295 17.8697C19.4695 18.1397 19.3095 18.5797 19.8495 18.7097C19.8995 18.7197 19.9195 18.7897 19.8995 18.8297C19.5795 19.3497 20.0295 19.5897 20.2195 19.9497C20.4395 20.3397 20.0995 20.7697 20.1495 21.1597C20.1895 21.5797 20.3195 22.1097 20.1095 22.4497C20.0295 22.5197 19.9795 22.6197 19.9395 22.6897C19.8695 22.8097 19.8495 22.9297 19.8295 23.0397C19.8495 23.1297 20.0195 23.1497 20.0795 23.2297H20.0995L20.2795 23.3697L20.5895 23.5597C20.8595 23.7197 21.1295 23.8697 21.4095 24.0197C21.6595 24.1497 21.9795 24.1497 22.2295 24.2597C22.5195 24.3897 22.7695 24.5697 23.0295 24.7297C23.2795 24.8797 23.5395 25.0197 23.7795 25.1797C23.8895 25.2597 24.0895 25.2197 24.0495 25.5297C24.0495 25.5897 24.0995 25.6497 24.1495 25.6297C24.5295 25.4897 24.7195 25.6297 24.7995 25.9997C24.8195 26.1097 24.9495 26.0997 24.9995 26.1797C25.1495 26.3997 25.4595 26.2797 25.6995 26.3197C25.9195 26.3597 25.9695 26.7197 26.3395 26.4497C26.3895 26.4097 26.4795 26.4597 26.4795 26.5297C26.4595 27.3597 27.4795 26.5697 27.4895 27.3497C27.8395 27.0797 27.7395 27.5697 27.8895 27.5797C28.0995 27.5997 28.3095 27.5997 28.4695 27.6997C28.6195 27.7997 28.7695 27.9097 28.9395 27.9797C29.2495 28.1097 29.4495 28.4397 29.8995 28.3197C30.0495 28.2797 30.2695 28.3197 30.2195 28.6697C30.2195 28.7297 30.2795 28.7597 30.3295 28.7697C30.7095 28.8497 30.9095 29.3897 30.6795 29.9397C30.5495 30.2697 30.3195 30.6297 30.0995 30.9197C29.9895 31.0597 29.7895 31.0797 29.6395 31.1397C29.3695 31.2397 29.0695 31.4297 28.8595 31.4097C28.6095 31.3897 28.4395 31.1897 28.1895 31.0397L28.2295 31.0897Z" fill="#231815"/>
<path d="M51.0508 34.9298C51.0508 34.9298 51.0908 34.8698 51.1108 34.8398C51.1208 34.8198 51.1308 34.7998 51.1508 34.7998C51.1608 34.7998 51.1808 34.7998 51.1908 34.7998C51.1308 34.7998 51.0908 34.7598 51.0908 34.7098C51.0908 34.6898 51.0608 34.6698 51.0908 34.6398C51.1008 34.6298 51.0808 34.5898 51.0708 34.5698C51.0708 34.5498 51.0808 34.5298 51.0908 34.5198C51.0908 34.5198 51.0908 34.5198 51.0908 34.5098C51.0708 34.4598 51.0908 34.4098 51.0908 34.3598C51.0908 34.3098 51.0908 34.2598 51.1008 34.2198C51.1208 34.1098 51.1608 34.0098 51.2008 33.9098C51.2208 33.8798 51.2208 33.8398 51.2708 33.8198C51.2908 33.8198 51.3008 33.7798 51.3008 33.7598C51.2908 33.7298 51.3008 33.7098 51.3208 33.6898C51.3408 33.6498 51.3708 33.6098 51.3908 33.5698C51.4108 33.5298 51.4408 33.4898 51.4708 33.4498C51.5508 33.4498 51.5008 33.3698 51.5508 33.3498C51.5608 33.3498 51.5708 33.3198 51.5908 33.3198C51.6008 33.3198 51.6208 33.2998 51.6208 33.2898C51.6108 33.2498 51.6408 33.2398 51.6508 33.2198C51.7208 33.1498 51.7808 33.0798 51.8708 33.0398C51.9208 33.0198 51.9708 32.9798 52.0108 32.9398C52.0508 32.8898 52.1208 32.8998 52.1708 32.8698C52.2008 32.8498 52.2308 32.8398 52.2408 32.7998C52.3508 32.7698 52.4208 32.6798 52.5308 32.6398C52.5608 32.6298 52.5908 32.6398 52.6208 32.6398C52.6508 32.6398 52.6708 32.6098 52.7008 32.5898C52.7008 32.5898 52.7108 32.5898 52.7208 32.5898C52.7508 32.6198 52.7708 32.5898 52.8008 32.5898C52.8308 32.5898 52.8708 32.5898 52.8908 32.5398C52.9808 32.5798 53.0608 32.5198 53.1408 32.5298C53.1608 32.5298 53.1908 32.5198 53.2008 32.5298C53.2508 32.5698 53.3108 32.5298 53.3608 32.5598C53.4108 32.5898 53.4808 32.5698 53.5408 32.5698C53.5608 32.5698 53.5808 32.5798 53.5908 32.5698C53.6208 32.5398 53.6408 32.5698 53.6608 32.5598C53.6808 32.5598 53.7108 32.5498 53.7308 32.5498C53.7908 32.5498 53.8508 32.5698 53.9108 32.5798C53.9708 32.5898 54.0308 32.5998 54.0908 32.6198C54.1208 32.6198 54.1508 32.6398 54.1708 32.6498C54.2008 32.6498 54.2208 32.6698 54.2508 32.6598C54.2808 32.6598 54.3108 32.6698 54.3308 32.6998C54.3508 32.7198 54.3508 32.7398 54.3808 32.7198C54.3808 32.7598 54.4108 32.7598 54.4308 32.7698C54.5308 32.8298 54.6508 32.8598 54.7408 32.9398C54.7908 32.9798 54.7908 33.0598 54.8808 33.0598C54.8808 33.0598 54.8908 33.0698 54.8908 33.0798C54.8908 33.1198 54.9308 33.1498 54.9608 33.1598C55.0008 33.1598 55.0208 33.1898 55.0408 33.2198C55.1108 33.2998 55.1608 33.3998 55.2308 33.4798C55.2708 33.5498 55.3108 33.6198 55.3608 33.6898C55.4008 33.7598 55.4308 33.8398 55.4608 33.9098C55.4608 33.9298 55.4808 33.9498 55.4708 33.9898C55.4608 34.0398 55.5108 34.0798 55.4908 34.1298C55.5508 34.1698 55.5408 34.2498 55.5608 34.2998C55.6108 34.4398 55.5808 34.5898 55.6408 34.7398C55.6508 34.7698 55.6408 34.7998 55.6408 34.8298C55.6408 34.8598 55.6308 34.8998 55.6408 34.9098C55.6808 34.9498 55.6208 34.9598 55.6208 34.9898C55.6308 35.0398 55.6208 35.0798 55.6108 35.1298C55.6108 35.1698 55.6108 35.2298 55.5908 35.2598C55.5508 35.2998 55.5508 35.3398 55.5608 35.3898C55.5608 35.3898 55.5608 35.4098 55.5608 35.4198C55.5108 35.4498 55.5308 35.4998 55.5008 35.5298C55.4608 35.5598 55.4508 35.5998 55.4308 35.6498C55.4308 35.6698 55.4308 35.6998 55.4308 35.7198C55.4308 35.7498 55.4208 35.7798 55.3908 35.7898C55.3408 35.8198 55.3308 35.8798 55.3008 35.9198C55.2808 35.9498 55.2708 35.9898 55.2308 35.9998C55.2108 35.9998 55.2008 36.0398 55.2008 36.0698C55.2008 36.1098 55.1508 36.1198 55.1708 36.1698C55.1408 36.1698 55.1208 36.1898 55.1108 36.2098C55.0908 36.2398 55.0608 36.2698 55.0408 36.2998C55.0208 36.3298 54.9908 36.3398 54.9808 36.3798C54.9808 36.4298 54.9108 36.3998 54.8908 36.4398C54.8908 36.4498 54.8708 36.4498 54.8708 36.4598C54.8708 36.5098 54.8308 36.5298 54.8008 36.5498L54.6308 36.6698L54.4508 36.7798L54.2408 36.9098C54.2208 36.9598 54.1708 36.9498 54.1408 36.9698C54.1108 36.9898 54.0808 37.0198 54.0408 37.0298C53.9908 37.0298 53.9308 37.0598 53.8808 37.0698C53.8308 37.0798 53.7808 37.0898 53.7208 37.0798C53.6708 37.0698 53.6108 37.0998 53.5608 37.0998C53.5408 37.0998 53.5208 37.0798 53.4908 37.0798C53.4708 37.0798 53.4408 37.0998 53.4208 37.0998C53.3908 37.0998 53.3708 37.0998 53.3508 37.0798C53.3408 37.0798 53.3008 37.1098 53.2808 37.0998C53.2308 37.0598 53.1708 37.0798 53.1208 37.0698C53.0708 37.0698 53.0308 37.0598 52.9808 37.0498C52.9708 37.0498 52.9408 37.0498 52.9408 37.0498C52.9108 36.9998 52.8608 37.0198 52.8108 36.9998C52.7608 36.9798 52.7108 36.9698 52.6708 36.9598C52.6608 36.9598 52.6408 36.9698 52.6308 36.9598C52.5508 36.9098 52.5508 36.9098 52.4408 36.8898C52.4208 36.8898 52.4108 36.8698 52.3908 36.8498C52.3908 36.8498 52.3808 36.8298 52.3708 36.8298C52.3008 36.8498 52.2608 36.7798 52.2108 36.7798C52.1408 36.7798 52.0908 36.7398 52.0508 36.6998C51.9008 36.5798 51.7208 36.4898 51.6408 36.3098C51.5508 36.2298 51.5008 36.1298 51.4108 36.0498C51.3408 35.9798 51.2908 35.8798 51.2508 35.7798C51.2508 35.7798 51.2508 35.7698 51.2508 35.7598C51.2708 35.7098 51.2208 35.6798 51.2208 35.6298C51.2208 35.5798 51.2208 35.5398 51.2008 35.4998C51.1708 35.4198 51.1508 35.3398 51.1308 35.2498C51.1208 35.1698 51.0608 35.0998 51.0608 35.0198C51.0608 34.9698 51.0508 34.9298 51.0608 34.8998L51.0508 34.9298Z" fill="#201512"/>
<path d="M66.5798 37.1494C66.5798 37.1494 66.5998 37.1094 66.6198 37.1094C66.6298 37.1094 66.6498 37.1094 66.6598 37.1094C66.5998 37.1094 66.5598 37.0694 66.5598 37.0194C66.5598 36.9994 66.5298 36.9794 66.5598 36.9494C66.5698 36.9394 66.5498 36.8994 66.5398 36.8794C66.5398 36.8594 66.5498 36.8394 66.5598 36.8294C66.5598 36.8294 66.5598 36.8294 66.5598 36.8194C66.5398 36.7694 66.5598 36.7194 66.5598 36.6694C66.5598 36.6194 66.5598 36.5694 66.5698 36.5294C66.5898 36.4194 66.6298 36.3194 66.6698 36.2194C66.6898 36.1894 66.6898 36.1494 66.7398 36.1294C66.7598 36.1294 66.7698 36.0894 66.7698 36.0694C66.7598 36.0394 66.7698 36.0194 66.7898 35.9994C66.8098 35.9594 66.8398 35.9194 66.8598 35.8794C66.8798 35.8394 66.9098 35.7994 66.9398 35.7594C67.0198 35.7594 66.9698 35.6794 67.0198 35.6594C67.0298 35.6594 67.0398 35.6294 67.0598 35.6294C67.0698 35.6294 67.0898 35.6094 67.0898 35.5994C67.0798 35.5594 67.1098 35.5494 67.1198 35.5294C67.1898 35.4594 67.2498 35.3894 67.3398 35.3494C67.3898 35.3294 67.4398 35.2894 67.4798 35.2494C67.5198 35.1994 67.5898 35.2094 67.6398 35.1794C67.6698 35.1594 67.6998 35.1494 67.7098 35.1094C67.8198 35.0794 67.8898 34.9894 67.9998 34.9494C68.0298 34.9394 68.0598 34.9494 68.0898 34.9494C68.1198 34.9494 68.1398 34.9194 68.1698 34.8994C68.1698 34.8994 68.1798 34.8994 68.1898 34.8994C68.2198 34.9294 68.2398 34.8994 68.2698 34.8994C68.2998 34.8994 68.3398 34.8994 68.3598 34.8494C68.4498 34.8894 68.5298 34.8294 68.6098 34.8394C68.6298 34.8394 68.6598 34.8294 68.6698 34.8394C68.7198 34.8794 68.7798 34.8394 68.8298 34.8694C68.8798 34.8994 68.9498 34.8794 69.0098 34.8794C69.0298 34.8794 69.0498 34.8894 69.0598 34.8794C69.0898 34.8494 69.1098 34.8794 69.1298 34.8694C69.1498 34.8694 69.1798 34.8594 69.1998 34.8594C69.2598 34.8594 69.3198 34.8794 69.3798 34.8894C69.4398 34.8994 69.4998 34.9094 69.5598 34.9294C69.5898 34.9294 69.6198 34.9494 69.6398 34.9594C69.6698 34.9594 69.6898 34.9794 69.7198 34.9694C69.7498 34.9694 69.7798 34.9794 69.7998 35.0094C69.8198 35.0294 69.8198 35.0494 69.8498 35.0294C69.8498 35.0694 69.8798 35.0694 69.8998 35.0794C69.9998 35.1394 70.1198 35.1694 70.2098 35.2494C70.2598 35.2894 70.2598 35.3694 70.3498 35.3694C70.3498 35.3694 70.3598 35.3794 70.3598 35.3894C70.3598 35.4294 70.3998 35.4594 70.4298 35.4694C70.4698 35.4694 70.4898 35.4994 70.5098 35.5294C70.5798 35.6094 70.6298 35.7094 70.6998 35.7894C70.7398 35.8594 70.7798 35.9294 70.8298 35.9994C70.8698 36.0694 70.8998 36.1494 70.9298 36.2194C70.9298 36.2394 70.9498 36.2594 70.9398 36.2994C70.9298 36.3494 70.9798 36.3894 70.9598 36.4394C71.0198 36.4794 71.0098 36.5594 71.0298 36.6094C71.0798 36.7494 71.0498 36.8994 71.1098 37.0494C71.1198 37.0794 71.1098 37.1094 71.1098 37.1394C71.1098 37.1694 71.0998 37.2094 71.1098 37.2194C71.1498 37.2594 71.0898 37.2694 71.0898 37.2994C71.0998 37.3494 71.0898 37.3894 71.0798 37.4394C71.0798 37.4794 71.0798 37.5394 71.0598 37.5694C71.0198 37.6094 71.0198 37.6494 71.0298 37.6994C71.0298 37.6994 71.0298 37.7194 71.0298 37.7294C70.9798 37.7594 70.9998 37.8094 70.9698 37.8394C70.9298 37.8694 70.9198 37.9094 70.8998 37.9594C70.8998 37.9794 70.8998 38.0094 70.8998 38.0294C70.8998 38.0594 70.8898 38.0894 70.8598 38.0994C70.8098 38.1294 70.7998 38.1894 70.7698 38.2294C70.7498 38.2594 70.7398 38.2994 70.6998 38.3094C70.6798 38.3094 70.6698 38.3494 70.6698 38.3794C70.6698 38.4194 70.6198 38.4294 70.6398 38.4794C70.6098 38.4794 70.5898 38.4994 70.5798 38.5194C70.5598 38.5494 70.5298 38.5794 70.5098 38.6094C70.4898 38.6394 70.4598 38.6494 70.4498 38.6894C70.4498 38.7394 70.3798 38.7094 70.3598 38.7494C70.3598 38.7594 70.3398 38.7594 70.3398 38.7694C70.3398 38.8194 70.2998 38.8394 70.2698 38.8594L70.0998 38.9794L69.9198 39.0894L69.7098 39.2194C69.6898 39.2694 69.6398 39.2594 69.6098 39.2794C69.5798 39.2994 69.5498 39.3294 69.5098 39.3394C69.4598 39.3394 69.3998 39.3694 69.3498 39.3794C69.2998 39.3894 69.2498 39.3994 69.1898 39.3894C69.1398 39.3794 69.0798 39.4094 69.0298 39.4094C69.0098 39.4094 68.9898 39.3894 68.9598 39.3894C68.9398 39.3894 68.9098 39.4094 68.8898 39.4094C68.8598 39.4094 68.8398 39.4094 68.8198 39.3894C68.8098 39.3894 68.7698 39.4194 68.7498 39.4094C68.6998 39.3694 68.6398 39.3894 68.5898 39.3794C68.5398 39.3794 68.4998 39.3694 68.4498 39.3594C68.4398 39.3594 68.4098 39.3594 68.4098 39.3594C68.3798 39.3094 68.3298 39.3294 68.2798 39.3094C68.2298 39.2894 68.1798 39.2794 68.1398 39.2694C68.1298 39.2694 68.1098 39.2794 68.0998 39.2694C68.0198 39.2194 68.0198 39.2194 67.9098 39.1994C67.8898 39.1994 67.8798 39.1794 67.8598 39.1594C67.8598 39.1594 67.8498 39.1394 67.8398 39.1394C67.7698 39.1594 67.7298 39.0894 67.6798 39.0894C67.6098 39.0894 67.5598 39.0494 67.5198 39.0094C67.3698 38.8894 67.1898 38.7994 67.1098 38.6194C67.0198 38.5394 66.9698 38.4394 66.8798 38.3594C66.8098 38.2894 66.7598 38.1894 66.7198 38.0894C66.7198 38.0894 66.7198 38.0794 66.7198 38.0694C66.7398 38.0194 66.6898 37.9894 66.6898 37.9394C66.6898 37.8894 66.6898 37.8494 66.6698 37.8094C66.6398 37.7294 66.6198 37.6494 66.5998 37.5594C66.5898 37.4794 66.5298 37.4094 66.5298 37.3294C66.5298 37.2794 66.5198 37.2394 66.5298 37.2094C66.5298 37.1794 66.5698 37.1494 66.5898 37.1194L66.5798 37.1494Z" fill="#201512"/>
<path d="M56.3414 41.8799V41.9099C56.3014 41.9699 56.3214 42.0399 56.3214 42.0999C56.3414 42.3399 56.3214 42.5799 56.3914 42.8199C56.4014 42.8599 56.4014 42.9099 56.4214 42.9299C56.4614 42.9699 56.4214 42.9999 56.4414 43.0399C56.4614 43.0699 56.4614 43.1299 56.4814 43.1499C56.5514 43.2399 56.5814 43.3499 56.6114 43.4499C56.6314 43.5399 56.6614 43.6399 56.7114 43.7099C56.8114 43.8499 56.8914 43.9999 56.9914 44.1299C57.0414 44.1999 57.1014 44.2599 57.1514 44.3299C57.2014 44.3999 57.2614 44.4599 57.3214 44.5199C57.3714 44.5699 57.4314 44.6099 57.4514 44.6899C57.4514 44.6999 57.4814 44.7199 57.5014 44.7299C57.5414 44.7599 57.5914 44.7799 57.6314 44.8199C57.6714 44.8499 57.7014 44.8999 57.7414 44.9399C57.7714 44.9699 57.8114 44.9899 57.8314 45.0299C57.8514 45.0599 57.9014 45.0899 57.9514 45.0999C58.0614 45.1199 58.1714 45.1399 58.2714 45.1999C58.3714 45.2499 58.4714 45.2999 58.5714 45.3499C58.6114 45.3699 58.6614 45.3799 58.7014 45.4199C58.7414 45.4499 58.8114 45.4799 58.8714 45.4799C58.9614 45.4799 59.0414 45.5099 59.1114 45.5499C59.1414 45.5699 59.1714 45.5699 59.2014 45.5799C59.3914 45.6299 59.5914 45.6599 59.7914 45.6799C59.8414 45.6799 59.8914 45.6899 59.9314 45.6699C59.9614 45.7099 60.0114 45.6999 60.0514 45.6999C60.1114 45.6999 60.1814 45.6799 60.2414 45.6799C60.3214 45.6799 60.3914 45.6799 60.4614 45.6899C60.5314 45.6999 60.6114 45.6699 60.6914 45.6899C60.7014 45.6899 60.7314 45.6699 60.7514 45.6699C60.8414 45.6699 60.9214 45.6199 61.0114 45.6499H61.0414C61.1314 45.5799 61.2314 45.5899 61.3314 45.5799C61.4414 45.5599 61.5214 45.4899 61.6214 45.4599C61.7314 45.4199 61.8514 45.3899 61.9514 45.3299C62.1114 45.2199 62.2914 45.1499 62.4614 45.0499C62.6314 44.9499 62.7914 44.8399 62.9514 44.7299C63.0214 44.6799 63.1014 44.6399 63.1614 44.5799C63.2414 44.5199 63.3014 44.4499 63.3714 44.3799C63.4314 44.3199 63.5014 44.2499 63.5514 44.1799C63.5814 44.1499 63.6214 44.1199 63.6214 44.0699C63.6214 44.0699 63.6314 44.0399 63.6414 44.0299C63.7114 43.9899 63.7614 43.9199 63.7814 43.8399C63.7814 43.8199 63.8114 43.7899 63.8214 43.7699C63.8514 43.6999 63.9114 43.6599 63.9514 43.5999C63.9914 43.5499 63.9914 43.4699 64.0614 43.4399C64.0614 43.4399 64.0814 43.4099 64.0814 43.3999C64.0614 43.2499 64.2314 43.1599 64.2014 43.0199C64.2614 42.9799 64.2214 42.9199 64.2414 42.8799C64.2714 42.8299 64.2914 42.7699 64.3014 42.7099C64.3114 42.6499 64.3214 42.5999 64.3314 42.5399C64.3514 42.4399 64.3514 42.3299 64.3914 42.2299C64.4014 42.1999 64.4214 42.1299 64.3914 42.0899C64.3914 42.0899 64.3914 42.0599 64.3914 42.0399C64.4114 41.9299 64.3714 41.7899 64.3114 41.7599C64.2914 41.7599 64.2614 41.7599 64.2414 41.7599C64.2514 41.7599 64.2714 41.7599 64.2914 41.7599C64.3114 41.7599 64.3314 41.7399 64.3414 41.7199C64.3814 41.6599 64.4014 41.6299 64.4014 41.5899C64.4014 41.5499 64.4014 41.4999 64.3714 41.4099C64.2914 41.1699 64.1014 41.0099 63.9214 40.8599C63.7714 40.8099 63.6314 40.7299 63.4714 40.7099C63.3114 40.6899 63.1414 40.7299 62.9914 40.7599C62.8314 40.7899 62.7014 40.8799 62.5914 40.9899C62.5114 41.0699 62.4514 41.1799 62.4014 41.2799C62.3514 41.3899 62.3014 41.5099 62.3014 41.6299C62.3014 41.7099 62.3314 41.7799 62.3114 41.8399C62.2914 41.9099 62.2914 41.9699 62.2914 42.0399C62.2914 42.0699 62.2914 42.1099 62.2914 42.1399V42.1699C62.2914 42.1699 62.2914 42.1699 62.2914 42.1799C62.2814 42.1699 62.2914 42.1499 62.2914 42.1399C62.2914 42.1399 62.2914 42.1199 62.2914 42.1099C62.2914 42.1099 62.2914 42.1099 62.2914 42.1299V42.1599L62.2514 42.2899C62.2314 42.3799 62.2014 42.4499 62.1614 42.5499C62.1614 42.5399 62.1614 42.4999 62.1614 42.5299V42.5499C62.1614 42.5499 62.1414 42.5499 62.1314 42.5799L62.1014 42.6299C62.1014 42.6299 62.1014 42.6499 62.0914 42.6599C62.0914 42.6599 62.0914 42.6699 62.0914 42.6799C62.0914 42.6899 62.0914 42.7099 62.0814 42.7099C62.0814 42.7099 62.0614 42.7199 62.0714 42.7099C62.0714 42.7099 62.0714 42.6899 62.0714 42.6799C62.0714 42.6799 62.0714 42.6699 62.0714 42.6599C62.0414 42.6799 62.0414 42.6899 62.0314 42.6999C62.0014 42.7899 61.9314 42.8399 61.8614 42.8999C61.8414 42.9199 61.8214 42.9499 61.8114 42.9699C61.8114 42.9799 61.7914 42.9899 61.7914 42.9999C61.7814 43.0099 61.7614 43.0199 61.7514 43.0299V43.0499C61.7514 43.0499 61.7314 43.0199 61.7514 43.0199L61.7814 42.9899C61.7814 42.9899 61.7214 43.0199 61.7014 43.0599C61.7014 43.0699 61.6714 43.0999 61.6514 43.0999C61.5714 43.0999 61.5214 43.1599 61.4614 43.1899L61.3114 43.2699C61.3114 43.2699 61.2614 43.2999 61.2314 43.3099L61.1414 43.3499C61.0114 43.3899 60.8714 43.3899 60.7514 43.4399C60.7014 43.4399 60.6614 43.4399 60.6214 43.4499C60.6014 43.4499 60.5814 43.4499 60.5514 43.4699H60.5214L60.4614 43.4899V43.5099C60.3914 43.5199 60.3314 43.5099 60.2614 43.5399C60.1714 43.5599 60.0614 43.5399 59.9614 43.5399C59.9614 43.5399 59.9414 43.5399 59.9314 43.5399H59.9014C59.8414 43.4999 59.7714 43.4899 59.7114 43.4899C59.6314 43.4899 59.5514 43.4599 59.4814 43.4399H59.4714V43.4199L59.4914 43.3599H59.4814C59.4614 43.3599 59.4414 43.3399 59.4214 43.3399L59.4014 43.3999C59.4014 43.3999 59.3814 43.3899 59.3714 43.3899C59.3114 43.3699 59.2814 43.3299 59.2214 43.3099C59.2014 43.3099 59.1814 43.2899 59.1614 43.2699C59.1414 43.2499 59.1014 43.2199 59.1314 43.2399C59.1814 43.2699 59.1214 43.2399 59.0814 43.1999L58.9514 43.0699L58.9114 43.0299L58.8514 42.9599C58.8514 42.9599 58.8514 42.9499 58.8314 42.9399C58.8014 42.8899 58.7514 42.8299 58.7214 42.7799C58.6914 42.7199 58.6714 42.6799 58.6414 42.6099C58.6614 42.6199 58.6714 42.6399 58.6814 42.6599C58.6714 42.6299 58.6614 42.6099 58.6514 42.5799C58.6414 42.5299 58.6214 42.4799 58.6014 42.4299C58.6214 42.3699 58.5814 42.3299 58.5714 42.2899C58.5714 42.2699 58.5614 42.2499 58.5514 42.2399C58.5514 42.2399 58.5514 42.2199 58.5514 42.2099C58.5514 42.2099 58.5514 42.1699 58.5514 42.1599H58.5714C58.5714 42.1599 58.5714 42.0999 58.5714 42.0799H58.5614C58.5614 42.0799 58.5614 42.0299 58.5614 41.9999C58.5614 41.9599 58.5414 41.8999 58.5814 41.8599C58.5214 41.7699 58.6114 41.6999 58.5814 41.5899C58.5814 41.5599 58.5614 41.5199 58.5514 41.4899C58.5514 41.4699 58.5314 41.4599 58.5314 41.4399C58.5314 41.2999 58.4614 41.1599 58.3714 41.0499C58.2814 40.9399 58.1714 40.8499 58.0614 40.7699C58.0314 40.7499 58.0114 40.7199 57.9814 40.6999C57.9714 40.6999 57.9514 40.6799 57.9314 40.6799C57.7814 40.6399 57.7814 40.6399 57.6514 40.5899C57.6214 40.5799 57.5714 40.5799 57.5414 40.5699C57.4414 40.5599 57.3414 40.5699 57.2314 40.5699C57.1214 40.5699 57.0214 40.6599 56.9414 40.7299C56.8714 40.7899 56.8114 40.8699 56.7414 40.9299C56.5714 41.1099 56.4614 41.3499 56.4314 41.5899C56.4314 41.6199 56.4314 41.6699 56.4314 41.6799C56.3914 41.7399 56.3614 41.7999 56.4314 41.8599L56.3414 41.8799ZM60.5114 43.5199C60.5114 43.5199 60.5014 43.5199 60.4914 43.5199H60.4714L60.4214 43.5399V43.5299H60.4414L60.4914 43.5199H60.5214H60.5114ZM61.1714 43.3499L61.1514 43.3699H61.1214V43.3799H61.1514L61.1714 43.3599V43.3499Z" fill="#201512"/>
<path d="M61.7607 43.0002V42.9902V43.0002H61.7507L61.7307 43.0202H61.7207L61.7407 43.0102L61.7607 43.0002Z" fill="#201512"/>
<path d="M58.1416 37.2097C58.1416 37.2097 58.1716 37.1597 58.1916 37.1397C58.1916 37.1297 58.2116 37.1097 58.2216 37.1097C58.2316 37.1097 58.2416 37.1097 58.2516 37.1097C58.2116 37.1097 58.1716 37.0797 58.1716 37.0397C58.1716 37.0197 58.1516 37.0097 58.1716 36.9897C58.1816 36.9897 58.1616 36.9497 58.1616 36.9297C58.1616 36.9197 58.1716 36.8997 58.1816 36.8897C58.1616 36.8497 58.1816 36.8197 58.1816 36.7797C58.1816 36.7397 58.1816 36.6997 58.1816 36.6697C58.2016 36.5897 58.2316 36.5097 58.2616 36.4297C58.2716 36.3997 58.2816 36.3697 58.3116 36.3597C58.3316 36.3597 58.3416 36.3297 58.3316 36.3097C58.3316 36.2897 58.3316 36.2697 58.3416 36.2597C58.3616 36.2297 58.3816 36.1997 58.4016 36.1697C58.4216 36.1397 58.4416 36.1097 58.4616 36.0797C58.5216 36.0797 58.4816 36.0197 58.5216 35.9997C58.5316 35.9997 58.5316 35.9797 58.5516 35.9797C58.5616 35.9797 58.5816 35.9697 58.5716 35.9597C58.5716 35.9297 58.5816 35.9197 58.6016 35.9097C58.6516 35.8597 58.7016 35.7997 58.7716 35.7697C58.8116 35.7497 58.8516 35.7197 58.8816 35.6897C58.9116 35.6497 58.9716 35.6597 59.0116 35.6297C59.0316 35.6197 59.0616 35.6097 59.0716 35.5697C59.1516 35.5497 59.2116 35.4797 59.2916 35.4497C59.3116 35.4497 59.3316 35.4497 59.3616 35.4497C59.3916 35.4497 59.4016 35.4197 59.4216 35.4097H59.4316C59.4516 35.4297 59.4716 35.4097 59.4916 35.4097C59.5216 35.4097 59.5416 35.4097 59.5616 35.3697C59.6316 35.3997 59.6916 35.3597 59.7516 35.3697C59.7716 35.3697 59.7916 35.3597 59.8016 35.3697C59.8416 35.3997 59.8816 35.3697 59.9316 35.3997C59.9716 35.4197 60.0216 35.3997 60.0716 35.4097C60.0816 35.4097 60.1016 35.4097 60.1116 35.4097C60.1316 35.3897 60.1516 35.4097 60.1716 35.4097C60.1916 35.4097 60.2116 35.3997 60.2316 35.4097C60.2816 35.4097 60.3316 35.4197 60.3716 35.4297C60.4216 35.4297 60.4716 35.4497 60.5116 35.4597C60.5316 35.4597 60.5516 35.4797 60.5716 35.4797C60.5916 35.4797 60.6116 35.4997 60.6416 35.4897C60.6616 35.4897 60.6916 35.4897 60.7016 35.5197C60.7116 35.5397 60.7216 35.5497 60.7416 35.5397C60.7416 35.5697 60.7716 35.5697 60.7816 35.5797C60.8616 35.6297 60.9516 35.6497 61.0216 35.7097C61.0616 35.7397 61.0616 35.7997 61.1316 35.7997C61.1316 35.7997 61.1316 35.7997 61.1416 35.8197C61.1416 35.8497 61.1716 35.8797 61.1916 35.8797C61.2216 35.8797 61.2316 35.9097 61.2516 35.9197C61.3116 35.9797 61.3516 36.0597 61.3916 36.1297C61.4216 36.1797 61.4616 36.2397 61.4916 36.2897C61.5216 36.3497 61.5516 36.3997 61.5716 36.4597C61.5716 36.4797 61.5816 36.4897 61.5716 36.5197C61.5716 36.5597 61.6016 36.5897 61.5816 36.6297C61.6316 36.6597 61.6216 36.7197 61.6316 36.7597C61.6716 36.8697 61.6516 36.9897 61.6916 37.0997C61.6916 37.1197 61.6916 37.1497 61.6916 37.1697C61.6916 37.1897 61.6916 37.2197 61.6916 37.2397C61.7216 37.2697 61.6716 37.2797 61.6816 37.2997C61.6816 37.3397 61.6816 37.3697 61.6716 37.4097C61.6716 37.4397 61.6716 37.4797 61.6516 37.5097C61.6216 37.5397 61.6216 37.5697 61.6316 37.6097V37.6297C61.5916 37.6497 61.6116 37.6897 61.5816 37.7197C61.5516 37.7497 61.5416 37.7797 61.5316 37.8097C61.5316 37.8297 61.5316 37.8497 61.5316 37.8697C61.5316 37.8897 61.5216 37.9097 61.5016 37.9197C61.4616 37.9497 61.4516 37.9897 61.4316 38.0197C61.4116 38.0397 61.4116 38.0697 61.3716 38.0797C61.3516 38.0797 61.3516 38.1097 61.3516 38.1297C61.3516 38.1597 61.3116 38.1697 61.3216 38.2097C61.3016 38.2097 61.2816 38.2297 61.2716 38.2397C61.2516 38.2697 61.2316 38.2797 61.2116 38.3097C61.1916 38.3297 61.1716 38.3397 61.1716 38.3797C61.1716 38.4197 61.1116 38.3997 61.1016 38.4297C61.1016 38.4297 61.0816 38.4397 61.0816 38.4497C61.0816 38.4897 61.0516 38.4997 61.0216 38.5197L60.8916 38.6197L60.7516 38.6997L60.5916 38.7997C60.5816 38.8397 60.5416 38.8297 60.5116 38.8497C60.4816 38.8697 60.4616 38.8897 60.4316 38.8997C60.3916 38.8997 60.3516 38.9197 60.3116 38.9297C60.2716 38.9297 60.2316 38.9497 60.1916 38.9297C60.1516 38.9197 60.1116 38.9397 60.0716 38.9397C60.0516 38.9397 60.0416 38.9297 60.0216 38.9297C60.0016 38.9297 59.9816 38.9497 59.9616 38.9497C59.9416 38.9497 59.9216 38.9497 59.9016 38.9397C59.8916 38.9397 59.8616 38.9697 59.8516 38.9497C59.8116 38.9197 59.7716 38.9297 59.7216 38.9297C59.6816 38.9297 59.6516 38.9197 59.6116 38.9097C59.6016 38.9097 59.5816 38.9097 59.5816 38.9097C59.5516 38.8697 59.5116 38.8797 59.4816 38.8697C59.4416 38.8597 59.4116 38.8497 59.3716 38.8397C59.3716 38.8397 59.3516 38.8397 59.3416 38.8397C59.2816 38.7997 59.2816 38.7997 59.1916 38.7897C59.1816 38.7897 59.1716 38.7697 59.1516 38.7597C59.1516 38.7597 59.1516 38.7397 59.1416 38.7497C59.0916 38.7597 59.0616 38.7097 59.0116 38.7097C58.9616 38.7097 58.9216 38.6797 58.8816 38.6497C58.7616 38.5597 58.6216 38.4897 58.5616 38.3397C58.4916 38.2797 58.4516 38.1997 58.3816 38.1297C58.3216 38.0697 58.2916 37.9897 58.2616 37.9197C58.2616 37.9197 58.2616 37.9197 58.2616 37.9097C58.2816 37.8697 58.2416 37.8497 58.2416 37.8097C58.2416 37.7697 58.2416 37.7397 58.2216 37.7097C58.1916 37.6497 58.1816 37.5797 58.1716 37.5197C58.1716 37.4597 58.1116 37.3997 58.1216 37.3397C58.1216 37.2997 58.1116 37.2697 58.1216 37.2397L58.1416 37.2097Z" fill="#5D8E5F"/>
<path d="M33.7291 7.55999C33.7391 9.26999 33.0291 11.02 32.9191 12.94C32.8091 14.86 32.5591 16.79 32.3391 18.71C32.2291 19.68 32.2191 20.61 32.2691 21.56C32.3191 22.48 31.8791 23.5 32.2191 24.41C32.2491 24.49 32.1991 24.67 32.1791 24.8C31.9391 27.12 31.8691 29.52 31.4091 31.75C30.8791 34.35 30.7891 36.96 30.4191 39.55C30.4391 40.88 30.3691 42.21 30.2591 43.54L30.0691 45.53L30.0091 46.03L29.9791 46.28V46.32L29.9491 46.44L30.0591 46.53L31.0591 47.18L33.9791 49.02C35.5591 50 37.3191 51.05 38.7091 52.04C38.0291 52.23 37.3291 52.41 36.6091 52.57C35.3891 52.84 34.4491 53.2 33.3691 53.59C32.3391 53.96 30.9891 54.41 30.5491 54.31C30.4391 54.31 30.2491 54.48 30.0791 54.55C29.5291 54.79 29.6991 54.86 29.5291 54.87C29.4691 54.87 29.4191 54.87 29.3991 54.86C29.3291 54.97 29.2791 55.07 29.2391 55.21C29.1691 55.54 29.1191 55.81 29.0891 56.08C29.0191 56.61 29.0091 57.12 28.9891 58.08C28.9891 58.33 28.7491 58.6 28.7091 58.87C28.5291 59.99 28.3491 61.11 28.2391 62.23C28.1391 63.24 27.7391 64.27 28.0291 65.29C28.0891 65.51 27.9591 65.94 27.9091 66.27C27.7691 67.33 27.5991 68.39 27.4891 69.44C27.3591 70.65 26.9991 71.86 27.2091 73.09C27.2991 73.63 26.7791 74.32 26.8191 74.64C26.9091 75.23 26.8791 75.77 26.7691 76.32C26.6591 76.86 26.4191 77.37 26.3491 77.92C26.2791 78.39 26.4091 78.89 26.3491 79.37L26.3091 79.67C26.2991 79.77 26.3091 79.72 26.2991 79.75L26.2691 79.83C26.2491 79.89 26.2191 79.96 26.2191 80.02C26.2791 80.02 26.3691 80 26.4391 79.95C26.4991 79.9 26.5291 79.87 26.5491 79.84C26.5291 79.84 26.6091 79.84 26.6891 79.84H26.9091L27.3391 79.87C27.9091 79.91 28.4791 79.96 29.0491 80C30.2491 80.08 31.4391 80.25 32.6391 80.31C33.5691 80.36 34.3791 80.61 35.2491 80.79C36.1091 80.97 37.1091 80.75 37.8591 81.26C37.8891 81.28 37.9891 81.27 38.0591 81.28C39.8591 81.52 41.6491 81.81 43.4591 81.99L52.8291 82.85C53.7091 82.93 54.6591 82.87 55.4491 83.3C55.6191 83.39 55.9991 83.31 56.2291 83.39C57.0791 83.67 57.8191 83.05 58.6191 83.44C59.3391 83.79 60.1291 83.7 60.8891 83.8C61.7491 83.91 62.6191 83.95 63.4791 84.05C64.0691 84.12 64.6191 84.11 65.1291 83.96C65.7491 84.43 66.7091 84.24 67.4591 84.5C67.9591 84.67 68.7291 84.86 69.1091 84.76C69.9591 84.53 70.7691 84.75 71.5891 84.79C72.8091 84.85 74.0191 85.09 75.2491 84.9C75.7691 84.82 76.4391 84.96 77.0291 85.05C77.5791 85.14 78.0991 85.34 78.6391 85.41C79.6591 85.53 80.6591 85.61 81.6991 85.48C82.5891 85.37 83.6291 85.84 84.5491 85.49C84.6691 85.44 84.9591 85.49 85.1291 85.54C86.0691 85.8 86.9291 85.98 88.0191 85.84C88.8991 85.72 89.9891 85.98 90.9891 86.07C92.0491 86.17 93.1491 86.18 94.1691 86.39C94.8191 86.52 95.1991 85.98 95.9491 86.41C96.1091 86.52 96.5891 86.59 96.5591 86.59C96.6491 86.59 96.7291 86.59 96.8091 86.59C96.8591 86.59 96.9091 86.59 96.9491 86.59C96.9491 86.46 96.9391 86.35 97.0091 86.28C97.0391 86.23 97.0691 86.21 97.1091 86.11L97.2291 85.49C97.3091 85.08 97.3691 84.66 97.4291 84.25C97.5491 83.42 97.6391 82.59 97.7091 81.75C97.8691 80.08 97.9791 78.4 98.2291 76.75C98.3191 76.17 98.3391 75.57 98.3691 74.97L98.3991 74.57C98.3991 74.57 98.3991 74.47 98.4191 74.42C98.4391 74.32 98.4791 74.22 98.5391 74.08C98.4991 74.01 98.4791 73.93 98.4491 73.82C98.2491 73.82 98.2091 73.86 97.9991 73.79C97.7491 73.69 97.4991 73.57 97.2491 73.45C96.8791 73.27 96.5091 73.08 96.1491 72.91C95.7491 72.73 95.3591 72.56 94.9291 72.42C93.8291 72.05 92.9791 71.61 92.1091 71.18L90.7091 70.48L98.4691 66.6L98.7891 63.77C99.0491 61.37 99.1991 58.96 99.4491 56.55C99.5191 55.87 99.5491 55.21 99.8691 54.51C100.109 53.99 100.239 53.02 100.029 52.26C99.9891 52.11 99.9691 51.82 100.029 51.72C100.739 50.42 100.329 49 100.469 47.66C100.739 45.03 101.389 42.51 101.669 39.9C101.729 39.34 101.969 38.71 101.659 38.24C102.019 37.85 101.909 37.51 101.829 36.97C101.749 36.41 101.839 35.51 102.069 35.06C102.379 34.44 102.369 33.83 102.469 33.21C102.579 32.55 102.619 31.88 102.719 31.22L103.969 22.87C104.049 22.32 104.259 21.81 104.389 21.27C104.519 20.73 104.419 20.12 104.789 19.63C104.929 19.45 104.909 18.88 104.959 18.48C105.129 17.09 105.499 15.61 105.399 14.33C105.299 13.07 105.769 11.78 105.459 10.58C105.369 10.25 105.569 9.66999 105.599 9.20999C105.639 8.66999 105.639 8.65999 105.669 8.48999L105.769 8.01999C105.599 7.98999 105.389 7.96999 105.189 7.98999C105.139 8.01999 104.469 8.03999 103.979 8.13999C103.329 7.78999 102.529 7.78999 101.769 7.75999C101.209 7.73999 100.579 7.51999 100.089 7.83999C100.029 7.87999 99.8391 7.85999 99.7191 7.83999C99.0491 7.70999 98.4591 7.44999 97.6991 7.44999C97.0691 7.44999 96.5391 7.63999 95.8491 7.57999C93.3691 7.38999 90.9491 6.81999 88.4391 6.79999C87.7791 6.46999 86.9891 6.46999 86.2291 6.40999C84.8691 6.29999 83.5691 6.54999 82.1791 6.36999C80.8691 6.19999 79.4591 6.00999 78.1991 6.09999C76.0191 6.26999 73.8891 5.91999 71.7491 5.82999C71.1991 5.80999 70.5691 5.88999 70.0891 5.51999C69.9791 5.42999 69.3691 5.41999 69.1991 5.51999C68.8291 5.70999 68.4291 5.54999 68.0891 5.59999C67.0991 5.74999 66.2191 4.82999 65.2191 5.38999L62.0191 5.15999L58.8291 4.92999C58.3291 4.88999 57.8491 4.92999 57.3491 4.65999C57.0191 4.47999 56.1991 4.39999 55.8491 4.50999C55.0191 4.77999 54.1891 4.57999 53.3691 4.52999C50.9091 4.37999 48.4391 4.20999 45.9791 3.99999C44.8991 3.90999 43.8391 3.69999 42.7691 3.54999C41.6791 3.39999 40.5291 3.54999 39.4891 3.16999C39.4191 3.13999 39.2991 3.14999 39.2091 3.14999C38.7791 3.16999 38.3291 3.23999 37.9091 3.18999C37.3591 3.12999 36.6491 2.78999 36.3291 2.88999C35.6891 3.08999 35.2991 2.78999 34.8291 2.72999C33.4791 2.55999 32.6791 1.86999 32.8891 1.11999C32.9391 0.949987 33.1091 0.779987 33.3091 0.669987C34.5891 -0.0700132 34.5991 -0.0300133 36.5691 0.0699867C39.0691 0.189987 41.4691 0.829987 43.9791 0.839987C45.5791 1.37999 47.3191 1.21999 48.9891 1.42999C50.7191 1.64999 52.4691 2.11999 54.1891 1.99999C55.8991 1.86999 57.5691 2.04999 59.2391 2.16999C60.5191 2.26999 61.7791 2.51999 63.0491 2.64999C64.3791 2.77999 65.7391 2.76999 67.0291 2.96999C67.8291 3.09999 68.6691 3.42999 69.4391 3.31999C71.1391 3.07999 72.8391 3.50999 74.4891 3.44999C76.7891 3.35999 79.0691 3.68999 81.3291 3.67999C82.5491 3.67999 83.7591 3.65999 84.9791 3.75999C85.5391 3.79999 86.0691 3.82999 86.6491 4.03999C87.2491 4.24999 88.1391 4.31999 88.9091 4.13999C89.2291 4.05999 89.7591 4.02999 90.0191 4.13999C91.1091 4.56999 92.2991 4.50999 93.4491 4.57999C94.1791 4.62999 94.9691 5.00999 95.4091 4.90999C96.1591 4.72999 96.8191 4.87999 97.5091 4.90999C97.9991 4.91999 98.5591 4.85999 98.9791 5.18999C99.0891 5.27999 99.5691 5.33999 99.7091 5.27999C100.559 4.93999 101.489 5.20999 102.369 5.25999L104.809 5.40999L108.599 5.67999L108.289 8.13999L108.179 9.16999L108.139 9.81999L108.109 11.13C108.089 12 108.049 12.87 107.859 13.74C108.119 14.86 107.809 16.04 107.669 17.18C107.559 18.05 107.319 18.91 107.139 19.77C106.959 20.63 106.929 21.49 106.639 22.4C106.289 23.51 106.319 24.89 106.129 26.14C106.029 26.82 106.149 27.61 105.709 28.18C105.649 28.26 105.619 28.57 105.659 28.7C105.949 29.65 105.699 30.77 105.449 31.55C105.039 32.83 104.999 34.1 104.809 35.37C104.649 36.42 104.569 37.49 104.409 38.55C104.289 39.31 104.289 40.06 104.019 40.84C103.819 41.43 103.939 42.27 103.869 43C103.809 43.73 103.699 44.46 103.609 45.19L103.319 47.58L103.029 49.97C102.929 50.83 102.849 51.7 102.709 52.55C102.579 53.36 102.319 54.14 102.209 54.95C101.889 57.22 102.049 59.5 101.609 61.77C101.819 62.42 101.539 63 101.409 63.64C101.289 64.23 101.079 64.91 101.299 65.54C101.359 65.71 101.299 66.03 101.299 66.28C101.299 66.41 101.269 66.53 101.249 66.64C101.209 66.82 101.169 66.99 101.129 67.17C101.049 67.55 100.969 67.93 100.969 68.41C100.909 68.46 100.829 68.51 100.749 68.57C100.469 68.79 100.029 69.01 99.5591 69.23C99.2091 69.39 98.9491 69.49 98.6791 69.64C98.5391 69.72 98.3991 69.78 98.2491 69.85C98.1591 69.88 98.1191 69.89 98.0591 69.92C97.9491 69.97 97.8591 70.06 97.9891 70.2C97.6391 70.13 97.4491 70.23 97.4391 70.31C97.4091 70.4 97.5691 70.47 97.5491 70.51C97.6191 70.53 97.6291 70.55 97.5891 70.58C97.5091 70.63 97.5591 70.69 97.5891 70.76C97.5991 70.79 97.5791 70.86 97.6591 70.87L98.1091 70.94C98.2591 70.98 98.2091 70.92 98.6291 71.11L99.1091 71.33L99.8091 71.67L101.489 72.51L101.099 75.86C101.009 76.63 100.929 77.39 100.879 78.16C100.859 78.52 100.929 78.88 100.939 79.24C100.939 79.41 100.939 79.61 100.899 79.78C100.539 81.36 100.539 81.36 100.589 82.88C100.599 83.26 100.519 83.67 100.499 84.06C100.479 84.57 100.409 85.07 100.369 85.57C100.349 85.82 100.329 86.08 100.329 86.34C100.329 86.79 100.309 87.24 100.309 87.7C100.309 88.61 100.199 89.56 100.039 90.4C98.6991 90.19 97.3991 89.89 96.2891 89.69C95.2491 89.44 94.3791 89.18 93.2991 89.1C90.6391 88.9 87.9791 88.64 85.3191 88.4C84.9891 88.37 84.5391 88.25 84.3391 88.33C83.5391 88.66 82.8391 88.87 82.1791 88.13C82.1491 88.09 81.8691 88.07 81.8091 88.1C81.1191 88.46 80.2791 88.18 79.5491 88.1C76.7391 87.8 73.9291 88.02 71.1191 87.59C70.6691 87.52 70.0391 87.57 69.7891 87.41C69.2491 87.07 68.9291 87.51 68.4491 87.36C68.0491 87.24 67.4191 87.36 67.0891 87.2C65.8791 86.66 64.4691 86.66 63.2791 86.7C62.1691 86.73 61.0191 86.78 60.0391 86.55C58.1091 86.09 56.1591 86.04 54.2191 85.84C52.2291 85.63 50.2291 85.46 48.2391 85.3C47.4191 85.24 46.5591 84.98 45.7791 85.3C45.6191 85.36 45.2491 85.29 44.9991 85.24C44.3891 85.12 43.7991 84.92 43.1891 84.86C42.5791 84.81 41.9591 84.9 41.3391 84.91C40.8391 84.91 40.3791 84.82 39.8491 84.98C39.4591 85.09 38.8191 84.91 38.2491 84.66C37.1191 84.16 35.9391 83.65 34.4491 83.58C33.1191 83.52 31.7891 83.34 30.4591 83.24C29.8991 83.2 29.3791 83.12 28.7691 83.26C28.2191 83.38 27.3291 83.23 26.6891 83.05C26.4791 82.99 26.2991 82.94 25.9391 82.88C25.6191 82.83 25.3191 82.78 25.0091 82.74C24.3991 82.67 23.7791 82.63 23.0691 82.63C23.0691 82.4 23.0691 82.17 23.0691 81.93C23.0591 81.43 23.1491 80.75 23.2391 80.13L24.2191 72.9C24.2991 72.34 24.2991 71.74 24.6391 71.32C24.3591 70.91 24.5491 70.34 24.6391 69.86C24.7791 69.12 25.0191 68.41 25.1491 67.67C25.2991 66.79 25.3891 65.92 25.3091 65.02C25.2391 64.18 25.6691 63.24 25.5191 62.33C25.4891 62.16 25.7291 61.84 25.7391 61.59C25.8091 60.58 26.2591 59.53 25.9291 58.54C25.8991 58.46 25.9291 58.24 25.9791 58.16C26.2891 57.61 26.3891 57.04 26.4291 56.46C26.4491 56.17 26.4491 55.88 26.4391 55.59V55.15V54.93L26.4591 54.58C26.5091 53.94 26.5991 53.31 26.6991 52.72C27.4391 52.51 28.2091 52.32 28.8591 52.16C29.2791 52.08 29.6991 51.99 30.1191 51.84C30.9491 51.55 30.8991 51.42 31.7691 51.32L31.9391 51.3C31.8691 51.1 31.4191 50.78 30.9891 50.5L29.9991 49.88L28.6091 49L26.9791 47.95L27.3491 44.47L27.6191 41.63C27.7091 40.62 27.6491 39.6 27.7191 38.59C27.7991 37.46 27.9391 36.33 28.0591 35.2L28.3991 32.01C28.4591 31.51 28.3791 30.95 28.7091 30.54C28.7791 30.46 28.8291 30.15 28.7991 30.03C28.5791 29.09 28.6891 28.21 29.0691 27.32C29.1791 27.07 29.1391 26.67 29.2191 26.36C29.4191 25.5 29.2291 24.72 29.2291 23.91C29.2291 23.16 29.5991 22.35 29.2391 21.64C29.1891 21.54 29.2291 21.18 29.2991 21.07C30.1691 19.66 29.1591 17.83 29.9691 16.42C29.6191 15.79 30.1491 15.22 30.1391 14.75C30.1191 14.06 30.0791 13.39 30.1591 12.69C30.2391 12.03 30.3191 11.36 30.3591 10.7C30.4291 9.47999 30.7491 8.27999 30.5391 7.03999C30.4691 6.61999 30.4791 5.85999 30.8491 5.39999C30.9191 5.31999 30.9391 5.04999 30.9391 4.87999C30.9491 3.53999 31.4791 1.95999 32.0991 1.68999C32.4691 1.52999 32.8891 1.59999 33.2391 1.78999C33.4091 1.87999 33.4691 2.46999 33.5591 2.84999C33.7191 3.50999 33.9691 4.14999 33.9891 4.84999C34.0091 5.67999 33.8391 6.56999 33.7291 7.63999V7.55999Z" fill="#231815"/>
<path d="M41.7395 84.3399C42.0595 84.6699 41.7095 85.2599 41.9495 85.6699C42.1895 86.0799 42.2995 86.5499 42.4395 86.9999C42.5095 87.2299 42.6595 87.4099 42.8795 87.5799C43.0895 87.7399 42.8595 88.0899 43.3395 88.1499C43.3795 88.1499 43.3695 88.2099 43.3795 88.2399C43.5695 88.7799 43.9395 89.2599 43.9095 89.8599C43.8895 90.2099 43.9795 90.5199 44.0895 90.8199C44.2095 91.1599 44.2795 91.2899 44.4495 91.9399C45.1395 92.9699 45.5995 94.2599 45.9095 95.3399C45.0995 95.4699 44.2995 95.5999 43.5695 95.7799C43.2595 95.8599 42.9995 95.9799 42.6795 96.0599C42.5295 96.0999 42.3695 96.1299 42.2095 96.1399C42.1295 96.1399 42.0395 96.1099 41.9395 96.0699C41.5895 95.9099 41.4695 96.4599 41.0495 96.1499C41.0095 96.1199 41.0095 96.2399 40.9795 96.2699C40.9095 96.3599 40.8695 96.4999 40.7695 96.4999C40.1995 96.5099 40.1595 96.4999 39.9095 96.9299C39.8795 96.9799 39.7295 96.8499 39.6695 96.8699C39.4395 96.9699 39.2395 97.0899 39.0695 97.2599C38.9195 97.4099 38.5695 97.3499 38.7295 97.8099C38.7595 97.9099 38.6495 97.8999 38.5995 97.9499C38.4395 98.0799 38.2995 98.2199 38.1995 98.3899C38.0795 98.5699 37.7895 98.6599 38.0095 99.0299C38.1095 99.1799 37.6695 99.0799 37.7195 99.1699C37.8295 99.3299 37.8495 99.4299 37.7895 99.4999C37.7295 99.5699 37.5395 99.5999 37.4995 99.6799C37.4595 99.7499 37.6395 99.8799 37.6395 99.9599C37.6595 100.15 37.4195 100.33 37.6095 100.53C37.8395 100.73 37.7895 100.9 37.8095 101.09C37.8495 101.28 37.8595 101.5 37.9395 101.69C37.9895 101.84 37.8695 102.01 37.8295 102.18C37.7995 102.35 38.1095 102.38 37.7795 102.68C37.7695 102.69 37.7895 102.7 37.7995 102.71C37.8495 102.85 37.8795 103.01 37.9195 103.17C37.9695 103.32 38.0595 103.45 38.1495 103.58C38.5195 103.98 38.9995 104.29 39.5795 104.49C39.7295 104.57 39.9595 104.45 40.0295 104.85C40.0495 104.93 40.1495 104.85 40.1795 104.91C40.3195 105.15 40.5895 104.5 40.6995 104.84C40.8095 105.15 41.0095 105 41.1695 105.05C41.3495 105.11 41.5495 105.07 41.7295 105.09C41.8595 105.11 41.9795 105.05 42.0795 104.85C42.2295 105.26 42.4295 104.98 42.6095 105.15C42.7295 105.27 42.9195 105.38 42.9895 105.23C43.0595 105.07 43.1495 105.02 43.2295 105C43.3295 104.98 43.3095 105.01 43.4195 104.97C43.6895 104.85 44.0195 104.9 44.2295 104.54C44.3195 104.39 44.4995 104.42 44.6495 104.42C44.7895 104.42 44.9595 104.54 45.0895 104.53C45.3395 104.5 45.5695 104.42 45.7595 104.15C45.9195 103.91 46.2695 104.21 46.3695 103.74C46.3795 103.68 46.4595 103.68 46.5095 103.7C46.7795 103.81 47.0095 103.86 47.1995 103.56C47.3495 103.31 47.6595 103.4 47.8895 103.34C48.1395 103.27 48.3795 103.13 48.6495 103.17C48.8195 103.2 48.7595 102.63 49.0295 102.93C49.1795 103.09 49.3495 102.94 49.5095 102.92C49.6695 102.89 49.8095 102.77 49.9895 102.81C50.8895 103.06 51.5895 102.48 52.4195 102.42C52.7695 102.4 53.0295 101.97 53.4795 102.38C53.6195 101.95 53.9895 102.19 54.1495 101.89C54.2495 101.7 54.3795 101.68 54.5095 101.64L55.1295 101.47C55.2595 101.44 55.3795 101.39 55.4895 101.33C55.7195 101.22 55.9295 101.06 56.0895 100.85C56.2895 100.57 56.3395 100.21 56.3495 99.9099C56.3495 99.8199 56.3295 99.7499 56.5695 99.6699C56.7495 99.6199 56.7695 99.4499 56.4595 99.3699C56.3995 99.3599 56.3495 99.3199 56.3895 99.3099C56.6595 99.1799 56.6395 99.1399 56.5395 99.0299C56.4195 98.8899 56.2295 98.7699 56.1795 98.6099C55.9595 97.9999 56.1295 97.3099 55.9195 96.7099C55.8795 96.5799 55.9895 96.3899 55.6095 96.3799C55.8795 96.1999 55.7095 96.1599 55.5395 96.0699C55.3595 95.9799 55.2895 95.7699 55.4295 95.6099C55.6195 95.3999 55.4995 95.2799 55.4795 95.1199C55.4595 94.9599 55.3795 94.8099 55.3595 94.6499C55.2395 93.9699 55.1295 93.2999 55.0295 92.6099C55.0095 92.4799 55.1095 92.3099 55.1395 92.1699C55.1695 92.0199 54.9595 91.9299 55.2295 91.7199C55.3295 91.6399 55.2095 91.5299 55.1795 91.4399C55.0895 91.1099 55.1795 90.7099 54.8495 90.4799C54.5295 90.2499 54.7395 89.8599 54.2295 89.7099C54.0895 89.6699 54.1695 89.4899 54.1195 89.3899C53.8895 88.9799 54.1195 88.4299 53.5295 88.1299C53.7795 87.8899 53.6695 87.7199 53.5995 87.5499C53.5495 87.4199 53.6695 87.2299 53.2995 87.2099C53.2595 87.2099 53.2395 87.1599 53.2495 87.1299C53.2895 86.9499 53.4595 86.7499 53.3495 86.5899C53.2495 86.4099 53.0495 86.5199 53.0395 86.4699C53.0295 86.3999 53.1195 86.2199 53.1495 86.0199C53.1095 85.9599 53.0195 85.9199 52.8995 85.9799C52.9395 85.6999 52.8195 85.7399 52.7395 85.7299C52.4895 85.6899 52.0895 86.0099 51.7695 85.8999C51.4595 85.7899 51.1195 85.6699 50.7995 85.8299C50.2495 86.1099 49.7395 85.8599 49.2195 85.8799C49.0795 85.8799 48.9195 85.9899 48.8295 85.6499C48.8095 85.5699 48.6595 85.5899 48.6095 85.6899C48.5095 85.8999 48.4195 85.7499 48.3295 85.8199C48.0695 86.0199 47.9195 85.1399 47.6295 85.7499L46.8495 85.6799C46.5895 85.6599 46.3295 85.6499 46.0695 85.5999C45.9495 85.5799 45.8295 85.6399 45.7195 85.4099C45.6495 85.2499 45.4495 85.2099 45.3595 85.3399C45.1295 85.6499 44.9395 85.4899 44.7395 85.4799C44.1395 85.4499 43.5395 85.3999 42.9395 85.3199C42.6795 85.2799 42.4295 85.1299 42.1695 85.0299C41.9095 84.9299 41.6095 85.1399 41.3795 84.8099C41.3595 84.7899 41.3295 84.7999 41.3095 84.8099C41.1995 84.8499 41.0795 84.9399 40.9795 84.9199C40.8495 84.8899 40.6995 84.5899 40.6095 84.6999C40.4395 84.9299 40.3595 84.6499 40.2495 84.6199C39.9295 84.5099 39.7795 83.8699 39.8795 83.1099C39.8995 82.9399 39.9595 82.7599 40.0195 82.6399C40.3895 81.8399 40.3895 81.8899 40.8695 81.8799C41.4795 81.8799 42.0295 82.3999 42.6595 82.2799C43.0195 82.7399 43.4595 82.4999 43.8595 82.6299C44.2795 82.7599 44.6695 83.1499 45.1095 82.9399C45.5395 82.7299 45.9495 82.8199 46.3495 82.8699C46.6595 82.8999 46.9595 83.0999 47.2595 83.1599C47.5795 83.2299 47.9195 83.1499 48.2295 83.2899C48.4195 83.3799 48.5995 83.6699 48.7995 83.5199C49.2395 83.1999 49.6295 83.5499 50.0495 83.3999C50.6295 83.1899 51.1695 83.4099 51.7295 83.2999C52.0295 83.2399 52.3395 83.1599 52.6295 83.1999C52.7795 83.2199 52.8495 83.2099 53.1195 83.3999C53.3395 83.5899 53.6495 83.6199 54.0695 83.4199C54.2395 83.3399 54.5095 83.2899 54.5795 83.3799C54.7095 83.5699 54.8995 83.6399 55.1195 83.6699C55.1795 83.8999 55.2695 84.0899 55.3395 84.3099C55.4295 84.5999 55.2195 85.0899 55.3895 85.1699C55.6695 85.3199 55.6695 85.6699 55.7495 85.8699C55.7995 85.9799 55.9395 86.0799 55.6795 86.2699C55.6095 86.3199 55.6195 86.4399 55.6995 86.4499C56.1395 86.5399 56.0095 86.8099 56.0795 87.0199C56.2495 87.5099 56.3895 88.0199 56.5095 88.5299C56.6095 88.9499 57.1295 89.2399 57.0895 89.6999C57.5495 89.8499 57.4595 90.1799 57.5295 90.4499C57.5795 90.6599 57.5095 90.8999 57.4895 91.1299C57.4695 91.3599 57.5995 91.5399 57.4895 91.7999C57.3595 92.1299 57.6295 92.3999 57.6795 92.6999C57.7095 92.8699 57.9695 92.9899 57.6495 93.2299C57.6095 93.2599 57.6395 93.3399 57.6895 93.3499C58.1295 93.4599 58.0995 93.7599 58.0095 93.9899C57.8495 94.3599 58.0495 94.6299 58.0895 94.9399C58.1295 95.1999 58.2495 95.4399 58.2895 95.6999C58.3195 95.8899 58.4495 96.0399 58.3395 96.2699C58.2595 96.4499 58.5195 96.5799 58.5895 96.7499C58.6595 96.9199 58.6895 97.0899 58.7395 97.2699L58.8995 97.8299L59.0595 98.3899C59.1195 98.6199 59.2095 98.9499 59.1795 99.2099C59.1695 99.4699 58.9895 99.7199 58.9495 99.9499C58.8395 100.59 59.0095 101.43 58.4695 101.99C58.5995 102.31 58.3095 102.37 58.1395 102.48C57.9795 102.6 57.7395 102.65 57.8095 103.01C57.8295 103.11 57.7295 103.16 57.6795 103.23C57.5595 103.39 57.2795 103.25 57.2095 103.54C57.1595 103.76 56.8695 103.74 56.7195 103.86C56.5395 103.97 56.2595 103.88 56.2095 104.27C55.6595 103.88 55.6895 104.72 55.3495 104.55C55.2495 104.5 55.1495 104.49 55.0495 104.46C54.9995 104.45 54.9295 104.39 54.8995 104.43C54.3295 105.09 53.5295 104.88 52.8695 105.2C52.7895 105.24 52.7295 105.36 52.6595 105.43C52.6295 105.46 52.5795 105.49 52.5395 105.48C52.1095 105.39 52.1095 105.39 51.8095 105.68C51.7295 105.75 51.6295 105.74 51.5395 105.78C51.3095 105.9 51.0595 105.87 50.8595 106.15C50.6695 106.44 50.2995 106.11 49.9895 106.01C49.7195 105.92 49.4495 105.81 49.1995 105.89C48.5795 106.1 47.9395 106.23 47.3095 106.39C47.2295 106.41 47.0995 106.36 47.0795 106.46C46.9995 106.89 46.9095 107.2 46.5595 106.58C46.5395 106.55 46.4795 106.57 46.4695 106.61C46.4195 107.06 46.1695 106.91 45.9895 106.95C45.3095 107.08 44.7695 107.7 44.0595 107.71C43.9595 107.73 43.8395 107.77 43.7295 107.79C43.6395 107.81 43.5795 107.81 43.5295 107.75C43.3195 107.48 43.3095 107.96 43.1495 107.87C43.0195 107.8 42.8595 107.98 42.7595 107.87C42.3795 107.46 42.0195 107.61 41.6795 107.74C41.3695 107.87 41.0195 108 40.7495 107.82C40.2195 107.48 39.6595 107.5 39.0995 107.31C38.5395 107.12 37.9695 106.89 37.4095 106.58C37.1695 106.47 37.0595 106.16 36.6295 106.31C36.5395 106.34 36.4695 106.23 36.4195 106.15C36.2895 105.98 36.2495 105.74 36.1195 105.58C35.9895 105.43 35.7395 105.39 35.5495 105.26C35.3895 105.16 35.3595 105.01 35.0995 104.97C34.9095 104.94 34.8895 104.67 34.9595 104.41C35.0795 103.88 35.3795 103.39 35.1495 103.02C34.9395 102.68 34.9695 102.29 34.8595 101.92C34.8295 101.76 34.8095 101.62 34.6195 101.46C34.4395 101.32 34.4995 101.03 34.6195 100.84C34.7995 100.53 34.8195 100.28 34.6595 99.9499C34.5995 99.8399 34.6195 99.7099 34.6395 99.5899C34.6695 99.4099 34.6895 99.2399 34.7295 99.0599L34.9095 98.5499C35.0195 98.2099 35.1695 97.8799 35.3595 97.5799C35.4495 97.4299 35.4795 97.2299 35.7795 97.2799C35.5595 96.9899 35.7595 96.9199 35.8695 96.8199C36.0395 96.6699 36.2895 96.5999 36.4495 96.4599C36.6395 96.2899 36.7995 96.1199 36.8495 95.7999C36.8995 95.4899 37.3095 95.5499 37.3395 95.1899C37.3395 95.1199 37.5395 95.2199 37.5795 95.1599C37.7695 94.9299 38.1795 95.0199 38.1595 94.5099C38.1595 94.4699 38.2095 94.4399 38.2495 94.4499C38.7595 94.6699 38.8495 94.2199 39.0895 93.9799C39.3395 93.6999 39.7795 93.9099 40.0795 93.7799C40.4195 93.6099 40.7195 93.3699 41.1095 93.4099C41.5195 93.5899 41.6895 93.3799 41.9695 93.3599L42.1295 93.3399C42.2295 93.3499 42.1295 93.2599 42.1395 93.2199L42.0795 93.0599C42.0395 92.9499 41.9895 92.8399 41.9395 92.7399C41.8795 92.6199 41.6795 92.5399 41.6195 92.4699L41.5995 92.4399L41.5595 92.3499L41.4895 92.1499L41.3595 91.7599C41.2695 91.5099 41.1695 91.2699 41.0995 91.0199C41.0695 90.8999 40.8995 90.8199 41.1295 90.6199C41.1795 90.5799 41.1695 90.4999 41.1295 90.4899C40.7595 90.3799 40.7095 90.1799 40.8995 89.8699C40.9495 89.7799 40.8495 89.7199 40.8595 89.6299C40.8995 89.3899 40.5795 89.3099 40.4295 89.1499C40.2995 88.9999 40.4995 88.7099 40.0395 88.7099C39.9795 88.7099 39.9495 88.6299 39.9895 88.5799C40.5495 87.9899 39.2795 87.9999 39.7795 87.4399C39.3395 87.4399 39.7395 87.1399 39.6395 87.0499C39.4995 86.9199 39.3395 86.8099 39.2895 86.6399C39.2395 86.4799 39.1995 86.3199 39.1195 86.1799C38.9695 85.9199 39.0495 85.5699 38.6295 85.4099C38.4895 85.3499 38.3595 85.1999 38.6295 84.9799C38.6795 84.9399 38.6495 84.8799 38.6195 84.8499C38.3895 84.5899 38.5995 84.0899 39.1295 83.8199C39.4395 83.6599 39.8495 83.5199 40.1995 83.4299C40.3795 83.3899 40.5295 83.4799 40.6795 83.5199C40.9395 83.5899 41.2895 83.6299 41.4295 83.7499C41.5995 83.8999 41.5995 84.1399 41.6795 84.3899L41.7395 84.3399Z" fill="#231815"/>
<path d="M64.4301 85.3796C64.8901 85.5396 64.8801 86.2496 65.3101 86.5296C65.7401 86.8096 66.0801 87.1896 66.4401 87.5496C66.6201 87.7296 66.8601 87.8296 67.1401 87.8896C67.4201 87.9396 67.3901 88.3796 67.8501 88.2196C67.8901 88.2096 67.9001 88.2596 67.9301 88.2896C68.3801 88.7096 68.9601 88.9996 69.2501 89.5696C69.5801 90.2296 70.2101 90.5596 70.6401 91.0996C71.8001 91.4896 72.3901 92.5196 73.2701 93.2296C73.5501 93.4496 73.8701 93.6196 73.9301 94.0896C73.9801 94.4996 74.5601 94.3896 74.5101 94.9696C74.5101 95.0296 74.6601 95.0196 74.7401 95.0696C74.9201 95.1596 75.1701 95.2396 75.2701 95.3896C75.8701 96.2896 75.7801 96.2096 76.7601 96.7996C76.8801 96.8696 76.7301 96.9896 76.7901 97.0696L76.8201 97.1296C76.4601 97.4796 76.1001 97.8296 75.8401 98.1996C75.5601 98.5696 75.0301 98.7796 75.1601 99.3496C75.1601 99.5096 75.0501 99.5296 75.0001 99.5896C74.8601 99.7996 74.6901 99.9996 74.5901 100.22C74.4901 100.48 74.1501 100.64 74.3501 101.06C74.4401 101.24 73.9801 101.2 74.0301 101.3C74.1201 101.49 74.1101 101.61 74.0301 101.72C73.9601 101.82 73.7501 101.86 73.7001 101.98C73.6501 102.08 73.7901 102.24 73.7801 102.34C73.7501 102.59 73.4601 102.81 73.6201 103.07C73.8001 103.34 73.6601 103.55 73.6901 103.75C73.7201 103.96 73.6001 104.19 73.6901 104.37C73.7501 104.51 73.5601 104.68 73.5001 104.84C73.4501 105.01 73.7801 105.07 73.4001 105.35C73.3801 105.36 73.4001 105.37 73.4001 105.39C73.4101 105.56 73.4701 105.72 73.5001 105.9L73.5601 106.16C73.6001 106.24 73.6501 106.32 73.7101 106.39C73.8801 106.65 74.0801 106.91 74.3501 107.12C74.5901 107.37 74.8601 107.53 75.1101 107.7C75.2601 107.82 75.4801 107.72 75.4901 108.12C75.4901 108.2 75.6101 108.13 75.6301 108.2C75.7401 108.48 76.0501 107.81 76.1301 108.16C76.2201 108.47 76.4101 108.35 76.5601 108.37C76.7401 108.4 76.9101 108.4 77.0901 108.38C77.2201 108.38 77.3301 108.31 77.3901 108.11C77.5901 108.51 77.7401 108.16 77.9501 108.32C78.0901 108.42 78.3101 108.48 78.3401 108.32C78.4101 107.96 78.6301 108.05 78.7901 107.93C79.0201 107.77 79.3401 107.75 79.4201 107.35C79.4601 107.19 79.6201 107.17 79.7601 107.12C79.8801 107.08 80.0801 107.14 80.2001 107.08C80.4101 106.96 80.6001 106.8 80.6301 106.48C80.6501 106.22 81.1201 106.3 80.9001 105.9C80.8701 105.85 80.8801 105.86 80.9301 105.86C81.2301 105.78 81.4501 105.67 81.4401 105.29C81.4401 104.99 81.7401 104.86 81.9001 104.66C82.0801 104.44 82.2001 104.17 82.4601 104.03C82.6301 103.94 82.2401 103.51 82.6501 103.58C82.8701 103.62 82.9301 103.39 83.0501 103.26C83.1701 103.13 83.2201 102.94 83.3901 102.86C84.3001 102.48 84.5701 101.55 85.2401 100.97C85.5301 100.72 85.5001 100.2 86.1201 100.25C85.9901 99.8096 86.4501 99.7696 86.4101 99.4096C86.3901 99.1796 86.4901 99.0896 86.5801 98.9696C87.1801 98.2096 87.8201 97.4896 88.4001 96.7196C88.4901 96.5996 88.6101 96.4396 88.6501 96.3496C88.6901 96.2696 88.7301 96.1896 88.7501 96.0996C88.8101 95.9296 88.8201 95.7596 88.8401 95.5996C88.8501 95.5096 88.8201 95.4196 89.0701 95.3496C89.2501 95.2896 89.2801 95.1096 88.9701 95.0196C88.9101 94.9996 88.8601 94.9696 88.9001 94.9496C89.4301 94.6796 88.8001 94.5496 88.7301 94.4296C88.6501 94.2796 88.6201 94.0996 88.5701 93.9096C88.4601 93.6696 88.6401 93.7096 88.3501 93.5696C88.2201 93.5096 88.1401 93.2796 87.8701 93.5496C87.9201 93.2196 87.7701 93.3196 87.5801 93.3696C87.3801 93.4296 87.1701 93.3296 87.1401 93.1196C87.1001 92.8296 86.9201 92.8296 86.7901 92.7296C86.6501 92.6196 86.4801 92.5696 86.3301 92.4696C85.7101 92.0496 85.1001 91.6396 84.5001 91.1996C84.3801 91.1096 84.3201 90.9296 84.2301 90.7996C84.1301 90.6696 83.9101 90.7496 83.9401 90.4096C83.9501 90.2796 83.7801 90.2896 83.6901 90.2396C83.3701 90.0596 83.1101 89.6996 82.7001 89.7696C82.3001 89.8296 82.1301 89.3996 81.6501 89.6496C81.5201 89.7196 81.4401 89.5296 81.3201 89.4996C80.8301 89.3596 80.5701 88.7896 79.9101 88.9896C79.9101 88.6396 79.6901 88.5896 79.5001 88.5096C79.3601 88.4496 79.3001 88.2196 79.0201 88.4696C78.9901 88.4996 78.9401 88.4696 78.9201 88.4496C78.8001 88.2896 78.7701 88.0196 78.5601 87.9796C78.3901 87.9496 78.1701 88.0696 78.0101 87.9796L77.8801 87.8996C77.8801 87.8996 77.8601 87.8696 77.8401 87.8496L77.7901 87.7396C77.8201 87.6296 77.2101 87.4496 76.8001 87.5396C76.6401 87.2496 76.4301 87.2896 76.2301 87.2696C75.8701 87.2396 75.5201 87.5696 75.1601 87.4596C74.8201 87.3596 74.4501 87.2496 74.1101 87.4196C73.5301 87.7096 72.9701 87.4796 72.4101 87.5196C72.2601 87.5196 72.0901 87.6396 71.9801 87.2996C71.9501 87.2196 71.7901 87.2396 71.7401 87.3396C71.6401 87.5496 71.5401 87.4096 71.4401 87.4796C71.1701 87.6896 70.9701 86.8096 70.6901 87.4296L69.8501 87.3796C69.5701 87.3596 69.2901 87.3596 69.0101 87.3296C68.8801 87.3096 68.7501 87.3796 68.6301 87.1496C68.5501 86.9896 68.3301 86.9496 68.2401 87.0896C68.0101 87.3996 67.8001 87.2596 67.5801 87.2496C66.9301 87.2396 66.2801 87.2096 65.6401 87.1396C65.3601 87.1096 65.0801 86.9596 64.8001 86.8696C64.5201 86.7796 64.2101 86.9996 63.9401 86.6696C63.9201 86.6496 63.8901 86.6596 63.8701 86.6696C63.7501 86.7096 63.6301 86.8096 63.5201 86.7896C63.3801 86.7596 63.2001 86.4696 63.1101 86.5796C62.9301 86.8096 62.8401 86.5396 62.7201 86.5096C62.3701 86.4096 62.1801 85.7696 62.2601 85.0096C62.2801 84.8396 62.3301 84.6596 62.3901 84.5296C62.7601 83.7196 62.7601 83.7596 63.2801 83.7496C63.9401 83.7296 64.5501 84.2296 65.2201 84.0996C65.6201 84.5496 66.0901 84.2896 66.5301 84.4096C66.9801 84.5296 67.4301 84.8996 67.8901 84.6796C68.3501 84.4596 68.7801 84.5296 69.2201 84.5696C69.5601 84.5896 69.8801 84.7796 70.2201 84.8296C70.5701 84.8896 70.9301 84.7996 71.2701 84.9296C71.4801 85.0096 71.6901 85.2996 71.9001 85.1496C72.3601 84.8196 72.7901 85.1496 73.2401 84.9896C73.8501 84.7696 74.4501 84.9696 75.0501 84.8396C75.3701 84.7696 75.7001 84.6796 76.0201 84.7096C76.1701 84.7196 76.3101 84.7096 76.4501 84.8896C76.6001 85.0696 76.8301 85.0896 77.0501 84.8596C77.1401 84.7696 77.2801 84.6996 77.3501 84.7896C77.4901 84.9796 77.6401 85.0396 77.7901 85.0496C77.9601 85.0696 78.2701 85.0496 78.5001 85.0496C78.5301 85.0496 78.5601 85.0496 78.5801 85.0596C78.8301 85.2396 78.9801 85.6296 79.1601 85.5796C79.4401 85.4696 79.5501 85.6396 79.7201 85.6996C79.8401 85.7396 80.0201 85.7196 79.9801 86.0396C79.9701 86.1296 80.0701 86.2096 80.1301 86.1596C80.5101 85.9096 80.6301 86.1996 80.8401 86.3096C81.3501 86.5496 81.8401 86.8196 82.3201 87.1096C82.7201 87.3496 83.3101 87.1896 83.6401 87.5596C84.0801 87.3496 84.2701 87.6496 84.5401 87.7996C84.7401 87.9096 84.8801 88.1396 85.0401 88.3196C85.2001 88.4996 85.4401 88.5396 85.5701 88.8096C85.7301 89.1396 86.1401 89.1496 86.4101 89.3396C86.5601 89.4396 86.8401 89.3396 86.8001 89.7596C86.8001 89.8196 86.8701 89.8496 86.9201 89.8196C87.3201 89.5796 87.5301 89.8196 87.6401 90.0596C87.8201 90.4496 88.1701 90.4996 88.4501 90.6996C88.6801 90.8596 88.9501 90.9496 89.1801 91.1096C89.3501 91.2296 89.5401 91.2396 89.6701 91.4996C89.7401 91.6196 89.8801 91.6496 90.0101 91.6996C90.1401 91.7696 90.2901 91.8296 90.4001 91.9196C90.6101 92.1096 90.7401 92.2996 90.8801 92.5096C91.0401 92.7296 91.1701 92.9696 91.2801 93.2196C91.3901 93.4696 91.4801 93.7296 91.5501 93.9896C91.6201 94.2696 91.7001 94.5696 91.6701 94.8596C91.6501 95.1396 91.4801 95.3996 91.4301 95.6596C91.3001 96.3496 91.4201 97.2496 90.8001 97.8196C90.8901 98.1796 90.6201 98.1796 90.4801 98.2696C90.3401 98.3596 90.1301 98.4196 90.2601 98.7296C90.3001 98.8196 90.2301 98.8696 90.2001 98.9296C90.1401 99.0696 89.8501 98.9896 89.9001 99.2596C89.9401 99.4496 89.7101 99.4996 89.6301 99.6396C89.5501 99.7896 89.2701 99.7996 89.4701 100.14C88.8701 100.02 89.3301 100.76 88.9601 100.82C88.8401 100.84 88.7601 100.9 88.6501 100.94C88.6001 100.96 88.5101 100.96 88.5101 101.01C88.4001 101.91 87.6001 102.27 87.2101 102.95C87.1601 103.03 87.1901 103.17 87.1701 103.28C87.1601 103.33 87.1401 103.38 87.0901 103.4C86.6701 103.6 86.6701 103.6 86.5801 104.04C86.5601 104.15 86.4501 104.21 86.4101 104.3C86.2801 104.54 86.0501 104.68 86.0501 105.04C86.0501 105.4 85.5401 105.37 85.2301 105.48C84.9501 105.58 84.6501 105.66 84.4901 105.89C84.0801 106.46 83.6101 106.98 83.1701 107.52C83.1401 107.56 83.1001 107.57 83.0501 107.62C83.0001 107.67 82.9501 107.73 82.9601 107.79C83.0401 108.28 83.0701 108.61 82.4501 108.26C82.4201 108.24 82.3601 108.3 82.3701 108.34C82.5001 108.79 82.1701 108.8 81.9801 108.92C81.2901 109.39 80.8101 110.26 79.8901 110.48C79.7501 110.52 79.5901 110.68 79.4601 110.59C79.1901 110.38 79.2601 110.85 79.0701 110.81C78.9201 110.78 78.7601 110.98 78.6201 110.9C78.1101 110.6 77.7101 110.8 77.3101 110.97C76.9501 111.16 76.5101 111.25 76.1701 111.1C75.5101 110.73 74.8401 110.68 74.2301 110.36C73.9001 110.23 73.6501 110.01 73.3601 109.84C73.0601 109.67 72.8101 109.46 72.5701 109.25C72.3601 109.08 72.2901 108.77 71.8401 108.85C71.7501 108.86 71.7001 108.73 71.6701 108.65C71.5901 108.44 71.5801 108.19 71.4501 108.03C71.3301 107.86 71.0601 107.81 70.9201 107.63C70.8001 107.5 70.7601 107.33 70.5001 107.26C70.3101 107.2 70.3101 106.93 70.4001 106.67C70.6401 106.12 70.9201 105.65 70.7501 105.21C70.6601 104.81 70.6301 104.37 70.6501 103.97C70.6501 103.8 70.6901 103.64 70.5101 103.44C70.3401 103.25 70.4601 102.97 70.6301 102.8C70.8901 102.53 70.9501 102.26 70.8301 101.92C70.7901 101.8 70.8301 101.68 70.8601 101.57C71.0601 100.9 71.3501 100.27 71.6701 99.6796C71.7401 99.5296 71.7601 99.3396 72.0701 99.3696C71.8401 99.1096 72.0201 99.0196 72.1101 98.9096C72.2501 98.7396 72.4901 98.6496 72.6301 98.4896C72.7801 98.3196 72.9301 98.0496 72.8701 97.7996C72.7501 97.6396 73.0901 97.6996 72.8701 97.5396C72.8201 97.5196 73.0401 97.5396 73.0401 97.5196C73.0101 97.4596 73.4001 97.3696 73.0501 97.3296H72.9301C72.8801 97.3296 72.8701 97.3196 72.9101 97.3096C73.4401 97.1696 72.8901 97.1296 72.7401 97.1596C72.5501 97.1596 72.8801 96.9496 72.6801 96.7796C72.4001 96.5396 72.0301 96.3796 71.8901 96.0096C71.6601 95.3796 71.1101 95.0796 70.7001 94.6496C70.2701 94.2096 69.8201 93.7996 69.3501 93.4096C69.1401 93.2396 68.8401 93.1796 68.6201 93.0296C68.3801 92.8596 68.1801 92.6296 67.9601 92.4296C67.7501 92.2396 67.5401 92.0596 67.3501 91.8596C67.2601 91.7596 67.0601 91.7596 67.1701 91.4796C67.1901 91.4196 67.1501 91.3496 67.0901 91.3596C66.7001 91.4296 66.5501 91.2596 66.5601 90.8796C66.5601 90.7696 66.4401 90.7596 66.4001 90.6696C66.3101 90.4296 65.9801 90.4896 65.7701 90.4096C65.5701 90.3296 65.6001 89.9696 65.1901 90.1696C65.1301 90.1996 65.0601 90.1296 65.0801 90.0696C65.2801 89.2696 64.1401 89.8496 64.3001 89.0996C63.9101 89.2996 64.1101 88.8396 63.9701 88.7996C63.7801 88.7396 63.5801 88.7096 63.4401 88.5796C63.3201 88.4596 63.2001 88.3196 63.0501 88.2296C62.7801 88.0496 62.6701 87.6896 62.2101 87.7196C62.0601 87.7296 61.8601 87.6496 61.9801 87.3196C62.0001 87.2596 61.9501 87.2196 61.9001 87.1996C61.5601 87.0596 61.4901 86.4996 61.8301 85.9996C62.0301 85.7096 62.3201 85.3996 62.6001 85.1596C62.7401 85.0396 62.9301 85.0596 63.0901 85.0296C63.3701 84.9796 63.7001 84.8596 63.8901 84.9096C64.1201 84.9796 64.2401 85.1996 64.4501 85.3896L64.4301 85.3796Z" fill="#231815"/>
<path d="M53.5191 19.7098C53.4491 19.3898 54.0391 19.4098 54.0891 19.1598C54.1391 18.8798 54.3491 18.7098 54.5191 18.5198C54.6091 18.4298 54.6191 18.2898 54.5891 18.0898C54.5591 17.8998 54.8991 18.0198 54.6691 17.6498C54.6491 17.6198 54.6891 17.6198 54.6991 17.6098C54.9191 17.3898 55.0391 17.0398 55.4091 17.0298C55.8391 17.0298 55.9791 16.6898 56.3091 16.5998C56.4691 15.8798 57.1291 15.9398 57.5391 15.6398C57.6691 15.5498 57.7791 15.3898 58.0491 15.5998C58.2791 15.7798 58.2391 15.2898 58.5591 15.6498C58.5891 15.6798 58.5691 15.5798 58.5791 15.5498C58.6091 15.4798 58.6091 15.3498 58.6691 15.3698C59.0291 15.4998 59.0191 15.5098 59.1591 15.2098C59.1791 15.1698 59.2791 15.3398 59.3091 15.3398C59.4391 15.3198 59.5691 15.3098 59.6691 15.2198C59.7691 15.1398 59.9591 15.3498 59.9291 14.9098C59.9291 14.8098 59.9991 14.8698 60.0291 14.8598C60.1491 14.8198 60.2691 14.8098 60.3791 14.7398C60.5091 14.6598 60.7191 14.7998 60.7791 14.4098C60.8091 14.2398 60.9991 14.6298 61.0191 14.5298C61.0591 14.3498 61.1191 14.2898 61.1991 14.3098C61.2791 14.3298 61.3791 14.4798 61.4491 14.4798C61.5091 14.4798 61.5491 14.2698 61.6191 14.2498C61.8091 14.1898 62.0891 14.3498 62.2991 14.1498C62.5491 13.9298 62.7791 13.9998 63.0191 13.9998C63.2691 14.0098 63.4891 14.1098 63.7391 14.1298C63.9391 14.1498 64.0091 14.3698 64.1091 14.5198C64.1991 14.6698 64.5391 14.5098 64.3991 14.9398C64.3991 14.9598 64.4191 14.9498 64.4291 14.9598C64.6391 15.1998 64.7891 15.4898 64.9391 15.7498C65.2191 16.1798 65.3691 16.6698 65.3891 17.2098C65.3891 17.3598 65.5391 17.5098 65.1791 17.6798C65.1091 17.7098 65.2191 17.7698 65.1591 17.8098C64.9591 17.9698 65.6391 18.0098 65.3291 18.0998C65.0491 18.1798 65.2091 18.2598 65.1791 18.3398C65.1491 18.4298 65.1791 18.5198 65.1691 18.6098C65.1591 18.6698 65.2191 18.7298 65.4091 18.7798C64.9991 18.8498 65.2791 18.9498 65.0891 19.0298C64.9591 19.0798 64.8391 19.1698 64.9791 19.2098C65.2891 19.2898 65.1391 19.3798 65.1791 19.4698C65.2291 19.5998 65.0991 19.7498 65.3891 19.9198C65.5091 19.9898 65.4291 20.0898 65.3891 20.1698C65.3391 20.2498 65.1791 20.3098 65.1491 20.3798C65.0891 20.5298 65.0791 20.6698 65.2291 20.9098C65.3491 21.1398 64.9391 21.1698 65.2191 21.5398C65.2591 21.5898 65.2091 21.6398 65.1491 21.6598C64.8691 21.7498 64.6991 21.8198 64.6791 22.1698C64.6591 22.4698 64.3291 22.4998 64.1391 22.6098C63.9191 22.7198 63.7091 22.8898 63.4591 22.8298C63.3191 22.7898 63.3391 23.3698 63.1091 23.0398C62.9991 22.8598 62.8491 22.9698 62.7191 22.9498C62.5891 22.9398 62.4591 23.0098 62.3491 22.9098C61.8491 22.3798 61.2691 22.5698 60.8291 22.1198C60.6791 21.9498 60.2391 22.0098 60.4391 21.4998C60.0491 21.6398 60.1591 21.2498 59.8591 21.2698C59.6591 21.2698 59.6291 21.1598 59.5691 21.0698C59.2191 20.4398 59.1491 19.6998 59.1891 19.0598C59.2091 18.6298 59.2091 18.1898 59.3491 17.7798C59.3891 17.6698 59.4091 17.5398 59.6691 17.5498C59.8591 17.5498 59.9491 17.4498 59.7791 17.1798C59.7491 17.1298 59.7291 17.0598 59.7791 17.0698C60.3391 17.2098 60.0391 16.7098 60.1891 16.5198C60.4891 16.1698 61.0191 16.1798 61.3491 15.9498C61.4191 15.8998 61.5791 15.9898 61.4791 15.6298C61.6791 15.8698 61.6591 15.7198 61.6791 15.5598C61.6991 15.3898 61.8391 15.3198 61.9691 15.4498C62.1491 15.6298 62.1991 15.5298 62.2891 15.5298C62.3891 15.5298 62.4691 15.4598 62.5691 15.4498C62.9691 15.4198 63.3691 15.4198 63.7391 15.4998C63.8091 15.5098 63.8891 15.6498 63.9591 15.7098C64.0291 15.7698 64.0991 15.5998 64.1691 15.9098C64.1891 16.0298 64.2591 15.9398 64.3091 15.9398C64.4791 15.9398 64.6391 16.1498 64.8191 15.9098C64.9991 15.6798 65.1191 16.0098 65.3291 15.5798C65.3891 15.4598 65.4391 15.6098 65.5091 15.5898C65.7791 15.5198 65.9091 15.9498 66.2691 15.5398C66.2691 15.8598 66.3791 15.8298 66.4791 15.8398C66.5491 15.8398 66.5691 16.0398 66.7391 15.7298C66.7591 15.6898 66.7891 15.6998 66.7891 15.7298C66.8391 15.8398 66.8291 16.0698 66.9491 16.0498C67.0391 16.0298 67.1891 15.8598 67.2691 15.8998C67.5691 16.0498 67.6491 16.5398 67.9991 16.5698C67.9291 16.8498 68.0391 16.8598 68.1091 16.9198C68.2391 17.0198 68.5791 16.8298 68.6691 17.0198C68.7591 17.1898 68.8291 17.3698 69.0691 17.3398C69.4991 17.2898 69.5591 17.6298 69.7891 17.7898C69.8491 17.8298 69.9991 17.8098 69.7891 18.0798C69.7391 18.1398 69.8091 18.1798 69.8991 18.1298C70.0891 18.0298 70.0191 18.1498 70.1091 18.1298C70.3591 18.0998 69.7491 18.7098 70.3291 18.4298L70.5591 18.7598C70.6291 18.8698 70.7191 18.9798 70.7691 19.0998C70.7891 19.1598 70.8891 19.1698 70.7191 19.3398C70.6091 19.4498 70.6391 19.5498 70.7691 19.5198C71.0991 19.4498 71.0291 19.6098 71.0891 19.6898C71.2491 19.9498 71.3791 20.2198 71.4591 20.4998C71.4991 20.6198 71.4191 20.7898 71.3991 20.9298C71.3791 21.0698 71.6391 21.1198 71.3991 21.3298C71.3791 21.3498 71.3991 21.3498 71.4091 21.3598C71.4691 21.3898 71.5891 21.3998 71.5891 21.4498C71.5891 21.5198 71.3491 21.6898 71.4691 21.6798C71.7191 21.6698 71.4791 21.7998 71.4691 21.8498C71.4391 22.0198 70.8691 22.2998 70.1391 22.5098C69.9791 22.5598 69.7991 22.5998 69.6691 22.6198C68.8491 22.7598 68.8891 22.7398 68.7791 22.5798C68.6491 22.3798 69.0191 21.9998 68.7691 21.8398C69.1091 21.5398 68.7891 21.4898 68.8091 21.3198C68.8291 21.1398 69.0691 20.8298 68.7791 20.7998C68.4891 20.7798 68.4591 20.6298 68.3891 20.4898C68.3291 20.3898 68.4191 20.2098 68.3891 20.0898C68.3491 19.9698 68.1991 19.9298 68.2091 19.7798C68.2191 19.6798 68.3891 19.4498 68.2091 19.4898C67.8391 19.5998 67.9691 19.2898 67.7391 19.3098C67.4191 19.3498 67.3891 19.0998 67.1391 19.0998C66.9991 19.1098 66.8791 19.1398 66.7991 19.0798C66.7691 19.0498 66.7291 19.0398 66.7791 18.8698C66.8291 18.6998 66.7691 18.6598 66.5891 18.8298C66.5191 18.8998 66.4491 18.9398 66.4691 18.8598C66.5691 18.4998 66.3991 18.5898 66.3191 18.5498C66.2691 18.5298 66.3391 18.1998 66.2491 18.3098C66.0991 18.4998 66.0891 18.3798 66.0191 18.3798C65.9691 18.3798 65.8891 18.4698 65.9691 18.1698C65.9891 18.0898 65.9591 18.0498 65.9191 18.1098C65.7191 18.4498 65.7091 18.2498 65.6391 18.2398C65.4591 18.2098 65.2891 18.1698 65.1191 18.0998C64.9691 18.0498 64.7791 18.4498 64.6691 18.2698C64.5391 18.6498 64.4791 18.4798 64.3991 18.4698C64.3391 18.4598 64.2791 18.3298 64.2091 18.2498C64.1391 18.1698 64.0791 18.2498 63.9991 18.0698C63.8991 17.8598 63.7991 18.0598 63.6991 18.0398C63.6391 18.0298 63.6291 18.2498 63.5091 17.8898C63.4891 17.8398 63.4691 17.8498 63.4691 17.9098C63.4691 18.3198 63.3891 18.2198 63.2791 18.0898C63.1191 17.8798 63.0491 18.0198 62.9491 18.0098C62.8691 18.0098 62.8191 18.0898 62.7391 18.0798C62.6791 18.0798 62.6791 18.1798 62.5391 18.0698C62.4291 17.9798 62.4991 18.1998 62.4691 18.2498C62.4491 18.2998 62.3891 18.3098 62.3491 18.3498L62.2291 18.4598C62.2291 18.4598 62.1591 18.5398 62.1191 18.5798C62.0791 18.6198 62.0691 18.6898 62.0091 18.7098C61.9491 18.7298 61.7791 18.6898 61.7391 18.7398C61.6091 18.8798 61.9491 19.1698 61.7791 19.2398C62.0491 19.3398 61.8391 19.3198 61.7791 19.3498C61.7291 19.3698 61.5991 19.4098 61.8891 19.4598C61.9691 19.4698 61.9591 19.4798 61.9791 19.4898C62.0291 19.5098 61.7491 19.5398 61.9491 19.5598C62.0891 19.5598 61.9591 19.5998 61.9891 19.6198C62.0291 19.6198 61.8191 19.7098 62.1791 19.6198C61.6791 19.8198 62.4591 19.5598 62.2391 19.6598C62.1691 19.6998 62.1491 19.7198 62.1091 19.7598C62.0891 19.7798 62.0291 19.8198 62.0591 19.8098C62.2991 19.7098 62.2991 19.6998 62.3291 19.7398C62.3391 19.7798 62.3291 19.8698 62.4091 19.8298C62.4291 19.8298 62.4891 19.7298 62.5191 19.6898C62.5291 19.6698 62.5391 19.6598 62.5391 19.6898C62.4891 19.8898 62.5191 19.8898 62.6191 19.7098C62.6391 19.6698 62.6391 19.7098 62.6591 19.6898C62.6891 19.6398 62.6991 19.7398 62.7391 19.5098C62.7391 19.4098 62.7291 19.6598 62.7491 19.8598C62.7691 20.0198 62.8191 20.1898 62.8291 20.1698V20.1998C62.7991 20.1098 62.8291 20.1698 62.8191 20.1498L62.8591 20.2098C62.9091 20.2798 62.9091 20.2598 62.8391 20.2098C62.8191 20.1998 62.8091 20.1898 62.7791 20.1698C62.7191 20.1398 62.6791 20.1198 62.6591 20.1098C62.6391 20.1098 62.6291 20.0998 62.5891 20.0798C62.5191 20.0498 62.6291 20.0998 62.7991 20.1598C62.8291 20.1698 62.8291 20.1598 62.7991 20.1498C62.3991 19.9998 62.5991 20.0698 62.6191 20.0398C62.6891 19.9298 62.2291 19.7598 62.3991 19.4898C62.4291 19.4398 62.3191 19.3798 62.4591 19.3498C62.7491 19.2898 62.2791 19.2598 62.3791 19.2098C62.4691 19.1698 62.2991 19.0998 62.4091 19.0698C62.8391 18.9398 62.7091 18.7898 62.5591 18.6698C62.4291 18.5598 62.2691 18.4398 62.4191 18.3298C62.5591 18.2298 62.5991 18.1198 62.6091 18.0198C62.6091 17.9398 62.5891 17.9598 62.6091 17.9198C62.6391 17.8598 62.6291 17.8098 62.6091 17.7698C62.5991 17.7698 62.7591 17.6298 62.3891 17.8298C62.3191 17.8698 62.3591 17.8398 62.3791 17.8298C62.4391 17.7798 62.5691 17.6698 62.5591 17.6598C62.5491 17.6498 62.4091 17.7498 62.3491 17.7898C62.3091 17.8198 62.3391 17.7798 62.1791 17.9398C62.0591 18.0598 62.1591 17.9598 62.2991 17.7798C62.5791 17.4198 62.7591 17.0098 62.6391 17.0598C62.5491 17.0998 62.5091 17.0298 62.4291 17.0398C62.3991 17.0398 62.3791 17.0098 62.3091 17.1998C62.2491 17.3698 62.2391 17.2998 62.2291 17.1698C62.2091 16.9698 62.1391 16.9498 62.0991 17.1698C62.0891 17.2498 62.0691 17.2498 62.0591 17.2498C61.9091 17.2698 61.6991 17.3098 61.5091 17.3498C61.4591 17.3598 61.4291 17.4398 61.3191 17.1798C61.3691 17.5098 61.2991 17.4198 61.2491 17.3998C61.1791 17.3798 61.0591 17.2698 60.9791 17.2598C60.8891 17.2598 60.8091 17.3098 60.7891 17.5298C60.7691 17.7298 60.5891 17.4798 60.5891 17.7598C60.5891 17.8098 60.4991 17.6398 60.4791 17.6698C60.4091 17.7698 60.1991 17.5098 60.2791 17.9698C60.2791 18.0098 60.2691 18.0098 60.2491 17.9798C59.9791 17.5898 59.9991 17.9498 59.9391 18.1098C59.8791 18.2698 59.6391 17.9698 59.5291 18.0198C59.4091 18.0798 59.3391 18.2598 59.1491 18.1598C58.8191 17.9698 58.6891 18.2098 58.4791 18.2798C58.2591 18.3498 58.0791 18.4698 57.9091 18.6198C57.8391 18.6898 57.8491 18.8698 57.7891 18.9498C57.7191 19.0398 57.6291 19.0698 57.5491 19.1298C57.4691 19.1898 57.3991 19.2498 57.3191 19.2998C57.2791 19.3198 57.3291 19.4598 57.1191 19.2598C57.0791 19.2198 57.0391 19.2198 57.0591 19.2598C57.1991 19.5498 57.1291 19.5798 56.8791 19.4298C56.8091 19.3898 56.8391 19.4698 56.7891 19.4598C56.6591 19.4298 56.7891 19.6698 56.8091 19.7798C56.8091 19.8698 56.5691 19.7398 56.8491 20.0598C56.8891 20.0998 56.8691 20.1298 56.8191 20.0998C56.1791 19.7298 57.0291 20.5798 56.4491 20.2698C56.7591 20.5498 56.3491 20.3098 56.3791 20.3798C56.4191 20.4698 56.4991 20.5698 56.4591 20.6098C56.4291 20.6498 56.3891 20.6798 56.3891 20.7298C56.3891 20.8198 56.1991 20.8298 56.4691 21.0298C56.5591 21.0998 56.6091 21.1598 56.2991 21.0698C56.2391 21.0498 56.2491 21.0698 56.2591 21.0898C56.3591 21.2098 55.9791 21.1898 55.3891 21.0798C55.0491 21.0098 54.6291 20.8998 54.2891 20.7898C54.1191 20.7398 54.0291 20.6398 53.9191 20.5598C53.7291 20.4198 53.4591 20.2398 53.3991 20.1098C53.3291 19.9598 53.4591 19.8598 53.5191 19.7198V19.7098Z" fill="#231815"/>
</g>
<defs>
<clipPath id="clip0_361_1860">
<rect width="131.08" height="111.17" fill="white"/>
</clipPath>
</defs>
</svg>
