<svg width="123" height="130" viewBox="0 0 123 130" fill="none" xmlns="http://www.w3.org/2000/svg">
<g clip-path="url(#clip0_361_1921)">
<path d="M26.8197 34.8297C27.1897 36.2297 26.8497 37.8096 27.1397 39.4096C27.4297 41.0096 27.5797 42.6496 27.7597 44.2696C27.8497 45.0896 28.0297 45.8496 28.2797 46.6297C28.5197 47.3797 28.2997 48.2996 28.8197 48.9796C28.8697 49.0396 28.8497 49.1996 28.8697 49.3097C29.1097 51.2696 29.5397 53.2496 29.5497 55.1696C29.5597 57.4096 30.0197 59.5696 30.1897 61.7796C31.1397 65.2896 31.2197 68.9396 31.7397 72.5196C31.8997 73.6396 32.1397 74.7497 31.9797 75.9397C31.8397 76.9597 32.4597 78.0996 32.1297 79.1796C32.0997 79.2696 32.2297 79.4596 32.2697 79.6096C32.3697 79.9697 32.5297 80.3396 32.5297 80.6796C32.5297 82.7696 32.5297 82.7596 32.9697 84.4496C33.0197 84.6496 32.8597 84.9296 32.8897 85.1597C32.9797 86.1096 33.0697 87.0696 33.2297 87.9996C33.3797 88.8496 33.2297 89.7796 33.7597 90.5396C33.8697 90.6997 33.8397 91.0797 33.8797 91.3596C33.9897 92.2496 34.0797 93.1497 34.2197 94.0396C34.3897 95.0497 34.3197 96.1197 34.8097 97.0696C35.0197 97.4896 34.6797 98.1696 34.8097 98.4196C35.0397 98.8796 35.1397 99.3196 35.1597 99.7997C35.1897 100.27 35.0697 100.74 35.1297 101.2C35.1797 101.6 35.4197 101.97 35.4797 102.38C35.5597 102.88 35.5897 103.4 35.6397 103.92L35.6597 104.11C35.6597 104.11 35.6597 104.15 35.6697 104.16C35.6897 104.19 35.7097 104.21 35.7597 104.2C35.8097 104.18 35.8397 104.16 35.8697 104.15L35.9397 104.08H35.9497V104.07L36.0797 104.04C37.0797 103.86 38.0897 103.77 39.0797 103.57C39.8497 103.42 40.5697 103.49 41.3197 103.48C42.0597 103.47 42.8297 103.05 43.5597 103.38C43.5897 103.39 43.6697 103.36 43.7197 103.36C45.2497 103.21 46.7797 103.1 48.2997 102.9L56.1597 101.74C56.8997 101.63 57.6597 101.37 58.4097 101.62C58.5697 101.67 58.8697 101.52 59.0697 101.54C59.8197 101.63 60.2997 100.87 61.0397 101.08C61.6997 101.26 62.3397 101.01 62.9797 100.94C63.7097 100.86 64.4297 100.71 65.1497 100.63C65.6497 100.57 66.0997 100.44 66.4797 100.19C67.0897 100.51 67.8297 100.12 68.5097 100.21C68.9497 100.27 69.6297 100.29 69.9197 100.11C70.5597 99.6996 71.2697 99.7396 71.9497 99.6096C72.9597 99.4097 73.9997 99.3797 74.9697 98.9397C75.3797 98.7496 75.9597 98.7396 76.4597 98.6996C76.9297 98.6696 77.3997 98.7596 77.8597 98.6996C78.7197 98.5996 79.5597 98.4596 80.3797 98.1197C81.0897 97.8196 82.0397 98.0596 82.7097 97.5196C82.7997 97.4496 83.0397 97.4296 83.1997 97.4397C84.0297 97.4996 84.7697 97.4896 85.6297 97.1096C86.3197 96.8096 87.2697 96.8196 88.1097 96.6996C88.9997 96.5696 89.8997 96.3496 90.7797 96.3297C91.0597 96.3297 91.2497 96.1697 91.4597 96.0497C91.5597 95.9897 91.6697 95.9396 91.7997 95.9196C91.8497 95.9196 91.9497 95.8997 91.9797 95.9196C91.9997 95.9496 92.0197 95.9797 92.0397 96.0097C92.1697 96.1897 92.3297 96.0596 92.4497 96.0596H92.4697C92.4597 95.9196 92.3697 95.7796 92.4397 95.6696C92.4597 95.6296 92.4897 95.6096 92.4797 95.3796V94.8496C92.4697 94.4996 92.4497 94.1396 92.4297 93.7896C92.3797 93.0797 92.2897 92.3796 92.1997 91.6796C92.0097 90.2796 91.7897 88.8697 91.6997 87.4596C91.6197 86.2696 91.1297 85.0596 91.4997 83.8796C91.0297 83.0896 91.2297 82.0196 90.8797 81.2496C90.6597 80.7596 90.6197 80.3096 90.5597 79.8496L89.4497 70.6197C89.1797 68.5997 88.8097 66.5896 88.5197 64.5696C88.4397 63.9996 88.3297 63.4496 88.4897 62.8097C88.6097 62.3396 88.5197 61.5096 88.1497 60.9396C88.0797 60.8296 87.9997 60.5896 88.0297 60.4996C88.4397 59.2796 87.7397 58.2097 87.5797 57.0797C87.2697 54.8697 87.3597 52.6697 87.0597 50.4697C86.9997 49.9997 87.0897 49.4296 86.6897 49.1096C86.9497 48.7097 86.7697 48.4596 86.5797 48.0296C86.3797 47.5896 86.2797 46.8296 86.3997 46.4096C86.5697 45.8296 86.4297 45.3397 86.3997 44.8097C86.3597 44.2497 86.2597 43.6896 86.2097 43.1297L85.6097 36.0196C85.5697 35.5597 85.6597 35.0896 85.6697 34.6196C85.6697 34.1496 85.4497 33.6696 85.7097 33.1896C85.8097 33.0096 85.6597 32.5496 85.6297 32.2096C85.4897 31.0296 85.5297 29.7396 85.1597 28.7196C84.7897 27.7096 84.9597 26.5496 84.3997 25.6396C84.2397 25.3896 84.3097 24.8696 84.2397 24.4896C84.1197 23.8596 84.0697 23.1096 84.0297 22.5596C84.0297 22.3196 83.9997 22.0196 83.8897 21.9196C83.7697 21.9796 83.6497 22.0596 83.5497 22.1596C83.5497 21.9996 83.4497 21.9596 83.3397 21.9596C83.2597 21.9596 83.2697 21.9596 83.1197 21.9896L82.6397 22.0796C82.1797 22.1696 81.6097 22.0796 81.2797 22.4996C81.2397 22.5496 81.0797 22.5796 80.9797 22.5796C80.3997 22.5796 79.8597 22.4496 79.2397 22.6196C78.7197 22.7596 78.3297 23.0396 77.7497 23.1296C75.6697 23.4496 73.5697 23.3796 71.5097 23.8796C70.8997 23.6996 70.2497 23.8496 69.6097 23.9496C68.4697 24.1196 67.4597 24.6296 66.2797 24.7396C65.1697 24.8396 63.9697 24.9397 62.9597 25.2896C61.2097 25.8997 59.3897 25.9896 57.6097 26.3396C57.1497 26.4296 56.6497 26.6396 56.1797 26.3696C56.0697 26.3096 55.5697 26.4197 55.4497 26.5396C55.1897 26.7997 54.8297 26.7196 54.5497 26.8396C53.7797 27.1896 52.8497 26.4696 52.1497 27.2196L49.4797 27.6496C48.5897 27.7896 47.6997 27.9496 46.8097 28.0796C46.3897 28.1396 45.9997 28.2796 45.5397 28.1196C45.2297 28.0196 44.5397 28.0996 44.2797 28.2796C43.6497 28.7097 42.9397 28.6896 42.2597 28.8096C40.2097 29.1696 38.1497 29.5096 36.0897 29.7996C35.1897 29.9296 34.2697 29.9496 33.3597 30.0196C32.4397 30.0896 31.5297 30.4796 30.5897 30.3196C30.5197 30.3096 30.4297 30.3396 30.3597 30.3596C30.0097 30.4597 29.6597 30.6296 29.2997 30.6696C28.8397 30.7196 28.1797 30.5396 27.9397 30.6996C27.4597 31.0196 27.0697 30.8196 26.6797 30.8496C25.5297 30.9596 24.7297 30.4496 24.7297 29.6696C24.7297 29.4996 24.8397 29.2996 24.9797 29.1396C25.8697 28.1596 25.8897 28.1996 27.5197 27.8896C29.5897 27.4996 31.6997 27.6396 33.7597 27.1296C35.1897 27.3296 36.5797 26.8196 37.9997 26.6896C39.4697 26.5496 40.9997 26.6596 42.3897 26.1796C43.7697 25.7096 45.1697 25.5396 46.5697 25.3196C47.6397 25.1496 48.7297 25.1496 49.7997 25.0096C50.9197 24.8696 52.0297 24.5796 53.1397 24.5096C53.8297 24.4696 54.5797 24.6296 55.1897 24.3596C56.5297 23.7796 58.0197 23.8496 59.3597 23.4496C61.2197 22.8896 63.1697 22.7496 65.0197 22.2796C66.0197 22.0296 67.0097 21.7596 68.0297 21.6096C68.4997 21.5396 68.9397 21.4597 69.4597 21.5396C69.9997 21.6296 70.7397 21.5096 71.3297 21.1696C71.5797 21.0296 71.9997 20.8896 72.2397 20.9396C73.2297 21.1396 74.1897 20.8396 75.1497 20.6696C75.7597 20.5696 76.4897 20.7796 76.8297 20.5896C77.4097 20.2596 77.9797 20.2696 78.5497 20.1496C78.9497 20.0596 79.3997 19.8796 79.8097 20.1196C79.9197 20.1796 80.3197 20.1396 80.4297 20.0596C81.0497 19.5596 81.8697 19.6196 82.6097 19.4896L86.1797 18.8896L86.6897 23.3396C86.8397 24.8196 87.4397 26.1896 87.4497 27.7096C87.9497 28.5696 87.8997 29.5996 88.0097 30.5696C88.0897 31.3096 88.0497 32.0597 88.0597 32.8097C88.0697 33.5597 88.2297 34.2696 88.1497 35.0696C88.0497 36.0596 88.3797 37.1797 88.4597 38.2397C88.5097 38.8197 88.7997 39.4396 88.4897 39.9996C88.4497 40.0796 88.4897 40.3396 88.5497 40.4296C89.0397 41.1396 89.0397 42.1096 88.9697 42.8097C88.8497 43.9396 89.0897 44.9896 89.1797 46.0696C89.2497 46.9696 89.4097 47.8596 89.4797 48.7596C89.5297 49.3996 89.6897 50.0196 89.5997 50.7096C89.5297 51.2396 89.8297 51.8996 89.9297 52.5096C90.0297 53.1196 90.0797 53.7397 90.1497 54.3596L90.3897 56.3696L90.6297 58.3797C90.7197 59.1096 90.8297 59.8297 90.8797 60.5597C90.9197 61.2496 90.8497 61.9397 90.9097 62.6297C91.0897 64.5496 91.7397 66.3896 91.8097 68.3396C92.1597 68.8296 92.0097 69.3597 92.0197 69.9097C92.0197 70.4197 91.9797 71.0196 92.3297 71.4896C92.4297 71.6196 92.4397 71.8896 92.4897 72.0896C92.5897 72.5496 92.3597 72.9896 92.6297 73.5196C92.8197 73.8896 92.7497 74.5096 92.8397 74.9996C92.9297 75.5196 92.7997 76.1396 93.2097 76.5396C92.7797 77.5297 93.7097 78.3097 93.5697 79.2597C93.5297 79.5597 93.5297 79.8797 93.5197 80.1897C93.5197 80.3497 93.4597 80.5297 93.5097 80.6497C94.2897 83.0396 94.1897 85.5897 94.6197 88.0396C94.6697 88.3397 94.8097 88.6196 94.8997 88.9196C94.9397 89.0596 94.9697 89.2197 94.9697 89.3697C94.9297 90.7496 94.9397 90.7397 95.2897 91.9797C95.3797 92.2896 95.3797 92.6396 95.4397 92.9697C95.5197 93.3896 95.5597 93.8196 95.6197 94.2396C95.6497 94.4496 95.6897 94.6596 95.7397 94.8796L95.8197 95.1996C95.8697 95.4096 95.9197 95.6196 95.9697 95.8396C96.2297 96.8696 96.2697 97.9896 96.2597 98.9196C95.4597 98.9496 94.6597 98.9697 93.8797 98.9996L92.7697 99.0497H92.4997H92.3397H92.0297C91.6097 99.0497 91.1797 99.0696 90.7397 99.1497C88.5197 99.5296 86.2897 99.8297 84.0597 100.17C83.7797 100.21 83.3797 100.19 83.2397 100.31C82.6597 100.8 82.1297 101.15 81.4197 100.57C81.3897 100.54 81.1497 100.57 81.1097 100.62C80.6297 101.12 79.8797 101.02 79.2597 101.1C76.8897 101.41 74.6397 102.22 72.2497 102.41C71.8697 102.44 71.3597 102.62 71.1197 102.52C70.5997 102.3 70.4397 102.8 70.0097 102.76C69.6497 102.73 69.1697 102.97 68.8597 102.9C67.7497 102.63 66.5997 102.94 65.6297 103.23C64.7297 103.5 63.7997 103.79 62.9397 103.78C61.2597 103.74 59.6597 104.11 58.0197 104.33C56.3497 104.55 54.6697 104.81 53.0097 105.09C52.3297 105.2 51.5697 105.14 50.9897 105.61C50.8697 105.71 50.5597 105.71 50.3397 105.71C49.8197 105.72 49.2897 105.66 48.7697 105.73C48.2597 105.81 47.7697 106.03 47.2697 106.17C46.8597 106.28 46.4597 106.29 46.0697 106.55C45.7797 106.74 45.2097 106.71 44.6897 106.58C43.6597 106.33 42.5797 106.09 41.3397 106.34C40.2397 106.57 39.1097 106.67 37.9997 106.86C37.5297 106.94 37.0897 106.97 36.6197 107.24C36.5497 107.29 36.3197 107.36 36.0797 107.41C35.8497 107.46 35.5897 107.5 35.3297 107.53C34.8097 107.59 34.2997 107.62 33.8997 107.62C33.6997 107.62 33.5097 107.62 33.3197 107.62C33.2897 106.39 33.1597 105.45 32.8297 104.41C32.7197 104.13 32.6697 103.78 32.6297 103.46L31.8997 97.5896C31.8397 97.1196 31.7097 96.6296 31.9397 96.2096C31.5697 95.9397 31.6197 95.4296 31.5897 95.0196C31.5497 94.3896 31.6197 93.7496 31.5697 93.1197C31.5097 92.3697 31.3897 91.6396 31.0997 90.9196C30.8297 90.2596 31.0297 89.3896 30.6597 88.6796C30.5897 88.5497 30.7397 88.2296 30.6997 88.0296C30.5297 87.1897 30.7097 86.2297 30.1697 85.4996C30.1197 85.4397 30.0997 85.2597 30.1297 85.1796C30.4697 84.1497 29.9997 83.2196 29.7597 82.2696C29.4997 81.2296 29.7597 80.2197 29.6197 79.1897C29.4597 78.0197 29.1697 76.8096 29.2097 75.6696C29.2797 73.7096 28.8897 71.8196 28.6797 69.8997C28.4697 67.9397 28.2197 65.9796 27.9497 64.0296C27.8297 63.1796 27.5597 62.3596 27.4197 61.5096C27.2597 60.5696 27.1697 59.6096 27.0597 58.6596L26.7297 55.9796C26.6897 55.5597 26.4997 55.1096 26.7297 54.7096C26.7797 54.6296 26.7697 54.3696 26.7097 54.2696C26.2997 53.5396 26.2297 52.7997 26.4097 51.9897C26.4597 51.7597 26.3497 51.4396 26.3597 51.1696C26.3797 50.4196 26.0397 49.8296 25.8697 49.1596C25.7097 48.5396 25.9097 47.7996 25.4197 47.2996C25.3497 47.2296 25.3097 46.9296 25.3597 46.8196C25.9197 45.4796 24.5497 44.1896 25.0597 42.8696C24.5897 42.4196 24.9897 41.8496 24.8797 41.4596C24.7197 40.8996 24.5397 40.3596 24.4697 39.7596C24.4097 39.1996 24.3597 38.6397 24.2597 38.0797C24.0797 37.0697 24.1397 36.0096 23.6797 35.0396C23.5297 34.7097 23.3697 34.0796 23.6497 33.6297C23.6997 33.5497 23.6597 33.3296 23.6297 33.1796C23.3697 32.0796 23.5497 30.6696 24.1097 30.3196C24.4397 30.1096 24.8697 30.0796 25.2397 30.1596C25.4297 30.1996 25.5997 30.6696 25.7697 30.9696C26.0597 31.4796 26.4397 31.9496 26.5997 32.5196C26.7997 33.1996 26.8097 33.9596 26.9197 34.8696L26.8197 34.8297Z" fill="#231815"/>
<path d="M27.5603 44.57C27.8403 44.33 28.2603 44.8 28.6003 44.66C28.9403 44.52 29.3103 44.51 29.6703 44.48C29.8503 44.46 30.0103 44.35 30.1603 44.17C30.3103 44 30.5503 44.3 30.6403 43.85C30.6403 43.81 30.6903 43.84 30.7103 43.83C31.1403 43.76 31.5503 43.51 32.0103 43.67C32.5403 43.85 32.9903 43.6 33.4903 43.62C34.2003 43 35.0503 43.24 35.8203 43.03C36.0603 42.97 36.3003 42.83 36.6003 43.09C36.8603 43.31 37.0503 42.81 37.3503 43.23C37.3703 43.26 37.4003 43.16 37.4303 43.13C37.5003 43.07 37.5703 42.94 37.6503 42.97C38.1403 43.15 38.1403 43.15 38.4803 42.87C38.5203 42.84 38.6103 43.02 38.6603 43.01C38.8703 43.01 39.0903 43 39.2903 42.92C39.4703 42.85 39.7103 43.08 39.8203 42.63C39.8403 42.53 39.9403 42.6 40.0003 42.59C40.2003 42.56 40.4003 42.55 40.5903 42.49C40.8103 42.42 41.0703 42.57 41.2303 42.18C41.3003 42.01 41.5103 42.4 41.5503 42.31C41.6303 42.13 41.7203 42.07 41.8303 42.08C41.9403 42.09 42.0603 42.25 42.1603 42.23C42.2503 42.22 42.3103 42.01 42.3903 41.99C42.6103 41.92 42.8703 42.06 43.0403 41.83C43.2203 41.59 43.4403 41.61 43.6503 41.55C43.8703 41.49 44.1003 41.51 44.3103 41.43C44.4803 41.36 44.6603 41.52 44.8303 41.59C45.0103 41.66 45.1403 41.33 45.3503 41.74C45.3503 41.76 45.3703 41.74 45.3903 41.74C45.7403 41.76 46.0903 41.83 46.4303 41.8C47.0103 41.74 47.5903 41.62 48.1703 41.54C48.3303 41.52 48.4803 41.35 48.6903 41.67C48.7303 41.74 48.7903 41.62 48.8403 41.67C49.0303 41.84 49.0503 41.15 49.2503 41.44C49.4303 41.69 49.5503 41.52 49.7003 41.52C49.8603 41.52 50.0203 41.46 50.1803 41.46C50.2903 41.46 50.3803 41.38 50.4403 41.18C50.6303 41.56 50.7603 41.27 50.9303 41.43C51.0403 41.54 51.2103 41.64 51.2503 41.49C51.3503 41.16 51.5303 41.28 51.6703 41.22C51.8903 41.13 52.1303 41.22 52.3103 40.9C52.3803 40.76 52.5203 40.81 52.6403 40.84C52.7503 40.86 52.8703 41 52.9803 41C53.1703 41 53.3603 40.96 53.5103 40.71C53.6403 40.5 53.9003 40.84 53.9903 40.39C54.0003 40.33 54.0603 40.34 54.1003 40.37C54.3103 40.52 54.4803 40.59 54.6403 40.32C54.7703 40.1 55.0003 40.22 55.1803 40.19C55.3803 40.16 55.5703 40.05 55.7703 40.13C55.9003 40.18 55.8703 39.61 56.0803 39.94C56.1903 40.12 56.3303 40 56.4503 39.99C56.5703 39.99 56.6903 39.88 56.8203 39.95C57.5103 40.31 58.0703 39.83 58.7103 39.88C58.9803 39.9 59.2003 39.51 59.5303 39.97C59.6503 39.57 59.9303 39.85 60.0703 39.57C60.1603 39.39 60.2603 39.39 60.3603 39.37C61.0303 39.25 61.7203 39.17 62.3903 39.03C62.8303 38.93 63.2503 38.73 63.6903 38.61C63.8103 38.58 63.9303 38.51 64.1003 38.72C64.2303 38.87 64.4103 38.86 64.5003 38.54C64.5203 38.48 64.5603 38.42 64.5903 38.46C64.9303 38.96 65.0903 38.36 65.3303 38.3C65.8103 38.18 66.3403 38.44 66.8203 38.33C66.9203 38.31 67.0703 38.45 67.0903 38.07C67.2203 38.36 67.2503 38.21 67.3303 38.05C67.4103 37.89 67.5703 37.85 67.6903 38.01C67.8503 38.23 67.9503 38.12 68.0603 38.13C68.1903 38.13 68.3003 38.08 68.4303 38.08C68.9603 38.07 69.4903 38.06 70.0203 38.07C70.1203 38.07 70.2503 38.19 70.3603 38.24C70.4703 38.29 70.5503 38.1 70.7003 38.39C70.7503 38.5 70.8503 38.39 70.9203 38.39C71.1803 38.35 71.4903 38.5 71.6803 38.21C71.8703 37.93 72.1603 38.19 72.3003 37.71C72.3403 37.58 72.4703 37.69 72.5503 37.65C72.8803 37.49 73.2903 37.8 73.5503 37.26C73.7203 37.54 73.8603 37.46 74.0003 37.42C74.1003 37.39 74.2503 37.54 74.2803 37.18C74.2803 37.14 74.3203 37.13 74.3403 37.14C74.4803 37.2 74.6203 37.4 74.7503 37.32C74.8603 37.25 74.9203 37.02 75.0503 37.01C75.5103 36.95 76.0203 37.28 76.4603 37.04C76.6303 37.29 76.7703 37.22 76.9103 37.21C77.1603 37.18 77.3403 36.8 77.6103 36.84C77.8703 36.88 78.1403 36.93 78.3403 36.71C78.6903 36.33 79.1103 36.46 79.5003 36.33C79.6003 36.3 79.6903 36.16 79.8403 36.47C79.8703 36.55 79.9803 36.49 79.9903 36.39C80.0203 36.17 80.1203 36.29 80.1703 36.2C80.3103 35.95 80.6203 36.78 80.7003 36.12L81.2903 36.03C81.4903 36 81.6803 35.95 81.8803 35.94C81.9703 35.94 82.0503 35.85 82.1803 36.06C82.2703 36.2 82.4203 36.2 82.4603 36.06C82.5603 35.71 82.7303 35.82 82.8803 35.79C83.3303 35.69 83.7803 35.61 84.2403 35.57C84.4403 35.55 84.6603 35.65 84.8703 35.69C85.0803 35.73 85.2603 35.47 85.5003 35.74C85.5203 35.76 85.5403 35.74 85.5503 35.74C85.6203 35.68 85.6903 35.56 85.7703 35.57C85.8803 35.57 86.0503 35.84 86.0903 35.71C86.1703 35.45 86.2803 35.71 86.3803 35.71C86.6403 35.75 86.9003 36.34 86.9903 37.1C87.0103 37.27 87.0103 37.45 86.9903 37.59C86.8903 38.44 86.8903 38.4 86.5303 38.51C86.0803 38.64 85.5603 38.25 85.1203 38.49C84.7503 38.12 84.4803 38.44 84.1503 38.4C83.8103 38.36 83.4303 38.06 83.1603 38.36C82.8903 38.65 82.5703 38.65 82.2603 38.69C82.0203 38.72 81.7603 38.59 81.5203 38.6C81.2703 38.6 81.0403 38.75 80.7803 38.68C80.6203 38.64 80.4203 38.39 80.3003 38.57C80.0503 38.97 79.6803 38.72 79.4103 38.95C79.0303 39.27 78.5803 39.17 78.1903 39.4C77.9803 39.52 77.7703 39.66 77.5503 39.69C77.4503 39.7 77.3503 39.73 77.2103 39.58C77.0703 39.43 76.9103 39.45 76.8003 39.71C76.7603 39.82 76.6703 39.9 76.6103 39.83C76.3503 39.51 76.1503 39.69 75.9403 39.74C75.8103 39.77 75.6003 39.46 75.5503 39.61C75.4503 39.86 75.3103 39.78 75.1903 39.83C75.1003 39.86 75.0203 39.99 74.8903 39.7C74.8603 39.62 74.7603 39.61 74.7503 39.69C74.6603 40.11 74.4603 39.94 74.2903 39.98C73.9003 40.07 73.5103 40.13 73.1103 40.17C72.7803 40.2 72.5403 40.67 72.1803 40.56C72.0403 40.98 71.7903 40.85 71.5803 40.88C71.4203 40.9 71.2303 40.79 71.0603 40.74C70.8903 40.69 70.7403 40.79 70.5403 40.64C70.2903 40.46 70.0703 40.69 69.8403 40.69C69.7103 40.69 69.6003 40.93 69.4303 40.58C69.4103 40.53 69.3503 40.55 69.3403 40.6C69.2403 41.02 69.0103 40.94 68.8403 40.82C68.5603 40.61 68.3403 40.76 68.1003 40.76C67.9003 40.76 67.7103 40.84 67.5103 40.84C67.3703 40.84 67.2403 40.94 67.0703 40.8C66.9403 40.69 66.8203 40.93 66.6903 40.98C66.5603 41.03 66.4203 41.03 66.2903 41.05C66.1403 41.07 65.9903 41.1 65.8503 41.12C65.7003 41.14 65.5503 41.17 65.4103 41.19C65.2503 41.22 65.0903 41.27 64.9303 41.26C64.7703 41.25 64.6003 41.11 64.4503 41.12C64.0203 41.14 63.6703 41.63 63.2303 41.54C63.1603 41.84 63.0203 41.65 62.8903 41.62C62.7703 41.59 62.6203 41.49 62.5603 41.8C62.5403 41.89 62.4803 41.88 62.4403 41.91C62.3403 41.97 62.2103 41.71 62.1203 41.93C62.0603 42.09 61.9003 41.97 61.8003 42.02C61.6903 42.07 61.5303 41.89 61.4903 42.26C61.2003 41.76 61.1403 42.61 60.9003 42.39C60.8203 42.32 60.7503 42.3 60.6703 42.26C60.6303 42.24 60.5803 42.18 60.5603 42.21C60.1003 42.78 59.4903 42.48 58.9703 42.7C58.9103 42.73 58.8603 42.84 58.8003 42.9C58.7703 42.93 58.7403 42.95 58.7003 42.93C58.3703 42.78 58.3703 42.79 58.1303 43.03C58.0703 43.09 57.9903 43.06 57.9203 43.09C57.7403 43.18 57.5403 43.11 57.3903 43.37C57.2303 43.63 56.9603 43.26 56.7303 43.11C56.5303 42.98 56.3203 42.84 56.1303 42.89C55.6503 43.01 55.1503 43.06 54.6603 43.14C54.6003 43.14 54.5003 43.08 54.4803 43.18C54.4003 43.6 54.3203 43.88 54.0803 43.23C54.0703 43.2 54.0203 43.21 54.0103 43.25C53.9603 43.69 53.7703 43.51 53.6303 43.52C53.1003 43.56 52.6603 44.1 52.1103 44.01C52.0203 44 51.9203 44.12 51.8503 43.99C51.7003 43.72 51.7203 44.19 51.6203 44.1C51.5303 44.03 51.4403 44.21 51.3603 44.1C51.0603 43.71 50.8203 43.88 50.6303 44.06C50.4503 44.22 50.2603 44.41 50.0503 44.29C49.6403 44.06 49.3103 44.25 48.9403 44.27C48.5703 44.3 48.2003 44.36 47.8303 44.45C47.6803 44.48 47.4903 44.34 47.4103 44.73C47.3903 44.81 47.3203 44.78 47.2703 44.76C47.1503 44.72 47.0103 44.59 46.9003 44.61C46.7903 44.63 46.7003 44.8 46.5903 44.87C46.5103 44.93 46.4103 44.9 46.3503 45.11C46.3003 45.27 46.1603 45.17 46.0203 44.99C45.7403 44.63 45.4503 44.27 45.1903 44.38C44.9603 44.48 44.7003 44.46 44.4603 44.52C44.3603 44.55 44.2603 44.52 44.1803 44.74C44.1103 44.92 43.9303 44.88 43.7903 44.77C43.5703 44.61 43.3903 44.61 43.2403 44.86C43.1903 44.95 43.1103 44.96 43.0403 44.97C42.6103 45.05 42.1803 45.11 41.7503 45.18C41.6503 45.2 41.5503 45.29 41.4203 45.02C41.4003 45.36 41.2803 45.27 41.1803 45.26C41.0403 45.25 40.8803 45.12 40.7303 45.12C40.5603 45.12 40.4003 45.17 40.2703 45.39C40.1503 45.6 39.9203 45.33 39.8003 45.62C39.7803 45.68 39.6803 45.5 39.6403 45.52C39.4603 45.62 39.2103 45.35 39.1103 45.82C39.1103 45.86 39.0603 45.86 39.0403 45.83C38.7503 45.41 38.5903 45.79 38.4003 45.94C38.1903 46.11 37.9203 45.77 37.6903 45.81C37.4303 45.86 37.1903 46.04 36.9103 45.9C36.4403 45.66 36.0403 45.88 35.6203 45.91C35.1803 45.94 34.7503 46.02 34.3303 46.12C34.1503 46.16 33.9903 46.36 33.8003 46.42C33.6003 46.49 33.3803 46.5 33.1703 46.53C32.9703 46.56 32.7803 46.61 32.5803 46.62C32.4903 46.62 32.4103 46.77 32.2803 46.5C32.2503 46.44 32.1903 46.43 32.1803 46.48C32.0603 46.82 31.8903 46.82 31.6803 46.57C31.6203 46.5 31.5603 46.58 31.4903 46.55C31.3103 46.46 31.2103 46.75 31.0803 46.86C30.9503 46.96 30.7503 46.7 30.7003 47.14C30.7003 47.2 30.6303 47.21 30.6003 47.16C30.2103 46.49 30.0803 47.72 29.7103 47.11C29.6703 47.53 29.4803 47.09 29.4003 47.16C29.2903 47.27 29.1803 47.4 29.0503 47.41C28.9303 47.42 28.8003 47.42 28.6803 47.47C28.4603 47.56 28.2103 47.41 28.0403 47.77C27.9803 47.89 27.8503 47.99 27.7103 47.68C27.6803 47.63 27.6403 47.64 27.6103 47.66C27.3803 47.82 27.0303 47.52 26.8703 46.94C26.7803 46.6 26.7203 46.17 26.6903 45.81C26.6803 45.63 26.7603 45.5 26.8103 45.36C26.8903 45.12 26.9603 44.79 27.0703 44.68C27.2003 44.55 27.3803 44.6 27.5803 44.57H27.5603Z" fill="#231815"/>
<path d="M23.179 27.3501C23.039 26.5201 23.649 25.7201 23.699 24.8301C23.739 23.9201 23.989 23.0301 24.229 22.1601C24.359 21.7201 24.399 21.2801 24.379 20.8101C24.379 20.3501 24.839 19.9801 24.579 19.4501C24.559 19.4001 24.619 19.3301 24.639 19.2701C25.029 18.2301 25.329 17.0901 26.039 16.2301C26.849 15.2301 27.359 14.0901 28.159 13.1301C28.949 11.1701 30.659 9.86012 32.149 8.48012C32.599 8.02012 33.069 7.57012 33.769 7.41012C34.349 7.27012 34.659 6.53012 35.389 6.58012C35.449 6.58012 35.489 6.44012 35.549 6.37012C35.689 6.21012 35.809 5.99012 35.999 5.93012C37.129 5.57012 37.109 5.56012 37.849 4.90012C37.939 4.82012 38.149 4.93012 38.269 4.88012C38.749 4.67012 39.239 4.45012 39.689 4.19012C40.109 3.97012 40.669 4.02012 40.919 3.44012C40.969 3.31012 41.189 3.31012 41.339 3.25012C41.799 3.06012 42.289 2.93012 42.739 2.73012C43.259 2.50012 43.859 2.48012 44.289 1.99012C44.479 1.77012 44.939 2.08012 45.049 1.95012C45.259 1.71012 45.489 1.60012 45.749 1.56012C46.009 1.51012 46.289 1.61012 46.539 1.56012C46.759 1.51012 46.919 1.27012 47.139 1.21012C47.679 1.05012 48.289 1.09012 48.749 0.780119C49.249 0.480119 49.769 0.430119 50.299 0.320119C50.849 0.200119 51.409 0.140119 51.949 0.0301192C52.369 -0.0598808 52.779 0.0701192 53.189 0.110119C53.599 0.160119 54.019 -0.209881 54.429 0.190119C54.449 0.210119 54.489 0.190119 54.519 0.190119C55.359 0.200119 56.199 0.260119 57.039 0.220119C57.759 0.220119 58.489 0.200119 59.209 0.180119C59.929 0.160119 60.659 0.210119 61.389 0.230119C61.799 0.230119 62.239 0.130119 62.599 0.530119C62.669 0.610119 62.859 0.520119 62.959 0.580119C63.339 0.820119 63.729 0.170119 64.079 0.520119C64.389 0.840119 64.769 0.750119 65.109 0.830119C65.499 0.920119 65.909 0.940119 66.299 1.03012C66.569 1.10012 66.819 1.10012 67.089 0.960119C67.299 1.43012 67.789 1.25012 68.089 1.52012C68.289 1.70012 68.599 1.93012 68.799 1.84012C69.249 1.65012 69.579 1.90012 69.959 1.97012C70.509 2.11012 70.999 2.43012 71.639 2.35012C71.909 2.31012 72.179 2.53012 72.419 2.67012C72.639 2.81012 72.809 3.06012 73.029 3.18012C73.459 3.40012 73.869 3.63012 74.399 3.66012C74.869 3.68012 75.109 4.28012 75.689 4.13012C75.769 4.11012 75.869 4.20012 75.929 4.28012C76.229 4.67012 76.499 4.99012 77.059 5.09012C77.519 5.17012 77.849 5.62012 78.209 5.93012C78.609 6.25012 79.059 6.54012 79.339 6.97012C79.519 7.24012 80.039 6.94012 80.049 7.46012C80.049 7.74012 80.389 7.97012 80.599 8.20012C80.809 8.44012 81.089 8.64012 81.219 8.93012C81.879 10.4301 83.079 11.5301 83.719 13.0001C83.979 13.6101 84.609 14.1001 84.409 14.8901C84.949 15.1701 84.869 15.8301 85.259 16.1601C85.519 16.3701 85.579 16.6201 85.669 16.8701C85.889 17.4501 86.379 19.1801 86.549 20.4601L86.699 21.4701L85.719 21.7001C85.089 21.8701 84.359 21.9801 83.649 22.1001C83.089 22.2001 82.909 22.2401 82.639 22.3001L81.849 22.4901C81.319 22.6201 80.799 22.7501 80.259 22.8601C79.959 22.9201 79.679 23.0101 79.309 22.8401C79.039 22.7101 78.599 22.7601 78.329 23.1101C78.279 23.1801 78.159 23.2501 78.099 23.2101C77.399 22.7701 76.889 23.4301 76.299 23.5501C75.139 23.7801 73.939 23.6301 72.789 23.8501C72.539 23.9001 72.229 23.7801 72.099 24.1801C71.859 23.9101 71.739 24.0801 71.529 24.2501C71.309 24.4301 70.909 24.5101 70.669 24.3701C70.339 24.1801 70.089 24.3101 69.809 24.3301C69.509 24.3501 69.219 24.4301 68.919 24.4601L65.139 24.8301C64.889 24.8501 64.629 24.7501 64.379 24.7301C64.129 24.7101 63.889 24.9201 63.609 24.6501C63.499 24.5501 63.269 24.6701 63.089 24.7001C62.469 24.8001 61.769 24.7201 61.249 25.0501C60.739 25.3801 60.099 25.1801 59.659 25.7001C59.539 25.8501 59.249 25.7601 59.049 25.8201C58.239 26.0601 57.319 25.8201 56.589 26.4501C56.239 26.2001 55.899 26.3101 55.559 26.3901C55.309 26.4401 54.999 26.3201 54.849 26.7001C54.829 26.7401 54.749 26.7601 54.689 26.7501C54.379 26.7201 54.069 26.5401 53.749 26.6601C53.479 26.7601 53.289 27.0101 52.979 27.0501C51.879 27.2101 50.729 26.9901 49.649 27.3301C49.299 27.1001 48.959 27.2101 48.619 27.2601C48.009 27.3401 47.499 27.7801 46.869 27.8001C46.269 27.8201 45.629 27.8301 45.109 28.1001C44.199 28.5801 43.219 28.5301 42.279 28.7501C42.039 28.8101 41.779 28.9701 41.509 28.6801C41.439 28.6101 41.179 28.6801 41.129 28.8001C41.009 29.0401 40.799 28.9301 40.669 29.0301C40.269 29.3201 39.719 28.5401 39.399 29.2301L37.979 29.4601C37.509 29.5401 37.039 29.6301 36.559 29.6801C36.339 29.7101 36.139 29.8101 35.869 29.6301C35.689 29.5101 35.329 29.5401 35.199 29.7001C34.889 30.0801 34.499 30.0101 34.139 30.0701C33.049 30.2701 31.959 30.4501 30.859 30.6001C30.379 30.6601 29.879 30.6001 29.389 30.6101C28.889 30.6101 28.429 30.9201 27.909 30.7001C27.869 30.6801 27.819 30.7001 27.789 30.7201C27.609 30.8001 27.429 30.9301 27.239 30.9501C26.989 30.9701 26.619 30.7401 26.499 30.8801C26.259 31.1701 26.039 30.9301 25.819 30.9401C25.199 30.9601 24.729 30.4001 24.679 29.6301C24.669 29.4601 24.709 29.2701 24.779 29.1301C25.189 28.2301 25.199 28.2701 26.069 28.0801C27.169 27.8401 28.319 28.1401 29.399 27.7901C30.189 28.0901 30.909 27.6901 31.669 27.6601C32.459 27.6301 33.299 27.8501 34.019 27.4801C34.729 27.1101 35.479 27.0501 36.229 26.9301C36.799 26.8401 37.389 26.9201 37.959 26.8601C38.559 26.8001 39.139 26.6001 39.739 26.6101C40.109 26.6101 40.529 26.8301 40.849 26.6101C41.539 26.1401 42.349 26.3201 43.049 26.0201C44.019 25.6001 45.069 25.6101 46.039 25.2801C46.559 25.1001 47.079 24.9101 47.629 24.8401C47.879 24.8101 48.109 24.7601 48.399 24.8801C48.699 25.0001 49.089 24.9401 49.389 24.6501C49.509 24.5301 49.729 24.4201 49.869 24.4901C50.419 24.7601 50.919 24.5301 51.429 24.4401C51.749 24.3801 52.169 24.6501 52.339 24.4801C52.629 24.2001 52.939 24.2501 53.239 24.1701C53.449 24.1201 53.679 23.9701 53.919 24.2401C53.979 24.3101 54.199 24.3001 54.249 24.2201C54.549 23.7701 54.999 23.9001 55.389 23.8201C56.329 23.6401 57.279 23.4901 58.229 23.3601C59.009 23.2601 59.699 22.7101 60.509 22.7501C60.929 22.2801 61.489 22.3701 61.999 22.2901C62.389 22.2301 62.799 22.3001 63.199 22.3201C63.599 22.3301 63.969 22.2001 64.409 22.3101C64.949 22.4401 65.519 22.1501 66.089 22.1001C66.399 22.0701 66.699 21.8001 67.039 22.1301C67.089 22.1701 67.229 22.1401 67.269 22.0801C67.609 21.6201 68.129 21.6501 68.509 21.7401C69.129 21.8901 69.679 21.6901 70.249 21.6401C70.729 21.6001 71.189 21.4701 71.669 21.4301C72.009 21.4001 72.329 21.2601 72.709 21.3701C72.999 21.4501 73.329 21.1801 73.649 21.1001C73.969 21.0201 74.299 20.9901 74.619 20.9401L75.679 20.7701L76.739 20.6001C77.119 20.5401 77.509 20.4501 77.889 20.4201C78.259 20.4001 78.639 20.5001 78.999 20.4601C80.019 20.3401 80.949 19.7601 81.989 19.7501C82.199 19.4301 82.559 19.5801 82.779 19.6001C82.899 19.6301 83.159 19.7101 83.099 19.4201C83.079 19.3401 83.139 19.3501 83.169 19.3201C83.199 19.2701 83.579 19.4901 83.469 19.3001C83.389 19.1901 83.469 19.1301 83.429 19.0301C83.379 18.9401 83.569 18.8301 83.159 18.7201C83.429 18.6701 83.319 18.5501 83.189 18.5101C83.029 18.3801 82.819 18.1701 82.869 17.9301C82.899 17.7701 82.869 17.6101 82.869 17.4501C82.869 17.3701 82.909 17.2601 82.859 17.2101C81.969 16.2401 81.809 14.9501 81.069 13.9301C80.979 13.8101 80.809 13.7401 80.689 13.6301C80.629 13.5801 80.579 13.5201 80.559 13.4401C80.369 12.7701 80.349 12.7701 79.849 12.3601C79.719 12.2601 79.649 12.1001 79.529 11.9801C79.239 11.6701 79.059 11.2901 78.599 11.1101C78.159 10.9201 78.149 10.3201 77.959 9.86012C77.809 9.45012 77.619 9.06012 77.289 8.76012C76.879 8.38012 76.419 8.05012 75.989 7.68012C75.529 7.35012 75.089 6.99012 74.619 6.69012C74.499 6.62012 74.379 6.44012 74.259 6.48012C73.769 6.65012 73.419 6.73012 73.479 5.99012C73.479 5.95012 73.379 5.90012 73.339 5.92012C72.889 6.16012 72.679 5.81012 72.409 5.65012C71.889 5.36012 71.299 5.23012 70.729 5.07012C70.139 4.95012 69.579 4.81012 69.039 4.54012C68.859 4.46012 68.579 4.49012 68.519 4.33012C68.369 3.98012 68.129 4.40012 67.959 4.24012C67.819 4.11012 67.529 4.19012 67.409 4.05012C66.999 3.52012 66.369 3.51012 65.859 3.54012C65.369 3.59012 64.869 3.67012 64.469 3.46012C63.689 3.02012 62.829 3.12012 61.999 3.00012C61.139 2.92012 60.269 2.90012 59.409 2.91012C59.059 2.93012 58.669 2.76012 58.349 3.15012C58.289 3.23012 58.129 3.19012 58.009 3.16012C57.739 3.10012 57.469 2.96012 57.209 2.97012C56.939 2.99012 56.689 3.16012 56.429 3.24012C56.219 3.30012 56.009 3.27012 55.809 3.49012C55.659 3.65012 55.369 3.55012 55.099 3.37012C54.559 3.00012 53.979 2.69012 53.329 2.84012C52.759 2.98012 52.159 2.97012 51.589 3.10012C51.349 3.15012 51.119 3.16012 50.889 3.40012C50.689 3.61012 50.289 3.61012 49.979 3.53012C49.499 3.41012 49.079 3.47012 48.699 3.80012C48.569 3.91012 48.389 3.95012 48.229 3.99012C47.229 4.21012 46.259 4.49012 45.279 4.78012C45.039 4.85012 44.819 4.98012 44.539 4.78012C44.489 5.15012 44.219 5.13012 44.009 5.18012C43.689 5.26012 43.339 5.22012 43.019 5.31012C42.639 5.40012 42.299 5.57012 42.019 5.92012C41.769 6.23012 41.249 6.12012 41.009 6.52012C40.969 6.60012 40.749 6.48012 40.659 6.54012C40.299 6.80012 39.739 6.74012 39.589 7.32012C39.579 7.37012 39.489 7.41012 39.439 7.39012C38.769 7.19012 38.509 7.78012 38.149 8.12012C37.749 8.49012 37.139 8.43012 36.709 8.74012C36.209 9.08012 35.779 9.54012 35.239 9.76012C34.259 10.1101 33.619 10.8901 32.899 11.5401C32.159 12.2201 31.489 12.9701 30.889 13.7801C30.639 14.1401 30.499 14.5701 30.279 14.9501C30.049 15.3801 29.739 15.7501 29.499 16.1601L28.819 17.3401C28.719 17.5301 28.729 17.7901 28.389 17.8301C28.319 17.8301 28.239 17.9501 28.259 18.0101C28.359 18.5001 28.209 18.8301 27.789 19.0801C27.669 19.1501 27.669 19.3301 27.589 19.4401C27.349 19.7501 27.479 20.1501 27.439 20.5001C27.409 20.8301 27.029 21.0801 27.349 21.4801C27.389 21.5301 27.349 21.6801 27.279 21.7101C26.399 22.1301 27.379 23.1301 26.599 23.5901C26.949 23.9201 26.439 24.0801 26.459 24.2901C26.489 24.5901 26.559 24.8901 26.499 25.1801C26.449 25.4601 26.389 25.7401 26.389 26.0201C26.379 26.5301 26.149 27.0401 26.449 27.5701C26.549 27.7501 26.609 28.0601 26.279 28.2601C26.219 28.3001 26.229 28.4101 26.239 28.4801C26.359 29.0401 26.029 29.7001 25.449 29.8801C25.109 29.9801 24.679 30.0301 24.309 29.9901C24.129 29.9701 23.989 29.7001 23.859 29.5301C23.619 29.2401 23.299 28.9501 23.209 28.6201C23.099 28.2201 23.199 27.7901 23.229 27.2801L23.179 27.3501Z" fill="#231815"/>
<path d="M37.1501 106.38C37.8701 106.61 38.2401 107.47 38.9801 107.84C39.7201 108.21 40.4001 108.7 41.0901 109.16C41.4401 109.39 41.8201 109.53 42.2401 109.62C42.6501 109.7 42.8501 110.23 43.4001 110.06C43.4501 110.05 43.5001 110.12 43.5501 110.15C44.4001 110.68 45.3601 111.08 46.0601 111.79C46.8801 112.62 47.9201 113.06 48.8101 113.74C50.6201 114.29 51.9901 115.59 53.5801 116.5C54.0801 116.78 54.6201 117.01 54.9501 117.58C55.2401 118.07 56.0001 118 56.2001 118.67C56.2201 118.72 56.3601 118.69 56.4301 118.72C56.6101 118.78 56.8401 118.78 56.9701 118.91C57.7201 119.69 57.7201 119.69 58.5901 119.96C58.6901 119.99 58.7001 120.22 58.8001 120.29C59.2001 120.57 59.5901 120.86 60.0201 121.08C60.4101 121.28 60.6601 121.75 61.2401 121.6C61.3701 121.57 61.4801 121.74 61.6001 121.81C61.9901 122.05 62.3601 122.32 62.7601 122.54C63.2201 122.79 63.5701 123.23 64.2001 123.2C64.4701 123.18 64.5201 123.72 64.6801 123.71C64.9801 123.7 65.1901 123.78 65.3801 123.94C65.5601 124.09 65.6701 124.36 65.8601 124.49C66.0301 124.6 66.3101 124.55 66.4901 124.65C66.9401 124.9 67.3101 125.34 67.8201 125.42C67.9601 125.44 68.0801 125.48 68.2001 125.52L68.3701 125.59C68.4301 125.62 68.4001 125.59 68.4101 125.59C68.4201 125.58 68.4201 125.59 68.4301 125.57C68.4301 125.57 68.4301 125.57 68.4301 125.54C68.4101 125.51 68.5101 125.67 68.6201 125.69C68.9001 125.5 68.9401 124.95 69.4901 124.97C69.5101 124.97 69.5201 124.93 69.5401 124.91C70.0801 124.35 70.6601 123.82 71.1601 123.22C72.0201 122.19 72.8301 121.11 73.6801 120.07C73.9201 119.78 74.0501 119.37 74.5501 119.31C74.6501 119.3 74.6701 119.1 74.7701 119.06C75.1601 118.89 74.8101 118.24 75.2801 118.16C75.7001 118.08 75.7801 117.72 76.0101 117.48C76.2701 117.21 76.4701 116.89 76.7101 116.61C76.8801 116.42 76.9801 116.2 76.9601 115.91C77.4601 115.94 77.4901 115.46 77.8501 115.32C78.0801 115.23 78.3901 115.04 78.3801 114.83C78.3601 114.36 78.6901 114.17 78.8801 113.88C79.1601 113.44 79.5901 113.11 79.6801 112.52C79.7201 112.27 79.9601 112.09 80.1501 111.91C80.3301 111.75 80.5901 111.67 80.7501 111.49C81.0501 111.17 81.3001 110.82 81.4001 110.34C81.4901 109.93 82.0701 109.8 81.9601 109.24C81.9501 109.17 82.0401 109.08 82.1101 109.04C82.5101 108.83 82.8201 108.6 82.9101 108.09C82.9901 107.68 83.4001 107.4 83.6701 107.07C83.9501 106.71 84.1801 106.29 84.5401 106.02C84.7701 105.84 84.4101 105.38 84.9001 105.34C85.1601 105.32 85.3101 104.98 85.4901 104.77C85.6801 104.55 85.8001 104.27 86.0301 104.11C87.2801 103.28 87.8801 101.91 88.8901 100.88C88.9401 100.83 88.9901 100.77 89.0401 100.71C89.0901 100.64 89.1301 100.58 89.1301 100.57C89.1501 100.52 89.1701 100.47 89.1901 100.42C89.2401 100.33 89.3201 100.29 89.7201 100.2C89.5501 100.11 89.5701 100.06 89.6301 99.9899C89.6901 99.9199 89.7801 99.8399 89.6101 99.8399C89.3901 99.8599 89.4401 99.8199 89.4801 99.7699L89.7001 99.4799C89.4601 99.5099 89.1901 99.5499 88.9201 99.6099C88.7901 99.6399 88.6501 99.6999 88.5601 99.7599C88.5201 99.7799 88.5601 99.7799 88.4501 99.8099L88.0701 99.8999L87.3101 100.06C87.0201 100.12 86.7501 100.2 86.4001 100.02C86.1501 99.8799 85.7201 99.9299 85.4601 100.27C85.4101 100.34 85.2901 100.4 85.2401 100.37C84.5801 99.9199 84.0801 100.57 83.5201 100.67C82.4101 100.88 81.2601 100.71 80.1601 100.91C79.9201 100.95 79.6201 100.83 79.4901 101.23C79.2601 100.95 79.1501 101.12 78.9401 101.29C78.7301 101.47 78.3501 101.54 78.1201 101.4C77.8101 101.21 77.5601 101.33 77.3001 101.34C77.0101 101.36 76.7401 101.43 76.4501 101.46L72.8401 101.76C72.6001 101.78 72.3601 101.67 72.1101 101.65C71.8701 101.62 71.6401 101.83 71.3701 101.55C71.2701 101.45 71.0401 101.57 70.8701 101.59C70.2801 101.68 69.6001 101.59 69.1101 101.91C68.6201 102.23 68.0101 102.02 67.5901 102.53C67.4701 102.67 67.2001 102.58 67.0101 102.64C66.2301 102.87 65.3501 102.62 64.6501 103.23C64.3201 102.97 63.9901 103.08 63.6701 103.15C63.4401 103.2 63.1401 103.07 62.9901 103.45C62.9701 103.49 62.8901 103.51 62.8401 103.5C62.5401 103.46 62.2501 103.28 61.9401 103.39C61.6801 103.48 61.5001 103.73 61.2001 103.77C60.1401 103.91 59.0401 103.67 58.0101 104C57.6801 103.77 57.3501 103.87 57.0301 103.91C56.4501 103.98 55.9601 104.41 55.3501 104.42C54.7801 104.42 54.1701 104.42 53.6601 104.69C52.7901 105.15 51.8501 105.09 50.9501 105.29C50.7201 105.34 50.4701 105.5 50.2101 105.2C50.1501 105.13 49.9001 105.2 49.8401 105.31C49.7201 105.54 49.5301 105.44 49.3901 105.54C49.0101 105.82 48.4801 105.03 48.1701 105.72L46.8101 105.92C46.3601 105.99 45.9101 106.07 45.4501 106.12C45.2401 106.14 45.0401 106.25 44.7901 106.06C44.6201 105.93 44.2701 105.96 44.1401 106.12C43.8401 106.49 43.4701 106.41 43.1201 106.47C42.0801 106.65 41.0301 106.82 39.9801 106.94C39.5201 106.99 39.0401 106.94 38.5701 106.93C38.0901 106.93 37.6501 107.23 37.1501 106.99C37.1101 106.97 37.0701 106.99 37.0301 107.01C36.8501 107.08 36.6801 107.22 36.5001 107.23C36.2601 107.24 35.9101 107.01 35.8001 107.15C35.5701 107.43 35.3601 107.19 35.1501 107.2C34.5601 107.2 34.1101 106.64 34.0601 105.88C34.0501 105.71 34.0901 105.52 34.1501 105.38C34.5501 104.48 34.5601 104.52 35.3901 104.35C36.4401 104.13 37.5501 104.45 38.5801 104.11C39.3401 104.43 40.0301 104.04 40.7501 104.02C41.5001 104 42.3101 104.24 42.9901 103.88C43.6701 103.53 44.3901 103.47 45.1001 103.37C45.6401 103.29 46.2101 103.37 46.7601 103.33C47.3301 103.28 47.8901 103.09 48.4601 103.11C48.8101 103.13 49.2201 103.34 49.5201 103.13C50.1801 102.67 50.9601 102.87 51.6201 102.58C52.5501 102.18 53.5501 102.2 54.4801 101.89C54.9801 101.72 55.4801 101.54 56.0001 101.48C56.2401 101.45 56.4601 101.4 56.7401 101.53C57.0201 101.66 57.4001 101.61 57.6901 101.32C57.8101 101.2 58.0201 101.1 58.1501 101.16C58.6801 101.44 59.1601 101.22 59.6401 101.14C59.9501 101.09 60.3401 101.36 60.5101 101.2C60.7901 100.92 61.0901 100.98 61.3701 100.91C61.5701 100.86 61.7901 100.72 62.0201 100.99C62.0801 101.06 62.2901 101.05 62.3401 100.98C62.6301 100.54 63.0601 100.67 63.4301 100.6C64.3301 100.44 65.2401 100.3 66.1401 100.19C66.8901 100.1 67.5501 99.5699 68.3301 99.6199C68.7301 99.1599 69.2701 99.2499 69.7501 99.1899C70.1201 99.1399 70.5201 99.2199 70.9001 99.2399C71.2801 99.2599 71.6401 99.1299 72.0601 99.2399C72.5801 99.3799 73.1301 99.0999 73.6701 99.0599C73.9601 99.0399 74.2601 98.7699 74.5801 99.0999C74.6201 99.1399 74.7601 99.1199 74.8001 99.0599C75.1201 98.6099 75.6201 98.6499 75.9901 98.7499C76.5801 98.9099 77.1001 98.7199 77.6601 98.6799C78.1201 98.6499 78.5601 98.5199 79.0201 98.4899C79.3501 98.4699 79.6501 98.3399 80.0201 98.4499C80.3001 98.5399 80.6101 98.2699 80.9201 98.1999C81.2301 98.1299 81.5401 98.0999 81.8501 98.0499L82.8701 97.8999L83.8901 97.7499C84.2601 97.6899 84.6201 97.6099 84.9901 97.5899C85.3401 97.5699 85.7101 97.6799 86.0601 97.6499C86.5501 97.5999 87.0201 97.4299 87.4801 97.2799L87.8301 97.1699C87.9501 97.1399 88.0501 97.1099 88.2601 97.0699C88.6301 96.9999 89.0101 96.9399 89.3701 96.9299C89.8701 96.5699 90.2301 96.7199 90.6001 96.7199C90.9701 96.7199 91.2601 96.7999 91.9701 96.3899C92.1701 96.2799 92.3701 96.2599 92.5701 96.2099C93.0301 96.0999 92.9401 96.3899 93.7001 96.0699C94.2601 95.8399 94.5301 95.9399 94.9901 95.8399C95.5001 95.7299 95.5101 95.9299 96.6501 95.4199H96.6901C95.8001 96.0899 95.7601 96.2599 95.7401 96.4599C95.7401 96.6399 95.7601 96.8399 95.2601 97.2799C94.9501 97.5499 94.7201 97.7799 94.4701 98.0199C94.3401 98.1399 94.1301 98.2899 94.1101 98.3599C93.8801 99.0399 93.1701 99.9799 92.4601 100.84L91.3801 102.13L91.0201 102.57C90.9201 102.7 90.8301 102.83 90.7501 102.96C90.6701 103.09 90.6601 103.28 90.6001 103.43C90.5701 103.5 90.5301 103.58 90.4701 103.62C89.8901 104.04 89.8901 104.04 89.6501 104.67C89.5901 104.83 89.4501 104.94 89.3601 105.09C89.1301 105.47 88.7901 105.74 88.6901 106.24C88.5901 106.74 87.9601 106.87 87.5301 107.12C87.1501 107.35 86.7501 107.56 86.4901 107.93C85.8101 108.85 85.0801 109.73 84.3701 110.63C84.2801 110.74 84.0901 110.85 84.1201 110.97C84.2301 111.48 84.2601 111.87 83.5301 111.69C83.5001 111.69 83.4201 111.78 83.4401 111.82C83.6001 112.3 83.2101 112.46 83.0001 112.7C82.2101 113.62 81.8401 114.84 80.9501 115.69C80.8101 115.83 80.7201 116.1 80.5501 116.1C80.1701 116.1 80.4601 116.49 80.2501 116.6C80.0701 116.68 80.0401 117 79.8601 117.04C79.1901 117.19 78.9201 117.75 78.7101 118.23C78.5201 118.68 78.3301 119.16 77.9601 119.41C77.2101 119.89 76.7901 120.62 76.2501 121.26C75.6901 121.91 75.1601 122.59 74.6501 123.28C74.4401 123.56 74.0701 123.75 74.1601 124.24C74.1801 124.34 74.0501 124.44 73.9601 124.51C73.7501 124.68 73.4701 124.79 73.3101 125C73.1501 125.21 73.1001 125.5 72.9901 125.75C72.8901 125.95 72.7301 126.07 72.7501 126.37C72.7701 126.59 72.5001 126.73 72.1801 126.81C71.8701 126.88 71.5501 126.96 71.2701 127.08C71.1301 127.14 71.0001 127.22 70.8801 127.31C70.8201 127.36 70.7801 127.4 70.7001 127.48C70.6201 127.57 70.5501 127.66 70.4801 127.76C70.0401 128.41 69.5201 128.98 69.0501 129.59L68.8101 129.44C68.5001 129.25 68.2201 129.04 67.8501 129.03C67.5101 129.02 66.9401 128.57 66.6501 128.24C66.3801 127.84 66.0501 127.6 65.5701 127.56C65.4001 127.55 65.2501 127.45 65.1101 127.36L62.5701 125.76C62.3701 125.63 62.1101 125.56 62.0901 125.21C61.7801 125.41 61.6201 125.18 61.4601 125.05C61.2101 124.85 61.0201 124.55 60.7601 124.36C60.4501 124.13 60.1201 123.95 59.6901 123.92C59.2901 123.89 59.1001 123.41 58.6301 123.44C58.5401 123.44 58.5201 123.2 58.4201 123.16C58.0201 122.99 57.7801 122.48 57.2001 122.65C57.1501 122.66 57.0701 122.61 57.0601 122.56C56.8801 121.9 56.2801 121.93 55.8001 121.77C55.2701 121.59 55.0601 121.01 54.6101 120.74C54.1001 120.43 53.4901 120.21 53.1101 119.76C52.4401 118.97 51.5401 118.58 50.7301 118.03C49.9001 117.46 49.0501 116.93 48.1901 116.43C47.8101 116.21 47.3601 116.12 46.9701 115.91C46.5401 115.68 46.1401 115.4 45.7301 115.14C45.3401 114.9 44.9501 114.66 44.5701 114.4C44.3901 114.28 44.1201 114.26 44.1201 113.92C44.1201 113.85 44.0201 113.76 43.9501 113.77C43.4501 113.82 43.1401 113.61 42.9601 113.16C42.9101 113.03 42.7301 113.01 42.6301 112.9C42.3701 112.6 41.9601 112.66 41.6201 112.55C41.3101 112.45 41.1501 112.01 40.6901 112.22C40.6301 112.25 40.4901 112.17 40.4801 112.09C40.3201 111.14 39.0601 111.76 38.8801 110.86C38.4401 111.07 38.4701 110.53 38.2701 110.48C37.9701 110.4 37.6801 110.34 37.4201 110.17C37.1801 110.01 36.9501 109.84 36.6901 109.72C36.2201 109.49 35.8801 109.05 35.2601 109.05C35.0501 109.05 34.7401 108.94 34.7301 108.55C34.7301 108.48 34.6301 108.43 34.5601 108.4C34.0101 108.2 33.6101 107.53 33.8101 106.95C33.9301 106.61 34.1601 106.25 34.4101 105.98C34.5301 105.85 34.8101 105.88 35.0101 105.86C35.3601 105.82 35.7501 105.69 36.0501 105.77C36.4101 105.87 36.6901 106.14 37.0801 106.39L37.1501 106.38Z" fill="#231815"/>
<path d="M28.5401 63.9504C28.3301 64.4404 27.5801 64.4604 27.2601 64.9304C26.9401 65.4004 26.5001 65.7704 26.1001 66.1704C25.8901 66.3704 25.7701 66.6204 25.6901 66.9304C25.6101 67.2304 25.1601 67.2204 25.2901 67.7004C25.3001 67.7404 25.2401 67.7604 25.2101 67.7904C24.7401 68.2804 24.3901 68.9104 23.7601 69.2404C23.0401 69.6204 22.6401 70.2904 22.0401 70.7804C21.5401 72.0304 20.4101 72.6904 19.6001 73.6504C19.4701 73.8004 19.3701 73.9604 19.2101 74.1004C18.9501 74.3604 18.6501 74.6004 18.3201 74.7204C18.0401 74.8204 17.8401 75.1204 17.6001 75.3904C17.2901 75.3304 16.9501 75.2204 16.6501 74.9204C16.6001 74.8704 16.4901 74.9404 16.4001 74.9404C16.2001 74.9404 15.9201 74.9904 15.7601 74.9204C15.1601 74.5404 15.1501 74.5404 14.5701 74.6904C14.5001 74.7104 14.4501 74.5104 14.3701 74.4904C14.0701 74.4204 13.7601 74.3704 13.4501 74.3904C13.1801 74.4004 12.8901 74.1404 12.6201 74.5704C12.5601 74.6604 12.4501 74.5804 12.3601 74.5704C12.0801 74.5704 11.7901 74.5704 11.5101 74.6104C11.1901 74.6504 10.8501 74.5204 10.5901 74.9104C10.4801 75.0804 10.2201 74.6904 10.1601 74.8004C10.0501 75.0004 9.93014 75.0704 9.78014 75.0604C9.64014 75.0604 9.46014 74.9204 9.33014 74.9504C9.21014 74.9804 9.15014 75.2104 9.05014 75.2604C8.78014 75.3804 8.41014 75.3004 8.25014 75.6004C8.08014 75.9204 7.80014 75.9404 7.60014 76.1104C7.39014 76.2804 7.11014 76.3604 6.91014 76.5504C6.77014 76.7204 6.52014 76.6904 6.30014 76.7404C6.06014 76.7904 6.12014 77.1604 5.69014 77.0004C5.67014 77.0004 5.67014 77.0204 5.66014 77.0304L5.11014 77.4304C4.93014 77.5904 4.77014 77.7704 4.62014 77.9604C4.10014 78.6104 3.77014 79.3604 3.46014 80.0804C3.36014 80.2904 3.46014 80.5504 3.06014 80.6604C2.98014 80.6804 3.06014 80.8004 2.99014 80.8504C2.72014 81.0304 3.38014 81.3304 3.04014 81.4704C2.74014 81.6104 2.85014 81.8404 2.81014 82.0204C2.78014 82.2404 2.81014 82.4604 2.79014 82.6804C2.76014 82.8304 2.84014 82.9704 3.05014 83.0704C2.66014 83.2704 2.97014 83.4804 2.80014 83.7004C2.69014 83.8504 2.64014 84.0804 2.80014 84.1404C3.16014 84.2704 3.05014 84.5104 3.16014 84.7004C3.33014 84.9704 3.32014 85.3304 3.71014 85.4904C3.89014 85.5504 3.90014 85.7304 3.94014 85.8904C3.97014 86.0304 3.90014 86.2304 3.95014 86.3704C4.06014 86.6204 4.24014 86.8304 4.57014 86.9304C4.84014 87.0104 4.72014 87.4604 5.21014 87.3704C5.27014 87.3604 5.31014 87.4304 5.31014 87.4904C5.34014 87.7904 5.39014 88.0604 5.78014 88.0904C6.09014 88.1204 6.17014 88.4304 6.36014 88.6304C6.56014 88.8304 6.85014 88.9504 6.98014 89.2204C7.07014 89.3904 7.50014 89.0104 7.43014 89.4304C7.39014 89.6504 7.64014 89.7104 7.77014 89.8304C7.91014 89.9504 8.11014 90.0004 8.19014 90.1704C8.66014 91.0904 9.69014 91.3004 10.3601 91.8104C10.6601 92.0704 11.1401 91.8504 11.2801 92.4504C11.6501 92.1904 11.8401 92.6204 12.1401 92.4004C12.3301 92.2704 12.4501 92.3204 12.5801 92.3504C13.0101 92.4804 13.4501 92.4404 13.8801 92.5004C14.1001 92.5004 14.3101 92.4604 14.5201 92.4504C14.7301 92.4404 14.9501 92.4104 15.1501 92.3404C15.7001 92.2104 16.1601 91.8604 16.6301 91.5804C16.7601 91.4804 16.8501 91.3704 17.1301 91.4804C17.3301 91.5604 17.5601 91.4504 17.5001 91.0904C17.4901 91.0204 17.5001 90.9404 17.5501 90.9604C18.1501 91.1704 18.0501 90.5404 18.2201 90.2804C18.6101 89.8204 19.2501 89.5004 19.5601 88.9104C19.6201 88.7804 19.8401 88.7104 19.5601 88.4504C19.8801 88.5004 19.7901 88.3504 19.7301 88.1804C19.6701 88.0104 19.7301 87.7904 19.9301 87.7404C20.2101 87.6804 20.1901 87.5004 20.2701 87.3604C20.3601 87.2104 20.4001 87.0404 20.4501 86.8804L20.8301 85.8504L21.1301 84.7704C21.1801 84.6304 21.3201 84.5004 21.3901 84.3504C21.4601 84.1904 21.2901 84.0504 21.6201 83.8804C21.7401 83.8104 21.6701 83.5704 21.6801 83.4104C21.6801 83.2704 21.7101 83.1204 21.7301 82.9804L21.7501 82.8704C21.7501 82.8704 21.8101 82.8204 21.8301 82.8004L22.0001 82.6604C22.2101 82.4704 22.4101 82.2504 22.4801 82.0104C22.5601 81.5804 23.0501 81.5204 22.9801 80.9604C22.9601 80.8004 23.1701 80.7704 23.2501 80.6604C23.5601 80.1904 24.2301 80.0604 24.2601 79.3304C24.6201 79.4104 24.7401 79.2004 24.8801 79.0304C24.9901 78.9004 25.2401 78.8904 25.0901 78.5504C25.0701 78.5104 25.1101 78.4704 25.1501 78.4504C25.3501 78.3704 25.6301 78.4004 25.7401 78.2004C25.8301 78.0304 25.7901 77.7704 25.9301 77.6304C26.4601 77.1304 27.2501 76.9004 27.6501 76.2704C27.9901 76.3304 28.1101 76.1304 28.2801 75.9704C28.4301 75.8304 28.5001 75.6404 28.5901 75.4504C28.6301 75.3504 28.6801 75.2604 28.7301 75.1804C28.7601 75.1204 28.7601 75.1104 28.8101 75.0904C28.9001 75.0604 29.0201 75.0204 29.0801 74.9504C29.0701 74.8904 29.0301 74.8104 28.9401 74.7504C28.8501 74.6904 28.8001 74.6404 28.7601 74.6104C28.7201 74.5104 28.6901 74.3204 28.6701 74.1704C28.6301 73.8604 28.6301 73.5404 28.5601 73.2304C28.5201 73.0704 28.3801 72.9104 28.6901 72.7204C28.7601 72.6804 28.7101 72.5004 28.6001 72.4704C28.3701 72.3904 28.4901 72.2604 28.4001 72.1704C28.1501 71.9104 28.9701 71.5304 28.3001 71.3304L28.1801 70.4004C28.1401 70.0904 28.0901 69.7804 28.0701 69.4704C28.0701 69.3204 27.9701 69.1904 28.1801 69.0104C28.3201 68.8904 28.3201 68.6504 28.1701 68.5704C27.8201 68.3704 27.9201 68.1104 27.8801 67.8804C27.7701 67.1704 27.6701 66.4504 27.6101 65.7304C27.5901 65.4104 27.6801 65.0804 27.7101 64.7604C27.7501 64.4304 27.4701 64.1304 27.7401 63.7804C27.7601 63.7604 27.7401 63.7204 27.7301 63.7004C27.6701 63.5804 27.5501 63.4704 27.5501 63.3404C27.5501 63.1804 27.8101 62.9304 27.6801 62.8504C27.4201 62.7004 27.6701 62.5504 27.6801 62.4104C27.7101 62.0004 28.3001 61.6804 29.0701 61.6304C29.2401 61.6204 29.4301 61.6404 29.5601 61.6804C30.4201 61.9304 30.3801 61.9404 30.5001 62.5104C30.6501 63.2304 30.2701 64.0004 30.5301 64.7004C30.1701 65.2304 30.5101 65.6904 30.4801 66.1904C30.4501 66.7104 30.1701 67.2704 30.4801 67.7304C30.7901 68.1904 30.7901 68.6904 30.8501 69.1704C30.8901 69.5404 30.7701 69.9304 30.7801 70.3104C30.7801 70.7004 30.9501 71.0804 30.8901 71.4804C30.8501 71.7204 30.6101 72.0104 30.8001 72.2104C31.2101 72.6504 30.9701 73.1904 31.2101 73.6504C31.2801 73.7804 31.3301 73.9004 31.3701 74.0304L31.4201 74.2304L31.4701 74.5404C31.5401 74.9704 31.6001 75.4004 31.6701 75.8304C31.5301 75.9904 31.3901 76.1504 31.2701 76.3204L30.7401 77.0304C30.5901 77.2304 30.5201 77.3404 30.3801 77.4704C30.2601 77.5804 30.1601 77.7004 29.9201 77.7104C29.6701 77.7104 29.4901 77.9004 29.5001 78.2204C29.5001 78.3604 29.4501 78.5104 29.3301 78.5104C28.8501 78.4904 28.7101 78.8404 28.4701 79.0804C28.3201 79.2404 27.9201 79.1704 27.9301 79.3604C27.9401 79.6804 27.7301 79.7404 27.6101 79.9004C27.5201 80.0204 27.4801 80.2104 27.1801 80.0804C27.1001 80.0504 26.9801 80.1304 27.0001 80.2104C27.1101 80.6604 26.7801 80.7204 26.6001 80.9104C26.1801 81.3704 25.7401 81.8104 25.2801 82.2404C24.9001 82.5904 24.8501 83.2404 24.3601 83.4904C24.3201 84.0904 24.2901 83.8704 24.2201 83.9404C24.2001 83.9604 24.0701 83.9604 23.9901 84.0204C23.9701 84.0204 23.9601 84.0804 23.9501 84.1604L23.9201 84.3704C23.9001 84.5104 23.8701 84.6504 23.7701 84.7904C23.5101 85.1304 23.6301 85.5804 23.5301 85.9804C23.4801 86.1904 23.6601 86.4804 23.2301 86.5904C23.1701 86.6004 23.1601 86.7004 23.2001 86.7504C23.5101 87.1204 23.3101 87.4604 23.1001 87.6604C22.7501 87.9904 22.6901 88.3904 22.5101 88.7604C22.3701 89.0704 22.2601 89.4004 22.0701 89.6804C21.9301 89.8804 21.8901 90.1404 21.6301 90.2804C21.4301 90.3804 21.4501 90.7004 21.3401 90.9204C21.2301 91.1304 21.0701 91.3104 20.9401 91.5104C20.7801 91.7104 20.5901 91.9004 20.4201 92.1004C20.2401 92.2904 20.0801 92.5004 19.8801 92.6704C19.6601 92.8504 19.4601 93.0604 19.2201 93.2104C19.0001 93.3604 18.6801 93.3704 18.4501 93.4904C17.8301 93.8604 17.3101 94.5404 16.5201 94.6604C16.4001 94.9904 16.1401 94.8404 15.9201 94.8404C15.7101 94.8404 15.4701 94.7804 15.3201 95.1004C15.2801 95.1904 15.1701 95.1804 15.0801 95.2104C14.8901 95.2704 14.7101 95.0104 14.5001 95.2304C14.3501 95.3804 14.1001 95.2804 13.9001 95.3004C13.6801 95.3204 13.4601 95.1004 13.2501 95.4504C12.9301 94.8904 12.4701 95.6904 12.1301 95.3504C12.0301 95.2504 11.9101 95.1904 11.8001 95.1104C11.7501 95.0704 11.6901 94.9904 11.6401 95.0004C11.0901 95.1604 10.6201 94.9804 10.1601 94.7804C9.69014 94.6004 9.29014 94.3104 8.83014 94.1404C8.72014 94.1004 8.56014 94.1404 8.43014 94.1204C8.37014 94.1204 8.30014 94.0904 8.26014 94.0504C7.88014 93.6204 7.93014 93.6204 7.41014 93.5304C7.28014 93.5104 7.20014 93.4004 7.08014 93.3504C6.78014 93.2204 6.58014 92.9804 6.18014 92.9504C5.77014 92.9304 5.73014 92.3804 5.57014 92.0404C5.43014 91.7304 5.32014 91.3904 5.06014 91.1904C4.73014 90.9404 4.42014 90.6604 4.13014 90.3504C3.84014 90.0504 3.54014 89.7504 3.28014 89.4104C3.21014 89.3304 3.18014 89.1604 3.07014 89.1804C2.61014 89.2404 2.23014 89.2304 2.64014 88.6304C2.66014 88.6004 2.61014 88.5304 2.57014 88.5304C2.10014 88.6004 2.11014 88.2404 1.99014 88.0304C1.74014 87.6404 1.46014 87.2504 1.14014 86.8804C0.840137 86.4904 0.610137 86.0404 0.510137 85.5604C0.490137 85.4004 0.340137 85.2104 0.440137 85.0904C0.670137 84.8204 0.190137 84.8504 0.250137 84.6504C0.300137 84.4904 0.0701371 84.3104 0.180137 84.1704C0.560137 83.6604 0.340137 83.2204 0.200137 82.8004C0.0801371 82.4204 -0.089863 81.9904 0.090137 81.6504C0.280137 81.3204 0.370137 80.9904 0.430137 80.6604C0.500137 80.3304 0.590137 80.0104 0.690137 79.6904C0.790137 79.3604 0.930137 79.0504 1.06014 78.7404C1.19014 78.4304 1.30014 78.1004 1.46014 77.8204C1.58014 77.5704 1.88014 77.4104 1.68014 77.0004C1.64014 76.9204 1.74014 76.8304 1.81014 76.7704C1.98014 76.6404 2.22014 76.5504 2.33014 76.3904C2.45014 76.2304 2.44014 75.9804 2.51014 75.7704C2.56014 75.6104 2.70014 75.5104 2.67014 75.2504C2.65014 75.0604 2.90014 74.9504 3.19014 74.9404C3.76014 74.9004 4.30014 74.9104 4.65014 74.5604C4.95014 74.2304 5.33014 74.0004 5.70014 73.7804C5.85014 73.6804 6.01014 73.6204 6.09014 73.3504C6.16014 73.1004 6.47014 73.0404 6.72014 73.0704C7.11014 73.1204 7.39014 73.0104 7.62014 72.6804C7.70014 72.5704 7.83014 72.5304 7.95014 72.4904C8.67014 72.2304 9.42014 72.0904 10.1601 71.9804C10.3401 71.9604 10.5201 71.8604 10.7001 72.1304C10.7801 71.7904 10.9801 71.8704 11.1401 71.8804C11.3801 71.9004 11.6201 72.0404 11.8601 72.0604C12.1401 72.0704 12.4101 72.0504 12.6901 71.8504C12.9501 71.6704 13.2501 71.9704 13.5401 71.7204C13.6001 71.6704 13.6901 71.8704 13.7701 71.8604C14.1001 71.8104 14.4001 72.1404 14.7401 71.7304C14.7701 71.7004 14.8401 71.7104 14.8601 71.7404C15.1601 72.2404 15.5601 71.9604 15.9501 71.9004C16.0501 71.8804 16.1501 71.9004 16.2401 71.9404C16.3201 71.9704 16.4501 72.0304 16.4301 72.0704C16.4601 72.1504 16.5301 72.2704 16.5901 72.2804C16.6401 72.2804 16.6901 72.2804 16.7301 72.2804C16.7901 72.2004 16.8301 72.1104 16.9601 72.1504C17.0001 72.1504 17.0501 72.1504 17.0901 72.1504L17.1501 72.1304L17.2501 72.0604C17.3901 71.9604 17.5101 71.8504 17.6301 71.7304C17.8601 71.4904 18.0701 71.2304 18.3201 71.0004C18.8201 70.5304 19.2901 70.0304 19.7301 69.5104C19.9201 69.2904 20.0101 68.9604 20.1901 68.7204C20.3901 68.4504 20.6401 68.2304 20.8701 67.9904C21.0901 67.7604 21.2901 67.5304 21.5201 67.3204C21.6301 67.2204 21.6401 67.0104 21.9401 67.1204C22.0001 67.1404 22.0801 67.0904 22.0701 67.0304C22.0301 66.6204 22.2201 66.4504 22.6101 66.4504C22.7201 66.4504 22.7501 66.3204 22.8401 66.2804C23.1001 66.1704 23.0601 65.8304 23.1601 65.6004C23.2501 65.3904 23.6301 65.4104 23.4601 64.9704C23.4401 64.9104 23.5101 64.8304 23.5701 64.8504C24.4001 65.0304 23.8701 63.8404 24.6501 63.9904C24.4701 63.5804 24.9401 63.7704 24.9901 63.6304C25.0601 63.4204 25.1201 63.2104 25.2701 63.0604C25.4101 62.9204 25.5601 62.7904 25.6701 62.6304C25.8801 62.3404 26.2601 62.2104 26.2701 61.7204C26.2701 61.5604 26.3701 61.3404 26.7101 61.4604C26.7701 61.4804 26.8201 61.4204 26.8401 61.3704C27.0201 61.0004 27.6101 60.9004 28.1101 61.2504C28.4001 61.4504 28.7101 61.7504 28.9401 62.0304C29.0501 62.1704 29.0201 62.3704 29.0401 62.5404C29.0701 62.8304 29.1801 63.1804 29.1001 63.3904C29.0101 63.6404 28.7701 63.7704 28.5501 64.0004L28.5401 63.9504Z" fill="#231815"/>
<path d="M89.5607 50.4099C89.9007 49.9799 90.6407 50.1599 91.0907 49.7899C91.5407 49.4199 92.0707 49.1599 92.5807 48.8799C92.8407 48.7399 93.0307 48.5199 93.2007 48.2499C93.3607 47.9799 93.8007 48.1099 93.8107 47.5999C93.8107 47.5599 93.8707 47.5599 93.9107 47.5299C94.5107 47.1699 95.0407 46.6499 95.7407 46.4899C96.5607 46.3099 97.1407 45.7499 97.8707 45.4299C98.7107 44.3399 100.011 43.9899 101.081 43.2599C101.411 43.0299 101.711 42.7399 102.221 42.7899C102.681 42.7599 102.441 42.5899 102.641 42.6299C102.681 42.6399 102.741 42.6699 102.841 42.7099C102.881 42.7299 102.811 42.6499 102.811 42.6299C102.791 42.5699 102.731 42.5099 102.751 42.4999C102.871 42.4699 102.921 42.3999 102.921 42.3499C102.921 42.3299 102.901 42.2699 102.871 42.2199C102.841 42.1499 102.791 42.1699 102.721 41.9499C102.691 41.8599 102.881 41.7499 102.881 41.6499C102.901 41.2499 102.941 40.8599 102.941 40.4599C102.931 40.0899 103.271 39.7799 102.921 39.3399C102.851 39.2399 102.971 39.0999 103.011 38.9899C103.101 38.6099 103.291 38.2499 103.411 37.8699C103.591 37.4399 103.951 37.1299 103.921 36.5699C103.911 36.3099 104.421 36.3299 104.411 36.1899C104.421 35.9199 104.531 35.7399 104.701 35.6099C104.871 35.4799 105.121 35.4399 105.281 35.3299C105.421 35.2199 105.421 34.9599 105.561 34.8299C105.881 34.4999 106.381 34.4299 106.621 34.0399C106.891 33.6099 107.271 33.5199 107.621 33.2999C107.981 33.0799 108.431 32.9999 108.811 32.7999C109.121 32.6499 109.481 32.7499 109.801 32.7599C110.111 32.7599 110.431 32.4299 110.781 32.8099C110.801 32.8299 110.831 32.8099 110.851 32.8099C111.511 32.7999 112.161 32.8999 112.791 32.9699C113.891 33.0899 114.991 33.3699 115.961 33.8599C116.231 34.0099 116.611 34.0199 116.651 34.4799C116.661 34.5699 116.831 34.5499 116.861 34.6399C116.991 34.9599 117.571 34.5299 117.611 34.9599C117.641 35.3399 117.951 35.3599 118.111 35.5499C118.301 35.7699 118.551 35.9199 118.731 36.1399C118.861 36.2899 119.021 36.3699 119.271 36.3599C119.131 36.7899 119.521 36.8399 119.541 37.1499C119.541 37.3599 119.621 37.6199 119.801 37.6299C120.201 37.6499 120.251 37.9499 120.431 38.1399C120.711 38.4399 120.801 38.8899 121.281 39.1099C121.471 39.2199 121.491 39.4699 121.541 39.6699C121.581 39.8599 121.511 40.0899 121.561 40.2699C121.631 40.6099 121.741 40.9199 122.051 41.1899C122.321 41.4399 122.001 41.8599 122.491 42.0699C122.551 42.0999 122.551 42.1999 122.531 42.2599C122.431 42.6099 122.331 42.8999 122.621 43.2299C122.861 43.4999 122.731 43.8799 122.731 44.2099C122.731 44.5599 122.851 44.9299 122.711 45.2599C122.631 45.4699 123.201 45.6099 122.831 45.8499C122.631 45.9799 122.721 46.2599 122.681 46.4699C122.641 46.6899 122.701 46.9299 122.591 47.1199C121.991 48.1299 122.151 49.2799 121.611 50.2999C121.421 50.7199 121.501 51.3399 120.851 51.5199C121.041 51.9999 120.511 52.2099 120.551 52.6399C120.571 52.9199 120.401 53.0699 120.271 53.2399L119.931 53.6499L119.491 54.0299C119.221 54.2899 118.841 54.4999 118.451 54.6799C118.251 54.7799 118.071 54.8599 117.931 54.8999C117.781 54.9499 117.621 54.9999 117.461 55.0399C117.151 55.1299 116.841 55.2099 116.521 55.2699C115.701 55.4499 114.871 55.6399 114.041 55.6699C113.811 55.6699 113.571 55.7099 113.341 55.4599C113.171 55.2799 112.851 55.2299 112.571 55.4999C112.521 55.5499 112.411 55.5899 112.381 55.5399C112.001 54.9299 111.471 55.4099 111.001 55.3199C110.551 55.2399 110.141 55.0399 109.731 54.8099L108.751 54.2499C108.751 54.2499 108.721 54.1999 108.711 54.1899C108.691 54.1799 108.671 54.2099 108.641 54.4199C108.641 54.2399 108.661 54.1699 108.651 54.1899C108.641 54.2199 108.621 54.3099 108.611 54.3899C108.591 54.5199 108.591 54.5599 108.571 54.5099C108.561 54.4799 108.551 54.4499 108.531 54.4199C108.431 54.1999 108.421 54.2999 108.351 54.3099C108.161 54.3799 108.001 54.5099 107.821 54.5999C107.051 54.9499 106.271 55.2999 105.491 55.6299C105.341 55.6899 105.131 55.6499 104.951 55.6799C104.771 55.6999 104.701 55.9499 104.411 55.7499C104.301 55.6799 104.191 55.8399 104.091 55.8899C103.721 56.0899 103.231 56.1499 103.021 56.5499C102.811 56.9499 102.311 56.8799 102.231 57.4399C102.211 57.5999 101.991 57.5699 101.881 57.6599C101.441 58.0299 100.751 57.9899 100.511 58.6899C100.181 58.5199 100.001 58.6899 99.8107 58.8199C99.6707 58.9199 99.4207 58.8599 99.4707 59.2299C99.4707 59.2699 99.4207 59.2999 99.3907 59.3099C99.1707 59.3399 98.9007 59.2299 98.7407 59.3999C98.6007 59.5399 98.5707 59.7999 98.3907 59.8999C97.7307 60.2499 96.8907 60.2599 96.3107 60.7799C95.9907 60.6399 95.8107 60.7999 95.6107 60.8999C95.2407 61.0899 95.0807 61.5799 94.6707 61.7099C94.2907 61.8399 93.8707 61.9599 93.6307 62.3099C93.5107 62.4699 93.4407 62.5599 93.2507 62.6999C93.0207 62.8599 92.7707 63.0099 92.5207 63.1499C92.0207 63.4299 91.5307 63.6599 91.0307 63.9799C90.7807 64.1399 90.4307 64.4799 90.3307 64.1499C90.3107 64.0699 90.0407 64.2599 89.9207 64.4499C89.6507 64.8499 89.5307 64.7599 89.3307 64.9599C89.0707 65.2199 88.9407 65.1599 88.8407 65.0999C88.9107 64.6099 88.9807 64.2099 88.6507 64.4199L88.4507 62.7399C88.3807 62.1799 88.3007 61.6199 88.2607 61.0499C88.2407 60.7899 88.1307 60.5399 88.3307 60.2299C88.4507 59.9799 88.4607 59.7899 88.3107 59.6899C87.9607 59.4899 88.0607 59.2199 88.0307 58.9799C87.9207 58.2399 87.8207 57.5099 87.7707 56.7599C87.7507 56.4299 87.8407 56.0999 87.8807 55.7699C87.9207 55.4299 87.6407 55.1199 87.9107 54.7699C87.9307 54.7399 87.9107 54.7099 87.9007 54.6899C87.8407 54.5699 87.7207 54.4499 87.7207 54.3199C87.7207 54.1499 87.9807 53.8999 87.8507 53.8199C87.5907 53.6599 87.8407 53.5099 87.8507 53.3599C87.8807 52.9399 88.4707 52.6199 89.2407 52.5699C89.4107 52.5699 89.6007 52.5899 89.7307 52.6299C90.5907 52.8999 90.5507 52.9099 90.6707 53.4899C90.8207 54.2299 90.4307 55.0199 90.6907 55.7399C90.3207 56.2799 90.6607 56.7599 90.6307 57.2699C90.6007 57.7999 90.3107 58.3699 90.6307 58.8599C90.7807 59.0999 90.8607 59.3499 90.9107 59.5999C90.9407 59.7599 90.9407 59.7499 90.9407 59.8099V59.9499C90.9607 60.0799 90.8207 60.3499 90.8107 60.5899C90.8007 60.8299 90.9107 60.8599 90.8507 61.2099C90.8807 61.2699 90.8607 61.5999 91.0807 61.2899C91.2907 60.9699 91.3907 60.8999 91.5007 60.8499C91.6107 60.7999 91.7307 60.7699 91.8207 60.6099C91.8807 60.4999 91.9307 60.4299 91.9807 60.3799C92.0207 60.3499 92.0107 60.3399 92.0807 60.2899L92.3007 60.1499C92.6007 59.9699 92.9007 59.8099 93.1507 59.5699C93.4307 59.3099 93.6907 59.0399 94.0207 58.8699C94.1707 58.7899 94.3007 58.6999 94.5407 58.7599C94.7807 58.8199 95.0207 58.6899 95.1007 58.3699C95.1307 58.2399 95.2407 58.0999 95.3507 58.1299C95.8207 58.2799 96.0607 57.9699 96.3507 57.7999C96.5407 57.6899 96.9207 57.8599 96.9607 57.6699C97.0407 57.3599 97.2707 57.3499 97.4307 57.2199C97.5507 57.1299 97.6407 56.9499 97.9007 57.1499C97.9707 57.1999 98.1107 57.1499 98.1107 57.0699C98.1307 56.5999 98.4807 56.6299 98.7007 56.4899C99.2507 56.1499 99.8107 55.8399 100.381 55.5499C100.851 55.3099 101.091 54.6899 101.641 54.5699C101.731 54.0599 102.131 54.0399 102.441 53.8699C102.671 53.7399 102.971 53.7299 103.241 53.6699C103.511 53.6099 103.701 53.4199 104.031 53.4399C104.441 53.4599 104.701 53.0899 105.051 52.9399C105.241 52.8599 105.341 52.5499 105.681 52.7899C105.731 52.8199 105.811 52.7699 105.811 52.7099C105.851 52.2299 106.211 52.1599 106.491 52.1699C106.721 52.1799 106.911 52.1199 107.081 52.0299C107.301 51.9099 107.581 51.7399 107.841 51.6199L108.031 51.5299L108.531 51.8099L108.781 51.9499C108.831 51.9799 108.871 51.9999 108.831 51.9999C108.831 52.0199 108.831 52.0399 108.861 52.0699C108.911 52.1499 108.991 52.2199 109.071 52.2999L109.261 52.4799C109.261 52.4799 109.311 52.5799 109.371 52.5399C109.461 52.4399 109.551 52.3299 109.651 52.2299L109.821 52.0499C109.821 52.0499 109.891 52.0999 109.911 52.0999C109.951 52.1199 110.001 52.1199 110.051 52.1199C110.161 52.1199 110.271 52.1099 110.361 52.1199C110.551 52.1699 110.731 52.2499 110.921 52.3099C111.131 52.3699 111.341 52.4399 111.551 52.4899C111.761 52.5399 111.981 52.5899 112.201 52.6299C112.441 52.6799 112.681 52.6799 112.911 52.7499C113.131 52.8199 113.341 52.9999 113.571 53.0299C114.221 53.1299 114.831 52.6799 115.461 52.7799C115.591 52.4799 115.771 52.6599 115.961 52.6899C116.121 52.7099 116.341 52.7999 116.431 52.4699C116.451 52.3799 116.541 52.3799 116.601 52.3399C116.721 52.2599 116.931 52.4999 117.031 52.2499C117.061 52.1599 117.141 52.1399 117.221 52.1299C117.281 52.1199 117.331 52.1099 117.371 52.0699C117.431 51.9799 117.671 52.1399 117.541 51.7599C118.041 52.0299 117.661 51.3199 117.961 51.2999C118.071 51.2999 118.141 51.2499 118.241 51.2199C118.291 51.2099 118.371 51.2199 118.381 51.1699C118.341 50.3299 119.011 49.8599 119.131 49.0399C119.141 48.9399 119.081 48.8299 119.051 48.7199C119.041 48.6699 119.041 48.6199 119.071 48.5799C119.361 48.2199 119.371 48.2099 119.261 47.7799C119.231 47.6699 119.291 47.5699 119.291 47.4599C119.281 47.1799 119.441 46.9399 119.231 46.6299C119.031 46.3299 119.481 46.0699 119.671 45.7799C119.841 45.5299 120.021 45.2699 120.021 44.9699C120.001 44.5999 119.971 44.2299 119.971 43.8699L119.861 42.7799C119.841 42.6899 119.901 42.5599 119.791 42.5199C119.361 42.3899 119.061 42.2899 119.691 41.9399C119.721 41.9199 119.711 41.8499 119.661 41.8399C119.201 41.7799 119.341 41.5299 119.291 41.3399C119.231 40.9699 118.951 40.7099 118.751 40.4399C118.501 40.1799 118.331 39.9999 118.171 39.6399C118.121 39.5299 117.931 39.4599 118.001 39.3199C118.141 39.0199 117.731 39.2399 117.721 39.0799C117.721 38.9399 117.481 38.9299 117.511 38.7799C117.631 38.2299 117.251 38.0499 116.941 37.9299C116.641 37.8099 116.321 37.7499 116.231 37.4699C116.131 37.2099 115.951 37.0199 115.751 36.8699L115.131 36.4799C114.711 36.2199 114.251 36.0199 113.781 35.9199C113.591 35.8799 113.421 35.6299 113.171 35.9899C113.121 36.0599 113.051 35.9999 112.991 35.9699C112.861 35.8799 112.741 35.7099 112.591 35.7099C112.441 35.7099 112.291 35.8499 112.151 35.8999C112.041 35.9499 111.921 35.9099 111.821 36.1199C111.741 36.2699 111.601 36.1499 111.441 35.9699C111.131 35.6399 110.721 35.2499 110.351 35.4499C110.031 35.5899 109.671 35.6499 109.341 35.8099C109.201 35.8699 109.051 35.8899 108.991 36.1399C108.931 36.3599 108.691 36.3999 108.471 36.3699C108.131 36.3199 107.911 36.4499 107.811 36.7699C107.781 36.8799 107.681 36.9299 107.611 36.9999C107.161 37.3699 106.731 37.7499 106.421 38.2099C106.341 38.3199 106.311 38.4599 106.031 38.4299C106.271 38.6799 106.111 38.7399 106.031 38.8399C105.901 38.9799 105.721 39.0999 105.621 39.2599C105.491 39.4499 105.491 39.6899 105.621 39.9499C105.761 40.1799 105.411 40.3699 105.661 40.6299C105.711 40.6799 105.511 40.7399 105.521 40.7999C105.561 41.0499 105.261 41.3299 105.711 41.5599C105.751 41.5799 105.751 41.6299 105.711 41.6499C105.381 41.8099 105.511 42.2199 105.691 42.6099C105.691 42.7699 105.701 42.9299 105.691 43.0899C105.681 43.3099 105.591 43.4999 105.511 43.6499C105.371 43.8899 105.071 44.0899 104.931 44.3499L104.871 44.4599C104.601 44.6399 104.331 44.8199 104.071 44.9999C103.811 45.1699 103.701 45.2099 103.481 45.2499C102.731 45.3399 102.221 45.8199 101.611 46.1399C100.991 46.4699 100.391 46.8399 99.8007 47.2299C99.5507 47.3999 99.3707 47.6999 99.1207 47.8799C98.8507 48.0899 98.5407 48.2399 98.2507 48.4099C97.9707 48.5799 97.7007 48.7499 97.4207 48.8999C97.2907 48.9699 97.2107 49.1699 96.9507 48.9899C96.9007 48.9499 96.8107 48.9899 96.8007 49.0399C96.7207 49.4499 96.4907 49.5699 96.1007 49.4699C95.9907 49.4399 95.9307 49.5699 95.8307 49.5799C95.5507 49.6199 95.4907 49.9699 95.3207 50.1599C95.1707 50.3399 94.8007 50.2299 94.8507 50.6999C94.8507 50.7599 94.7607 50.8199 94.7007 50.7899C93.9407 50.3999 94.1207 51.6899 93.3907 51.3599C93.4507 51.7999 93.0507 51.4999 92.9607 51.6199C92.8307 51.7999 92.7207 51.9999 92.5307 52.0999C92.3507 52.1999 92.1707 52.2899 92.0107 52.4099C91.7207 52.6399 91.3107 52.6699 91.1707 53.1499C91.1207 53.3099 90.9607 53.4899 90.6707 53.2899C90.6207 53.2499 90.5507 53.2999 90.5207 53.3399C90.2407 53.6499 89.6407 53.5999 89.2407 53.1399C89.0107 52.8699 88.7907 52.4999 88.6507 52.1599C88.5807 51.9899 88.6707 51.8099 88.7007 51.6399C88.7507 51.3499 88.7507 50.9799 88.8807 50.7999C89.0407 50.5799 89.3107 50.5099 89.5907 50.3399L89.5607 50.4099Z" fill="#231815"/>
<path d="M61.0293 123.259L74.9593 120.779L68.8893 128.219L61.0293 123.259Z" fill="#231815"/>
<path d="M61.3498 121.66C61.4898 121.44 61.7598 121.93 61.9298 121.81C62.1098 121.69 62.3098 121.71 62.5098 121.69C62.6098 121.69 62.6898 121.58 62.7498 121.42C62.8198 121.26 62.9798 121.57 62.9898 121.13C62.9898 121.09 63.0098 121.13 63.0298 121.12C63.2598 121.08 63.4698 120.86 63.7298 121.04C64.0398 121.25 64.2698 121.03 64.5398 121.08C64.8798 120.51 65.3698 120.8 65.7798 120.64C65.9098 120.59 66.0298 120.47 66.2198 120.75C66.3798 120.99 66.4398 120.5 66.6498 120.93C66.6698 120.97 66.6698 120.86 66.6898 120.84C66.7198 120.78 66.7498 120.66 66.7998 120.69C67.0898 120.9 67.0898 120.9 67.2498 120.64C67.2698 120.61 67.3298 120.79 67.3598 120.79C67.4798 120.79 67.5998 120.8 67.6998 120.74C67.7898 120.68 67.9498 120.92 67.9698 120.48C67.9698 120.38 68.0298 120.46 68.0698 120.45C68.1798 120.43 68.2898 120.44 68.3898 120.39C68.4998 120.33 68.6598 120.5 68.7198 120.12C68.7398 119.95 68.8898 120.36 68.9098 120.26C68.9398 120.08 68.9798 120.03 69.0398 120.05C69.0998 120.07 69.1798 120.23 69.2398 120.22C69.2898 120.22 69.2998 120.01 69.3498 119.99C69.5598 119.92 69.8098 120.05 70.0098 119.82C70.2398 119.56 70.4698 119.58 70.6898 119.51C70.9298 119.44 71.1598 119.46 71.4098 119.36C71.6098 119.29 71.6998 119.45 71.8198 119.53C71.9198 119.61 72.2898 119.24 72.1698 119.7C72.1698 119.72 72.1898 119.7 72.1998 119.7C72.4698 119.73 72.6798 119.82 72.9498 119.79C73.4298 119.74 73.9798 119.61 74.4698 119.54C74.5998 119.52 74.9798 119.31 74.5798 119.74C74.4898 119.83 74.7198 119.68 74.6698 119.74C74.4698 119.98 75.6698 119.07 75.3098 119.46C74.9598 119.81 75.3398 119.58 75.4098 119.6C75.4798 119.62 75.6898 119.54 75.7798 119.55C75.8398 119.55 76.0298 119.46 76.4998 119.18C75.7898 119.72 76.4798 119.32 76.2098 119.56C76.0198 119.72 75.8598 119.87 76.2098 119.67C77.0098 119.22 76.8098 119.4 77.0098 119.33C77.3198 119.22 77.1898 119.37 78.0598 118.94H78.0898C78.3498 118.81 78.0898 119.01 77.9298 119.14C77.7798 119.26 77.3498 119.54 77.2498 119.63C77.0698 119.8 77.0198 119.89 77.4098 119.75C77.7398 119.65 76.7898 120.21 77.6498 119.85C77.7598 119.8 77.6798 119.87 77.5898 119.93C77.0898 120.25 76.7998 120.45 77.1898 120.36C77.4998 120.29 77.0498 120.6 76.9398 120.73C76.8198 120.87 76.8498 120.97 76.5298 121.19C76.3298 121.32 77.3398 120.99 76.5898 121.34C76.1898 121.52 76.2798 121.57 76.1798 121.67C76.0798 121.77 76.1498 121.82 75.9298 121.95C75.3498 122.29 75.1598 122.5 75.0098 122.71C74.8698 122.92 74.7698 123.13 74.4898 123.35C74.2698 123.52 74.5398 123.74 73.7698 123.88C74.1298 124.04 73.6098 124.16 73.8098 124.32C73.9298 124.43 73.8498 124.51 73.7898 124.58L73.1698 125.34L72.8598 125.72L72.7198 125.9L72.6398 126.01C72.5098 126.21 72.4598 126.49 72.3398 126.71C72.3098 126.77 72.2998 126.85 72.0698 126.76C71.8998 126.69 71.8298 126.76 72.0098 127.01C72.0498 127.06 72.0698 127.11 72.0298 127.09C71.5198 126.85 71.8698 127.32 71.7998 127.44C71.7298 127.56 71.5898 127.61 71.4498 127.67C71.3098 127.72 71.1798 127.75 71.0298 127.98C70.9698 128.07 70.7898 128.03 70.9898 128.37C70.7298 128.2 70.7998 128.35 70.8198 128.54C70.8498 128.74 70.7398 128.89 70.5798 128.81C70.3698 128.69 70.3498 128.85 70.2698 128.91C70.1798 128.97 70.1198 129.1 70.0398 129.18C69.7398 129.45 69.4498 129.71 69.1798 129.92L69.0098 129.77C68.9298 129.7 68.8398 129.47 68.7598 129.35C68.6898 129.23 68.6098 129.39 68.5398 128.97C68.5098 128.81 68.4498 128.88 68.3998 128.84C68.2198 128.73 68.0798 128.41 67.8898 128.58C67.6698 128.73 67.5998 128.33 67.2898 128.66C67.1998 128.75 67.1598 128.57 67.0898 128.56C66.9398 128.53 66.8198 128.37 66.7198 128.29C66.6498 128.22 66.5498 128.2 66.3398 128.36C66.4498 128.06 66.3398 128.07 66.2698 128.05C66.2098 128.03 66.2498 127.85 66.0198 128.12C65.9898 128.15 65.9798 128.14 65.9698 128.12C65.9598 128.01 66.0198 127.79 65.9198 127.81C65.8398 127.81 65.6798 127.98 65.6198 127.93C65.4198 127.78 65.4198 127.31 65.1198 127.32C65.2098 127.05 65.1198 127.05 65.0498 127C64.9398 126.91 64.6498 127.14 64.5698 127C64.4998 126.86 64.4298 126.71 64.2198 126.8C63.8598 126.96 63.7898 126.67 63.5698 126.61C63.5098 126.59 63.3998 126.66 63.5298 126.35C63.5598 126.28 63.4898 126.27 63.4198 126.35C63.2798 126.51 63.3098 126.38 63.2398 126.42C63.0398 126.55 63.4198 125.78 62.9998 126.26L62.7298 126.09C62.6398 126.03 62.5398 125.99 62.4598 125.91C62.4198 125.88 62.3398 125.91 62.4198 125.69C62.4698 125.54 62.4198 125.48 62.3098 125.57C62.0698 125.8 62.0698 125.64 61.9898 125.61C61.7698 125.5 61.5498 125.37 61.3598 125.21C61.2798 125.14 61.2498 124.97 61.1998 124.85C61.1498 124.73 60.9298 124.86 60.9998 124.55C60.9998 124.53 60.9898 124.53 60.9798 124.54C60.9198 124.56 60.8198 124.62 60.7998 124.58C60.7598 124.53 60.8498 124.25 60.7598 124.34C60.5798 124.51 60.6798 124.26 60.6598 124.22C60.5898 124.08 60.8498 123.5 61.2698 122.86C61.3598 122.72 61.4698 122.57 61.5598 122.47C62.1098 121.84 62.0798 121.87 62.2798 121.94C62.5298 122.02 62.4798 122.56 62.7898 122.55C62.6998 123 62.9998 122.85 63.0898 123.02C63.1898 123.19 63.1498 123.59 63.4298 123.47C63.7098 123.35 63.8198 123.49 63.9598 123.59C64.0698 123.66 64.0898 123.87 64.1798 123.97C64.2698 124.07 64.4498 124.05 64.4998 124.22C64.5298 124.32 64.4598 124.6 64.6098 124.5C64.9398 124.29 64.9298 124.64 65.1698 124.57C65.4998 124.48 65.6098 124.74 65.8898 124.73C66.0398 124.73 66.1998 124.7 66.2998 124.77C66.3398 124.8 66.3998 124.82 66.3598 125C66.3198 125.18 66.3998 125.23 66.5898 125.07C66.6698 125 66.7498 124.97 66.7298 125.06C66.6398 125.42 66.8198 125.36 66.9198 125.41C66.9898 125.44 66.8798 125.77 66.9898 125.67C67.1798 125.51 67.1798 125.64 67.2498 125.65C67.2998 125.65 67.4098 125.6 67.2798 125.88C67.2498 125.95 67.2798 126 67.3198 125.95C67.5998 125.66 67.5798 125.88 67.6598 125.91C67.7598 125.96 67.8498 126.01 67.9498 126.06L68.0798 126.15L68.1198 126.19C68.1798 126.25 68.3598 125.86 68.3398 126.05C68.4498 125.65 68.4098 125.83 68.4298 125.85C68.4298 125.86 68.4398 126.02 68.4698 126.13C68.4898 126.24 68.4998 126.16 68.5498 126.39C68.5798 126.54 68.6098 126.56 68.6298 126.55C68.6398 126.51 68.6498 126.45 68.6698 126.45C68.6998 126.45 68.6398 126.18 68.7798 126.6C68.7998 126.66 68.8098 126.63 68.7898 126.57C68.6698 126.09 68.7198 126.2 68.8098 126.33C68.9598 126.54 68.9498 126.38 69.0098 126.37C69.0598 126.36 69.0598 126.27 69.1198 126.26C69.1598 126.25 69.1198 126.16 69.2698 126.25C69.3798 126.32 69.2698 126.12 69.2998 126.04C69.3298 125.97 69.3898 125.92 69.4398 125.86L69.5898 125.67L69.7398 125.48C69.7998 125.41 69.8298 125.32 69.9098 125.28C69.9898 125.24 70.1698 125.28 70.2298 125.22C70.4098 125.07 70.2298 124.62 70.4898 124.54C70.3098 124.31 70.5098 124.39 70.5898 124.38C70.6698 124.37 70.8098 124.38 70.6198 124.15C70.5698 124.08 70.5798 124.09 70.5798 124.07C70.5498 124.03 70.7998 124.17 70.6398 124.04C70.5298 123.95 70.6598 124 70.6498 123.97C70.6298 123.94 70.8498 124 70.5098 123.84C71.0698 124.01 70.2598 123.69 70.5198 123.76C70.6098 123.77 70.6498 123.77 70.7098 123.78C70.7398 123.78 70.8198 123.79 70.7998 123.78C70.2898 123.63 70.7998 123.64 70.6798 123.56C70.6598 123.56 70.5098 123.56 70.4498 123.57C70.4198 123.57 70.3998 123.57 70.4298 123.57C70.7398 123.51 70.7398 123.49 70.4398 123.54C70.3598 123.55 70.4398 123.54 70.3998 123.54C70.3098 123.55 70.4798 123.5 70.0998 123.6C69.7098 123.72 70.4098 123.51 70.7498 123.37C71.0398 123.26 71.3898 123.11 71.3898 123.09C71.3698 123.05 71.4798 122.95 71.5498 122.87C71.5498 122.87 71.7498 122.76 71.5498 122.86C70.6998 123.27 70.0798 123.6 71.6198 122.79C71.6898 122.75 71.6998 122.74 71.6098 122.79C70.6598 123.28 71.1398 123.02 71.1798 122.99C71.2698 122.92 70.9898 123.06 70.7698 123.19C70.5598 123.31 70.4298 123.38 70.5898 123.28C70.6498 123.24 70.3998 123.39 70.6998 123.2C71.3298 122.79 70.2898 123.45 70.5198 123.31C70.6998 123.19 70.3298 123.43 70.5798 123.26C71.4598 122.67 71.1098 122.86 70.8198 123.06C70.5398 123.24 70.2698 123.45 70.5098 123.26C70.9698 122.89 70.6898 123.06 70.6998 123.03C70.6998 123 70.6298 123.02 70.5498 123.06C70.5198 123.08 70.6798 122.87 70.2698 123.33C70.1898 123.42 70.2298 123.37 70.2498 123.33C70.3098 123.26 70.4298 123.08 70.4098 123.09C70.3898 123.09 70.2498 123.27 70.1998 123.34C70.1598 123.4 70.1798 123.34 70.0398 123.57C69.9298 123.74 70.0298 123.6 70.1498 123.37C70.3998 122.92 70.5498 122.48 70.4398 122.58C70.3498 122.66 70.3098 122.6 70.2398 122.64C70.2098 122.65 70.1898 122.63 70.1298 122.83C70.0798 123.01 70.0698 122.94 70.0498 122.82C70.0198 122.63 69.9498 122.61 69.9298 122.84C69.9298 122.92 69.9098 122.92 69.8898 122.93L69.2398 123.05C69.1798 123.05 69.1398 123.14 69.0398 122.87C69.0598 123.2 68.9798 123.11 68.9298 123.09C68.8498 123.07 68.7498 122.94 68.6698 122.92C68.5798 122.9 68.4898 122.95 68.4398 123.16C68.3898 123.36 68.2398 123.08 68.1998 123.36C68.1998 123.41 68.1198 123.23 68.0998 123.25C68.0098 123.34 67.8498 123.05 67.8298 123.52C67.8298 123.56 67.8098 123.56 67.7898 123.52C67.5898 123.09 67.5398 123.45 67.4498 123.59C67.3498 123.74 67.1698 123.39 67.0498 123.42C66.9098 123.46 66.7898 123.62 66.6298 123.46C66.3498 123.2 66.1498 123.39 65.9098 123.39C65.6698 123.39 65.4398 123.44 65.2098 123.52C65.1098 123.55 65.0398 123.73 64.9398 123.78C64.8298 123.84 64.7198 123.83 64.5998 123.85C64.4898 123.87 64.3898 123.9 64.2798 123.9C64.2298 123.9 64.1998 124.04 64.0998 123.77C64.0798 123.71 64.0498 123.7 64.0398 123.74C63.9998 124.06 63.9098 124.06 63.7698 123.8C63.7298 123.73 63.6998 123.8 63.6698 123.77C63.5598 123.67 63.5398 123.95 63.4698 124.05C63.4098 124.14 63.2798 123.87 63.2798 124.31C63.2798 124.37 63.2498 124.38 63.2198 124.32C62.9398 123.63 62.9798 124.85 62.7198 124.22C62.7298 124.64 62.5898 124.18 62.5498 124.25C62.4998 124.35 62.4498 124.47 62.3798 124.48C62.3098 124.48 62.2398 124.48 62.1798 124.52C62.0698 124.59 61.9098 124.43 61.8498 124.78C61.8298 124.9 61.7698 124.98 61.6598 124.67C61.6398 124.61 61.6198 124.63 61.5998 124.65C61.4898 124.8 61.2598 124.47 61.1298 123.89C61.0498 123.55 60.9798 123.13 60.9298 122.77C60.9098 122.59 60.9398 122.47 60.9598 122.33C60.9798 122.1 60.9898 121.78 61.0398 121.67C61.0998 121.55 61.2098 121.61 61.3098 121.59L61.3498 121.66Z" fill="#221714"/>
<path d="M77.2698 57.2199C77.2698 57.2199 77.2298 57.1599 77.2098 57.1299C77.1998 57.1099 77.1898 57.0899 77.1698 57.0899C77.1598 57.0899 77.1398 57.0899 77.1298 57.0899C77.1898 57.0899 77.2298 57.0499 77.2298 56.9999C77.2298 56.9799 77.2598 56.9599 77.2298 56.9299C77.2198 56.9199 77.2398 56.8799 77.2498 56.8599C77.2498 56.8399 77.2398 56.8199 77.2298 56.8099C77.2298 56.8099 77.2298 56.8099 77.2298 56.7999C77.2498 56.7499 77.2298 56.6999 77.2298 56.6499C77.2298 56.5999 77.2298 56.5499 77.2198 56.5099C77.1998 56.3999 77.1598 56.2999 77.1198 56.1999C77.0998 56.1699 77.0998 56.1299 77.0498 56.1099C77.0298 56.1099 77.0198 56.0699 77.0198 56.0499C77.0298 56.0199 77.0198 55.9999 76.9998 55.9799C76.9798 55.9399 76.9498 55.8999 76.9298 55.8599C76.9098 55.8199 76.8798 55.7799 76.8498 55.7399C76.7698 55.7399 76.8198 55.6599 76.7698 55.6399C76.7598 55.6399 76.7498 55.6099 76.7298 55.6099C76.7198 55.6099 76.6998 55.5899 76.6998 55.5799C76.7098 55.5399 76.6798 55.5299 76.6698 55.5099C76.5998 55.4399 76.5398 55.3699 76.4498 55.3299C76.3998 55.3099 76.3498 55.2699 76.3098 55.2299C76.2698 55.1799 76.1998 55.1899 76.1498 55.1599C76.1198 55.1399 76.0898 55.1299 76.0798 55.0899C75.9698 55.0599 75.8998 54.9699 75.7898 54.9299C75.7598 54.9199 75.7298 54.9299 75.6998 54.9299C75.6698 54.9299 75.6498 54.8999 75.6198 54.8799C75.6198 54.8799 75.6098 54.8799 75.5998 54.8799C75.5698 54.9099 75.5498 54.8799 75.5198 54.8799C75.4898 54.8799 75.4498 54.8799 75.4298 54.8299C75.3398 54.8699 75.2598 54.8099 75.1798 54.8199C75.1598 54.8199 75.1298 54.8099 75.1198 54.8199C75.0698 54.8599 75.0098 54.8199 74.9598 54.8499C74.9098 54.8799 74.8398 54.8599 74.7798 54.8599C74.7598 54.8599 74.7398 54.8699 74.7298 54.8599C74.6998 54.8299 74.6798 54.8599 74.6598 54.8499C74.6398 54.8499 74.6098 54.8399 74.5898 54.8399C74.5298 54.8399 74.4698 54.8599 74.4098 54.8699C74.3498 54.8799 74.2898 54.8899 74.2298 54.9099C74.1998 54.9099 74.1698 54.9299 74.1498 54.9399C74.1198 54.9399 74.0998 54.9599 74.0698 54.9499C74.0398 54.9499 74.0098 54.9599 73.9898 54.9899C73.9698 55.0099 73.9698 55.0299 73.9398 55.0099C73.9398 55.0499 73.9098 55.0499 73.8898 55.0599C73.7898 55.1199 73.6698 55.1499 73.5798 55.2299C73.5298 55.2699 73.5298 55.3499 73.4398 55.3499C73.4398 55.3499 73.4298 55.3599 73.4298 55.3699C73.4298 55.4099 73.3898 55.4399 73.3598 55.4499C73.3198 55.4499 73.2998 55.4799 73.2798 55.5099C73.2098 55.5899 73.1598 55.6899 73.0898 55.7699C73.0498 55.8399 73.0098 55.9099 72.9598 55.9799C72.9198 56.0499 72.8898 56.1299 72.8598 56.1999C72.8598 56.2199 72.8398 56.2399 72.8498 56.2799C72.8598 56.3299 72.8098 56.3699 72.8298 56.4199C72.7698 56.4599 72.7798 56.5399 72.7598 56.5899C72.7098 56.7299 72.7398 56.8799 72.6798 57.0299C72.6698 57.0599 72.6798 57.0899 72.6798 57.1199C72.6798 57.1499 72.6898 57.1899 72.6798 57.1999C72.6398 57.2399 72.6998 57.2499 72.6998 57.2799C72.6898 57.3299 72.6998 57.3699 72.7098 57.4199C72.7098 57.4599 72.7098 57.5199 72.7298 57.5499C72.7698 57.5899 72.7698 57.6299 72.7598 57.6799C72.7598 57.6799 72.7598 57.6999 72.7598 57.7099C72.8098 57.7399 72.7898 57.7899 72.8198 57.8199C72.8598 57.8499 72.8698 57.8899 72.8898 57.9399C72.8898 57.9599 72.8898 57.9899 72.8898 58.0099C72.8898 58.0399 72.8998 58.0699 72.9298 58.0799C72.9798 58.1099 72.9898 58.1699 73.0198 58.2099C73.0398 58.2399 73.0498 58.2799 73.0898 58.2899C73.1098 58.2899 73.1198 58.3299 73.1198 58.3599C73.1198 58.3999 73.1698 58.4099 73.1498 58.4599C73.1798 58.4599 73.1998 58.4799 73.2098 58.4999C73.2298 58.5299 73.2598 58.5599 73.2798 58.5899C73.2998 58.6199 73.3298 58.6299 73.3398 58.6699C73.3398 58.7199 73.4098 58.6899 73.4298 58.7299C73.4298 58.7399 73.4498 58.7399 73.4498 58.7499C73.4498 58.7999 73.4898 58.8199 73.5198 58.8399L73.6898 58.9599L73.8698 59.0699L74.0798 59.1999C74.0998 59.2499 74.1498 59.2399 74.1798 59.2599C74.2098 59.2799 74.2398 59.3099 74.2798 59.3199C74.3298 59.3199 74.3898 59.3499 74.4398 59.3599C74.4898 59.3699 74.5398 59.3799 74.5998 59.3699C74.6498 59.3599 74.7098 59.3899 74.7598 59.3899C74.7798 59.3899 74.7998 59.3699 74.8298 59.3699C74.8498 59.3699 74.8798 59.3899 74.8998 59.3899C74.9298 59.3899 74.9498 59.3899 74.9698 59.3699C74.9798 59.3699 75.0198 59.3999 75.0398 59.3899C75.0898 59.3499 75.1498 59.3699 75.1998 59.3599C75.2498 59.3599 75.2898 59.3499 75.3398 59.3399C75.3498 59.3399 75.3798 59.3399 75.3798 59.3399C75.4098 59.2899 75.4598 59.3099 75.5098 59.2899C75.5598 59.2699 75.6098 59.2599 75.6498 59.2499C75.6598 59.2499 75.6798 59.2599 75.6898 59.2499C75.7698 59.1999 75.7698 59.1999 75.8798 59.1799C75.8998 59.1799 75.9098 59.1599 75.9298 59.1399C75.9298 59.1399 75.9398 59.1199 75.9498 59.1199C76.0198 59.1399 76.0598 59.0699 76.1098 59.0699C76.1798 59.0699 76.2298 59.0299 76.2698 58.9899C76.4198 58.8699 76.5998 58.7799 76.6798 58.5999C76.7698 58.5199 76.8198 58.4199 76.9098 58.3399C76.9798 58.2699 77.0298 58.1699 77.0698 58.0699C77.0698 58.0699 77.0698 58.0599 77.0698 58.0499C77.0498 57.9999 77.0998 57.9699 77.0998 57.9199C77.0998 57.8699 77.0998 57.8299 77.1198 57.7899C77.1498 57.7099 77.1698 57.6299 77.1898 57.5399C77.1998 57.4599 77.2598 57.3899 77.2598 57.3099C77.2598 57.2599 77.2698 57.2199 77.2598 57.1899L77.2698 57.2199Z" fill="#201512"/>
<path d="M61.7391 59.4394C61.7391 59.4394 61.7191 59.3994 61.6991 59.3994C61.6891 59.3994 61.6691 59.3994 61.6591 59.3994C61.7191 59.3994 61.7591 59.3594 61.7591 59.3094C61.7591 59.2894 61.7891 59.2694 61.7591 59.2394C61.7491 59.2294 61.7691 59.1894 61.7791 59.1694C61.7791 59.1494 61.7691 59.1294 61.7591 59.1194C61.7591 59.1194 61.7591 59.1194 61.7591 59.1094C61.7791 59.0594 61.7591 59.0094 61.7591 58.9594C61.7591 58.9094 61.7591 58.8594 61.7491 58.8194C61.7291 58.7094 61.6891 58.6094 61.6491 58.5094C61.6291 58.4794 61.6291 58.4394 61.5791 58.4194C61.5591 58.4194 61.5491 58.3794 61.5491 58.3594C61.5591 58.3294 61.5491 58.3094 61.5291 58.2894C61.5091 58.2494 61.4791 58.2094 61.4591 58.1694C61.4391 58.1294 61.4091 58.0894 61.3791 58.0494C61.2991 58.0494 61.3491 57.9694 61.2991 57.9494C61.2891 57.9494 61.2791 57.9194 61.2591 57.9194C61.2491 57.9194 61.2291 57.8994 61.2291 57.8894C61.2391 57.8494 61.2091 57.8394 61.1991 57.8194C61.1291 57.7494 61.0691 57.6794 60.9791 57.6394C60.9291 57.6194 60.8791 57.5794 60.8391 57.5394C60.7991 57.4894 60.7291 57.4994 60.6791 57.4694C60.6491 57.4494 60.6191 57.4394 60.6091 57.3994C60.4991 57.3694 60.4291 57.2794 60.3191 57.2394C60.2891 57.2294 60.2591 57.2394 60.2291 57.2394C60.1991 57.2394 60.1791 57.2094 60.1491 57.1894C60.1491 57.1894 60.1391 57.1894 60.1291 57.1894C60.0991 57.2194 60.0791 57.1894 60.0491 57.1894C60.0191 57.1894 59.9791 57.1894 59.9591 57.1394C59.8691 57.1794 59.7891 57.1194 59.7091 57.1294C59.6891 57.1294 59.6591 57.1194 59.6491 57.1294C59.5991 57.1694 59.5391 57.1294 59.4891 57.1594C59.4391 57.1894 59.3691 57.1694 59.3091 57.1694C59.2891 57.1694 59.2691 57.1794 59.2591 57.1694C59.2291 57.1394 59.2091 57.1694 59.1891 57.1594C59.1691 57.1594 59.1391 57.1494 59.1191 57.1494C59.0591 57.1494 58.9991 57.1694 58.9391 57.1794C58.8791 57.1894 58.8191 57.1994 58.7591 57.2194C58.7291 57.2194 58.6991 57.2394 58.6791 57.2494C58.6491 57.2494 58.6291 57.2694 58.5991 57.2594C58.5691 57.2594 58.5391 57.2694 58.5191 57.2994C58.4991 57.3194 58.4991 57.3394 58.4691 57.3194C58.4691 57.3594 58.4391 57.3594 58.4191 57.3694C58.3191 57.4294 58.1991 57.4594 58.1091 57.5394C58.0591 57.5794 58.0591 57.6594 57.9691 57.6594C57.9691 57.6594 57.9591 57.6694 57.9591 57.6794C57.9591 57.7194 57.9191 57.7494 57.8891 57.7594C57.8491 57.7594 57.8291 57.7894 57.8091 57.8194C57.7391 57.8994 57.6891 57.9994 57.6191 58.0794C57.5791 58.1494 57.5391 58.2194 57.4891 58.2894C57.4491 58.3594 57.4191 58.4394 57.3891 58.5094C57.3891 58.5294 57.3691 58.5494 57.3791 58.5894C57.3891 58.6394 57.3391 58.6794 57.3591 58.7294C57.2991 58.7694 57.3091 58.8494 57.2891 58.8994C57.2391 59.0394 57.2691 59.1894 57.2091 59.3394C57.1991 59.3694 57.2091 59.3994 57.2091 59.4294C57.2091 59.4594 57.2191 59.4994 57.2091 59.5094C57.1691 59.5494 57.2291 59.5594 57.2291 59.5894C57.2191 59.6394 57.2291 59.6794 57.2391 59.7294C57.2391 59.7694 57.2391 59.8294 57.2591 59.8594C57.2991 59.8994 57.2991 59.9394 57.2891 59.9894C57.2891 59.9894 57.2891 60.0094 57.2891 60.0194C57.3391 60.0494 57.3191 60.0994 57.3491 60.1294C57.3891 60.1594 57.3991 60.1994 57.4191 60.2494C57.4191 60.2694 57.4191 60.2994 57.4191 60.3194C57.4191 60.3494 57.4291 60.3794 57.4591 60.3894C57.5091 60.4194 57.5191 60.4794 57.5491 60.5194C57.5691 60.5494 57.5791 60.5894 57.6191 60.5994C57.6391 60.5994 57.6491 60.6394 57.6491 60.6694C57.6491 60.7094 57.6991 60.7194 57.6791 60.7694C57.7091 60.7694 57.7291 60.7894 57.7391 60.8094C57.7591 60.8394 57.7891 60.8694 57.8091 60.8994C57.8291 60.9294 57.8591 60.9394 57.8691 60.9794C57.8691 61.0294 57.9391 60.9994 57.9591 61.0394C57.9591 61.0494 57.9791 61.0494 57.9791 61.0594C57.9791 61.1094 58.0191 61.1294 58.0491 61.1494L58.2191 61.2694L58.3991 61.3794L58.6091 61.5094C58.6291 61.5594 58.6791 61.5494 58.7091 61.5694C58.7391 61.5894 58.7691 61.6194 58.8091 61.6294C58.8591 61.6294 58.9191 61.6594 58.9691 61.6694C59.0191 61.6794 59.0691 61.6894 59.1291 61.6794C59.1791 61.6694 59.2391 61.6994 59.2891 61.6994C59.3091 61.6994 59.3291 61.6794 59.3591 61.6794C59.3791 61.6794 59.4091 61.6994 59.4291 61.6994C59.4591 61.6994 59.4791 61.6994 59.4991 61.6794C59.5091 61.6794 59.5491 61.7094 59.5691 61.6994C59.6191 61.6594 59.6791 61.6794 59.7291 61.6694C59.7791 61.6694 59.8191 61.6594 59.8691 61.6494C59.8791 61.6494 59.9091 61.6494 59.9091 61.6494C59.9391 61.5994 59.9891 61.6194 60.0391 61.5994C60.0891 61.5794 60.1391 61.5694 60.1791 61.5594C60.1891 61.5594 60.2091 61.5694 60.2191 61.5594C60.2991 61.5094 60.2991 61.5094 60.4091 61.4894C60.4291 61.4894 60.4391 61.4694 60.4591 61.4494C60.4591 61.4494 60.4691 61.4294 60.4791 61.4294C60.5491 61.4494 60.5891 61.3794 60.6391 61.3794C60.7091 61.3794 60.7591 61.3394 60.7991 61.2994C60.9491 61.1794 61.1291 61.0894 61.2091 60.9094C61.2991 60.8294 61.3491 60.7294 61.4391 60.6494C61.5091 60.5794 61.5591 60.4794 61.5991 60.3794C61.5991 60.3794 61.5991 60.3694 61.5991 60.3594C61.5791 60.3094 61.6291 60.2794 61.6291 60.2294C61.6291 60.1794 61.6291 60.1394 61.6491 60.0994C61.6791 60.0194 61.6991 59.9394 61.7191 59.8494C61.7291 59.7694 61.7891 59.6994 61.7891 59.6194C61.7891 59.5694 61.7991 59.5294 61.7891 59.4994C61.7891 59.4694 61.7491 59.4394 61.7291 59.4094L61.7391 59.4394Z" fill="#201512"/>
<path d="M71.9792 63.99C71.9792 63.99 71.9792 63.93 71.9792 63.9C71.9492 63.65 71.8492 63.42 71.6692 63.24C71.5992 63.17 71.5392 63.1 71.4692 63.04C71.3892 62.97 71.2892 62.88 71.1792 62.88C71.0692 62.88 70.9692 62.86 70.8692 62.88C70.8292 62.88 70.7892 62.88 70.7592 62.9C70.6192 62.95 70.6292 62.95 70.4792 62.99C70.4592 62.99 70.4492 63 70.4292 63.01C70.3992 63.03 70.3792 63.06 70.3492 63.08C70.2392 63.16 70.1192 63.25 70.0392 63.36C69.9492 63.47 69.8892 63.61 69.8792 63.75C69.8792 63.76 69.8692 63.78 69.8592 63.8C69.8592 63.83 69.8392 63.87 69.8292 63.9C69.7992 64.02 69.8892 64.08 69.8292 64.17C69.8692 64.21 69.8492 64.27 69.8492 64.31C69.8492 64.33 69.8492 64.36 69.8492 64.39H69.8392C69.8392 64.39 69.8192 64.45 69.8392 64.47H69.8592C69.8592 64.47 69.8592 64.49 69.8592 64.52C69.8592 64.52 69.8592 64.54 69.8592 64.55C69.8592 64.57 69.8492 64.59 69.8392 64.6C69.8192 64.65 69.7892 64.69 69.8092 64.74C69.7892 64.79 69.7792 64.84 69.7592 64.89C69.7592 64.92 69.7492 64.94 69.7292 64.97C69.7392 64.95 69.7492 64.93 69.7692 64.92C69.7392 64.99 69.7192 65.03 69.6892 65.09C69.6592 65.15 69.6092 65.21 69.5792 65.25C69.5792 65.25 69.5692 65.27 69.5592 65.27L69.4992 65.34L69.4592 65.38L69.3292 65.51C69.3292 65.51 69.2392 65.58 69.2792 65.55C69.3092 65.53 69.2792 65.57 69.2492 65.58C69.2292 65.6 69.2092 65.61 69.1892 65.62C69.1292 65.64 69.0992 65.67 69.0392 65.7C69.0292 65.7 69.0192 65.7 69.0092 65.71L68.9892 65.65C68.9892 65.65 68.9492 65.65 68.9292 65.67H68.9192L68.9392 65.73V65.75H68.9292C68.8592 65.78 68.7792 65.8 68.6992 65.81C68.6392 65.81 68.5692 65.81 68.5092 65.86H68.4792C68.4792 65.86 68.4592 65.86 68.4492 65.86C68.3492 65.86 68.2392 65.88 68.1492 65.86C68.0792 65.84 68.0092 65.84 67.9492 65.83V65.81H67.8892L67.8592 65.79C67.8392 65.79 67.8192 65.79 67.7892 65.77C67.7492 65.76 67.6992 65.75 67.6592 65.76C67.5392 65.7 67.3992 65.71 67.2692 65.67L67.1792 65.63C67.1792 65.63 67.1292 65.61 67.0992 65.59L66.9492 65.51C66.8892 65.48 66.8392 65.42 66.7592 65.42C66.7492 65.42 66.7192 65.4 66.7092 65.38C66.6992 65.34 66.6692 65.32 66.6292 65.31L66.6592 65.34C66.6592 65.34 66.6592 65.36 66.6592 65.37C66.6592 65.37 66.6592 65.37 66.6592 65.36C66.6592 65.36 66.6292 65.34 66.6192 65.33C66.6192 65.33 66.5992 65.31 66.5992 65.3C66.5792 65.28 66.5692 65.25 66.5492 65.23C66.4792 65.17 66.4092 65.11 66.3792 65.03C66.3792 65.02 66.3792 65.01 66.3392 64.99C66.3392 64.99 66.3392 65 66.3392 65.01C66.3392 65.01 66.3392 65.03 66.3392 65.04C66.3392 65.05 66.3392 65.04 66.3292 65.04C66.3292 65.04 66.3192 65.02 66.3192 65.01C66.3192 65.01 66.3192 65 66.3192 64.99C66.3192 64.98 66.3192 64.97 66.3092 64.96L66.2792 64.91L66.2592 64.88V64.86C66.2592 64.86 66.2392 64.86 66.2392 64.88C66.1992 64.78 66.1692 64.71 66.1492 64.62L66.1192 64.49V64.46C66.1192 64.46 66.1092 64.45 66.1092 64.44C66.1092 64.44 66.1092 64.46 66.1092 64.47C66.1092 64.48 66.1092 64.5 66.1092 64.51C66.1092 64.51 66.1092 64.51 66.1092 64.5V64.47C66.1092 64.47 66.1092 64.4 66.1092 64.37C66.1092 64.3 66.1092 64.23 66.0892 64.17C66.0692 64.11 66.0992 64.04 66.0992 63.96C66.0992 63.84 66.0492 63.72 65.9992 63.61C65.9492 63.51 65.8892 63.4 65.8092 63.32C65.6992 63.21 65.5592 63.12 65.4092 63.09C65.2592 63.06 65.0892 63.02 64.9292 63.04C64.7692 63.06 64.6292 63.14 64.4792 63.19C64.2992 63.33 64.1092 63.5 64.0292 63.74C63.9992 63.83 63.9892 63.88 63.9992 63.92C63.9992 63.96 64.0192 63.99 64.0592 64.05C64.0692 64.07 64.0892 64.08 64.1092 64.09C64.1292 64.09 64.1392 64.09 64.1592 64.09C64.1292 64.09 64.1092 64.09 64.0892 64.09C64.0292 64.12 63.9892 64.25 64.0092 64.37C64.0092 64.38 64.0092 64.41 64.0092 64.42C63.9792 64.46 63.9892 64.53 64.0092 64.56C64.0492 64.66 64.0492 64.77 64.0692 64.87C64.0792 64.93 64.0892 64.98 64.0992 65.04C64.1092 65.1 64.1392 65.15 64.1592 65.21C64.1792 65.25 64.1392 65.31 64.1992 65.35C64.1692 65.5 64.3392 65.59 64.3192 65.73C64.3192 65.74 64.3292 65.77 64.3392 65.77C64.3992 65.8 64.4092 65.88 64.4492 65.93C64.4892 65.99 64.5492 66.03 64.5792 66.1C64.5892 66.13 64.6192 66.15 64.6192 66.17C64.6392 66.25 64.6792 66.32 64.7592 66.36C64.7592 66.36 64.7792 66.39 64.7792 66.4C64.7792 66.45 64.8192 66.48 64.8492 66.51C64.9092 66.58 64.9692 66.65 65.0292 66.71C65.0992 66.78 65.1692 66.85 65.2392 66.91C65.3092 66.96 65.3792 67 65.4492 67.06C65.6092 67.18 65.7692 67.28 65.9392 67.38C66.0992 67.48 66.2792 67.55 66.4492 67.66C66.5492 67.72 66.6592 67.75 66.7792 67.79C66.8792 67.82 66.9592 67.89 67.0692 67.91C67.1692 67.92 67.2692 67.91 67.3592 67.98C67.3592 67.98 67.3792 67.99 67.3892 67.98C67.4792 67.95 67.5592 67.99 67.6492 68C67.6692 68 67.6992 68.03 67.7092 68.02C67.7892 68 67.8692 68.04 67.9392 68.02C68.0192 68.01 68.0892 68.01 68.1592 68.01C68.2192 68.01 68.2892 68.03 68.3492 68.03C68.3892 68.03 68.4392 68.03 68.4692 68C68.5092 68.03 68.5592 68.02 68.6092 68.01C68.8092 67.99 68.9992 67.96 69.1992 67.91C69.2292 67.91 69.2692 67.9 69.2892 67.88C69.3692 67.83 69.4392 67.81 69.5292 67.81C69.5892 67.81 69.6592 67.78 69.6992 67.75C69.7392 67.71 69.7792 67.7 69.8292 67.68C69.9292 67.63 70.0392 67.59 70.1292 67.53C70.2392 67.46 70.3392 67.44 70.4492 67.43C70.4992 67.42 70.5592 67.39 70.5692 67.36C70.5892 67.32 70.6292 67.3 70.6592 67.27C70.6992 67.24 70.7292 67.19 70.7692 67.15C70.8092 67.12 70.8592 67.09 70.8992 67.06C70.9192 67.05 70.9492 67.03 70.9492 67.02C70.9692 66.95 71.0292 66.9 71.0792 66.85C71.1392 66.79 71.1992 66.72 71.2492 66.66C71.2992 66.59 71.3592 66.53 71.4092 66.46C71.5092 66.32 71.5792 66.17 71.6892 66.04C71.7392 65.97 71.7692 65.87 71.7892 65.78C71.8092 65.68 71.8392 65.56 71.9192 65.48C71.9392 65.46 71.9392 65.4 71.9592 65.37C71.9792 65.33 71.9392 65.3 71.9792 65.26C71.9992 65.24 71.9992 65.19 72.0092 65.15C72.0792 64.91 72.0592 64.67 72.0792 64.43C72.0792 64.37 72.1092 64.29 72.0592 64.24V64.21C72.1292 64.15 72.0992 64.09 72.0592 64.03L71.9792 63.99ZM67.8292 65.82H67.8792L67.8992 65.83C67.8992 65.83 67.8992 65.83 67.8992 65.84H67.8492L67.8292 65.82C67.8292 65.82 67.8292 65.82 67.8092 65.82H67.8392H67.8292ZM67.1492 65.65H67.1692L67.1992 65.67H67.1692L67.1492 65.65Z" fill="#201512"/>
<path d="M66.5586 65.2903V65.2803V65.2903H66.5686L66.5886 65.3103H66.5986L66.5786 65.3003L66.5586 65.2903Z" fill="#201512"/>
<path d="M70.1789 59.4997C70.1789 59.4997 70.1489 59.4497 70.1289 59.4297C70.1289 59.4197 70.1089 59.3997 70.0989 59.3997C70.0889 59.3997 70.0789 59.3997 70.0689 59.3997C70.1089 59.3997 70.1489 59.3697 70.1489 59.3297C70.1489 59.3097 70.1689 59.2997 70.1489 59.2797C70.1389 59.2797 70.1589 59.2397 70.1589 59.2197C70.1589 59.2097 70.1489 59.1897 70.1389 59.1797C70.1589 59.1397 70.1389 59.1097 70.1389 59.0697C70.1389 59.0297 70.1389 58.9897 70.1389 58.9597C70.1189 58.8797 70.0889 58.7997 70.0589 58.7197C70.0489 58.6897 70.0389 58.6597 70.0089 58.6497C69.9889 58.6497 69.9789 58.6197 69.9889 58.5997C69.9889 58.5797 69.9889 58.5597 69.9789 58.5497C69.9589 58.5197 69.9389 58.4897 69.9189 58.4597C69.8989 58.4297 69.8789 58.3997 69.8589 58.3697C69.7989 58.3697 69.8389 58.3097 69.7989 58.2897C69.7889 58.2897 69.7889 58.2697 69.7689 58.2697C69.7589 58.2697 69.7389 58.2597 69.7489 58.2497C69.7489 58.2197 69.7389 58.2097 69.7189 58.1997C69.6689 58.1497 69.6189 58.0897 69.5489 58.0597C69.5089 58.0397 69.4689 58.0097 69.4389 57.9797C69.4089 57.9397 69.3489 57.9497 69.3089 57.9197C69.2889 57.9097 69.2589 57.8997 69.2489 57.8597C69.1689 57.8397 69.1089 57.7697 69.0289 57.7397C69.0089 57.7397 68.9889 57.7397 68.9589 57.7397C68.9289 57.7397 68.9189 57.7097 68.8989 57.6997H68.8889C68.8689 57.7197 68.8489 57.6997 68.8289 57.6997C68.7989 57.6997 68.7789 57.6997 68.7589 57.6597C68.6889 57.6897 68.6289 57.6497 68.5689 57.6597C68.5489 57.6597 68.5289 57.6497 68.5189 57.6597C68.4789 57.6897 68.4389 57.6597 68.3889 57.6897C68.3489 57.7097 68.2989 57.6897 68.2489 57.6997C68.2389 57.6997 68.2189 57.6997 68.2089 57.6997C68.1889 57.6797 68.1689 57.6997 68.1489 57.6997C68.1289 57.6997 68.1089 57.6897 68.0889 57.6997C68.0389 57.6997 67.9889 57.7097 67.9489 57.7197C67.8989 57.7197 67.8489 57.7397 67.8089 57.7497C67.7889 57.7497 67.7689 57.7697 67.7489 57.7697C67.7289 57.7697 67.7089 57.7897 67.6789 57.7797C67.6589 57.7797 67.6289 57.7797 67.6189 57.8097C67.6089 57.8297 67.5989 57.8397 67.5789 57.8297C67.5789 57.8597 67.5489 57.8597 67.5389 57.8697C67.4589 57.9197 67.3689 57.9397 67.2989 57.9997C67.2589 58.0297 67.2589 58.0897 67.1889 58.0897C67.1889 58.0897 67.1889 58.0897 67.1789 58.1097C67.1789 58.1397 67.1489 58.1697 67.1289 58.1697C67.0989 58.1697 67.0889 58.1997 67.0689 58.2097C67.0089 58.2697 66.9689 58.3497 66.9289 58.4197C66.8989 58.4697 66.8589 58.5297 66.8289 58.5797C66.7989 58.6397 66.7689 58.6897 66.7489 58.7497C66.7489 58.7697 66.7389 58.7797 66.7489 58.8097C66.7489 58.8497 66.7189 58.8797 66.7389 58.9197C66.6889 58.9497 66.6989 59.0097 66.6889 59.0497C66.6489 59.1597 66.6689 59.2797 66.6289 59.3897C66.6289 59.4097 66.6289 59.4397 66.6289 59.4597C66.6289 59.4797 66.6289 59.5097 66.6289 59.5297C66.5989 59.5597 66.6489 59.5697 66.6389 59.5897C66.6389 59.6297 66.6389 59.6597 66.6489 59.6997C66.6489 59.7297 66.6489 59.7697 66.6689 59.7997C66.6989 59.8297 66.6989 59.8597 66.6889 59.8997V59.9197C66.7289 59.9397 66.7089 59.9797 66.7389 60.0097C66.7689 60.0397 66.7789 60.0697 66.7889 60.0997C66.7889 60.1197 66.7889 60.1397 66.7889 60.1597C66.7889 60.1797 66.7989 60.1997 66.8189 60.2097C66.8589 60.2397 66.8689 60.2797 66.8889 60.3097C66.9089 60.3297 66.9089 60.3597 66.9489 60.3697C66.9689 60.3697 66.9689 60.3997 66.9689 60.4197C66.9689 60.4497 67.0089 60.4597 66.9989 60.4997C67.0189 60.4997 67.0389 60.5197 67.0489 60.5297C67.0689 60.5597 67.0889 60.5697 67.1089 60.5997C67.1289 60.6197 67.1489 60.6297 67.1489 60.6697C67.1489 60.7097 67.2089 60.6897 67.2189 60.7197C67.2189 60.7197 67.2389 60.7297 67.2389 60.7397C67.2389 60.7797 67.2689 60.7897 67.2989 60.8097L67.4289 60.9097L67.5689 60.9897L67.7289 61.0897C67.7389 61.1297 67.7789 61.1197 67.8089 61.1397C67.8389 61.1597 67.8589 61.1797 67.8889 61.1897C67.9289 61.1897 67.9689 61.2097 68.0089 61.2197C68.0489 61.2197 68.0889 61.2397 68.1289 61.2197C68.1689 61.2097 68.2089 61.2297 68.2489 61.2297C68.2689 61.2297 68.2789 61.2197 68.2989 61.2197C68.3189 61.2197 68.3389 61.2397 68.3589 61.2397C68.3789 61.2397 68.3989 61.2397 68.4189 61.2297C68.4289 61.2297 68.4589 61.2597 68.4689 61.2397C68.5089 61.2097 68.5489 61.2197 68.5989 61.2197C68.6389 61.2197 68.6689 61.2097 68.7089 61.1997C68.7189 61.1997 68.7389 61.1997 68.7389 61.1997C68.7689 61.1597 68.8089 61.1697 68.8389 61.1597C68.8789 61.1497 68.9089 61.1397 68.9489 61.1297C68.9489 61.1297 68.9689 61.1297 68.9789 61.1297C69.0389 61.0897 69.0389 61.0897 69.1289 61.0797C69.1389 61.0797 69.1489 61.0597 69.1689 61.0497C69.1689 61.0497 69.1689 61.0297 69.1789 61.0397C69.2289 61.0497 69.2589 60.9997 69.3089 60.9997C69.3589 60.9997 69.3989 60.9697 69.4389 60.9397C69.5589 60.8497 69.6989 60.7797 69.7589 60.6297C69.8289 60.5697 69.8689 60.4897 69.9389 60.4197C69.9989 60.3597 70.0289 60.2797 70.0589 60.2097C70.0589 60.2097 70.0589 60.2097 70.0589 60.1997C70.0389 60.1597 70.0789 60.1397 70.0789 60.0997C70.0789 60.0597 70.0789 60.0297 70.0989 59.9997C70.1289 59.9397 70.1389 59.8697 70.1489 59.8097C70.1489 59.7497 70.2089 59.6897 70.1989 59.6297C70.1989 59.5897 70.2089 59.5597 70.1989 59.5297L70.1789 59.4997Z" fill="#5D8E5F"/>
</g>
<defs>
<clipPath id="clip0_361_1921">
<rect width="122.99" height="129.95" fill="white"/>
</clipPath>
</defs>
</svg>
