<svg width="203" height="175" viewBox="0 0 203 175" fill="none" xmlns="http://www.w3.org/2000/svg">
<g clip-path="url(#clip0_361_570)">
<path d="M118.443 58.4067C118.443 58.4067 118.38 58.3128 118.349 58.2659C118.333 58.2346 118.317 58.2033 118.286 58.1876C118.27 58.1876 118.239 58.1876 118.208 58.1876C118.302 58.1876 118.364 58.1251 118.38 58.0468C118.38 58.0155 118.427 57.9842 118.38 57.9373C118.364 57.9217 118.396 57.8591 118.412 57.8278C118.412 57.7965 118.396 57.7652 118.38 57.7339C118.38 57.7339 118.38 57.7339 118.38 57.7183C118.412 57.64 118.38 57.5618 118.38 57.4836C118.38 57.4053 118.38 57.3271 118.365 57.2489C118.333 57.0768 118.255 56.9203 118.192 56.7482C118.161 56.7013 118.161 56.6387 118.082 56.6074C118.051 56.6074 118.035 56.5448 118.035 56.5135C118.051 56.4666 118.035 56.4353 118.004 56.404C117.972 56.3414 117.925 56.2788 117.894 56.2163C117.863 56.1537 117.816 56.0911 117.769 56.0285C117.643 56.0285 117.722 55.9033 117.643 55.8564C117.612 55.8564 117.612 55.8095 117.565 55.8095C117.549 55.8095 117.518 55.7782 117.518 55.7625C117.533 55.6999 117.486 55.6843 117.455 55.653C117.345 55.5435 117.251 55.4183 117.11 55.3557C117.016 55.3244 116.953 55.2618 116.89 55.1836C116.828 55.1054 116.702 55.121 116.624 55.0584C116.577 55.0272 116.53 55.0115 116.514 54.9489C116.342 54.902 116.216 54.7612 116.044 54.6986C115.997 54.6829 115.95 54.6986 115.902 54.6986C115.855 54.6986 115.824 54.636 115.777 54.6204C115.777 54.6204 115.761 54.6204 115.746 54.6204C115.699 54.6673 115.667 54.6204 115.62 54.6204C115.573 54.6204 115.51 54.6204 115.479 54.5421C115.338 54.6047 115.212 54.5108 115.071 54.5265C115.04 54.5265 114.993 54.5108 114.977 54.5265C114.899 54.6047 114.805 54.5265 114.711 54.5891C114.632 54.636 114.522 54.6047 114.428 54.6047C114.397 54.6047 114.366 54.6204 114.35 54.6047C114.303 54.5578 114.272 54.6047 114.225 54.5891C114.177 54.5891 114.146 54.5734 114.099 54.5734C114.005 54.5734 113.895 54.6047 113.801 54.6204C113.707 54.636 113.597 54.6517 113.503 54.6829C113.456 54.6829 113.409 54.7142 113.362 54.7299C113.315 54.7299 113.284 54.7612 113.221 54.7455C113.174 54.7455 113.127 54.7612 113.095 54.8081C113.064 54.8394 113.064 54.8707 113.017 54.8394C113.017 54.902 112.954 54.902 112.923 54.9176C112.766 55.0115 112.578 55.0585 112.437 55.1836C112.358 55.2462 112.343 55.3714 112.217 55.3714C112.217 55.3714 112.202 55.387 112.202 55.4027C112.202 55.4809 112.139 55.5122 112.092 55.5278C112.029 55.5278 111.998 55.5748 111.966 55.6217C111.857 55.7469 111.762 55.9033 111.668 56.0441C111.59 56.1537 111.527 56.2632 111.465 56.3727C111.402 56.4822 111.355 56.6074 111.292 56.7326C111.292 56.7639 111.261 56.8108 111.276 56.8577C111.292 56.936 111.214 56.9985 111.245 57.0768C111.135 57.1394 111.167 57.2645 111.135 57.3584C111.057 57.5931 111.088 57.8278 111.01 58.0625C110.994 58.1094 111.01 58.1563 111.01 58.2033C111.01 58.2502 111.025 58.3128 111.01 58.3441C110.947 58.4067 111.057 58.4223 111.041 58.4693C111.025 58.5475 111.041 58.6257 111.057 58.6883C111.057 58.7509 111.057 58.8448 111.104 58.8917C111.167 58.9543 111.167 59.0169 111.151 59.0951C111.151 59.0951 111.151 59.1264 111.151 59.142C111.229 59.189 111.198 59.2672 111.245 59.3141C111.308 59.3767 111.323 59.4393 111.355 59.5019C111.355 59.5332 111.355 59.5801 111.355 59.6271C111.355 59.674 111.37 59.7209 111.417 59.7366C111.496 59.7835 111.512 59.8774 111.574 59.94C111.606 59.9869 111.621 60.0495 111.684 60.0652C111.715 60.0652 111.731 60.1277 111.731 60.1747C111.731 60.2373 111.81 60.2686 111.794 60.3311C111.841 60.3311 111.872 60.3624 111.888 60.3937C111.919 60.4407 111.966 60.4876 111.998 60.5345C112.029 60.5815 112.092 60.5971 112.092 60.6753C112.092 60.7536 112.217 60.7066 112.233 60.7692C112.233 60.7849 112.264 60.7849 112.264 60.8005C112.264 60.8787 112.327 60.91 112.374 60.957L112.641 61.1604L112.923 61.3325L113.252 61.5359C113.284 61.6298 113.362 61.5985 113.409 61.6298C113.456 61.661 113.503 61.7236 113.582 61.7236C113.676 61.7236 113.754 61.7706 113.832 61.7862C113.911 61.8019 113.989 61.8175 114.083 61.8019C114.162 61.7862 114.256 61.8331 114.334 61.8331C114.366 61.8331 114.413 61.8019 114.444 61.8019C114.475 61.8019 114.522 61.8331 114.554 61.8488C114.601 61.8488 114.632 61.8488 114.679 61.8175C114.695 61.8175 114.758 61.8644 114.789 61.8488C114.867 61.7862 114.962 61.8175 115.04 61.8019C115.118 61.8019 115.197 61.7862 115.26 61.7706C115.275 61.7706 115.322 61.7706 115.322 61.7706C115.385 61.6923 115.463 61.7236 115.526 61.6923C115.605 61.661 115.683 61.6454 115.761 61.6298C115.777 61.6298 115.808 61.6454 115.824 61.6298C115.95 61.5359 115.95 61.5515 116.122 61.5202C116.153 61.5202 116.169 61.4889 116.2 61.4576C116.2 61.4576 116.216 61.4264 116.232 61.4264C116.342 61.4576 116.404 61.3481 116.498 61.3481C116.608 61.3481 116.687 61.2699 116.765 61.223C117 61.0352 117.298 60.8787 117.424 60.5971C117.565 60.4719 117.643 60.2998 117.784 60.1747C117.894 60.0495 117.972 59.8931 118.035 59.7366C118.035 59.7366 118.035 59.7209 118.035 59.7053C118.004 59.6114 118.082 59.5801 118.082 59.5019C118.082 59.4237 118.082 59.3611 118.114 59.2985C118.176 59.1733 118.192 59.0325 118.223 58.9074C118.239 58.7822 118.333 58.657 118.333 58.5319C118.333 58.4536 118.365 58.391 118.333 58.3285L118.443 58.4067Z" fill="#272D35"/>
<path d="M92.882 58.2815C92.882 58.2815 92.8507 58.2189 92.8193 58.2033C92.8036 58.2033 92.7723 58.2033 92.7409 58.2033C92.835 58.2033 92.8977 58.1407 92.9134 58.0624C92.9134 58.0312 92.9604 57.9999 92.9134 57.9529C92.8977 57.9373 92.9291 57.8747 92.9448 57.8434C92.9448 57.8121 92.9291 57.7808 92.9134 57.7495C92.9134 57.7495 92.9134 57.7495 92.9134 57.7339C92.9448 57.6557 92.9134 57.5774 92.9134 57.4992C92.9134 57.421 92.9134 57.3427 92.8977 57.2645C92.8663 57.0924 92.7879 56.9359 92.7252 56.7638C92.6938 56.7169 92.6938 56.6543 92.6154 56.623C92.5841 56.623 92.5684 56.5604 92.5684 56.5291C92.5841 56.4822 92.5684 56.4509 92.537 56.4196C92.5057 56.357 92.4586 56.2945 92.4273 56.2319C92.3959 56.1693 92.3488 56.1067 92.3018 56.0441C92.1763 56.0441 92.2548 55.919 92.1763 55.872C92.145 55.872 92.145 55.8251 92.0979 55.8251C92.0823 55.8251 92.0509 55.7938 92.0509 55.7781C92.0666 55.7156 92.0195 55.6999 91.9882 55.6686C91.8784 55.5591 91.7843 55.4339 91.6432 55.3713C91.5491 55.3401 91.4863 55.2775 91.4236 55.1992C91.3609 55.121 91.2354 55.1367 91.157 55.0741C91.11 55.0428 91.0629 55.0271 91.0473 54.9646C90.8748 54.9176 90.7493 54.7768 90.5768 54.7142C90.5298 54.6986 90.4827 54.7142 90.4357 54.7142C90.3886 54.7142 90.3573 54.6516 90.3102 54.636C90.3102 54.636 90.2945 54.636 90.2789 54.636C90.2318 54.6829 90.2005 54.636 90.1534 54.636C90.1064 54.636 90.0436 54.636 90.0123 54.5578C89.8711 54.6203 89.7457 54.5265 89.6045 54.5421C89.5732 54.5421 89.5261 54.5265 89.5105 54.5421C89.432 54.6203 89.338 54.5421 89.2439 54.6047C89.1655 54.6516 89.0557 54.6203 88.9616 54.6203C88.9302 54.6203 88.8989 54.636 88.8832 54.6203C88.8361 54.5734 88.8048 54.6203 88.7577 54.6047C88.7107 54.6047 88.6793 54.589 88.6323 54.589C88.5382 54.589 88.4284 54.6203 88.3343 54.636C88.2402 54.6516 88.1305 54.6673 88.0364 54.6986C87.9893 54.6986 87.9423 54.7299 87.8952 54.7455C87.8482 54.7455 87.8168 54.7768 87.7541 54.7612C87.7071 54.7612 87.66 54.7768 87.6286 54.8237C87.5973 54.855 87.5973 54.8863 87.5502 54.855C87.5502 54.9176 87.4875 54.9176 87.4561 54.9333C87.2993 55.0271 87.1111 55.0741 86.97 55.1992C86.8916 55.2618 86.8759 55.387 86.7505 55.387C86.7505 55.387 86.7348 55.4026 86.7348 55.4183C86.7348 55.4965 86.6721 55.5278 86.625 55.5435C86.5623 55.5435 86.5309 55.5904 86.4996 55.6373C86.3898 55.7625 86.2957 55.919 86.2016 56.0598C86.1232 56.1693 86.0605 56.2788 85.9977 56.3883C85.935 56.4979 85.888 56.623 85.8252 56.7482C85.8252 56.7795 85.7939 56.8264 85.8096 56.8734C85.8252 56.9516 85.7468 57.0142 85.7782 57.0924C85.6684 57.155 85.6998 57.2801 85.6684 57.374C85.59 57.6087 85.6214 57.8434 85.543 58.0781C85.5273 58.125 85.543 58.172 85.543 58.2189C85.543 58.2658 85.5587 58.3284 85.543 58.3597C85.4802 58.4223 85.59 58.438 85.5743 58.4849C85.5587 58.5631 85.5743 58.6413 85.59 58.7039C85.59 58.7665 85.59 58.8604 85.6371 58.9073C85.6998 58.9699 85.6998 59.0325 85.6841 59.1107C85.6841 59.1107 85.6841 59.142 85.6841 59.1577C85.7625 59.2046 85.7312 59.2828 85.7782 59.3298C85.8409 59.3924 85.8566 59.4549 85.888 59.5175C85.888 59.5488 85.888 59.5958 85.888 59.6427C85.888 59.6896 85.9037 59.7366 85.9507 59.7522C86.0291 59.7991 86.0448 59.893 86.1075 59.9556C86.1389 60.0025 86.1546 60.0651 86.2173 60.0808C86.2487 60.0808 86.2643 60.1434 86.2643 60.1903C86.2643 60.2529 86.3427 60.2842 86.3271 60.3468C86.3741 60.3468 86.4055 60.3781 86.4212 60.4093C86.4525 60.4563 86.4996 60.5032 86.5309 60.5502C86.5623 60.5971 86.625 60.6127 86.625 60.691C86.625 60.7692 86.7505 60.7223 86.7662 60.7848C86.7662 60.8005 86.7975 60.8005 86.7975 60.8161C86.7975 60.8944 86.8602 60.9257 86.9073 60.9726L87.1739 61.176L87.4561 61.3481L87.7855 61.5515C87.8168 61.6454 87.8952 61.6141 87.9423 61.6454C87.9893 61.6767 88.0364 61.7392 88.1148 61.7392C88.2089 61.7392 88.2873 61.7862 88.3657 61.8018C88.4441 61.8175 88.5225 61.8331 88.6166 61.8175C88.695 61.8018 88.7891 61.8488 88.8675 61.8488C88.8989 61.8488 88.9459 61.8175 88.9773 61.8175C89.0086 61.8175 89.0557 61.8488 89.087 61.8644C89.1341 61.8644 89.1655 61.8644 89.2125 61.8331C89.2282 61.8331 89.2909 61.8801 89.3223 61.8644C89.4007 61.8018 89.4948 61.8331 89.5732 61.8175C89.6516 61.8175 89.73 61.8018 89.7927 61.7862C89.8084 61.7862 89.8554 61.7862 89.8554 61.7862C89.9182 61.708 89.9966 61.7392 90.0593 61.708C90.1377 61.6767 90.2161 61.661 90.2945 61.6454C90.3102 61.6454 90.3416 61.661 90.3573 61.6454C90.4827 61.5515 90.4827 61.5671 90.6552 61.5359C90.6866 61.5359 90.7023 61.5046 90.7336 61.4733C90.7336 61.4733 90.7493 61.442 90.765 61.442C90.8748 61.4733 90.9375 61.3637 91.0316 61.3637C91.1414 61.3637 91.2198 61.2855 91.2982 61.2386C91.5334 61.0508 91.8313 60.8944 91.9568 60.6127C92.0979 60.4876 92.1763 60.3155 92.3175 60.1903C92.4273 60.0651 92.5057 59.9087 92.5684 59.7522C92.5684 59.7522 92.5684 59.7366 92.5684 59.7209C92.537 59.627 92.6154 59.5958 92.6154 59.5175C92.6154 59.4393 92.6154 59.3767 92.6468 59.3141C92.7095 59.189 92.7252 59.0481 92.7566 58.923C92.7723 58.7978 92.8663 58.6726 92.8663 58.5475C92.8663 58.4692 92.8977 58.4067 92.8663 58.3441C92.8663 58.2971 92.8036 58.2502 92.7723 58.2033L92.882 58.2815Z" fill="#272D35"/>
<path d="M108.422 67.5436C108.422 67.5436 108.422 67.4498 108.422 67.4028C108.375 67.0117 108.203 66.6362 107.936 66.3389C107.826 66.2294 107.732 66.1042 107.622 66.0103C107.497 65.9008 107.34 65.76 107.152 65.76C106.979 65.76 106.823 65.7287 106.65 65.76C106.587 65.76 106.525 65.76 106.462 65.7913C106.242 65.8695 106.242 65.8695 106.007 65.9321C105.976 65.9321 105.96 65.9478 105.929 65.9634C105.882 65.9947 105.85 66.0416 105.803 66.0729C105.615 66.1981 105.443 66.3389 105.301 66.5267C105.16 66.6988 105.066 66.9334 105.051 67.1525C105.051 67.1838 105.035 67.1994 105.019 67.2307C105.019 67.2933 104.988 67.3402 104.972 67.4028C104.925 67.5906 105.066 67.7001 104.972 67.8409C105.035 67.9035 105.003 68.013 105.003 68.0756C105.003 68.1069 105.003 68.1538 104.988 68.2008H104.972C104.972 68.2008 104.941 68.2946 104.972 68.3259H105.003C105.003 68.3259 105.003 68.3572 105.003 68.4042C105.003 68.4042 105.003 68.4355 105.003 68.4511C105.003 68.4824 104.988 68.5137 104.972 68.545C104.941 68.6232 104.894 68.6858 104.925 68.7797C104.894 68.8579 104.878 68.9361 104.847 69.03C104.847 69.0769 104.831 69.1082 104.8 69.1552C104.815 69.1239 104.831 69.0926 104.862 69.0769C104.815 69.1865 104.784 69.2647 104.737 69.3586C104.69 69.4525 104.611 69.5463 104.564 69.6246C104.564 69.6246 104.549 69.6558 104.533 69.6558L104.439 69.7654L104.376 69.828L104.157 70.047C104.157 70.047 104 70.1565 104.078 70.1096C104.125 70.0783 104.063 70.1409 104.031 70.1565C104 70.1878 103.968 70.2191 103.921 70.2191C103.812 70.2504 103.765 70.313 103.671 70.3443C103.655 70.3443 103.639 70.3599 103.623 70.3599L103.592 70.266C103.592 70.266 103.529 70.2817 103.498 70.2973H103.482L103.514 70.3912V70.4225H103.498C103.388 70.4694 103.263 70.5164 103.122 70.5164C103.028 70.5164 102.918 70.532 102.808 70.5946H102.761C102.761 70.5946 102.73 70.5946 102.714 70.5946C102.557 70.5946 102.369 70.6259 102.228 70.5946C102.118 70.5633 102.008 70.5633 101.898 70.5477V70.5164H101.804L101.757 70.4851C101.726 70.4851 101.679 70.4851 101.648 70.4538C101.585 70.4381 101.506 70.4225 101.428 70.4381C101.224 70.3443 101.005 70.3599 100.801 70.2973L100.66 70.2347C100.66 70.2347 100.581 70.1878 100.534 70.1722L100.283 70.047C100.189 70.0001 100.095 69.8905 99.9696 69.8905C99.9539 69.8905 99.8912 69.8592 99.8912 69.828C99.8755 69.7654 99.8128 69.7341 99.7658 69.7028L99.8128 69.7497C99.8128 69.7497 99.8128 69.781 99.8128 69.7967C99.8128 69.7967 99.8128 69.7967 99.8128 69.781C99.8128 69.781 99.7658 69.7497 99.7501 69.7341C99.7501 69.7341 99.7187 69.7028 99.703 69.6871C99.6717 69.6558 99.656 69.6089 99.6246 69.5776C99.5149 69.4837 99.3894 69.3899 99.3424 69.249C99.3424 69.2334 99.3424 69.2178 99.2796 69.1865C99.2796 69.1865 99.2796 69.2021 99.2796 69.2178C99.2796 69.2178 99.2796 69.2491 99.2796 69.2647C99.2796 69.2803 99.2796 69.2647 99.264 69.2647C99.264 69.2647 99.2483 69.2334 99.2483 69.2021C99.2483 69.2021 99.2483 69.1865 99.2483 69.1708C99.2483 69.1552 99.2483 69.1395 99.2326 69.1239L99.1855 69.0457L99.1542 68.9987V68.9674C99.1542 68.9674 99.1228 68.9674 99.1228 68.9987C99.0601 68.8423 99.013 68.7327 98.9817 68.5919L98.9346 68.3885V68.3416C98.9346 68.3416 98.919 68.3259 98.919 68.3103C98.919 68.3103 98.919 68.3416 98.919 68.3572C98.919 68.3729 98.919 68.4042 98.919 68.4198C98.919 68.4198 98.919 68.4198 98.919 68.4042V68.3572C98.919 68.3572 98.919 68.2477 98.919 68.2008C98.919 68.0913 98.919 67.9817 98.8876 67.8722C98.8562 67.7783 98.9033 67.6532 98.9033 67.528C98.9033 67.3246 98.8249 67.1368 98.7308 66.9647C98.6524 66.7926 98.5583 66.6205 98.4171 66.4954C98.2446 66.3233 98.0251 66.1668 97.7742 66.1355C97.5233 66.0886 97.2567 66.0103 97.0058 66.0416C96.7549 66.0729 96.5353 66.1981 96.2844 66.2763C95.9865 66.511 95.6885 66.777 95.5631 67.1525C95.516 67.2933 95.5003 67.3715 95.516 67.4341C95.516 67.4967 95.5474 67.5436 95.6101 67.6375C95.6258 67.6688 95.6572 67.6845 95.6885 67.7001C95.7199 67.7001 95.7356 67.7001 95.7669 67.7001C95.7199 67.7001 95.6885 67.7001 95.6572 67.7001C95.5631 67.747 95.5003 67.9661 95.516 68.1382C95.516 68.1695 95.516 68.2008 95.516 68.2164C95.469 68.2946 95.4847 68.3885 95.516 68.4511C95.5787 68.6076 95.5787 68.7797 95.6101 68.9518C95.6258 69.0457 95.6415 69.1395 95.6572 69.2178C95.6728 69.3116 95.7199 69.4055 95.7512 69.4837C95.7826 69.5463 95.7199 69.6402 95.814 69.7028C95.7669 69.9375 96.0492 70.0783 96.0178 70.313C96.0178 70.3286 96.0335 70.3756 96.0492 70.3912C96.159 70.4381 96.159 70.5633 96.2217 70.6572C96.2844 70.7511 96.3785 70.8136 96.4256 70.9232C96.4412 70.9701 96.4883 71.0014 96.4883 71.0327C96.5196 71.1579 96.5981 71.2674 96.7078 71.33C96.7235 71.33 96.7549 71.3769 96.7549 71.3925C96.7549 71.4708 96.8176 71.5177 96.8646 71.5647C96.9587 71.6742 97.0528 71.7837 97.1626 71.8932C97.2724 72.0027 97.3821 72.1123 97.5076 72.2061C97.6174 72.3 97.7428 72.3626 97.8526 72.4408C98.1035 72.6286 98.3701 72.8007 98.6367 72.9571C98.9033 73.1136 99.1855 73.2231 99.4521 73.3952C99.6089 73.4891 99.7971 73.5517 99.9696 73.6143C100.126 73.6612 100.252 73.7707 100.424 73.802C100.581 73.8177 100.754 73.802 100.879 73.9115C100.879 73.9115 100.926 73.9272 100.926 73.9115C101.067 73.8646 101.208 73.9272 101.35 73.9428C101.381 73.9428 101.428 73.9898 101.444 73.9741C101.569 73.9428 101.695 74.0054 101.804 73.9741C101.93 73.9585 102.04 73.9585 102.165 73.9585C102.259 73.9585 102.369 73.9898 102.463 73.9898C102.526 73.9898 102.604 73.9898 102.651 73.9428C102.714 73.9898 102.792 73.9741 102.871 73.9585C103.184 73.9272 103.498 73.8803 103.812 73.802C103.859 73.802 103.921 73.7864 103.953 73.7551C104.078 73.6769 104.204 73.6456 104.345 73.6299C104.439 73.6299 104.549 73.583 104.611 73.536C104.674 73.4735 104.737 73.4578 104.815 73.4265C104.988 73.3483 105.145 73.2701 105.301 73.1918C105.474 73.0823 105.646 73.051 105.819 73.0197C105.897 73.0041 105.991 72.9571 106.023 72.9102C106.054 72.8476 106.117 72.8163 106.164 72.7694C106.227 72.7068 106.274 72.6442 106.336 72.5816C106.399 72.5191 106.478 72.4878 106.556 72.4408C106.587 72.4252 106.634 72.3939 106.634 72.3626C106.666 72.2374 106.775 72.1748 106.838 72.0966C106.932 72.0027 107.026 71.8932 107.105 71.7837C107.183 71.6742 107.277 71.5803 107.356 71.4551C107.513 71.2361 107.638 71.0014 107.795 70.7824C107.873 70.6728 107.92 70.5164 107.967 70.3599C108.014 70.2035 108.046 70.0157 108.171 69.8749C108.203 69.828 108.203 69.7497 108.234 69.7028C108.265 69.6402 108.203 69.5776 108.265 69.515C108.297 69.4837 108.297 69.4055 108.312 69.3429C108.422 68.9674 108.391 68.5763 108.422 68.2008C108.422 68.1069 108.469 67.9817 108.391 67.8879V67.8409C108.5 67.747 108.453 67.6532 108.391 67.5436H108.422ZM101.773 70.4694H101.851L101.883 70.4851C101.883 70.4851 101.883 70.4851 101.883 70.5007H101.804L101.757 70.4694C101.757 70.4694 101.757 70.4694 101.726 70.4538H101.773V70.4694ZM100.675 70.2035H100.707L100.754 70.2347H100.707L100.675 70.2035Z" fill="#272D35"/>
<path d="M99.7344 69.6406V69.625V69.6406H99.7501L99.7657 69.6719H99.7814L99.7501 69.6563L99.7344 69.6406Z" fill="#272D35"/>
<path d="M104.864 61.6613C104.864 61.6613 104.817 61.5831 104.785 61.5518C104.77 61.5361 104.754 61.5048 104.738 61.4892C104.723 61.4892 104.707 61.4892 104.676 61.4892C104.754 61.4892 104.801 61.4423 104.801 61.3797C104.801 61.3484 104.832 61.3327 104.801 61.3014C104.785 61.2858 104.817 61.2389 104.817 61.2076C104.817 61.1919 104.801 61.1606 104.785 61.145C104.817 61.0824 104.785 61.0198 104.785 60.9572C104.785 60.8947 104.785 60.8321 104.785 60.7851C104.754 60.6443 104.707 60.5191 104.66 60.394C104.644 60.347 104.629 60.3001 104.582 60.2845C104.55 60.2845 104.535 60.2375 104.55 60.2062C104.55 60.1749 104.55 60.1436 104.535 60.128C104.503 60.0811 104.472 60.0341 104.44 59.9715C104.409 59.9246 104.378 59.8777 104.346 59.8307C104.252 59.8307 104.299 59.7369 104.252 59.7056C104.237 59.7056 104.237 59.6743 104.205 59.6743C104.19 59.6743 104.158 59.6586 104.174 59.643C104.174 59.596 104.158 59.5804 104.127 59.5647C104.048 59.4865 103.97 59.3926 103.86 59.3301C103.797 59.2988 103.735 59.2518 103.688 59.2049C103.641 59.1423 103.547 59.1579 103.484 59.111C103.452 59.0954 103.405 59.0797 103.39 59.0171C103.264 58.9858 103.155 58.8607 103.029 58.8294C102.998 58.8294 102.951 58.8294 102.919 58.8294C102.872 58.8294 102.857 58.7825 102.825 58.7668H102.81C102.778 58.7981 102.747 58.7668 102.715 58.7668C102.668 58.7668 102.637 58.7668 102.606 58.7042C102.496 58.7512 102.402 58.6886 102.292 58.7042C102.261 58.7042 102.229 58.6886 102.214 58.7042C102.151 58.7668 102.072 58.7042 102.01 58.7512C101.947 58.7824 101.869 58.7512 101.79 58.7668C101.775 58.7668 101.743 58.7668 101.727 58.7668C101.696 58.7355 101.665 58.7668 101.633 58.7668C101.602 58.7668 101.571 58.7512 101.539 58.7668C101.461 58.7668 101.382 58.7825 101.304 58.7981C101.226 58.7981 101.147 58.8294 101.085 58.845C101.053 58.845 101.022 58.8763 100.975 58.8763C100.943 58.8763 100.912 58.9076 100.865 58.892C100.834 58.892 100.787 58.892 100.771 58.9389C100.755 58.9702 100.74 58.9858 100.708 58.9702C100.708 59.0171 100.661 59.0171 100.645 59.0328C100.52 59.111 100.379 59.1423 100.269 59.2518C100.206 59.2988 100.206 59.4083 100.097 59.4083C100.097 59.4083 100.081 59.4083 100.081 59.4396C100.081 59.5022 100.034 59.5335 100.003 59.5335C99.9555 59.5335 99.9398 59.5804 99.9084 59.596C99.8143 59.6899 99.7516 59.8151 99.6732 59.9246C99.6105 60.0028 99.5634 60.0967 99.5164 60.1906C99.4693 60.2845 99.4223 60.3783 99.3909 60.4722C99.3909 60.5035 99.3752 60.5348 99.3909 60.5661C99.3909 60.6287 99.3439 60.6756 99.3752 60.7382C99.2968 60.7851 99.3125 60.879 99.2968 60.9572C99.2341 61.1293 99.2655 61.3171 99.2027 61.5048C99.2027 61.5361 99.2027 61.5831 99.2027 61.6144C99.2027 61.6457 99.2027 61.6926 99.2027 61.7239C99.1557 61.7708 99.2341 61.7865 99.2184 61.8178C99.2184 61.8803 99.2184 61.9273 99.2341 61.9899C99.2341 62.0368 99.2341 62.115 99.2655 62.1463C99.3125 62.1933 99.3125 62.2402 99.2968 62.3028V62.3341C99.3596 62.3654 99.3282 62.4436 99.3752 62.4749C99.4223 62.5218 99.438 62.5688 99.4536 62.6157C99.4536 62.647 99.4536 62.6783 99.4536 62.7096C99.4536 62.7409 99.4693 62.7722 99.5007 62.8035C99.5634 62.8504 99.5791 62.913 99.6105 62.9599C99.6418 62.9912 99.6418 63.0381 99.7046 63.0538C99.7359 63.0538 99.7359 63.1007 99.7359 63.132C99.7359 63.179 99.7986 63.1946 99.783 63.2572C99.8143 63.2572 99.8457 63.2885 99.8614 63.3041C99.8927 63.3511 99.9241 63.3667 99.9555 63.4136C99.9868 63.4449 100.018 63.4606 100.018 63.5232C100.018 63.5858 100.112 63.5545 100.128 63.6014C100.128 63.6014 100.159 63.617 100.159 63.6327C100.159 63.6953 100.206 63.7109 100.253 63.7422L100.457 63.8987L100.677 64.0395L100.928 64.1959C100.943 64.2585 101.006 64.2429 101.053 64.2742C101.1 64.3055 101.132 64.3368 101.179 64.3524C101.241 64.3524 101.304 64.3837 101.382 64.3993C101.445 64.3993 101.508 64.4306 101.571 64.3993C101.633 64.3837 101.696 64.415 101.775 64.415C101.806 64.415 101.837 64.3837 101.853 64.3993C101.884 64.3993 101.916 64.4306 101.947 64.4306C101.978 64.4306 102.01 64.4306 102.041 64.415C102.057 64.415 102.104 64.4619 102.135 64.4306C102.198 64.3837 102.276 64.3993 102.339 64.3993C102.402 64.3993 102.449 64.3837 102.512 64.3681C102.527 64.3681 102.559 64.3681 102.559 64.3681C102.606 64.3055 102.668 64.3211 102.715 64.3055C102.778 64.2898 102.841 64.2742 102.888 64.2585C102.888 64.2585 102.919 64.2585 102.935 64.2585C103.029 64.1959 103.029 64.1959 103.17 64.1803C103.186 64.1803 103.217 64.149 103.233 64.1334C103.233 64.1334 103.233 64.1021 103.249 64.1177C103.327 64.1334 103.374 64.0551 103.452 64.0551C103.531 64.0551 103.594 63.9926 103.656 63.9613C103.845 63.8204 104.064 63.6953 104.174 63.4762C104.284 63.3824 104.346 63.2415 104.456 63.1477C104.55 63.0538 104.597 62.9286 104.644 62.8035C104.644 62.8035 104.644 62.8035 104.644 62.7878C104.613 62.7252 104.676 62.6939 104.676 62.6314C104.676 62.5688 104.676 62.5218 104.707 62.4749C104.754 62.381 104.77 62.2715 104.785 62.1776C104.785 62.0681 104.88 61.9899 104.864 61.896C104.864 61.8334 104.88 61.7865 104.864 61.7395V61.6613Z" fill="#5D8E5F"/>
<path d="M163.702 70.0156C164.408 70.3285 164.392 71.4237 165.067 71.9088C165.741 72.3938 166.258 73.0353 166.823 73.6455C167.105 73.9584 167.466 74.1461 167.921 74.2713C168.344 74.3965 168.313 75.0536 169.034 74.8658C169.097 74.8502 169.113 74.9441 169.16 74.9754C169.865 75.6794 170.759 76.2114 171.214 77.1189C171.731 78.1828 172.704 78.7773 173.378 79.6691C175.181 80.4201 176.091 82.0943 177.455 83.299C177.879 83.6745 178.396 83.9718 178.475 84.7071C178.725 85.5207 178.992 84.7854 178.82 85.5833C178.82 85.6459 178.898 85.5207 178.929 85.5051C178.976 85.4738 179.008 85.4269 179.055 85.3799C179.086 85.333 179.102 85.3173 179.117 85.333C179.212 85.5051 179.321 85.5833 179.4 85.5677C179.478 85.5677 179.4 85.552 179.572 85.4738C179.713 85.4112 179.87 85.3017 180.09 85.1765C180.2 85.1139 180.372 85.3799 180.497 85.3643C181.015 85.3173 181.517 85.286 182.019 85.1609C182.473 85.0357 182.991 85.3956 183.383 84.7228C183.477 84.582 183.681 84.6758 183.838 84.6758C184.324 84.6446 184.826 84.6759 185.312 84.6289C185.876 84.5507 186.441 84.8949 187.037 84.3629C187.303 84.1282 187.601 84.801 187.758 84.6758C188.056 84.4568 188.323 84.4255 188.574 84.5037C188.824 84.582 189.044 84.848 189.295 84.9105C189.514 84.9575 189.797 84.7228 190.032 84.7541C190.612 84.8167 191.161 85.1922 191.757 85.0983C192.4 84.9888 192.933 85.1765 193.482 85.3956C194.062 85.6146 194.595 85.9119 195.176 86.1466C195.63 86.35 195.866 86.8037 196.164 87.1636C196.461 87.4921 197.136 87.4452 197.042 88.2275C197.042 88.2588 197.089 88.2744 197.12 88.2901C197.434 88.6186 197.747 88.9628 198.03 89.3071C198.296 89.6826 198.547 90.0424 198.829 90.3866C199.817 91.5601 200.617 92.7022 201.338 94.0321C201.558 94.3763 201.919 94.7362 201.589 95.2995C201.527 95.4246 201.746 95.5185 201.715 95.6437C201.605 96.113 202.671 96.0818 202.342 96.645C202.044 97.1144 202.373 97.4117 202.436 97.7715C202.468 98.194 202.577 98.6164 202.609 99.0388C202.64 99.3361 202.75 99.5864 203.016 99.8211C202.405 100.165 202.813 100.635 202.53 100.995C202.326 101.229 202.076 101.573 202.264 101.777C202.64 102.246 202.405 102.622 202.311 103.013C202.201 103.607 201.887 104.124 202.028 104.812C202.091 105.109 201.856 105.375 201.668 105.626C201.511 105.86 201.166 105.954 201.009 106.158C200.711 106.549 200.507 106.971 200.476 107.55C200.445 108.051 199.692 108.113 199.943 108.849C199.974 108.943 199.864 109.037 199.77 109.068C199.253 109.224 198.876 109.412 198.798 110.038C198.735 110.554 198.186 110.742 197.857 111.055C197.496 111.383 197.214 111.837 196.744 112.009C196.446 112.119 196.869 112.87 196.242 112.682C195.913 112.573 195.709 112.932 195.474 113.105C195.223 113.277 195.05 113.558 194.736 113.621C193.106 113.949 192.29 115.217 190.769 115.796C190.126 116.015 189.703 116.86 188.809 116.39C188.542 117.063 187.821 116.797 187.476 117.313C187.256 117.642 186.99 117.704 186.707 117.736C185.767 117.861 184.841 118.08 183.869 117.97C183.399 117.939 182.912 117.939 182.442 117.877L181.046 117.579C180.419 117.485 179.839 117.282 179.227 117.094L178.318 116.813C178.035 116.687 177.753 116.547 177.487 116.39C177.173 116.218 176.844 116.093 176.734 115.608C176.64 115.264 176.31 114.919 175.746 115.045C175.636 115.06 175.479 115.045 175.479 114.951C175.479 114.419 175.228 114.215 174.883 114.075C174.57 113.918 174.193 113.824 173.958 113.59C172.97 112.682 172.672 111.352 171.935 110.367C171.794 110.147 171.841 109.756 171.277 109.85C171.575 109.443 171.308 109.428 170.994 109.303C170.681 109.177 170.43 108.818 170.571 108.489C170.759 108.051 170.524 107.848 170.445 107.566C170.351 107.269 170.179 107.003 170.069 106.705C169.708 105.438 169.363 104.171 169.238 102.888C169.207 102.637 169.348 102.356 169.379 102.09C169.41 101.824 169.097 101.605 169.536 101.292C169.693 101.182 169.536 100.948 169.505 100.776C169.426 100.15 169.583 99.4613 169.191 98.945C168.987 98.6164 169.018 98.5695 168.987 98.3974C168.971 98.2565 168.909 98.1314 168.579 98.194C168.391 98.2409 168.579 98.0375 168.47 98.0531C168.281 98.0531 168.234 97.9123 168.109 97.8185C168.109 97.8028 167.889 97.6933 167.686 97.6463C167.482 97.5994 167.262 97.5994 167.011 97.662C166.98 97.13 166.635 97.0518 166.337 96.9266C166.117 96.8328 165.992 96.4729 165.584 96.8484C165.537 96.8953 165.459 96.8484 165.427 96.8171C165.239 96.5668 165.161 96.16 164.831 96.0974C164.565 96.0348 164.22 96.2226 163.953 96.0818C163.028 95.5654 162.416 94.5641 161.319 94.2512C161.099 93.6723 160.644 93.5158 160.205 93.2655C159.86 93.0777 159.437 92.9526 158.982 92.8274C158.857 92.4206 158.716 91.9356 158.778 91.388C158.825 90.9186 158.888 90.4023 158.888 90.0111C158.888 89.7295 158.857 89.4479 158.716 89.1819C158.214 88.2744 158.496 87.3513 158.386 86.4438C158.355 86.2092 158.167 85.9432 158.669 85.7241C158.794 85.6772 158.731 85.4112 158.574 85.3486C158.245 85.2078 158.449 85.0201 158.339 84.8792C158.01 84.4725 159.28 84.05 158.339 83.6589V82.2977C158.308 81.8439 158.276 81.3902 158.308 80.9365C158.308 80.7174 158.198 80.514 158.543 80.295C158.763 80.1385 158.794 79.7943 158.59 79.6535C158.104 79.3093 158.292 78.9651 158.276 78.6052C158.229 77.5569 158.198 76.5087 158.229 75.4604C158.229 75.0066 158.433 74.5373 158.543 74.0835C158.653 73.6142 158.292 73.1448 158.747 72.6754C158.778 72.6441 158.747 72.5972 158.747 72.5502C158.669 72.3625 158.512 72.1904 158.543 72.0026C158.574 71.7679 158.998 71.455 158.81 71.3142C158.449 71.0482 158.841 70.8761 158.872 70.6727C158.982 70.0938 159.907 69.7183 161.052 69.7653C161.303 69.7653 161.585 69.8435 161.773 69.9217C163.012 70.4224 162.95 70.4224 163.028 71.2673C163.138 72.3312 162.448 73.3638 162.714 74.4277C162.087 75.1318 162.526 75.8515 162.401 76.5712C162.275 77.3066 161.758 78.0733 162.15 78.793C162.526 79.5127 162.463 80.2168 162.463 80.9365C162.463 81.4841 162.228 82.0317 162.181 82.5636C162.134 83.1269 162.307 83.7058 162.15 84.2534C162.056 84.5976 161.648 84.9731 161.899 85.286C162.432 85.9901 161.993 86.7255 162.275 87.4139C162.479 87.8989 162.511 88.3839 162.542 88.869L162.589 89.5887C162.589 89.6982 162.62 89.839 162.636 89.9485C162.652 89.9955 162.683 90.0268 162.714 90.0737C162.84 90.2145 162.981 90.2771 162.997 90.3866H163.028C163.028 90.3866 163.122 90.4492 163.028 90.6683C162.934 90.9029 163.044 90.9812 163.404 90.7621C163.593 90.6995 163.843 90.6995 163.875 90.8717C164.047 91.5601 164.596 91.607 165.035 91.826C165.318 91.9669 165.38 92.5614 165.647 92.4675C166.086 92.3111 166.258 92.5771 166.541 92.6709C166.745 92.7492 167.027 92.7179 166.98 93.1873C166.98 93.3124 167.137 93.4376 167.231 93.375C167.811 93.0151 168.031 93.4689 168.376 93.6253C168.783 93.8131 169.191 94.0165 169.599 94.2355L171.355 95.2056C171.622 95.362 171.92 95.4716 172.233 95.5811C172.296 95.6124 172.421 95.628 172.453 95.675L172.515 95.8784L172.625 96.3008C172.782 96.8797 172.908 97.5212 172.813 98.1627C172.97 98.3817 173.064 98.4912 173.127 98.5695C173.19 98.679 173.221 98.7729 173.221 98.8824C173.253 99.1014 173.221 99.3205 173.253 99.5395C173.3 99.8681 173.143 100.228 173.08 100.588C173.002 100.948 173.19 101.245 173.017 101.652C172.813 102.152 173.205 102.622 173.284 103.107C173.347 103.373 173.754 103.545 173.284 103.952C173.221 104.014 173.284 104.124 173.362 104.139C174.052 104.28 174.005 104.75 173.927 105.125C173.801 105.735 174.162 106.126 174.303 106.611C174.429 107.018 174.742 107.331 174.899 107.722C175.025 108.004 175.26 108.192 175.213 108.599C175.197 108.896 175.652 108.974 175.856 109.177C176.06 109.381 176.201 109.631 176.373 109.866C176.561 110.116 176.781 110.32 176.985 110.554L177.612 111.227C177.863 111.446 178.145 111.618 178.365 111.869C178.569 112.088 178.647 112.526 178.898 112.698C179.259 112.948 179.698 113.058 180.121 113.183C180.56 113.277 180.984 113.308 181.313 113.59C181.658 113.277 181.752 113.652 181.972 113.777C182.16 113.887 182.379 114.137 182.677 113.746C182.756 113.637 182.865 113.683 182.944 113.683C183.132 113.683 183.257 114.106 183.524 113.793C183.697 113.59 183.932 113.793 184.136 113.762C184.339 113.715 184.606 114.075 184.763 113.496C185.218 114.247 185.437 112.964 185.829 113.277C185.97 113.371 186.112 113.417 186.237 113.449C186.3 113.464 186.394 113.543 186.441 113.48C186.833 112.948 187.288 112.807 187.774 112.635C188.244 112.416 188.762 112.26 189.185 111.931C189.279 111.869 189.326 111.634 189.405 111.493C189.452 111.43 189.499 111.368 189.577 111.352C190.283 111.243 190.283 111.227 190.628 110.664C190.706 110.523 190.894 110.492 191.004 110.367C191.287 110.054 191.694 109.944 191.82 109.428C191.961 108.911 192.682 109.13 193.168 109.068C193.607 109.005 194.078 108.974 194.391 108.677C194.752 108.301 195.129 107.941 195.521 107.582C195.897 107.222 196.226 106.831 196.587 106.471C196.681 106.377 196.885 106.314 196.806 106.173C196.524 105.563 196.336 105.156 197.324 105.532C197.371 105.548 197.434 105.469 197.402 105.407C197.057 104.843 197.449 104.781 197.606 104.562C197.747 104.358 197.857 104.124 197.951 103.889C198.014 103.654 198.03 103.404 198.077 103.154C198.186 102.684 198.155 102.231 198.422 101.839C198.516 101.714 198.375 101.495 198.594 101.448C199.049 101.339 198.375 101.151 198.547 101.026C198.688 100.916 198.5 100.713 198.657 100.619C199.269 100.259 199.143 99.7586 198.845 99.4143C198.579 99.0701 198.359 98.7885 198.453 98.413C198.563 98.0531 198.531 97.7089 198.453 97.3804C198.328 97.0674 198.155 96.7545 198.03 96.4416C197.763 95.7845 197.387 95.143 196.916 94.5328C196.728 94.2981 196.744 93.86 196.116 93.9696C195.991 93.9852 195.96 93.8444 195.944 93.7349C195.881 93.5002 195.897 93.2185 195.756 93.0621C195.615 92.9056 195.301 92.9056 195.097 92.8117C194.94 92.7335 194.893 92.5458 194.548 92.6709C194.297 92.7492 194.266 92.4988 194.297 92.139C194.376 91.4349 194.376 90.637 193.811 90.4492C193.341 90.2771 192.964 89.9172 192.478 89.7608C192.274 89.6826 192.118 89.5574 191.804 89.7295C191.537 89.8703 191.255 89.6669 191.083 89.4322C190.8 89.0411 190.455 88.869 190.001 89.1037C189.844 89.1975 189.687 89.1506 189.546 89.135C188.683 88.9472 187.789 88.8377 186.88 88.7594C186.66 88.7594 186.425 88.8533 186.268 88.4152C186.112 88.9003 185.892 88.7282 185.688 88.6812C185.39 88.6343 185.108 88.4152 184.794 88.3839C184.434 88.337 184.089 88.3996 183.759 88.7282C183.461 89.0254 183.022 88.603 182.724 89.0567C182.662 89.1349 182.505 88.869 182.411 88.9159C182.034 89.0567 181.517 88.6812 181.266 89.4166C181.25 89.4792 181.156 89.4948 181.109 89.4479C180.827 89.1506 180.592 89.1506 180.372 89.2601C180.043 89.3853 179.619 89.6826 179.196 89.886C178.694 90.1206 178.224 90.1519 177.8 90.1363C177.549 89.7608 177.33 89.3383 177.047 89.0724C176.703 88.7438 176.31 88.4309 175.95 88.0867C175.636 87.7894 175.495 87.6486 175.37 87.3357C175.009 86.3187 174.162 85.8024 173.519 85.0826C172.86 84.3473 172.155 83.6432 171.418 82.9861C171.104 82.6888 170.618 82.5636 170.289 82.2977C169.912 82.0004 169.599 81.6249 169.254 81.2807C168.94 80.9521 168.595 80.6548 168.297 80.3106C168.156 80.1542 167.842 80.1229 168.015 79.7004C168.046 79.6066 167.983 79.497 167.889 79.5127C167.278 79.5596 167.043 79.278 167.058 78.6991C167.058 78.5426 166.87 78.4957 166.823 78.3549C166.682 77.9794 166.164 78.0263 165.835 77.8699C165.521 77.729 165.584 77.1814 164.926 77.4161C164.831 77.4474 164.722 77.3379 164.753 77.244C165.067 76.0393 163.295 76.7746 163.546 75.6325C162.934 75.8828 163.248 75.21 163.044 75.1318C162.746 75.0223 162.432 74.9441 162.228 74.7094C162.04 74.506 161.852 74.2869 161.617 74.1148C161.193 73.8019 161.021 73.2387 160.315 73.223C160.08 73.223 159.766 73.0666 159.97 72.5815C160.001 72.4877 159.923 72.4251 159.845 72.3938C159.311 72.1278 159.202 71.2673 159.735 70.5319C160.049 70.1095 160.503 69.6557 160.927 69.3272C161.146 69.1551 161.428 69.2176 161.679 69.1864C162.103 69.1394 162.62 68.9986 162.934 69.1081C163.295 69.2333 163.483 69.5931 163.796 69.9217L163.702 70.0156Z" fill="#272D35"/>
<path d="M43.2035 78.9025C42.8899 79.6065 41.7922 79.6065 41.306 80.2637C40.8199 80.9364 40.177 81.4684 39.5811 82.016C39.2831 82.2976 39.0949 82.6575 38.9695 83.1112C38.844 83.5337 38.1854 83.5024 38.3736 84.2221C38.3892 84.2847 38.2952 84.3003 38.2638 84.3473C37.5581 85.0513 37.0406 85.9588 36.1154 86.3969C35.049 86.9132 34.4531 87.8832 33.5593 88.556C32.8065 90.3709 31.1286 91.2628 29.9368 92.6396C29.5604 93.0621 29.2625 93.5784 28.5254 93.6722C28.0707 93.5784 27.4748 95.1586 26.5809 95.096C26.5025 95.096 26.4554 95.362 26.377 95.4872C26.2673 95.6593 26.1575 95.8783 26.0477 96.0348C25.9223 96.0348 25.7968 96.0191 25.6557 95.9566C24.7148 95.4872 24.3227 95.2994 23.9307 95.1899C23.7739 95.143 23.4602 95.1117 23.3818 95.1273C23.2407 95.143 23.0839 95.1743 22.88 95.2212C22.7859 95.2525 22.7075 94.9396 22.5977 94.9239C22.1587 94.8144 21.7196 94.7049 21.2648 94.7205C20.8571 94.7205 20.465 94.2981 20.0416 94.9083C19.9475 95.0334 19.7907 94.9083 19.6653 94.9083C19.2575 94.877 18.8341 94.8457 18.4264 94.877C17.9559 94.9083 17.4698 94.6736 17.0464 95.2368C16.8739 95.4715 16.5289 94.877 16.4348 95.0178C16.2466 95.2994 16.0585 95.3777 15.8389 95.362C15.6351 95.3464 15.3841 95.096 15.196 95.143C15.0235 95.1743 14.898 95.5028 14.7412 95.5498C14.3335 95.6749 13.8003 95.5185 13.518 95.9253C13.2201 96.3634 12.7967 96.3477 12.4673 96.5668C12.1223 96.7701 11.6989 96.8327 11.3853 97.0987C11.1501 97.3178 10.7894 97.2239 10.4444 97.2552C10.0837 97.2708 10.1151 97.8497 9.5035 97.5055C9.47213 97.5055 9.47213 97.5368 9.44077 97.5524C9.1585 97.7089 8.86055 97.8497 8.57827 98.0062C8.31168 98.1939 8.06078 98.413 7.82555 98.632C7.02578 99.43 6.35147 100.541 5.77124 101.527C5.56738 101.808 5.67715 102.215 5.04988 102.278C4.92443 102.293 5.01852 102.481 4.90875 102.528C4.48534 102.731 5.34784 103.295 4.84602 103.435C4.37557 103.576 4.51671 103.92 4.39125 104.171C4.29716 104.468 4.31284 104.781 4.23443 105.094C4.17171 105.297 4.23443 105.501 4.54807 105.688C3.93648 105.907 4.34421 106.236 4.06194 106.518C3.88944 106.705 3.76398 107.034 3.98353 107.128C4.50102 107.347 4.28148 107.675 4.4383 107.941C4.65784 108.333 4.54807 108.833 5.17534 109.052C5.42625 109.146 5.42625 109.396 5.45761 109.615C5.47329 109.819 5.3792 110.1 5.45761 110.288C5.63011 110.632 5.81829 110.961 6.32011 111.086C6.74351 111.18 6.55533 111.853 7.26101 111.696C7.3551 111.681 7.38646 111.775 7.40214 111.868C7.44919 112.307 7.57464 112.666 8.10782 112.713C8.53123 112.76 8.67236 113.214 8.97032 113.464C9.28395 113.746 9.64463 113.949 9.86418 114.325C10.0053 114.575 10.6483 113.996 10.5385 114.607C10.4914 114.935 10.8364 115.029 11.0246 115.201C11.2128 115.389 11.5264 115.436 11.6519 115.686C12.3105 117.016 13.863 117.392 14.8196 118.174C15.2587 118.487 15.9173 118.299 16.0898 119.175C16.6387 118.753 16.8896 119.347 17.3287 119.097C17.5953 118.925 17.7521 119.034 17.9403 119.034C18.5519 119.066 19.1478 119.269 19.7593 119.175C20.0573 119.16 20.3553 119.175 20.6689 119.128L21.5471 118.894C21.9391 118.831 22.2841 118.565 22.6291 118.362L23.1466 118.049L23.6327 117.657C23.8209 117.517 23.9621 117.345 24.3698 117.501C24.6834 117.626 24.9657 117.376 24.8873 116.875C24.8716 116.781 24.8873 116.656 24.9657 116.687C25.4048 116.844 25.6086 116.687 25.7027 116.437C25.7968 116.171 25.7968 115.843 25.938 115.655C26.5495 114.966 27.4904 114.481 27.9923 113.652C28.0863 113.464 28.4157 113.371 28.0236 112.948C28.4941 113.042 28.3686 112.823 28.2902 112.557C28.1961 112.275 28.3529 111.994 28.6509 111.931C29.0743 111.868 29.0586 111.603 29.1841 111.399C29.3252 111.18 29.3879 110.93 29.5134 110.711C29.9838 109.741 30.47 108.755 30.8307 107.707C30.9091 107.503 31.16 107.347 31.3011 107.159C31.4579 106.971 31.2384 106.69 31.7245 106.565C31.9127 106.518 31.8186 106.267 31.8343 106.111C31.897 105.563 32.3204 104.984 31.9597 104.437C31.7872 104.233 31.8343 103.733 31.8343 103.373C31.8343 102.982 31.8029 102.575 31.4893 102.027C31.4109 101.871 31.4109 101.699 31.4422 101.542C31.4422 101.448 31.505 101.401 31.6147 101.37C31.7088 101.339 31.7872 101.292 31.85 101.245C32.3675 100.885 33.0418 100.635 33.622 100.353C33.967 100.181 34.1238 100.103 34.2649 99.9619C34.4218 99.8211 34.5472 99.6334 34.6256 99.383C35.0961 99.649 35.347 99.4143 35.6293 99.2266C35.8331 99.1014 36.1938 99.1953 36.1154 98.6477C36.1154 98.5851 36.1781 98.5381 36.2408 98.5381C36.5545 98.5068 36.9308 98.6789 37.1818 98.4443C37.3856 98.2565 37.417 97.8654 37.6836 97.7245C38.6245 97.2552 39.8476 97.2708 40.6317 96.5824C40.9297 96.8953 41.0708 96.7389 41.1963 96.6763C41.3217 96.6293 41.3374 96.5042 41.3217 96.3946C41.1963 96.1912 41.0708 96.0504 41.1492 95.9566C41.212 95.8627 41.2747 95.8001 41.2904 95.628C41.306 95.3464 41.2904 95.0647 41.1492 94.7988C40.6788 93.8756 40.9924 92.9682 40.914 92.0607C40.8983 91.826 40.7101 91.56 41.212 91.3566C41.3374 91.3097 41.2904 91.0594 41.1335 90.9811C40.8199 90.8247 41.0238 90.6526 40.914 90.5118C40.5847 90.0893 41.8863 89.7138 40.9454 89.2914V87.9302C40.9767 87.4765 40.961 87.0227 40.9924 86.569C41.0081 86.3656 40.8983 86.1465 41.2433 85.9431C41.4785 85.8023 41.5256 85.4581 41.3217 85.3017C40.8356 84.9418 41.0551 84.5976 41.0395 84.2534C41.0238 83.2051 41.0395 82.1568 41.0865 81.1085C41.1179 80.6548 41.3217 80.2011 41.4315 79.7474C41.557 79.278 41.212 78.7929 41.6824 78.3549C41.7138 78.3236 41.6824 78.2766 41.6824 78.2297C41.6197 78.0419 41.4629 77.8542 41.4942 77.6821C41.5256 77.4474 41.9647 77.1501 41.7765 77.0093C41.4158 76.7433 41.8235 76.5712 41.8549 76.3678C41.9804 75.7889 42.9213 75.4447 44.066 75.5386C44.3169 75.5542 44.5835 75.6325 44.7874 75.7107C46.0106 76.2583 45.9478 76.2583 46.0106 77.0875C46.089 78.1515 45.3519 79.1684 45.6028 80.2324C44.9599 80.9208 45.3676 81.6562 45.2108 82.3602C45.054 83.0956 44.5208 83.8466 44.8815 84.5663C45.2422 85.286 45.1481 86.0057 45.1167 86.7098C45.101 87.2574 44.8501 87.7894 44.7717 88.337C44.709 88.9002 44.8658 89.4791 44.6933 90.0267C44.5835 90.371 44.1758 90.7308 44.411 91.0594C44.9285 91.7791 44.4581 92.4988 44.7247 93.2029C44.9128 93.6879 44.9285 94.1729 44.9442 94.6579V95.3777L44.9913 95.7532C44.9913 95.9566 45.0226 96.1443 45.054 96.3477C45.1638 97.13 45.2892 97.9749 45.2892 98.8041L45.0383 98.9449C44.6619 99.1327 44.3169 99.3361 43.7524 99.3517C43.2035 99.3517 42.639 99.649 42.4351 100.165C42.3881 100.353 42.247 100.556 42.0745 100.494C41.4001 100.244 41.0708 100.682 40.6474 100.916C40.3808 101.073 39.832 100.791 39.7692 101.073C39.6595 101.527 39.3302 101.527 39.0949 101.699C38.9224 101.824 38.797 102.074 38.4206 101.761C38.3265 101.683 38.1227 101.746 38.1227 101.855C38.0913 102.544 37.6052 102.465 37.2758 102.669C36.8838 102.903 36.4918 103.122 36.084 103.341L35.6606 103.56L35.4254 103.654C35.2843 103.701 35.2843 103.873 35.4568 104.046C35.5665 104.202 35.6606 104.296 35.5352 104.405C35.6763 104.405 35.7704 104.546 35.8174 104.703C35.8645 104.843 35.8802 104.984 35.8802 105.109C35.8488 105.375 35.7547 105.641 35.7077 105.907C35.6449 106.314 35.3784 106.69 35.2059 107.081C35.049 107.472 35.049 107.879 34.704 108.239C34.2649 108.677 34.4061 109.349 34.2022 109.897C34.0768 110.179 34.265 110.617 33.6377 110.711C33.5593 110.711 33.5122 110.867 33.575 110.945C33.9984 111.524 33.6847 111.994 33.324 112.244C32.7281 112.651 32.6497 113.23 32.3518 113.746C32.1166 114.168 31.897 114.607 31.6304 115.013C31.4266 115.295 31.3638 115.655 30.9561 115.843C30.6268 115.968 30.6738 116.437 30.517 116.734C30.3445 117.032 30.125 117.282 29.9211 117.564C29.7016 117.861 29.4193 118.111 29.1684 118.393L28.4 119.206C28.0863 119.472 27.8041 119.77 27.4591 119.989C27.1141 120.176 26.722 120.27 26.3614 120.427C25.8909 120.677 25.5145 121.084 25.1068 121.459C24.6834 121.819 24.1973 122.101 23.6327 122.21C23.4916 122.727 23.1152 122.555 22.7859 122.539C22.4723 122.539 22.1116 122.43 21.9077 122.93C21.845 123.071 21.6882 123.071 21.5784 123.134C21.3118 123.274 21.0296 122.899 20.7316 123.196C20.5121 123.431 20.1357 123.227 19.8378 123.29C19.5084 123.337 19.1791 123.087 18.8812 123.587C18.395 122.711 17.7364 123.869 17.2189 123.415C17.0621 123.274 16.8739 123.212 16.7171 123.087C16.6387 123.024 16.576 122.883 16.4819 122.899C15.7135 123.024 14.9451 122.852 14.2707 122.539C13.6278 122.179 13.0319 121.757 12.3419 121.506C12.1537 121.444 11.9655 121.506 11.7773 121.475C11.6989 121.475 11.6048 121.428 11.5578 121.366C11.1187 120.724 11.1187 120.74 10.3817 120.615C10.1935 120.583 10.0837 120.442 9.91122 120.364C9.48781 120.161 9.20554 119.785 8.62532 119.785C8.02941 119.785 7.96669 118.972 7.76282 118.455C7.55896 118.002 7.40214 117.517 7.0101 117.251C6.53965 116.86 6.08488 116.453 5.64579 116.046C5.2067 115.608 4.81466 115.139 4.39125 114.685C4.28148 114.575 4.25012 114.325 4.07762 114.341C3.4033 114.434 2.85444 114.387 3.46603 113.511C3.49739 113.464 3.41898 113.371 3.35626 113.386C2.6349 113.511 2.66626 112.964 2.49376 112.651C2.32126 112.338 2.1174 112.072 1.89786 111.79L1.27059 110.898C0.815817 110.32 0.517864 109.6 0.423774 108.849C0.376729 108.614 0.188548 108.301 0.361047 108.129C0.737409 107.754 0.0317307 107.722 0.141503 107.425C0.251275 107.19 -0.0780414 106.893 0.110139 106.69C0.768772 105.986 0.502183 105.297 0.408092 104.656C0.314002 104.077 0.125821 103.388 0.502183 102.95C0.847181 102.512 1.05104 102.058 1.20786 101.589C1.41172 101.151 1.56854 100.697 1.78808 100.259C2.25854 99.3987 2.72899 98.5538 3.2308 97.7558C3.45035 97.4273 3.88944 97.2552 3.65421 96.6293C3.60717 96.5042 3.76398 96.3946 3.85807 96.3164C4.12466 96.1443 4.51671 96.0504 4.70489 95.8314C4.90875 95.6123 4.95579 95.2212 5.09693 94.9396C5.22238 94.7049 5.41056 94.5641 5.42625 94.1886C5.42625 93.9069 5.81829 93.8131 6.2417 93.86C7.08851 93.9382 7.8726 94.0478 8.43714 93.6253C8.92327 93.2185 9.51918 92.9525 10.0837 92.7022C10.3189 92.577 10.5699 92.5301 10.711 92.1546C10.8521 91.7947 11.3069 91.7634 11.6519 91.8573C12.2164 91.9981 12.6242 91.8886 13.0005 91.4505C13.126 91.3097 13.3298 91.2628 13.5023 91.2315C14.5687 90.9655 15.6507 90.856 16.7328 90.7621C16.9837 90.7621 17.266 90.6369 17.4855 91.0437C17.6423 90.5431 17.9246 90.6839 18.1441 90.7152C18.4891 90.7777 18.8184 90.9968 19.1634 91.0437C19.5712 91.0907 19.9475 91.075 20.3709 90.809C20.763 90.5587 21.1707 91.0437 21.6098 90.6839C21.6882 90.6213 21.8137 90.9186 21.9234 90.9029C22.3939 90.856 22.8173 91.3723 23.3505 90.7777C23.3975 90.7308 23.4916 90.7465 23.523 90.809C23.7268 91.1845 23.9777 91.2941 24.2443 91.2784C24.3855 91.2471 24.4482 91.075 24.5109 90.9968C24.5736 90.9029 24.6364 91.0281 24.7461 91.2002C24.8245 91.2941 24.9343 91.341 24.997 91.2784C25.0755 91.2002 25.1225 91.075 25.1695 90.9811C25.2793 90.8403 25.5616 90.5743 25.8282 90.4961C26.8475 90.1363 27.365 89.2914 28.0863 88.6343C28.8234 87.9771 29.5134 87.2574 30.1877 86.522C30.47 86.2091 30.6111 85.7241 30.8777 85.3799C31.1756 85.0044 31.552 84.6915 31.8813 84.3473C32.195 84.0343 32.5086 83.6901 32.8536 83.3929C33.0104 83.252 33.0418 82.9391 33.4652 83.1112C33.5593 83.1425 33.669 83.0799 33.6534 82.9861C33.5906 82.3759 33.8886 82.1412 34.4531 82.1568C34.6099 82.1568 34.657 81.9691 34.7981 81.9221C35.1745 81.7813 35.1274 81.265 35.2686 80.9364C35.4097 80.6235 35.9586 80.6705 35.7077 80.029C35.6763 79.9351 35.7861 79.8256 35.8802 79.8569C37.0877 80.1698 36.3349 78.4018 37.4797 78.6365C37.2288 78.0263 37.9031 78.3392 37.9815 78.1202C38.0913 77.8229 38.1697 77.51 38.3892 77.3066C38.5931 77.1188 38.8127 76.9311 38.9852 76.6964C39.2988 76.2739 39.8633 76.1018 39.879 75.3821C39.879 75.1474 40.0358 74.8345 40.522 75.0223C40.6161 75.0536 40.6788 74.9753 40.7101 74.8971C40.9767 74.3651 41.8392 74.2556 42.5763 74.7719C42.9997 75.0849 43.4544 75.5386 43.7838 75.961C43.9563 76.1801 43.8935 76.4617 43.9249 76.712C43.9719 77.1345 44.1131 77.6508 44.0033 77.9637C43.8779 78.3236 43.5172 78.5113 43.1879 78.8399L43.2035 78.9025Z" fill="#272D35"/>
<path d="M43.282 12.1099C43.6113 14.8635 42.89 17.805 43.0781 20.9185C43.2663 24.0321 43.2506 27.1769 43.282 30.3218C43.282 31.902 43.4545 33.404 43.7054 34.9217C43.9563 36.3924 43.4859 38.1134 44.1602 39.5059C44.2229 39.6311 44.1602 39.9284 44.1759 40.1474C44.2543 43.9337 44.5993 47.7983 44.317 51.4751C44.0034 55.7621 44.364 59.9708 44.2856 64.2109L44.364 64.7898L44.4268 64.915L44.5209 65.1027L44.8031 65.134C44.8031 65.134 45.1011 65.2435 45.3206 65.3374L46.042 65.6503L48.9274 66.9646C52.4715 68.67 56.0156 70.3754 59.5753 72.0808C56.2508 73.6141 53.0204 75.1161 49.8056 76.6807C48.849 77.1501 47.9081 77.6195 46.9358 78.0889C45.7754 78.6365 46.1361 78.4331 45.7754 78.4644C45.7283 78.4956 45.6656 78.5269 45.6029 78.5895C45.5558 78.6365 45.5245 78.6834 45.5088 78.746C45.4931 78.9024 45.4774 79.231 45.4774 79.4657C45.4774 79.982 45.4931 80.514 45.5088 81.0459C45.5402 82.1099 45.5402 83.1894 45.1795 84.1751C45.1168 84.3316 45.2736 84.7227 45.3049 85.02C45.3833 85.7241 45.5402 86.4594 45.4774 87.1322C45.0697 91.1063 45.0697 91.0906 45.3833 94.4232C45.4147 94.8144 45.1324 95.2994 45.1168 95.7531C45.0697 97.5837 45.007 99.4299 45.054 101.245C45.1011 102.888 44.6934 104.624 45.3363 106.205C45.4774 106.549 45.3363 107.253 45.3363 107.801C45.3363 109.537 45.2736 111.258 45.3049 112.995C45.352 114.966 45.0384 116.985 45.5715 118.909C45.8068 119.754 45.1638 120.974 45.2893 121.475C45.5402 122.398 45.5872 123.274 45.5402 124.182C45.4931 125.074 45.2265 125.95 45.2108 126.826C45.2108 127.593 45.4931 128.375 45.4931 129.157C45.5088 130.127 45.4461 131.129 45.4147 132.114C45.4147 132.599 45.399 133.1 45.4147 133.569C45.4147 133.804 45.4461 134.039 45.4461 134.273C45.4461 134.43 45.4618 134.399 45.4774 134.414L45.5245 134.446C45.6656 134.508 45.7283 134.477 45.7597 134.461C45.8224 134.43 45.8224 134.446 45.8381 134.414C47.767 134.32 49.7429 134.336 51.6717 134.211C53.1772 134.101 54.5415 134.336 55.9685 134.43C57.3956 134.524 58.9637 134.039 60.2653 134.649C60.328 134.68 60.4692 134.649 60.5789 134.649C63.5271 134.665 66.4753 134.758 69.4234 134.696L84.6974 134.242C86.1402 134.211 87.6456 133.945 89.0099 134.43C89.2922 134.524 89.9038 134.352 90.2801 134.43C91.6915 134.68 92.7892 133.632 94.1535 134.054C95.3767 134.43 96.6469 134.164 97.8858 134.164C99.2971 134.164 100.708 134.07 102.104 134.054C103.076 134.054 103.955 133.929 104.754 133.616C105.836 134.195 107.358 133.742 108.612 133.976C109.443 134.133 110.729 134.273 111.325 134.054C112.658 133.554 113.991 133.726 115.324 133.632C117.3 133.491 119.291 133.632 121.236 133.131C122.051 132.912 123.165 132.99 124.137 133.022C125.031 133.053 125.909 133.256 126.803 133.256C128.465 133.256 130.112 133.178 131.743 132.803C133.17 132.474 134.926 132.99 136.337 132.302C136.526 132.208 136.996 132.224 137.294 132.271C138.862 132.49 140.274 132.599 141.998 132.177C143.394 131.833 145.198 132.02 146.828 131.974C148.569 131.927 150.341 131.739 152.019 131.848C153.101 131.927 153.603 131.05 154.905 131.551C155.595 131.817 156.943 131.629 157.994 131.614C159.484 131.582 159.186 131.473 159.609 131.582L159.891 131.661C159.954 131.551 160.001 131.379 160.048 131.176L160.095 130.847V129.893C160.127 128.594 160.095 127.311 160.048 126.012C159.97 123.431 159.86 120.834 159.923 118.252C159.954 117.11 159.829 115.936 159.782 114.779C159.766 114.2 159.766 113.621 159.813 113.058C159.844 112.776 159.876 112.494 159.923 112.213C159.954 112.088 159.985 111.915 160.017 111.822L160.142 111.618C159.954 111.415 159.891 111.243 159.86 111.055C159.609 111.008 159.421 110.914 159.201 110.836L158.919 110.742L158.496 110.617C158.213 110.539 157.947 110.492 157.665 110.46C157.414 110.429 157.178 110.398 156.943 110.351C156.865 110.351 156.661 110.273 156.457 110.226L155.893 110.054C155.14 109.788 154.403 109.537 153.666 109.287L146.923 106.893L158.323 99.3673L158.292 97.1456C158.245 93.2341 158.041 89.3226 157.963 85.4112C157.947 84.3159 157.868 83.2364 158.213 82.0473C158.464 81.1711 158.496 79.5752 158.041 78.4018C157.947 78.1671 157.884 77.7133 157.947 77.5412C158.762 75.3195 157.9 73.1134 157.868 70.923C157.806 66.636 158.308 62.4585 158.245 58.2185C158.245 57.311 158.48 56.2471 157.931 55.5587C158.386 54.8546 158.166 54.3383 157.963 53.4778C157.743 52.5859 157.727 51.1309 157.978 50.3486C158.323 49.2846 158.198 48.3146 158.245 47.2976C158.292 46.218 158.245 45.1385 158.245 44.0589C158.355 39.5059 158.464 34.9373 158.59 30.3843C158.621 29.4925 158.825 28.6163 158.919 27.7245C159.013 26.8327 158.747 25.8627 159.217 25.0021C159.39 24.6892 159.264 23.7661 159.264 23.1246C159.264 20.8559 159.546 18.3995 159.17 16.3656C158.794 14.3472 159.248 12.1881 158.574 10.3262C158.386 9.8099 158.574 8.83986 158.543 8.08885C158.511 7.63512 158.511 7.18138 158.511 6.71201V6.02358C158.511 5.82019 158.527 5.49162 158.527 5.47597C158.558 5.14741 158.59 4.78755 158.59 4.44334C158.355 4.44334 158.104 4.47463 157.868 4.53722C157.759 4.56851 157.649 4.5998 157.555 4.66238L157.492 4.70932L157.273 4.75626L156.818 4.85014C155.72 4.3964 154.434 4.49028 153.18 4.52157C152.27 4.53722 151.219 4.28688 150.482 4.8032C150.388 4.86578 150.075 4.86578 149.886 4.85014C148.789 4.72497 147.801 4.3964 146.578 4.49028C145.558 4.56851 144.727 4.88143 143.598 4.88143C139.552 4.86578 135.585 4.27124 131.507 4.50593C130.394 4.09913 129.124 4.16171 127.869 4.16171C125.658 4.14607 123.572 4.66238 121.299 4.53722C119.15 4.4277 116.861 4.28688 114.822 4.56851C111.309 5.05353 107.828 4.75626 104.331 4.85014C103.437 4.88143 102.418 5.05353 101.618 4.55286C101.43 4.4277 100.442 4.49028 100.175 4.63109C99.5951 4.94401 98.9365 4.75626 98.3876 4.86578C96.8037 5.19435 95.2669 3.91138 93.7144 4.86578H83.3175C82.502 4.85014 81.7179 4.95966 80.8868 4.61545C80.3223 4.3964 78.9893 4.34947 78.4404 4.55286C77.1232 5.03789 75.7589 4.83449 74.4416 4.85014C70.4271 4.88143 66.4282 4.89707 62.4137 4.85014C60.6574 4.83449 58.901 4.63109 57.1603 4.52157C55.3883 4.41205 53.5378 4.75626 51.7972 4.30253C51.6717 4.27124 51.4835 4.30253 51.3424 4.30253C50.6367 4.36511 49.9311 4.52157 49.2411 4.50593C48.3472 4.47463 47.1554 4.05219 46.6536 4.2243C45.6343 4.58416 44.9756 4.19301 44.2072 4.14607C41.9961 4.03655 40.6161 3.09779 40.867 1.95563C40.9297 1.7053 41.1806 1.43932 41.4943 1.23592C43.4859 -0.000109432 43.5172 0.0781204 46.7163 -0.000109404C50.7779 -0.0939851 54.7297 0.610083 58.8069 0.359748C61.4571 0.985586 64.2642 0.578791 66.9928 0.703959C69.8312 0.844772 72.7009 1.36109 75.4766 1.00123C78.2366 0.625729 80.9495 0.719605 83.6781 0.719605C85.7638 0.719605 87.8338 0.96994 89.9195 1.03252C92.0835 1.09511 94.279 0.923002 96.4117 1.09511C97.729 1.20463 99.109 1.61142 100.363 1.36109C103.092 0.829126 105.883 1.28286 108.565 1.01688C112.266 0.641375 116.014 0.89171 119.668 0.641375C121.644 0.516207 123.604 0.359748 125.595 0.375393C126.505 0.375393 127.367 0.375393 128.34 0.610083C129.328 0.860418 130.786 0.876064 132.009 0.516207C132.527 0.375394 133.374 0.265872 133.813 0.391039C135.632 0.923002 137.561 0.703959 139.427 0.688313C140.619 0.688313 141.936 1.17334 142.641 0.96994C143.833 0.625729 144.931 0.782188 146.044 0.73525C146.844 0.703959 147.738 0.547499 148.444 1.00123C148.632 1.1264 149.416 1.15769 149.635 1.04817C150.968 0.453623 152.505 0.750896 153.948 0.73525L162.416 0.703959V6.44602C162.369 9.30923 163.012 12.0473 162.761 14.9418C163.357 16.6941 163.106 18.6499 163.09 20.5117C163.09 21.9355 162.887 23.3593 162.777 24.7831C162.667 26.2069 162.777 27.5994 162.51 29.1014C162.197 30.9632 162.479 33.1693 162.432 35.2189C162.4 36.3298 162.73 37.5815 162.165 38.5828C162.087 38.7236 162.102 39.2399 162.165 39.4277C162.761 40.8984 162.604 42.7446 162.369 44.0433C161.993 46.1711 162.165 48.2207 162.118 50.3016C162.071 52.0227 162.15 53.7594 162.102 55.4961C162.071 56.7321 162.197 57.9525 161.946 59.2511C161.757 60.2525 162.087 61.5667 162.118 62.7558C162.165 63.9449 162.118 65.134 162.118 66.3231V70.2189V74.1148C162.118 75.5229 162.165 76.9311 162.118 78.3235C162.071 79.6534 161.82 80.9521 161.805 82.282C161.742 85.9901 162.385 89.6356 162.15 93.3593C162.573 94.3763 162.275 95.3463 162.197 96.3946C162.165 96.8796 162.102 97.4116 162.102 97.9279C162.102 98.5068 162.165 98.8197 162.385 99.7429C162.51 100.181 162.479 100.979 162.51 101.636L162.447 101.683C161.867 102.105 161.209 102.434 160.581 102.778C160.221 102.982 160.064 103.06 159.86 103.201C159.672 103.341 159.468 103.498 159.295 103.717C159.045 104.014 158.637 104.28 158.213 104.546C157.931 104.718 157.931 104.703 157.837 104.75C157.759 104.796 157.665 104.843 157.602 104.89C157.476 105 157.241 105.078 157.069 105.188C156.912 105.297 156.818 105.422 157.194 105.501C156.614 105.579 156.3 105.72 156.222 105.813C156.52 105.876 156.99 105.892 157.304 105.892C157.633 105.892 157.79 105.892 157.79 106.017C157.79 106.142 157.931 106.236 158.072 106.377C158.135 106.439 158.166 106.564 158.496 106.643C159.17 106.768 159.844 106.924 160.503 107.112C161.632 107.456 162.792 107.832 163.953 108.223L164.047 112.338V114.904C164.047 116.609 164.047 118.315 164.141 120.02C164.172 120.615 164.345 121.162 164.423 121.757C164.47 122.038 164.486 122.351 164.455 122.633C164.204 125.246 164.22 125.246 164.549 127.671C164.627 128.281 164.58 128.954 164.627 129.58L164.674 130.612L164.721 132.38C164.753 133.695 164.8 135.009 164.91 136.464C164.455 136.526 163.984 136.573 163.498 136.636C162.714 136.746 161.852 136.792 160.958 136.808C160.519 136.808 160.064 136.808 159.625 136.808H159.295L159.123 136.777L158.778 136.746C157.868 136.636 156.959 136.448 156.065 136.339C154.481 136.151 152.913 135.948 151.188 136.026C146.86 136.229 142.532 136.323 138.188 136.448C137.639 136.464 136.902 136.37 136.604 136.526C135.381 137.152 134.283 137.59 133.076 136.62C133.013 136.573 132.574 136.589 132.464 136.652C131.413 137.309 130.018 137.058 128.826 137.074C124.231 137.152 119.746 137.982 115.136 137.872C114.399 137.856 113.395 138.044 112.956 137.856C112.015 137.45 111.592 138.169 110.792 138.029C110.118 137.919 109.13 138.201 108.565 138.044C106.511 137.465 104.237 137.731 102.324 138.013C100.536 138.263 98.6856 138.545 97.0703 138.388C93.8713 138.06 90.7192 138.341 87.5515 138.388C84.3054 138.451 81.0436 138.56 77.7975 138.701C76.4645 138.764 75.0375 138.545 73.83 139.139C73.5791 139.265 72.9832 139.218 72.5598 139.186C71.5562 139.124 70.5682 138.936 69.5646 138.967C68.5766 138.999 67.5887 139.249 66.585 139.374C65.7853 139.468 65.0169 139.421 64.2014 139.75C63.6055 139.984 62.5235 139.843 61.5669 139.577C59.6537 139.045 57.6621 138.514 55.2315 138.686C53.0831 138.842 50.9033 138.811 48.7392 138.92C47.8297 138.967 46.9829 138.936 45.9949 139.249C44.7247 139.515 42.4979 139.515 41.0395 139.421C41.0552 139.218 41.0709 139.03 41.0866 138.842C41.2434 137.371 41.3375 136.151 41.3531 134.931V134.164L41.3061 133.569C41.2747 133.163 41.212 132.771 41.1336 132.365C41.0238 131.801 41.0238 131.129 41.0238 130.503L41.1022 119.144C41.1022 118.236 41.0081 117.266 41.4316 116.515C40.9454 115.905 41.1179 114.951 41.1493 114.168C41.212 112.948 41.4472 111.759 41.4943 110.539C41.557 109.099 41.5256 107.691 41.2277 106.236C40.9611 104.906 41.4316 103.31 41.0238 101.871C40.9454 101.605 41.2434 101.041 41.212 100.65C41.1179 99.0075 41.5884 97.2395 40.9297 95.7062C40.867 95.581 40.8827 95.2212 40.9297 95.0804C41.6354 93.2028 41.1179 91.3097 40.9611 89.4478C40.7729 87.4138 41.3531 85.552 41.3531 83.5493C41.3375 82.4384 41.3218 81.3119 41.2904 80.201V79.3718V78.3705C41.3061 77.463 41.3531 76.5712 41.4159 75.7576C41.51 75.7263 41.5884 75.695 41.6668 75.6637C42.8586 75.1787 44.0504 74.7093 45.2422 74.2243L46.5124 73.6767L47.422 73.2699C48.2374 72.8944 48.9588 72.5032 49.8056 72.1434C49.0529 71.7522 48.2217 71.3454 47.3906 70.9543L42.2313 68.5605L40.4122 67.7625C40.3025 66.2136 40.177 64.6646 40.0516 63.1157C39.9575 61.2851 39.9732 59.4389 39.9261 57.6083L39.832 52.4138C39.832 51.6002 39.6125 50.7084 40.0202 49.9887C40.0986 49.8479 40.13 49.3472 40.0516 49.1438C39.5654 47.6731 39.5654 46.2337 39.9575 44.7317C40.0672 44.3092 39.9575 43.6678 39.9888 43.1671C40.13 41.7433 39.7066 40.5386 39.5497 39.2243C39.4086 38.0196 39.8163 36.6427 39.1577 35.5788C39.0636 35.438 39.0479 34.8434 39.142 34.6557C40.177 32.2149 38.3266 29.4769 39.2675 27.0517C38.6402 26.0973 39.3145 25.096 39.2047 24.3293C39.0479 23.2185 38.8597 22.1546 38.8597 21.0124C38.8597 19.9328 38.8597 18.8376 38.797 17.7737C38.6872 15.8023 38.9225 13.7996 38.3893 11.8439C38.2168 11.1867 38.0757 9.95072 38.5461 9.13713C38.6245 8.99632 38.6088 8.55823 38.5775 8.2766C38.3423 6.11746 38.8284 3.47329 39.7066 2.92568C40.2241 2.59712 40.867 2.62841 41.4002 2.8631C41.6668 2.98827 41.855 3.92703 42.0588 4.50593C42.4195 5.53856 42.9056 6.50861 43.0625 7.63512C43.2506 8.96502 43.1565 10.4357 43.1879 12.1724L43.282 12.1099Z" fill="#272D35"/>
<path d="M73.0293 138.967C73.3272 139.64 72.5431 140.391 72.7 141.158C72.8411 141.925 72.7784 142.707 72.7627 143.489C72.7627 143.88 72.8881 144.256 73.1234 144.631C73.3586 144.991 72.8568 145.429 73.4997 145.758C73.5624 145.789 73.4997 145.867 73.4997 145.914C73.5154 146.853 73.8134 147.807 73.4997 148.731C73.3115 149.263 73.2959 149.794 73.2959 150.311C73.3115 151.171 73.3586 152.173 73.2959 153.049C73.5468 154.097 73.6879 155.224 73.7349 156.225C72.6059 156.209 71.3356 156.084 70.1752 156.006C69.5793 155.959 69.0147 155.959 68.4816 155.975C68.0425 155.975 67.9013 156.006 67.6034 156.053C67.1173 156.131 66.6782 156.335 66.1136 155.959C65.6118 155.63 65.2668 156.444 64.6866 155.865C64.6395 155.818 64.5925 155.975 64.5298 156.022C64.4043 156.147 64.2945 156.35 64.1377 156.334C63.1968 156.209 63.1811 156.225 62.6636 156.804C62.6009 156.866 62.3971 156.647 62.303 156.679C61.9266 156.804 61.5816 156.96 61.2837 157.195C61.0171 157.398 60.5309 157.32 60.6564 157.993C60.6877 158.134 60.4996 158.118 60.4212 158.181C60.2016 158.4 59.9507 158.603 59.7625 158.853C59.5743 159.135 59.1666 159.323 59.4175 159.855C59.5273 160.074 58.9157 159.98 58.9941 160.121C59.1509 160.387 59.1666 160.528 59.0568 160.653C58.9628 160.778 58.6334 160.809 58.6021 160.981C58.5707 161.122 58.8216 161.341 58.8059 161.466C58.7746 161.795 58.4139 162.124 58.7118 162.499C59.0255 162.859 58.8687 163.203 58.9628 163.5C59.0568 163.798 58.9628 164.157 59.1196 164.423C59.245 164.627 59.0412 164.893 58.9628 165.159C58.9157 165.44 59.4489 165.425 58.9628 165.941C58.9471 165.957 58.9628 165.972 58.9784 165.988C59.1353 166.457 59.3078 167.021 59.7155 167.412C60.3898 168.116 61.315 168.632 62.303 169.07C62.5852 169.195 62.9616 169.086 63.0714 169.696C63.0871 169.821 63.2752 169.696 63.338 169.806C63.5575 170.181 64.0593 169.289 64.2318 169.806C64.3886 170.275 64.7336 170.119 65.0002 170.197C65.2982 170.306 65.6275 170.291 65.9254 170.369C66.0195 170.385 66.145 170.385 66.2077 170.338C66.2861 170.291 66.2704 170.197 66.3802 170.056C66.6468 170.666 67.0232 170.259 67.3368 170.541C67.5407 170.729 67.8543 170.917 68.0111 170.697C68.3404 170.244 68.6697 170.463 68.9991 170.4C69.4852 170.322 69.987 170.525 70.4731 170.072C70.677 169.884 70.9593 169.993 71.1945 170.056C71.4141 170.103 71.6336 170.353 71.8531 170.369C72.2609 170.416 72.6686 170.385 73.0763 170.072C73.437 169.79 73.8604 170.353 74.2211 169.712C74.2681 169.634 74.3779 169.665 74.4563 169.712C74.8483 169.978 75.1933 170.134 75.6168 169.759C75.9618 169.461 76.4165 169.696 76.8086 169.696C77.232 169.696 77.6867 169.571 78.0945 169.743C78.3611 169.853 78.5022 169.008 78.8158 169.54C78.9883 169.821 79.3176 169.681 79.5842 169.696C79.8508 169.712 80.1331 169.587 80.384 169.727C81.7169 170.416 83.0813 169.853 84.4299 170.072C84.9787 170.166 85.6531 169.665 86.0922 170.4C86.3431 169.837 86.7194 170.275 86.8919 169.821C86.986 169.555 87.0958 169.524 87.2212 169.477C88.0367 169.133 88.7894 168.507 89.103 167.662C89.1815 167.381 89.2442 167.099 89.2128 166.802C89.2128 166.645 89.1658 166.536 89.1658 166.41L89.103 165.706C89.0874 165.44 89.009 165.174 89.3696 164.877C89.6205 164.658 89.6519 164.267 89.1971 163.97C89.103 163.907 89.0403 163.798 89.103 163.751C89.9185 163.219 89.0717 162.655 89.0403 162.108C88.9776 161.044 89.4951 160.027 89.4324 158.963C89.4324 158.744 89.6676 158.478 89.1187 158.306C89.5735 158.134 89.354 158.009 89.1501 157.79C88.9305 157.571 88.9149 157.211 89.1658 157.023C89.5265 156.757 89.401 156.522 89.4324 156.272C89.4794 156.006 89.4324 155.74 89.4324 155.474C89.5421 154.347 89.6519 153.221 89.793 152.094C89.8244 151.875 90.0283 151.656 90.1224 151.437C90.2164 151.218 89.9499 150.968 90.4203 150.765C90.5928 150.686 90.4674 150.452 90.4674 150.295C90.4674 149.732 90.7653 149.122 90.3889 148.621C90.0126 148.12 90.483 147.588 89.8087 147.119C89.6205 146.994 89.8087 146.759 89.7774 146.571C89.6205 145.82 90.1694 145.038 89.4324 144.303C89.8871 144.037 89.793 143.708 89.7617 143.411C89.746 143.192 89.9969 142.926 89.4794 142.738C89.4167 142.723 89.4167 142.644 89.4324 142.582C89.5578 142.316 89.8871 142.065 89.793 141.768C89.7146 141.518 89.401 141.314 89.401 141.033C89.401 140.532 89.5735 140.031 89.6833 139.546C89.8087 139.374 89.8871 139.14 89.7774 139.014C90.1851 138.702 90.1224 138.561 90.1224 138.42C90.1224 138.31 90.0596 138.279 89.9812 138.279C89.6833 138.42 89.448 138.592 89.3853 138.514C89.2912 138.404 89.0403 138.263 88.8208 138.545L88.711 138.686C88.6326 138.717 88.5071 138.748 88.3974 138.78C88.1778 138.827 87.9583 138.827 87.7544 138.827C87.3153 138.827 86.8919 138.78 86.4528 138.827C86.2333 138.858 85.9824 139.03 85.7785 138.529C85.7315 138.404 85.4806 138.467 85.4178 138.608C85.2767 138.921 85.1042 138.733 84.9787 138.842C84.5867 139.171 84.2103 137.888 83.8183 138.842H82.5324C82.109 138.842 81.6699 138.858 81.2465 138.842C81.0426 138.842 80.8545 138.936 80.6506 138.608C80.5095 138.389 80.1801 138.342 80.039 138.545C79.7097 139.03 79.3804 138.827 79.0511 138.842C78.0631 138.874 77.0595 138.889 76.0715 138.842C75.6324 138.827 75.209 138.623 74.7699 138.514C74.3309 138.404 73.8761 138.748 73.437 138.295C73.4056 138.263 73.3586 138.295 73.3272 138.295C73.1547 138.357 72.9822 138.514 72.8097 138.498C72.5902 138.467 72.2922 138.044 72.1668 138.216C71.9159 138.576 71.7434 138.185 71.5552 138.138C71.0063 138.029 70.6613 137.09 70.7241 135.948C70.7241 135.697 70.8025 135.432 70.8809 135.228C71.367 133.992 71.3827 134.055 72.1668 133.992C73.1704 133.898 74.1584 134.602 75.162 134.352C75.8206 134.978 76.5106 134.571 77.1849 134.696C77.8906 134.837 78.5963 135.353 79.2863 134.993C79.9763 134.618 80.6506 134.712 81.3249 134.712C81.8424 134.712 82.3599 134.962 82.8774 135.025C83.4106 135.087 83.9594 134.915 84.4926 135.087C84.8219 135.197 85.1669 135.604 85.4649 135.353C86.1392 134.821 86.8292 135.275 87.4878 135.009C87.7231 134.915 87.9426 134.853 88.1778 134.821L88.5228 134.79H88.9619C89.7146 134.759 90.436 134.759 91.2514 134.634C92.1139 134.508 93.0862 134.352 93.9173 134.368V134.399C93.9173 134.79 93.9173 135.166 93.6821 135.76C93.4312 136.37 93.4155 136.887 93.7762 137.231C93.9173 137.372 94.0271 137.716 93.9017 137.951C93.3685 138.827 93.588 139.672 93.6037 140.031C93.6037 140.329 93.1176 140.657 93.3214 140.829C93.6664 141.127 93.5096 141.393 93.5567 141.674C93.588 141.878 93.7448 142.097 93.2901 142.269C93.1646 142.316 93.1332 142.503 93.243 142.566C93.8389 142.895 93.541 143.286 93.5567 143.63C93.6037 144.491 93.6037 145.351 93.5567 146.212C93.5253 146.916 94.1682 147.604 93.9173 148.324C94.5132 148.762 94.2467 149.247 94.2467 149.701C94.2467 150.06 94.0428 150.405 93.9173 150.765C93.8076 151.124 93.9173 151.469 93.6507 151.828C93.3214 152.282 93.6194 152.83 93.5567 153.346C93.5253 153.628 93.8546 153.941 93.2901 154.175C93.2117 154.207 93.2273 154.332 93.2901 154.379C93.886 154.754 93.7135 155.208 93.4939 155.521C93.1176 156.053 93.2901 156.554 93.2273 157.07C93.1803 157.492 93.2587 157.93 93.196 158.353C93.1646 158.666 93.2901 158.963 93.0392 159.276C92.851 159.526 93.1646 159.855 93.2117 160.152C93.243 160.449 93.2117 160.747 93.2117 161.044V162.968C93.2117 163.313 93.2587 163.672 93.2117 164.017C93.1489 164.345 92.9137 164.658 92.898 164.987C92.8667 165.44 93.0078 165.91 93.1332 166.364C93.243 166.911 93.2587 167.568 92.9921 168.1C93.3214 168.523 92.9294 168.757 92.7255 169.023C92.553 169.289 92.2237 169.493 92.4589 169.993C92.5217 170.134 92.4119 170.259 92.3648 170.385C92.2551 170.682 91.7689 170.619 91.8003 171.089C91.8003 171.417 91.3769 171.558 91.1887 171.808C90.9692 172.074 90.4987 172.074 90.5771 172.669C89.6676 172.34 89.793 173.67 89.0246 173.608C88.8051 173.576 88.5855 173.608 88.3817 173.592C88.2719 173.592 88.1465 173.529 88.0681 173.592C87.4408 174.171 86.4685 174.296 85.7785 174.265C85.1826 174.233 84.5867 174.14 83.9908 174.233C83.8497 174.265 83.7085 174.421 83.5517 174.499C83.489 174.531 83.4106 174.546 83.3322 174.515C82.6892 174.218 82.6892 174.233 82.0776 174.515C81.9208 174.593 81.764 174.515 81.6072 174.562C81.1995 174.64 80.7917 174.499 80.3683 174.844C79.9449 175.188 79.4901 174.578 79.0354 174.312C78.6433 174.077 78.267 173.811 77.8279 173.842C76.7615 173.905 75.6795 173.858 74.5974 173.858C74.4563 173.858 74.2838 173.733 74.2054 173.874C73.8918 174.468 73.6252 174.875 73.3272 173.874C73.3272 173.827 73.2018 173.827 73.1704 173.874C72.9038 174.499 72.5588 174.202 72.2609 174.171C71.1161 174.093 70.0027 174.797 68.8579 174.546C68.6697 174.499 68.4188 174.656 68.3247 174.453C68.0895 174.014 67.9798 174.718 67.7916 174.562C67.6191 174.437 67.3838 174.687 67.2427 174.515C66.9918 174.187 66.7252 174.077 66.4586 174.077C66.3802 174.077 66.3489 174.077 66.2391 174.077L65.9098 174.108C65.6902 174.124 65.5804 174.171 65.4079 174.202C64.8748 174.327 64.2945 174.453 63.8868 174.155C63.1027 173.545 62.2089 173.514 61.3621 173.138C60.4996 172.794 59.6528 172.387 58.7903 171.934C58.4296 171.761 58.2414 171.292 57.5984 171.511C57.473 171.558 57.3475 171.386 57.2691 171.276C57.0653 171.026 56.9869 170.635 56.7673 170.416C56.5478 170.197 56.1557 170.15 55.8578 169.962C55.6382 169.79 55.5441 169.555 55.1364 169.508C54.8385 169.477 54.7444 169.07 54.8228 168.648C55.0423 167.756 55.2462 167.005 54.9482 166.364C54.666 165.769 54.5405 165.128 54.4778 164.502C54.4307 164.236 54.4464 163.985 54.1328 163.719C53.8191 163.469 53.976 163.031 54.1798 162.734C54.5091 162.264 54.5405 161.858 54.2739 161.341C54.1955 161.169 54.2426 160.966 54.2739 160.778C54.4464 159.667 54.9012 158.572 55.45 157.555C55.6069 157.32 55.6853 157.007 56.1557 157.07C55.8578 156.632 56.1557 156.475 56.3282 156.303C56.5948 156.037 57.0339 155.959 57.3162 155.74C57.6455 155.474 57.9121 155.145 58.0689 154.676C58.2257 154.222 58.8687 154.301 58.9941 153.737C59.0255 153.628 59.3078 153.8 59.4018 153.737C59.7782 153.424 60.4212 153.565 60.5309 152.799C60.5309 152.736 60.6407 152.705 60.7034 152.736C61.4718 153.174 61.7541 152.47 62.2089 152.157C62.7107 151.813 63.3536 152.157 63.8868 152.063C64.4827 151.907 65.0786 151.578 65.7059 151.766C66.2391 151.907 66.7252 151.922 67.2113 151.875L67.9327 151.813C68.1052 151.797 68.1836 151.782 68.3091 151.797C68.6541 151.828 69.0304 151.828 69.3441 151.828C69.4382 151.828 69.3441 151.625 69.3597 151.531C69.3284 151.312 69.0775 150.984 69.0304 150.827C68.9677 150.608 69.0147 150.592 68.9991 150.233C68.9991 149.81 68.9677 149.372 68.9834 148.95C68.9834 148.746 68.7952 148.527 69.2186 148.339C69.3127 148.308 69.3284 148.183 69.2657 148.136C68.7952 147.776 68.8109 147.416 69.2343 147.041C69.3441 146.931 69.2343 146.775 69.297 146.65C69.4538 146.29 69.0461 146.008 68.9207 145.68C68.7952 145.382 69.2186 145.038 68.5757 144.788C68.4816 144.756 68.4816 144.6 68.5757 144.553C69.642 143.927 67.8386 143.286 68.8109 142.66C68.1993 142.441 68.8893 142.175 68.7952 141.987C68.6541 141.721 68.4816 141.455 68.4972 141.174C68.4972 140.908 68.5286 140.642 68.4816 140.376C68.3875 139.891 68.6697 139.39 68.1522 138.905C67.9797 138.748 67.87 138.436 68.3404 138.232C68.4188 138.201 68.4188 138.091 68.3875 138.013C68.1836 137.481 68.7168 136.824 69.595 136.668C70.1125 136.574 70.7554 136.574 71.2886 136.621C71.5552 136.652 71.7277 136.871 71.9315 137.027C72.2765 137.278 72.747 137.512 72.8881 137.794C73.0606 138.123 72.9352 138.482 72.9509 138.921L73.0293 138.967Z" fill="#272D35"/>
<path d="M117.629 138.967C117.927 139.64 117.143 140.391 117.3 141.158C117.441 141.925 117.378 142.707 117.362 143.489C117.362 143.88 117.488 144.256 117.723 144.631C117.958 144.991 117.456 145.429 118.099 145.758C118.162 145.789 118.099 145.867 118.099 145.914C118.115 146.853 118.413 147.807 118.099 148.731C117.911 149.263 117.895 149.794 117.895 150.311C117.911 151.171 117.958 152.173 117.895 153.049C118.146 154.097 118.288 155.224 118.335 156.225C117.205 156.209 115.935 156.084 114.775 156.006C114.179 155.959 113.614 155.959 113.081 155.975C112.642 155.975 112.501 156.006 112.203 156.053C111.717 156.131 111.278 156.335 110.713 155.959C110.211 155.63 109.866 156.444 109.286 155.865C109.239 155.818 109.192 155.975 109.129 156.022C109.004 156.147 108.894 156.35 108.737 156.334C107.796 156.209 107.781 156.225 107.263 156.804C107.201 156.866 106.997 156.647 106.903 156.679C106.526 156.804 106.181 156.96 105.883 157.195C105.617 157.398 105.131 157.32 105.256 157.993C105.287 158.134 105.099 158.118 105.021 158.181C104.801 158.4 104.55 158.603 104.362 158.853C104.174 159.135 103.766 159.323 104.017 159.855C104.127 160.074 103.515 159.98 103.594 160.121C103.751 160.387 103.766 160.528 103.656 160.653C103.562 160.778 103.233 160.809 103.202 160.981C103.17 161.122 103.421 161.341 103.406 161.466C103.374 161.795 103.014 162.124 103.311 162.499C103.625 162.859 103.468 163.203 103.562 163.5C103.656 163.798 103.562 164.157 103.719 164.423C103.845 164.627 103.641 164.893 103.562 165.159C103.515 165.44 104.049 165.425 103.562 165.941C103.547 165.957 103.578 165.972 103.578 165.988C103.735 166.457 103.907 167.021 104.315 167.412C104.989 168.116 105.915 168.632 106.903 169.07C107.185 169.195 107.561 169.086 107.671 169.696C107.687 169.821 107.875 169.696 107.938 169.806C108.157 170.181 108.659 169.289 108.831 169.806C108.988 170.275 109.333 170.119 109.6 170.197C109.898 170.306 110.227 170.291 110.525 170.369C110.619 170.385 110.745 170.385 110.807 170.338C110.886 170.291 110.87 170.197 110.98 170.056C111.246 170.666 111.623 170.259 111.936 170.541C112.14 170.729 112.454 170.917 112.611 170.697C112.94 170.244 113.269 170.463 113.599 170.4C114.085 170.322 114.587 170.525 115.073 170.072C115.277 169.884 115.559 169.993 115.794 170.056C116.014 170.103 116.233 170.353 116.453 170.369C116.86 170.416 117.268 170.385 117.676 170.072C118.037 169.79 118.46 170.353 118.821 169.712C118.868 169.634 118.978 169.665 119.056 169.712C119.448 169.978 119.793 170.134 120.216 169.759C120.561 169.461 121.016 169.696 121.408 169.696C121.832 169.696 122.271 169.571 122.694 169.743C122.961 169.853 123.102 169.008 123.415 169.54C123.588 169.821 123.917 169.681 124.184 169.696C124.45 169.712 124.733 169.587 124.984 169.727C126.317 170.416 127.681 169.853 129.029 170.072C129.578 170.166 130.253 169.665 130.692 170.4C130.943 169.837 131.319 170.275 131.492 169.821C131.586 169.555 131.695 169.524 131.821 169.477C132.636 169.133 133.389 168.507 133.703 167.662C133.781 167.381 133.844 167.099 133.812 166.802C133.812 166.645 133.765 166.536 133.765 166.41L133.703 165.706C133.687 165.44 133.609 165.174 133.969 164.877C134.22 164.658 134.252 164.267 133.797 163.97C133.703 163.907 133.64 163.798 133.703 163.751C134.518 163.219 133.671 162.655 133.64 162.108C133.577 161.044 134.095 160.027 134.032 158.963C134.032 158.744 134.267 158.478 133.718 158.306C134.173 158.134 133.954 158.009 133.75 157.79C133.53 157.571 133.514 157.211 133.765 157.023C134.126 156.757 134.001 156.522 134.032 156.272C134.079 156.006 134.032 155.74 134.032 155.474C134.142 154.347 134.252 153.221 134.393 152.094C134.424 151.875 134.628 151.656 134.722 151.437C134.816 151.218 134.549 150.968 135.02 150.765C135.192 150.686 135.067 150.452 135.067 150.295C135.067 149.732 135.365 149.122 134.989 148.621C134.612 148.12 135.083 147.588 134.408 147.119C134.22 146.994 134.408 146.759 134.377 146.571C134.22 145.82 134.769 145.038 134.032 144.303C134.487 144.037 134.393 143.708 134.361 143.411C134.346 143.192 134.597 142.926 134.079 142.738C134.016 142.723 134.016 142.644 134.032 142.582C134.157 142.316 134.487 142.065 134.393 141.768C134.314 141.518 134.001 141.314 134.001 141.033C134.001 140.532 134.173 140.031 134.283 139.546C134.408 139.374 134.487 139.14 134.377 139.014C134.785 138.702 134.722 138.561 134.722 138.42C134.722 138.31 134.659 138.279 134.581 138.279C134.299 138.42 134.048 138.592 133.985 138.514C133.891 138.404 133.64 138.263 133.42 138.545L133.311 138.686C133.232 138.717 133.107 138.748 132.997 138.78C132.777 138.827 132.558 138.827 132.354 138.827C131.915 138.827 131.492 138.78 131.052 138.827C130.833 138.858 130.582 139.03 130.378 138.529C130.331 138.404 130.08 138.467 130.017 138.608C129.876 138.921 129.704 138.733 129.578 138.842C129.186 139.171 128.81 137.888 128.418 138.842H127.132C126.709 138.842 126.27 138.858 125.846 138.842C125.642 138.842 125.454 138.936 125.25 138.608C125.109 138.389 124.78 138.342 124.639 138.545C124.309 139.03 123.98 138.827 123.651 138.842C122.663 138.874 121.659 138.889 120.671 138.842C120.232 138.827 119.809 138.623 119.37 138.514C118.93 138.404 118.476 138.748 118.037 138.295C118.005 138.263 117.958 138.295 117.927 138.295C117.754 138.357 117.582 138.514 117.409 138.498C117.19 138.467 116.892 138.044 116.766 138.216C116.515 138.576 116.343 138.185 116.155 138.138C115.606 138.029 115.261 137.09 115.324 135.948C115.324 135.697 115.402 135.432 115.48 135.228C115.967 133.992 115.982 134.055 116.766 133.992C117.77 133.898 118.758 134.602 119.762 134.352C120.42 134.978 121.11 134.571 121.785 134.696C122.49 134.837 123.196 135.353 123.886 134.993C124.576 134.618 125.25 134.712 125.925 134.712C126.442 134.712 126.96 134.962 127.477 135.025C128.01 135.087 128.559 134.915 129.092 135.087C129.422 135.197 129.767 135.604 130.064 135.353C130.739 134.821 131.429 135.275 132.087 135.009C132.323 134.915 132.542 134.853 132.777 134.821L133.122 134.79H133.562C134.314 134.759 135.036 134.759 135.851 134.634C136.714 134.508 137.686 134.352 138.517 134.368V134.399C138.517 134.79 138.517 135.166 138.282 135.76C138.031 136.37 138.015 136.887 138.376 137.231C138.517 137.372 138.627 137.716 138.501 137.951C137.968 138.827 138.188 139.672 138.203 140.031C138.203 140.329 137.717 140.657 137.921 140.829C138.266 141.127 138.109 141.393 138.156 141.674C138.188 141.878 138.344 142.097 137.89 142.269C137.764 142.316 137.733 142.503 137.843 142.566C138.439 142.895 138.141 143.286 138.156 143.63C138.203 144.491 138.203 145.351 138.156 146.212C138.125 146.916 138.768 147.604 138.517 148.324C139.113 148.762 138.846 149.247 138.846 149.701C138.846 150.06 138.642 150.405 138.517 150.765C138.407 151.124 138.517 151.469 138.25 151.828C137.921 152.282 138.219 152.83 138.156 153.346C138.125 153.628 138.454 153.941 137.89 154.175C137.811 154.207 137.827 154.332 137.89 154.379C138.486 154.754 138.313 155.208 138.094 155.521C137.717 156.053 137.89 156.554 137.827 157.07C137.78 157.492 137.858 157.93 137.796 158.353C137.764 158.666 137.89 158.963 137.639 159.276C137.451 159.526 137.764 159.855 137.811 160.152C137.843 160.449 137.811 160.747 137.811 161.044V162.014V162.984C137.811 163.328 137.858 163.688 137.811 164.032C137.749 164.361 137.513 164.674 137.498 165.002C137.466 165.456 137.607 165.925 137.733 166.379C137.843 166.927 137.858 167.584 137.592 168.116C137.921 168.538 137.529 168.773 137.325 169.039C137.153 169.305 136.823 169.508 137.059 170.009C137.121 170.15 137.011 170.275 136.964 170.4C136.855 170.697 136.369 170.635 136.4 171.104C136.4 171.433 135.976 171.574 135.788 171.824C135.569 172.09 135.098 172.09 135.177 172.685C134.267 172.356 134.393 173.686 133.624 173.623C133.405 173.592 133.185 173.623 132.981 173.608C132.872 173.608 132.746 173.545 132.668 173.608C132.04 174.187 131.068 174.312 130.378 174.28C129.782 174.249 129.186 174.155 128.59 174.249C128.449 174.28 128.308 174.437 128.151 174.515C128.089 174.546 128.01 174.562 127.932 174.531C127.289 174.233 127.289 174.249 126.677 174.531C126.52 174.609 126.364 174.531 126.207 174.578C125.799 174.656 125.391 174.515 124.968 174.859C124.545 175.204 124.09 174.593 123.635 174.327C123.243 174.093 122.867 173.827 122.427 173.858C121.361 173.921 120.279 173.874 119.197 173.874C119.056 173.874 118.883 173.748 118.805 173.889C118.491 174.484 118.225 174.891 117.927 173.889C117.927 173.842 117.801 173.842 117.77 173.889C117.503 174.515 117.158 174.218 116.86 174.187C115.716 174.108 114.602 174.812 113.458 174.562C113.269 174.515 113.018 174.672 112.924 174.468C112.689 174.03 112.579 174.734 112.391 174.578C112.219 174.453 111.983 174.703 111.842 174.531C111.591 174.202 111.325 174.093 111.058 174.093C110.98 174.093 110.948 174.093 110.839 174.093L110.509 174.124C110.29 174.14 110.18 174.187 110.008 174.218C109.474 174.343 108.894 174.468 108.486 174.171C107.702 173.561 106.808 173.529 105.962 173.154C105.099 172.81 104.252 172.403 103.39 171.949C103.029 171.777 102.841 171.308 102.198 171.527C102.073 171.574 101.947 171.402 101.869 171.292C101.665 171.042 101.586 170.651 101.367 170.432C101.147 170.212 100.755 170.166 100.457 169.978C100.238 169.806 100.144 169.571 99.736 169.524C99.4381 169.493 99.344 169.086 99.4224 168.664C99.6419 167.772 99.8458 167.021 99.5478 166.379C99.2656 165.785 99.1401 165.143 99.0774 164.517C99.0303 164.251 99.046 164.001 98.7324 163.735C98.4188 163.485 98.5756 163.047 98.7794 162.749C99.1088 162.28 99.1401 161.873 98.8735 161.357C98.7951 161.185 98.8422 160.981 98.8735 160.794C99.046 159.683 99.5008 158.588 100.05 157.571C100.206 157.336 100.285 157.023 100.755 157.086C100.457 156.647 100.755 156.491 100.928 156.319C101.194 156.053 101.634 155.975 101.916 155.756C102.245 155.49 102.512 155.161 102.669 154.692C102.825 154.238 103.468 154.316 103.594 153.753C103.625 153.643 103.907 153.815 104.001 153.753C104.378 153.44 105.021 153.581 105.131 152.814C105.131 152.752 105.24 152.72 105.303 152.752C106.071 153.19 106.354 152.486 106.808 152.173C107.31 151.828 107.953 152.173 108.486 152.079C109.082 151.922 109.678 151.594 110.306 151.782C110.839 151.922 111.325 151.938 111.811 151.891L112.532 151.828C112.705 151.813 112.783 151.797 112.909 151.813C113.254 151.844 113.63 151.844 113.944 151.844C114.038 151.844 113.944 151.641 113.959 151.547C113.928 151.328 113.677 150.999 113.63 150.843C113.567 150.624 113.614 150.608 113.599 150.248C113.599 149.826 113.567 149.388 113.583 148.965C113.583 148.762 113.395 148.543 113.818 148.355C113.912 148.324 113.928 148.199 113.865 148.152C113.395 147.792 113.41 147.432 113.834 147.056C113.944 146.947 113.834 146.79 113.897 146.665C114.053 146.305 113.646 146.024 113.52 145.695C113.395 145.398 113.818 145.054 113.175 144.803C113.081 144.772 113.081 144.616 113.175 144.569C114.242 143.943 112.438 143.301 113.41 142.676C112.799 142.457 113.489 142.191 113.395 142.003C113.254 141.737 113.081 141.471 113.097 141.189C113.097 140.923 113.128 140.657 113.081 140.391C112.987 139.906 113.269 139.406 112.752 138.921C112.579 138.764 112.47 138.451 112.94 138.248C113.018 138.216 113.018 138.107 112.987 138.029C112.783 137.497 113.316 136.84 114.195 136.683C114.712 136.589 115.355 136.589 115.888 136.636C116.155 136.668 116.327 136.887 116.531 137.043C116.876 137.293 117.347 137.528 117.488 137.81C117.66 138.138 117.535 138.498 117.55 138.936L117.629 138.967Z" fill="#272D35"/>
<path d="M86.8136 25.4247C86.6725 24.9553 87.5507 24.8614 87.5977 24.4546C87.6448 24.0165 87.9427 23.7193 88.1623 23.3907C88.2877 23.2342 88.2877 23.0152 88.225 22.7179C88.1623 22.4363 88.6798 22.5458 88.3034 22.0295C88.272 21.9826 88.3348 21.9826 88.3504 21.9669C88.6484 21.5758 88.8052 21.0282 89.3698 20.9343C90.0284 20.8404 90.2166 20.2928 90.7027 20.1051C90.8752 18.9785 91.9102 18.9473 92.5061 18.4153C92.6943 18.2588 92.8511 17.9929 93.3059 18.2588C93.6822 18.4779 93.5725 17.7582 94.1056 18.2432C94.1527 18.2901 94.1056 18.1337 94.1213 18.0867C94.1527 17.9772 94.137 17.7895 94.2468 17.8051C94.827 17.9303 94.8113 17.9459 94.9995 17.4609C95.0152 17.3983 95.2034 17.633 95.2504 17.6174C95.4543 17.5548 95.6581 17.5235 95.8149 17.367C95.9561 17.2418 96.2854 17.5078 96.1913 16.8507C96.1756 16.7099 96.2854 16.7881 96.3481 16.7568C96.5206 16.6786 96.7245 16.6473 96.8813 16.5221C97.0695 16.3813 97.4145 16.5534 97.4772 15.9589C97.5086 15.6929 97.8536 16.2405 97.8693 16.0997C97.9006 15.8337 97.9947 15.7242 98.1202 15.7398C98.2456 15.7398 98.4181 15.9589 98.5436 15.9432C98.6377 15.9276 98.669 15.6147 98.7788 15.5677C99.0454 15.4582 99.2963 15.6773 99.6256 15.333C99.9706 14.9575 100.363 15.0358 100.739 14.9732C101.147 14.9419 101.523 15.0358 101.931 15.0358C102.244 15.0358 102.433 15.3487 102.621 15.5677C102.793 15.7711 103.295 15.4895 103.17 16.1623C103.17 16.1936 103.201 16.1779 103.217 16.1936C103.609 16.5378 103.891 16.9602 104.173 17.3514C104.691 18.0085 104.989 18.7908 105.083 19.6513C105.114 19.886 105.349 20.1363 104.848 20.418C104.738 20.4806 104.91 20.5119 104.848 20.5588C104.565 20.7309 105.585 20.7465 105.13 20.9343C104.722 21.1064 104.973 21.2159 104.942 21.3411C104.91 21.4975 104.989 21.6227 104.973 21.7792C104.973 21.8887 105.051 21.9669 105.349 22.0139C104.754 22.186 105.177 22.2955 104.91 22.4676C104.738 22.5771 104.565 22.7179 104.785 22.7649C105.255 22.8587 105.051 23.0152 105.114 23.1404C105.208 23.3438 105.051 23.5941 105.491 23.8288C105.679 23.9227 105.569 24.0948 105.522 24.2199C105.459 24.3451 105.224 24.4703 105.193 24.5954C105.13 24.8301 105.13 25.0648 105.381 25.409C105.585 25.7376 104.973 25.8471 105.444 26.3634C105.506 26.4417 105.444 26.5199 105.365 26.5512C104.957 26.7389 104.706 26.8641 104.722 27.3961C104.722 27.8498 104.236 27.9593 103.954 28.1471C103.64 28.3505 103.327 28.6477 102.95 28.6008C102.731 28.5695 102.84 29.4144 102.448 28.9607C102.26 28.7103 102.041 28.8981 101.837 28.8981C101.633 28.8981 101.445 29.0389 101.257 28.8981C100.394 28.194 99.5158 28.5539 98.7631 27.928C98.4808 27.6933 97.8379 27.8342 98.0418 27.0362C97.4615 27.2866 97.5713 26.692 97.1165 26.7389C96.8186 26.7389 96.7559 26.5981 96.6618 26.473C96.0345 25.5968 95.7993 24.4546 95.7679 23.4376C95.7365 22.7649 95.6738 22.0921 95.8306 21.435C95.8777 21.2629 95.8934 21.0595 96.2854 21.0282C96.5677 20.9969 96.6931 20.8091 96.3952 20.4336C96.3324 20.3554 96.3168 20.2615 96.3795 20.2615C97.242 20.371 96.7245 19.667 96.9284 19.3384C97.3361 18.7595 98.1515 18.6656 98.6377 18.2588C98.7474 18.165 98.9983 18.2745 98.7945 17.7582C99.1395 18.0867 99.0767 17.8677 99.0924 17.6174C99.0924 17.367 99.312 17.2262 99.5315 17.3983C99.8295 17.633 99.8922 17.4765 100.049 17.4609C100.206 17.4452 100.316 17.3357 100.472 17.3044C101.1 17.1949 101.711 17.1167 102.323 17.1793C102.448 17.1793 102.589 17.367 102.699 17.4452C102.825 17.5235 102.919 17.2575 103.06 17.7112C103.123 17.8833 103.217 17.7425 103.279 17.7269C103.546 17.6956 103.844 17.9929 104.079 17.6174C104.33 17.2575 104.565 17.7112 104.832 17.0541C104.91 16.8663 105.02 17.0697 105.114 17.0541C105.522 16.9133 105.804 17.5391 106.306 16.8663C106.353 17.3357 106.526 17.2888 106.682 17.2888C106.792 17.2888 106.855 17.5704 107.074 17.0854C107.106 17.0228 107.137 17.0384 107.153 17.0697C107.263 17.2262 107.278 17.5704 107.451 17.5235C107.592 17.4765 107.796 17.2106 107.921 17.2575C108.407 17.4452 108.643 18.1806 109.191 18.165C109.144 18.603 109.301 18.5874 109.427 18.6813C109.646 18.8221 110.132 18.4935 110.321 18.7595C110.493 18.9942 110.634 19.2758 111.011 19.1976C111.654 19.0724 111.81 19.5887 112.202 19.8078C112.296 19.8547 112.516 19.8078 112.249 20.2459C112.187 20.3397 112.312 20.3867 112.438 20.3085C112.72 20.1363 112.626 20.3397 112.767 20.3085C113.143 20.2302 112.328 21.2316 113.159 20.7465L113.582 21.2316C113.708 21.4037 113.865 21.5601 113.959 21.7322C114.006 21.8261 114.147 21.8261 113.943 22.1077C113.802 22.2955 113.865 22.4363 114.068 22.3737C114.555 22.2329 114.476 22.4832 114.586 22.6084C114.868 22.9839 115.135 23.3907 115.307 23.8288C115.386 24.0165 115.307 24.2825 115.307 24.5172C115.307 24.7519 115.699 24.7832 115.37 25.1587C115.354 25.19 115.37 25.19 115.386 25.2056C115.48 25.2526 115.652 25.2526 115.668 25.3308C115.668 25.4403 115.354 25.7376 115.543 25.7063C115.919 25.6594 115.59 25.8941 115.59 25.9879C115.59 26.2539 114.774 26.7546 113.723 27.177C113.488 27.2709 113.222 27.3491 113.033 27.4117C111.826 27.7246 111.889 27.6933 111.701 27.4587C111.465 27.1457 111.936 26.5043 111.528 26.2852C111.983 25.7689 111.481 25.7376 111.481 25.456C111.481 25.1587 111.779 24.658 111.324 24.6424C110.885 24.6424 110.807 24.392 110.666 24.1887C110.556 24.0478 110.65 23.7349 110.571 23.5628C110.493 23.3751 110.242 23.3438 110.226 23.0934C110.226 22.937 110.43 22.5615 110.164 22.6553C109.631 22.8587 109.756 22.3581 109.395 22.4207C108.909 22.5145 108.799 22.1234 108.407 22.1547C108.204 22.186 108 22.2329 107.874 22.1547C107.811 22.1077 107.749 22.0921 107.796 21.8418C107.843 21.5758 107.733 21.5132 107.482 21.7948C107.388 21.9043 107.278 21.9826 107.294 21.8418C107.372 21.2941 107.121 21.435 106.98 21.388C106.886 21.3567 106.949 20.8561 106.824 21.0282C106.62 21.3254 106.573 21.1533 106.479 21.1533C106.4 21.1533 106.29 21.2941 106.353 20.8561C106.369 20.7309 106.306 20.684 106.259 20.7778C105.992 21.3098 105.945 21.0125 105.82 20.9969C105.522 20.9656 105.24 20.9343 104.957 20.8561C104.706 20.7935 104.456 21.4193 104.252 21.169C104.111 21.7479 103.985 21.5132 103.828 21.4975C103.719 21.4975 103.609 21.3098 103.483 21.2003C103.358 21.0908 103.264 21.2003 103.123 20.9812C102.919 20.684 102.793 20.9812 102.637 20.9812C102.542 20.9812 102.542 21.3098 102.307 20.7935C102.276 20.7152 102.244 20.7465 102.244 20.8248C102.307 21.435 102.15 21.3098 101.962 21.122C101.68 20.8404 101.57 21.0595 101.413 21.0751C101.288 21.0908 101.209 21.2159 101.084 21.2316C100.99 21.2629 100.99 21.4037 100.77 21.2629C100.582 21.1533 100.708 21.4663 100.676 21.5601C100.645 21.654 100.551 21.6697 100.488 21.7322L100.3 21.9356C100.3 21.9356 100.19 22.0764 100.143 22.1547C100.08 22.2329 100.065 22.3424 99.9706 22.3894C99.8765 22.4363 99.6099 22.4207 99.5629 22.4989C99.3747 22.7492 99.9079 23.156 99.6727 23.3125C100.08 23.422 99.7667 23.4376 99.6883 23.5002C99.6099 23.5472 99.4374 23.6254 99.8608 23.6567C99.9863 23.6567 99.9706 23.688 100.002 23.7036C100.08 23.7193 99.6727 23.8131 99.9706 23.8131C100.174 23.8131 100.002 23.8757 100.049 23.907C100.112 23.907 99.8138 24.0948 100.347 23.907C99.6413 24.2982 100.755 23.8131 100.472 24.0009C100.378 24.0791 100.363 24.1104 100.3 24.173C100.269 24.2043 100.19 24.2825 100.237 24.2669C100.598 24.0948 100.614 24.0948 100.661 24.1574C100.692 24.2356 100.692 24.3608 100.833 24.2982C100.864 24.2982 100.943 24.1417 100.99 24.0791C101.006 24.0478 101.021 24.0322 101.021 24.0791C101.006 24.392 101.037 24.392 101.178 24.1104C101.209 24.0478 101.225 24.1104 101.241 24.0791C101.288 24.0009 101.335 24.1417 101.366 23.8131C101.366 23.4689 101.398 24.0791 101.476 24.3295C101.539 24.5642 101.649 24.7988 101.68 24.7676C101.696 24.7206 101.696 24.7206 101.711 24.705C101.727 24.7363 101.774 24.7676 101.711 24.705C101.711 24.705 101.821 24.7519 101.711 24.6893C101.617 24.658 101.539 24.6111 101.476 24.5798C101.429 24.5642 101.398 24.5485 101.366 24.5485C101.335 24.5485 101.304 24.5329 101.257 24.5172C101.335 24.5485 101.507 24.5954 101.743 24.6424C101.79 24.6424 101.79 24.6424 101.743 24.6267C101.131 24.4703 101.445 24.5172 101.46 24.4546C101.554 24.2512 100.849 24.0322 101.053 23.5628C101.084 23.4846 100.912 23.3907 101.115 23.3281C101.539 23.1873 100.833 23.2186 100.974 23.1091C101.1 23.0309 100.833 22.9526 101.006 22.8744C101.617 22.5928 101.398 22.3894 101.162 22.2016C100.943 22.0452 100.692 21.873 100.896 21.6853C101.084 21.4975 101.131 21.3254 101.131 21.169C101.131 20.9969 101.068 20.8091 101.084 20.8248C101.115 20.7309 101.1 20.637 101.053 20.5901C101.037 20.5901 101.257 20.371 100.739 20.6996C100.629 20.7622 100.692 20.7152 100.723 20.6996C100.802 20.6214 100.974 20.4493 100.959 20.418C100.943 20.4023 100.739 20.5588 100.676 20.6214C100.614 20.6683 100.661 20.6057 100.441 20.8717C100.284 21.0595 100.425 20.903 100.582 20.6214C100.927 20.0581 101.115 19.4323 100.943 19.5105C100.802 19.5887 100.723 19.4792 100.614 19.5105C100.567 19.5105 100.519 19.4792 100.457 19.7608C100.41 20.0268 100.378 19.9173 100.316 19.7296C100.222 19.4479 100.143 19.4166 100.065 19.7765C100.049 19.9017 99.9863 19.9017 99.9392 19.9173C99.6413 19.9955 99.3433 20.0738 99.0297 20.1676C98.9513 20.1989 98.9199 20.3241 98.7161 19.9486C98.8415 20.4336 98.7161 20.3085 98.6377 20.2928C98.5122 20.2928 98.324 20.1363 98.1986 20.1363C98.0418 20.1363 97.932 20.2459 97.932 20.5744C97.932 20.8717 97.6027 20.5275 97.6497 20.9656C97.6497 21.0438 97.4929 20.8091 97.4615 20.8561C97.3674 21.0125 97.0068 20.684 97.1793 21.3567C97.1793 21.4193 97.1636 21.4193 97.1322 21.388C96.6618 20.8561 96.7402 21.388 96.6618 21.6384C96.5834 21.9043 96.16 21.4975 96.0031 21.5914C95.815 21.7009 95.7365 21.9982 95.4229 21.873C94.874 21.654 94.7015 22.0452 94.3722 22.2016C94.0429 22.3581 93.7606 22.5771 93.5097 22.8275C93.4 22.937 93.447 23.2186 93.3529 23.3594C93.2588 23.5002 93.102 23.5785 92.9922 23.688C92.8825 23.7975 92.7727 23.907 92.6472 24.0009C92.5845 24.0478 92.6786 24.2356 92.3336 24.0009C92.2552 23.954 92.2082 23.9696 92.2395 24.0165C92.4904 24.439 92.3807 24.4859 91.9729 24.3138C91.8632 24.2669 91.9102 24.3764 91.8318 24.3764C91.6279 24.3764 91.8632 24.705 91.8945 24.8614C91.9102 25.0022 91.5182 24.8614 91.9729 25.2995C92.0357 25.3621 92.02 25.3934 91.9416 25.3621C90.9223 24.924 92.3022 26.0662 91.377 25.7063C91.8788 26.0662 91.2202 25.8002 91.2673 25.8941C91.33 26.0349 91.4711 26.1757 91.4241 26.2383C91.377 26.3009 91.33 26.3634 91.33 26.4573C91.33 26.6138 91.0477 26.6607 91.4711 26.9267C91.6123 27.0206 91.6907 27.1144 91.2202 27.0362C91.1418 27.0362 91.1418 27.0519 91.1575 27.0832C91.3143 27.2553 90.7498 27.3178 89.8559 27.224C89.3384 27.177 88.6954 27.0675 88.1779 26.958C87.9114 26.8954 87.7702 26.7702 87.5977 26.6607C87.2998 26.473 86.8607 26.2383 86.7666 26.0505C86.6411 25.8158 86.8293 25.6594 86.9077 25.4247H86.8136Z" fill="#272D35"/>
</g>
<defs>
<clipPath id="clip0_361_570">
<rect width="203" height="175" fill="white"/>
</clipPath>
</defs>
</svg>
