<svg width="16" height="12" viewBox="0 0 16 12" fill="none" xmlns="http://www.w3.org/2000/svg">
<path id="Vector" fill-rule="evenodd" clip-rule="evenodd" d="M15.6967 0.292787C15.8841 0.480314 15.9895 0.734622 15.9895 0.999786C15.9895 1.26495 15.8841 1.51926 15.6967 1.70679L6.19666 11.2068C6.00914 11.3943 5.75483 11.4996 5.48967 11.4996C5.2245 11.4996 4.97019 11.3943 4.78267 11.2068L0.282665 6.70679C0.100507 6.51818 -0.000287492 6.26558 0.00199093 6.00339C0.00426935 5.74119 0.109439 5.49038 0.294847 5.30497C0.480255 5.11956 0.731067 5.01439 0.993264 5.01211C1.25546 5.00983 1.50806 5.11063 1.69666 5.29279L5.48967 9.08579L14.2827 0.292787C14.4702 0.105316 14.7245 0 14.9897 0C15.2548 0 15.5091 0.105316 15.6967 0.292787Z" fill="#272D35"/>
</svg>
