<svg width="79" height="38" viewBox="0 0 79 38" fill="none" xmlns="http://www.w3.org/2000/svg">
<g clip-path="url(#clip0_614_5015)">
<path d="M52.7706 36.4902C51.8806 36.8302 50.8206 36.4502 49.7906 36.6702C48.7606 36.8902 47.7006 36.9402 46.6406 37.0102C46.1106 37.0402 45.6106 37.1702 45.1106 37.3502C44.6206 37.5302 44.0306 37.2302 43.5706 37.6802C43.5306 37.7202 43.4306 37.6902 43.3606 37.6902C42.0806 37.7502 40.7706 37.9602 39.5306 37.7302C38.0906 37.4602 36.6606 37.6102 35.2406 37.4402C32.8806 37.8402 30.5506 37.2502 28.2106 37.0202C27.4806 36.9502 26.7306 36.9202 26.0306 36.5102C25.4406 36.1402 24.5806 36.4702 24.0106 35.8902C23.9606 35.8402 23.8106 35.9102 23.7106 35.9202C23.4706 35.9202 23.2006 35.9902 22.9906 35.9002C21.7206 35.3702 21.7406 35.3602 20.5906 35.3202C20.4506 35.3202 20.3406 35.0902 20.2006 35.0402C19.6106 34.8702 19.0106 34.6702 18.4106 34.5402C17.8606 34.4302 17.3806 34.0002 16.7406 34.2502C16.6006 34.3002 16.3906 34.1502 16.2206 34.1002C15.6606 33.9102 15.1106 33.6802 14.5506 33.5202C13.9106 33.3102 13.3406 32.8902 12.5806 32.9602C12.2506 32.9902 12.0306 32.4402 11.8406 32.4502C11.4806 32.4702 11.1906 32.3802 10.9206 32.2102C10.6506 32.0502 10.4506 31.7702 10.1906 31.6202C9.96063 31.4902 9.63063 31.5402 9.38063 31.4302C8.77063 31.1302 8.22063 30.6302 7.59063 30.4602C6.90063 30.2902 6.39063 29.8702 5.83063 29.5002C5.25063 29.1002 4.72063 28.6302 4.17063 28.1902C3.72063 27.8602 3.49063 27.3702 3.20063 26.9402C2.91063 26.5102 2.29063 26.2502 2.33063 25.6102C2.33063 25.5802 2.28063 25.5502 2.26063 25.5102C1.64063 24.6202 1.19063 23.6002 0.770629 22.5802C0.390629 21.7002 0.180629 20.7402 0.0606294 19.7702C-0.0393706 18.7902 0.0406294 17.8102 0.240629 16.8502C0.380629 16.3302 0.400629 15.7002 0.940629 15.3802C1.05063 15.3102 1.03063 15.0602 1.13063 14.9502C1.55063 14.6002 1.11063 13.8802 1.66063 13.6302C2.12063 13.4002 2.25063 12.9402 2.55063 12.6102C2.86063 12.2202 3.19063 11.8402 3.53063 11.4702C3.78063 11.2402 3.96063 10.9802 4.03063 10.6402C4.58063 10.6702 4.80063 10.1302 5.25063 9.98022C5.55063 9.90022 5.97063 9.73022 6.05063 9.49022C6.22063 8.95022 6.70063 8.82022 7.05063 8.52022C7.59063 8.10022 8.23063 7.84022 8.67063 7.25022C8.86063 7.00022 9.22063 6.87022 9.53063 6.75022C9.82063 6.64022 10.1606 6.64022 10.4406 6.52022C10.9606 6.28022 11.4606 6.05022 11.8706 5.61022C12.2406 5.24022 12.9406 5.35022 13.2206 4.76022C13.2606 4.68022 13.4206 4.64022 13.5206 4.64022C14.0906 4.62022 14.5606 4.52022 15.0406 4.10022C15.4306 3.76022 16.0606 3.69022 16.5806 3.53022C17.1406 3.35022 17.6906 3.08022 18.2706 3.04022C18.6406 3.01022 18.6606 2.41022 19.1706 2.63022C19.4506 2.76022 19.8606 2.55022 20.2106 2.47022C20.5706 2.39022 20.9206 2.21022 21.2806 2.22022C23.1606 2.24022 24.8906 1.53022 26.7306 1.39022C27.5006 1.33022 28.2606 0.870223 29.0506 1.29022C29.5406 0.840223 30.2506 1.09022 30.7406 0.790223C31.0506 0.600223 31.3406 0.580223 31.6506 0.550223C33.6506 0.350223 35.6606 0.290223 37.6606 0.200223C38.9806 0.150223 40.3006 0.0202234 41.6206 0.000223438C41.9906 0.000223438 42.3606 -0.0297766 42.7506 0.210223C43.0406 0.390223 43.5706 0.430223 43.9806 0.150223C44.0606 0.100223 44.2206 0.0602234 44.2806 0.100223C45.0006 0.680223 45.7706 0.170223 46.5206 0.210223C47.9706 0.280223 49.3406 0.790223 50.7706 0.940223C51.0806 0.970223 51.4006 1.19022 51.6906 0.860223C51.8806 1.20022 52.0806 1.08022 52.3906 0.990223C52.7106 0.890223 53.2006 0.960223 53.4306 1.18022C53.7406 1.48022 54.0806 1.45022 54.4206 1.54022C54.7706 1.63022 55.1406 1.68022 55.5006 1.76022C57.0006 2.13022 58.4906 2.57022 59.9506 3.08022C60.2406 3.18022 60.4806 3.40022 60.7506 3.54022C61.0206 3.68022 61.3906 3.62022 61.5606 4.01022C61.6306 4.15022 61.9506 4.17022 62.1506 4.23022C62.8806 4.47022 63.5906 4.93022 64.3206 4.94022C65.0506 4.95022 65.6106 5.51022 66.3706 5.35022C66.5806 5.31022 66.8406 5.55022 67.0806 5.64022C68.0806 5.98022 68.8606 6.79022 69.9906 6.87022C70.1706 7.33022 70.5906 7.48022 70.9606 7.70022C71.2406 7.86022 71.4406 8.19022 71.8606 8.04022C71.9106 8.02022 72.0006 8.09022 72.0506 8.14022C72.3206 8.43022 72.4706 8.80022 72.8506 9.01022C73.1606 9.19022 73.5306 9.20022 73.8406 9.45022C74.9506 10.3902 75.6706 11.6702 76.6606 12.7502C76.6906 13.2202 76.9506 13.6002 77.1906 13.9802C77.5706 14.6802 78.2206 15.2402 78.4006 16.1102C78.5706 16.9202 78.6306 17.7802 78.8306 18.5502C79.1706 19.9102 78.7606 21.3102 78.2906 22.5502C78.2006 22.8902 78.1006 23.2702 77.6806 23.4002C77.5806 23.4302 77.4406 23.7702 77.4806 23.9102C77.5606 24.2002 77.3006 24.3402 77.2506 24.5502C77.1806 24.8602 76.8906 25.0202 76.6306 25.1802C76.3606 25.3402 76.1506 25.5102 76.2106 25.9302C75.8206 26.4402 75.3506 26.8502 74.9206 27.3102C74.4606 27.7302 74.0006 28.1502 73.5106 28.5202C73.2806 28.6802 73.1006 28.9102 72.7306 28.9102C72.4806 28.9102 72.1006 29.1602 72.0106 29.3802C71.8106 29.9002 71.3306 30.0502 70.9506 30.3102C69.7606 31.0402 68.5406 31.7102 67.2806 32.2502C66.7206 32.4802 66.1306 32.6302 65.5406 32.7602C64.9506 32.9102 64.4506 33.3802 63.7906 33.2802C63.7406 33.2802 63.6906 33.3102 63.6406 33.3302C63.4306 33.4502 63.2406 33.6302 63.0106 33.6902C62.7106 33.7702 62.2506 33.6402 62.1206 33.8002C61.8706 34.1302 61.5706 33.9502 61.3206 34.0002C60.5806 34.1502 59.9706 33.6802 59.8406 32.9202C59.8106 32.7502 59.8406 32.5502 59.9006 32.4002C60.2806 31.4202 60.2906 31.4602 61.2606 31.1102C61.8606 30.8702 62.5006 30.7602 63.1406 30.6302C63.7706 30.4802 64.3906 30.3102 64.9606 29.9902C65.9006 30.0302 66.6206 29.4202 67.4206 29.1002C68.2706 28.7902 69.2406 28.6202 69.8706 27.9402C70.1706 27.5902 70.5106 27.3302 70.8506 27.0702C71.1806 26.8002 71.5306 26.5602 71.8706 26.3102C72.3506 25.8902 72.9806 25.6202 73.4406 25.1702C73.9606 24.7302 74.2906 24.1302 74.7806 23.7002C75.0506 23.4102 75.5306 23.2002 75.5906 22.7902C75.6606 21.9102 76.2906 21.2702 76.2606 20.4502C76.2606 19.3802 76.4306 18.3302 76.0206 17.3502C75.7906 16.8402 75.5206 16.3702 75.2906 15.8602C75.1706 15.6302 75.0806 15.4202 75.0606 15.1002C75.0606 14.7702 74.8306 14.3902 74.4006 14.2502C74.2306 14.1902 74.0306 14.0302 74.0106 13.8802C73.9306 13.2402 73.4206 12.9002 73.0006 12.5102C72.7406 12.2602 72.6406 11.7502 72.3906 11.7102C71.9706 11.6402 71.7506 11.3702 71.4606 11.1702C71.2606 11.0302 70.9606 10.9602 70.9506 10.5802C70.9506 10.4802 70.7606 10.3202 70.6606 10.3302C70.1006 10.4102 69.7906 10.0102 69.4006 9.77022C68.4406 9.23022 67.4806 8.70022 66.4806 8.21022C65.6606 7.79022 64.6806 7.84022 63.8906 7.35022C63.2306 7.51022 62.7106 7.14022 62.1406 6.93022C61.7106 6.77022 61.3206 6.50022 60.9106 6.29022C60.5006 6.07022 60.0506 6.01022 59.6306 5.71022C59.1106 5.33022 58.3706 5.33022 57.7306 5.13022C57.3906 5.01022 56.9406 5.13022 56.7106 4.70022C56.6806 4.64022 56.5106 4.61022 56.4406 4.65022C55.8906 4.93022 55.3306 4.69022 54.9406 4.46022C54.3106 4.07022 53.6306 4.06022 52.9706 3.90022C52.4206 3.76022 51.8506 3.73022 51.3006 3.61022C50.9006 3.52022 50.5006 3.55022 50.1006 3.33022C49.7906 3.16022 49.3406 3.33022 48.9506 3.30022C48.5606 3.28022 48.1806 3.22022 47.7906 3.18022L46.5206 3.06022L45.2506 2.96022C44.7906 2.93022 44.3306 2.94022 43.8706 2.87022C43.4406 2.80022 43.0206 2.63022 42.5906 2.60022C41.3706 2.50022 40.1706 2.92022 38.9506 2.76022C38.6206 3.05022 38.3006 2.85022 37.9606 2.80022C37.6406 2.75022 37.2706 2.64022 36.9606 2.95022C36.8706 3.04022 36.7106 3.02022 36.5706 3.05022C36.2806 3.10022 36.0106 2.83022 35.6706 3.05022C35.4306 3.20022 35.0506 3.09022 34.7306 3.14022C34.4006 3.19022 34.0106 3.01022 33.7606 3.39022C33.1406 2.89022 32.6506 3.77022 32.0606 3.57022C31.8706 3.50022 31.6706 3.50022 31.4706 3.46022C31.3706 3.44022 31.2606 3.39022 31.1806 3.42022C29.7006 4.05022 28.1006 3.88022 26.5906 4.25022C26.4006 4.30022 26.2406 4.44022 26.0606 4.52022C25.9706 4.56022 25.8806 4.59022 25.7806 4.58022C25.2006 4.54689 24.6673 4.65022 24.1806 4.89022C24.0006 4.98022 23.7806 4.98022 23.5806 5.04022C23.0706 5.20022 22.5506 5.23022 22.0606 5.58022C21.5806 5.92022 20.9106 5.69022 20.3106 5.65022C19.7806 5.62022 19.2506 5.60022 18.7206 5.77022C17.4006 6.22022 16.0606 6.63022 14.7606 7.15022C14.6006 7.21022 14.3406 7.22022 14.2906 7.35022C14.0706 7.88022 13.8706 8.26022 13.2506 7.79022C13.2206 7.77022 13.0906 7.83022 13.0806 7.87022C12.9406 8.40022 12.4606 8.40022 12.1106 8.55022C10.7706 9.15022 9.77063 10.2502 8.52063 10.9002C8.32063 11.0102 8.13063 11.2702 7.94063 11.2402C7.53063 11.1702 7.71063 11.6402 7.46063 11.7002C7.25063 11.7602 7.11063 12.0702 6.91063 12.0902C6.54063 12.1302 6.24063 12.2902 6.00063 12.5002C5.77063 12.7302 5.59063 13.0002 5.44063 13.2502C5.18063 13.7402 4.95063 14.2302 4.57063 14.5202C3.80063 15.0902 3.46063 15.9602 3.16063 16.7602C2.85063 17.5902 2.74063 18.4802 2.84063 19.3402C2.86063 19.6902 2.78063 20.1102 3.21063 20.3502C3.30063 20.3902 3.30063 20.5602 3.31063 20.6702C3.31063 20.9402 3.28063 21.2402 3.38063 21.5002C3.47063 21.7602 3.76063 21.9302 3.93063 22.1502C4.06063 22.3302 4.16063 22.5302 4.44063 22.6102C4.64063 22.6702 4.71063 22.9802 4.72063 23.3102C4.72063 23.6502 4.74063 24.0002 4.85063 24.3202C4.94063 24.6502 5.11063 24.9602 5.41063 25.2002L6.16063 25.8702C6.41063 26.1002 6.66063 26.3302 6.94063 26.5302C7.17063 26.6902 7.36063 26.9002 7.72063 26.9202C8.05063 26.9402 8.37063 27.2702 8.58063 27.5502C8.92063 27.9902 9.32063 28.3002 9.89063 28.3502C10.0806 28.3702 10.2706 28.4802 10.4406 28.5802C11.5006 29.1502 12.5806 29.6902 13.7106 30.1602C13.9806 30.2802 14.2906 30.3402 14.4106 30.6802C14.7206 30.4402 14.9606 30.6602 15.1906 30.7702C15.5406 30.9502 15.8506 31.2202 16.2206 31.3702C16.6506 31.5602 17.0906 31.6802 17.6006 31.6302C18.0706 31.5802 18.4706 32.0402 19.0006 31.9002C19.1006 31.8702 19.2206 32.1102 19.3506 32.1302C19.8806 32.2202 20.3606 32.6602 20.9506 32.3402C21.0006 32.3102 21.1106 32.3402 21.1506 32.3902C21.6306 33.0002 22.3106 32.7802 22.9206 32.8002C23.5906 32.8202 24.1106 33.3002 24.7506 33.4202C25.4806 33.5402 26.2606 33.5502 26.9206 33.8302C28.0706 34.3202 29.2906 34.3302 30.4906 34.5002C31.7206 34.6702 32.9506 34.7702 34.1906 34.8202C34.7306 34.8302 35.2706 34.7102 35.8106 34.6902C36.4106 34.6702 37.0106 34.7202 37.6106 34.7402C38.1706 34.7402 38.7406 34.7402 39.3006 34.7602C39.5706 34.7702 39.8606 34.6302 40.0906 34.9202C40.1406 34.9802 40.3006 35.0002 40.3706 34.9502C40.8506 34.6302 41.3106 34.6402 41.8206 34.9102C41.9606 34.9902 42.1706 34.9102 42.3306 34.9402C42.8006 35.0402 43.1906 34.7502 43.6106 34.6502C44.0006 34.5502 44.4606 34.8102 44.7906 34.3602C44.8306 34.3002 45.0306 34.2802 45.0906 34.3402C45.9306 35.0102 46.7306 33.7402 47.5706 34.3202C47.8406 33.8802 48.2106 34.3202 48.4506 34.2202C48.8006 34.0902 49.1306 33.9402 49.5006 33.9002C49.8506 33.8702 50.2006 33.8302 50.5406 33.7602C51.1606 33.6202 51.8406 33.7102 52.4106 33.2702C52.6006 33.1302 52.9806 32.9802 53.2906 33.2602C53.3506 33.3102 53.4806 33.2802 53.5706 33.2402C54.2306 32.9902 55.1406 33.1702 55.4406 33.7202C55.6106 34.0402 55.6906 34.4602 55.6906 34.8302C55.6906 35.0102 55.4006 35.1902 55.2306 35.3602C54.9406 35.6502 54.6706 36.0202 54.3106 36.1802C53.8906 36.3702 53.3806 36.3802 52.8006 36.4702L52.7706 36.4902Z" fill="#272D35"/>
</g>
<defs>
<clipPath id="clip0_614_5015">
<rect width="78.92" height="37.85" fill="white"/>
</clipPath>
</defs>
</svg>
