<svg width="19" height="18" viewBox="0 0 19 18" fill="none" xmlns="http://www.w3.org/2000/svg">
<path d="M2.99316 9.24143C3.5641 8.92282 4.23272 8.82665 4.87031 8.97143M5.92459 5.57714C5.56051 5.02827 5.40961 4.36524 5.50031 3.71286M8.88174 1C8.4311 2.38044 8.49041 3.8767 9.04888 5.21714M15.5932 17.0457L7.00459 13.8443C6.75036 13.7545 6.52281 13.6022 6.34287 13.4014C6.16294 13.2006 6.03642 12.9578 5.97495 12.6953C5.91348 12.4327 5.91905 12.159 5.99113 11.8992C6.06322 11.6394 6.19951 11.4019 6.38745 11.2086L11.7746 5.82143C11.9736 5.63491 12.2165 5.50166 12.4807 5.43402C12.7449 5.36638 13.0219 5.36655 13.2861 5.43451C13.5502 5.50247 13.7929 5.63601 13.9917 5.82277C14.1905 6.00953 14.3389 6.24346 14.4232 6.50286L17.6117 15.0914C17.7003 15.3697 17.7095 15.6671 17.6381 15.9503C17.5668 16.2334 17.4179 16.4911 17.2081 16.6942C16.9983 16.8973 16.736 17.0378 16.4507 17.0999C16.1654 17.162 15.8684 17.1432 15.5932 17.0457Z" stroke="#272D35" stroke-width="1.5" stroke-linecap="round" stroke-linejoin="round"/>
<path d="M1.64286 4.93415C1.9979 4.93415 2.28571 4.64633 2.28571 4.29129C2.28571 3.93625 1.9979 3.64844 1.64286 3.64844C1.28782 3.64844 1 3.93625 1 4.29129C1 4.64633 1.28782 4.93415 1.64286 4.93415Z" stroke="#272D35" stroke-width="1.5" stroke-linecap="round" stroke-linejoin="round"/>
</svg>
