<svg width="20" height="19" viewBox="0 0 20 19" fill="none" xmlns="http://www.w3.org/2000/svg">
<path d="M9.68422 0.86024C14.5732 0.86024 18.5081 4.74388 18.5081 9.49997C18.5081 14.2561 14.5732 18.1397 9.68422 18.1397C4.79525 18.1397 0.860291 14.2561 0.860291 9.49998C0.860291 4.74388 4.79525 0.860241 9.68422 0.86024Z" stroke="#272D35" stroke-width="1.72058"/>
<path d="M9.2954 12.3946L9.29544 12.3947C9.49478 12.5875 9.81687 12.5875 10.0162 12.3947L14.1964 8.35095C14.2996 8.25119 14.3498 8.12166 14.3498 7.9907C14.3498 7.85978 14.2966 7.72906 14.1964 7.63214C13.9971 7.4393 13.675 7.4393 13.4757 7.63214L9.65583 11.3272L5.89398 7.68823C5.69463 7.49539 5.37254 7.49539 5.1732 7.68823C4.96985 7.88494 4.96984 8.20859 5.17316 8.40531C5.17317 8.40532 5.17319 8.40533 5.1732 8.40534L9.2954 12.3946Z" fill="#272D35" stroke="#272D35" stroke-width="0.430146"/>
</svg>
