<svg width="144" height="144" viewBox="0 0 144 144" fill="none" xmlns="http://www.w3.org/2000/svg">
<path d="M144 72C144 111.765 111.765 144 72 144C32.2355 144 0 111.765 0 72C0 32.2355 32.2355 0 72 0C111.765 0 144 32.2355 144 72Z" fill="#F8F5F2"/>
<path fill-rule="evenodd" clip-rule="evenodd" d="M72 133.994C106.239 133.994 133.994 106.239 133.994 72C133.994 37.7614 106.239 10.0056 72 10.0056C37.7614 10.0056 10.0056 37.7614 10.0056 72C10.0056 106.239 37.7614 133.994 72 133.994ZM72 144C111.765 144 144 111.765 144 72C144 32.2355 111.765 0 72 0C32.2355 0 0 32.2355 0 72C0 111.765 32.2355 144 72 144Z" fill="#272D35"/>
<g clip-path="url(#clip0_522_4125)">
<path d="M105.057 68.0183C105.057 68.0183 104.93 67.8203 104.867 67.7214C104.835 67.6554 104.803 67.5894 104.74 67.5894C104.708 67.5894 104.644 67.5894 104.613 67.5894C104.803 67.5894 104.93 67.4574 104.93 67.2924C104.93 67.2264 105.025 67.1605 104.93 67.0615C104.898 67.0285 104.962 66.8965 104.994 66.8305C104.994 66.7645 104.962 66.6985 104.93 66.6655C104.93 66.6655 104.93 66.6655 104.93 66.6325C104.994 66.4676 104.93 66.3026 104.93 66.1376C104.93 65.9727 104.93 65.8077 104.898 65.6757C104.835 65.3128 104.708 64.9828 104.581 64.6529C104.517 64.5539 104.517 64.4219 104.359 64.3559C104.295 64.3559 104.263 64.2239 104.263 64.158C104.295 64.059 104.263 63.993 104.2 63.927C104.136 63.795 104.041 63.663 103.977 63.5311C103.914 63.3991 103.819 63.2671 103.723 63.1351C103.469 63.1351 103.628 62.8712 103.469 62.8052C103.438 62.8052 103.406 62.7062 103.342 62.7062C103.311 62.7062 103.247 62.6402 103.247 62.6072C103.279 62.4752 103.184 62.4422 103.152 62.3762C102.93 62.1453 102.739 61.9143 102.453 61.7823C102.294 61.7164 102.136 61.5844 102.009 61.4524C101.882 61.2874 101.659 61.3204 101.501 61.2214C101.405 61.1554 101.31 61.1225 101.278 60.9905C100.929 60.8915 100.707 60.5945 100.357 60.4626C100.262 60.4296 100.167 60.4626 100.071 60.4626C99.9762 60.4626 99.9127 60.3636 99.8174 60.2976C99.8174 60.2976 99.7857 60.2976 99.7539 60.2976C99.6587 60.3966 99.5951 60.2976 99.4999 60.2976C99.4046 60.2976 99.2776 60.2976 99.2141 60.1326C98.9283 60.2646 98.6742 60.0666 98.4202 60.0996C98.3567 60.0996 98.2614 60.0666 98.2296 60.0996C98.0709 60.2316 97.8803 60.0996 97.7215 60.1986C97.5628 60.2976 97.3405 60.2316 97.1499 60.2316C97.0864 60.2316 97.0229 60.2646 96.9911 60.2316C96.8959 60.1326 96.8324 60.2316 96.7689 60.1986C96.7053 60.1986 96.6101 60.1656 96.5466 60.1656C96.356 60.1656 96.1655 60.2316 95.975 60.2646C95.7844 60.2976 95.5939 60.3306 95.4033 60.3966C95.3081 60.3966 95.2128 60.4626 95.1493 60.4956C95.054 60.4956 94.9905 60.5615 94.8953 60.5286C94.8 60.5286 94.7047 60.5615 94.6412 60.6605C94.5777 60.7265 94.5777 60.7925 94.4824 60.7265C94.4824 60.8585 94.3872 60.8585 94.3236 60.8915C94.0061 61.0895 93.625 61.1884 93.3392 61.4524C93.1804 61.5844 93.1804 61.8483 92.8946 61.8483C92.8946 61.8483 92.8629 61.8813 92.8629 61.9143C92.8629 62.0463 92.7358 62.1453 92.6406 62.1783C92.5135 62.1783 92.45 62.2773 92.3865 62.3762C92.1642 62.6402 92.0055 62.9701 91.7832 63.2341C91.6561 63.4651 91.5291 63.696 91.3703 63.927C91.2433 64.158 91.148 64.4219 91.0528 64.6529C91.0528 64.7189 90.9893 64.7848 91.021 64.9168C91.0528 65.0818 90.894 65.2138 90.9575 65.3787C90.767 65.5107 90.7987 65.7747 90.7352 65.9397C90.5764 66.4016 90.6717 66.8965 90.4812 67.3914C90.4494 67.4904 90.4812 67.5894 90.4812 67.6884C90.4812 67.7873 90.5129 67.9193 90.4812 67.9523C90.3541 68.0843 90.5447 68.1173 90.5447 68.2163C90.5129 68.3813 90.5447 68.5132 90.5764 68.6782C90.5764 68.8102 90.5764 69.0081 90.6399 69.1071C90.767 69.2391 90.767 69.3711 90.7352 69.5361C90.7352 69.5361 90.7352 69.602 90.7352 69.635C90.894 69.734 90.8305 69.899 90.9258 69.998C91.0528 70.097 91.0845 70.2289 91.148 70.3939C91.148 70.4599 91.148 70.5589 91.148 70.6249C91.148 70.7239 91.1798 70.8228 91.2751 70.8558C91.4338 70.9548 91.4656 71.1528 91.5609 71.2848C91.6244 71.3838 91.6561 71.5157 91.7832 71.5487C91.8467 71.5487 91.8784 71.6807 91.8784 71.7797C91.8784 71.9117 92.0372 71.9447 91.9737 72.1096C92.069 72.1096 92.1325 72.1756 92.1642 72.2416C92.2277 72.3406 92.323 72.4396 92.3865 72.5386C92.45 72.6375 92.5453 72.6705 92.5771 72.8025C92.5771 72.9675 92.7994 72.8685 92.8629 73.0005C92.8629 73.0335 92.9264 73.0335 92.9264 73.0665C92.9264 73.2314 93.0534 73.2974 93.1487 73.3634L93.6885 73.7594L94.2601 74.1223L94.927 74.5512C94.9905 74.7162 95.1493 74.6832 95.2446 74.7492C95.3398 74.8152 95.4351 74.9142 95.5621 74.9472C95.7209 74.9472 95.9114 75.0461 96.0702 75.0791C96.229 75.1121 96.3878 75.1451 96.5783 75.1121C96.7371 75.0791 96.9276 75.1781 97.0864 75.1781C97.1499 75.1781 97.2134 75.1121 97.3087 75.1121C97.3722 75.1121 97.4675 75.1781 97.531 75.1781C97.6263 75.1781 97.6898 75.1781 97.7533 75.1121C97.785 75.1121 97.9121 75.2111 97.9756 75.1781C98.1344 75.0461 98.3249 75.1121 98.4837 75.0791C98.6425 75.0791 98.7695 75.0461 98.9283 75.0132C98.96 75.0132 99.0553 75.0132 99.0553 75.0132C99.1506 74.8482 99.3093 74.9142 99.4681 74.8482C99.6269 74.7822 99.7857 74.7492 99.9127 74.7162C99.9445 74.7162 100.008 74.7492 100.04 74.7162C100.294 74.5512 100.294 74.5512 100.643 74.4852C100.707 74.4852 100.738 74.4192 100.802 74.3533C100.802 74.3533 100.834 74.2873 100.865 74.2873C101.088 74.3533 101.215 74.1223 101.373 74.1223C101.596 74.1223 101.755 73.9903 101.882 73.8583C102.358 73.4624 102.93 73.1655 103.184 72.5716C103.469 72.3076 103.628 71.9777 103.914 71.7137C104.136 71.4827 104.295 71.1528 104.422 70.8228C104.422 70.8228 104.422 70.7899 104.422 70.7569C104.359 70.5919 104.517 70.4929 104.517 70.3279C104.517 70.163 104.517 70.031 104.581 69.899C104.676 69.635 104.74 69.3711 104.803 69.0741C104.835 68.8102 105.025 68.5792 105.025 68.3153C105.025 68.1503 105.057 68.0183 105.025 67.9193L105.057 68.0183Z" fill="#201512"/>
<path d="M54.5014 67.7214C54.5014 67.7214 54.4379 67.5894 54.3744 67.5894C54.3426 67.5894 54.2791 67.5894 54.2474 67.5894C54.4379 67.5894 54.5649 67.4574 54.5649 67.2924C54.5649 67.2264 54.6602 67.1605 54.5649 67.0615C54.5332 67.0285 54.5967 66.8965 54.6284 66.8305C54.6284 66.7645 54.5967 66.6985 54.5649 66.6655C54.5649 66.6655 54.5649 66.6655 54.5649 66.6325C54.6284 66.4676 54.5649 66.3026 54.5649 66.1376C54.5649 65.9727 54.5649 65.8077 54.5332 65.6757C54.4697 65.3128 54.3426 64.9828 54.2156 64.6529C54.1521 64.5539 54.1521 64.4219 53.9933 64.3559C53.9298 64.3559 53.898 64.2239 53.898 64.158C53.9298 64.059 53.898 63.993 53.8345 63.927C53.771 63.795 53.6758 63.663 53.6122 63.5311C53.5487 63.3991 53.4535 63.2671 53.3582 63.1351C53.1041 63.1351 53.2629 62.8712 53.1041 62.8052C53.0724 62.8052 53.0406 62.7062 52.9771 62.7062C52.9454 62.7062 52.8819 62.6402 52.8819 62.6072C52.9136 62.4752 52.8183 62.4422 52.7866 62.3762C52.5643 62.1453 52.3738 61.9143 52.088 61.7823C51.9292 61.7164 51.7704 61.5844 51.6434 61.4524C51.5163 61.2874 51.2941 61.3204 51.1353 61.2214C51.04 61.1554 50.9447 61.1225 50.913 60.9905C50.5637 60.8915 50.3414 60.5945 49.9921 60.4626C49.8968 60.4296 49.8015 60.4626 49.7062 60.4626C49.611 60.4626 49.5475 60.3636 49.4522 60.2976C49.4522 60.2976 49.4204 60.2976 49.3887 60.2976C49.2934 60.3966 49.2299 60.2976 49.1346 60.2976C49.0394 60.2976 48.9123 60.2976 48.8488 60.1326C48.563 60.2646 48.309 60.0666 48.0549 60.0996C47.9914 60.0996 47.8962 60.0666 47.8644 60.0996C47.7056 60.2316 47.5151 60.0996 47.3563 60.1986C47.1975 60.2976 46.9752 60.2316 46.7847 60.2316C46.7212 60.2316 46.6577 60.2646 46.6259 60.2316C46.5306 60.1326 46.4671 60.2316 46.4036 60.1986C46.3401 60.1986 46.2448 60.1656 46.1813 60.1656C45.9908 60.1656 45.8003 60.2316 45.6097 60.2646C45.4192 60.2976 45.2286 60.3306 45.0381 60.3966C44.9428 60.3966 44.8476 60.4626 44.7841 60.4956C44.6888 60.4956 44.6253 60.5615 44.53 60.5286C44.4347 60.5286 44.3395 60.5615 44.276 60.6605C44.2125 60.7265 44.2125 60.7925 44.1172 60.7265C44.1172 60.8585 44.0219 60.8585 43.9584 60.8915C43.6408 61.0895 43.2598 61.1884 42.974 61.4524C42.8152 61.5844 42.8152 61.8483 42.5294 61.8483C42.5294 61.8483 42.4976 61.8813 42.4976 61.9143C42.4976 62.0463 42.3706 62.1453 42.2753 62.1783C42.1483 62.1783 42.0848 62.2773 42.0213 62.3762C41.799 62.6402 41.6402 62.9701 41.4179 63.2341C41.2909 63.4651 41.1639 63.696 41.0051 63.927C40.8781 64.158 40.7828 64.4219 40.6875 64.6529C40.6875 64.7189 40.624 64.7848 40.6558 64.9168C40.6875 65.0818 40.5288 65.2138 40.5923 65.3787C40.4017 65.5107 40.4335 65.7747 40.37 65.9397C40.2112 66.4016 40.3065 66.8965 40.1159 67.3914C40.0842 67.4904 40.1159 67.5894 40.1159 67.6884C40.1159 67.7873 40.1477 67.9193 40.1159 67.9523C39.9889 68.0843 40.1794 68.1173 40.1794 68.2163C40.1477 68.3813 40.1794 68.5132 40.2112 68.6782C40.2112 68.8102 40.2112 69.0081 40.2747 69.1071C40.4017 69.2391 40.4017 69.3711 40.37 69.5361C40.37 69.5361 40.37 69.602 40.37 69.635C40.5288 69.734 40.4652 69.899 40.5605 69.998C40.6875 70.097 40.7193 70.2289 40.7828 70.3939C40.7828 70.4599 40.7828 70.5589 40.7828 70.6249C40.7828 70.7239 40.8146 70.8228 40.9098 70.8558C41.0686 70.9548 41.1004 71.1528 41.1956 71.2848C41.2591 71.3838 41.2909 71.5157 41.4179 71.5487C41.4814 71.5487 41.5132 71.6807 41.5132 71.7797C41.5132 71.9117 41.672 71.9447 41.6085 72.1096C41.7037 72.1096 41.7672 72.1756 41.799 72.2416C41.8625 72.3406 41.9578 72.4396 42.0213 72.5386C42.0848 72.6375 42.1801 72.6705 42.2118 72.8025C42.2118 72.9675 42.4341 72.8685 42.4976 73.0005C42.4976 73.0335 42.5611 73.0335 42.5611 73.0665C42.5611 73.2314 42.6882 73.2974 42.7834 73.3634L43.3233 73.7594L43.8949 74.1223L44.5618 74.5512C44.6253 74.7162 44.7841 74.6832 44.8793 74.7492C44.9746 74.8152 45.0699 74.9142 45.1969 74.9472C45.3557 74.9472 45.5462 75.0461 45.705 75.0791C45.8638 75.1121 46.0226 75.1451 46.2131 75.1121C46.3719 75.0791 46.5624 75.1781 46.7212 75.1781C46.7847 75.1781 46.8482 75.1121 46.9435 75.1121C47.007 75.1121 47.1023 75.1781 47.1658 75.1781C47.261 75.1781 47.3245 75.1781 47.3881 75.1121C47.4198 75.1121 47.5468 75.2111 47.6104 75.1781C47.7691 75.0461 47.9597 75.1121 48.1184 75.0791C48.2772 75.0791 48.4043 75.0461 48.563 75.0132C48.5948 75.0132 48.6901 75.0132 48.6901 75.0132C48.7853 74.8482 48.9441 74.9142 49.1029 74.8482C49.2617 74.7822 49.4204 74.7492 49.5475 74.7162C49.5792 74.7162 49.6427 74.7492 49.6745 74.7162C49.9285 74.5512 49.9285 74.5512 50.2779 74.4852C50.3414 74.4852 50.3731 74.4192 50.4366 74.3533C50.4366 74.3533 50.4684 74.2873 50.5001 74.2873C50.7224 74.3533 50.8495 74.1223 51.0082 74.1223C51.2305 74.1223 51.3893 73.9903 51.5163 73.8583C51.9927 73.4624 52.5643 73.1655 52.8183 72.5716C53.1041 72.3076 53.2629 71.9777 53.5487 71.7137C53.771 71.4827 53.9298 71.1528 54.0568 70.8228C54.0568 70.8228 54.0568 70.7899 54.0568 70.7569C53.9933 70.5919 54.1521 70.4929 54.1521 70.3279C54.1521 70.163 54.1521 70.031 54.2156 69.899C54.3109 69.635 54.3744 69.3711 54.4379 69.0741C54.4697 68.8102 54.6602 68.5792 54.6602 68.3153C54.6602 68.1503 54.6919 68.0183 54.6602 67.9193C54.6602 67.8203 54.5332 67.7214 54.4697 67.6224L54.5014 67.7214Z" fill="#201512"/>
<path d="M85.2427 86.8245C85.2427 86.8245 85.2427 86.6266 85.2427 86.5276C85.1475 85.7027 84.8299 84.9438 84.2583 84.3499C84.036 84.119 83.8455 83.888 83.6232 83.6901C83.3691 83.4591 83.0516 83.1621 82.7022 83.1621C82.3529 83.1621 82.0354 83.0962 81.7178 83.1621C81.5908 83.1621 81.4638 83.1621 81.3685 83.2281C80.9239 83.3931 80.9557 83.3931 80.4793 83.5251C80.4158 83.5251 80.384 83.5581 80.3205 83.5911C80.2253 83.6571 80.1618 83.756 80.0665 83.822C79.7172 84.086 79.3361 84.3829 79.0821 84.7459C78.7963 85.1088 78.6057 85.5707 78.574 86.0327C78.574 86.0657 78.5422 86.1316 78.5104 86.1976C78.5104 86.2966 78.4469 86.4286 78.4152 86.5276C78.3199 86.9235 78.6057 87.1215 78.4152 87.4184C78.5422 87.5504 78.4787 87.7484 78.4787 87.8804C78.4787 87.9463 78.4787 88.0453 78.4787 88.1443H78.4469C78.4469 88.1443 78.3834 88.3423 78.4469 88.4083H78.5104C78.5104 88.4083 78.5104 88.4743 78.5104 88.5732C78.5104 88.5732 78.5104 88.6392 78.5104 88.6722C78.5104 88.7382 78.4787 88.8042 78.4469 88.8372C78.3834 89.0022 78.2882 89.1341 78.3517 89.2991C78.2882 89.4641 78.2564 89.6291 78.1929 89.794C78.1929 89.893 78.1611 89.959 78.0976 90.058C78.1294 89.992 78.1611 89.926 78.2246 89.893C78.1294 90.124 78.0659 90.256 77.9706 90.4539C77.8753 90.6519 77.7165 90.8499 77.6213 90.9818C77.6213 90.9818 77.5895 91.0478 77.5578 91.0478L77.3672 91.2788L77.2402 91.4108L76.8274 91.8397C76.8274 91.8397 76.5416 92.0707 76.6686 91.9717C76.7639 91.9057 76.6686 92.0377 76.5733 92.0707C76.5098 92.1367 76.4463 92.1696 76.3828 92.2026C76.1923 92.2686 76.097 92.3676 75.9065 92.4666C75.8747 92.4666 75.8429 92.4666 75.8112 92.4996L75.7477 92.3016C75.7477 92.3016 75.6206 92.3016 75.5571 92.3676H75.5254L75.5889 92.5656V92.6316H75.5571C75.3348 92.7306 75.0808 92.7965 74.8267 92.8295C74.6362 92.8295 74.4139 92.8295 74.2234 92.9945H74.1281C74.1281 92.9945 74.0646 92.9945 74.0328 92.9945C73.7153 92.9945 73.366 93.0605 73.0802 92.9945C72.8579 92.9285 72.6356 92.9285 72.445 92.8955V92.8295H72.2545L72.1592 92.7635C72.0957 92.7635 72.0322 92.7635 71.9369 92.6976C71.8099 92.6646 71.6511 92.6316 71.5241 92.6646C71.143 92.4666 70.6985 92.4996 70.2856 92.3676L69.9998 92.2356C69.9998 92.2356 69.8411 92.1696 69.7458 92.1037L69.2694 91.8397C69.0789 91.7407 68.9201 91.5427 68.6661 91.5427C68.6343 91.5427 68.5391 91.4768 68.5073 91.4108C68.4755 91.2788 68.3803 91.2128 68.2533 91.1798L68.3485 91.2788C68.3485 91.2788 68.3485 91.3448 68.3485 91.3778C68.3485 91.3778 68.3485 91.3778 68.3485 91.3448C68.3485 91.3448 68.2533 91.2788 68.2215 91.2458C68.2215 91.2458 68.158 91.1798 68.158 91.1468C68.0945 91.0808 68.0627 90.9818 67.9992 90.9159C67.7769 90.7179 67.5546 90.5199 67.4594 90.256C67.4594 90.223 67.4594 90.19 67.3323 90.124C67.3323 90.124 67.3323 90.157 67.3323 90.19C67.3323 90.19 67.3323 90.256 67.3323 90.289C67.3323 90.322 67.3323 90.289 67.3006 90.289C67.3006 90.289 67.2688 90.223 67.2688 90.19C67.2688 90.19 67.2688 90.157 67.2688 90.124C67.2688 90.091 67.2688 90.058 67.2371 90.025L67.1418 89.86L67.0783 89.761V89.6951C67.0783 89.6951 67.0148 89.6951 67.0148 89.761C66.8877 89.4311 66.7925 89.2001 66.729 88.9032L66.6337 88.4743V88.3753C66.6337 88.3753 66.6019 88.3423 66.6019 88.3093C66.6019 88.3093 66.6019 88.3753 66.6019 88.4083C66.6019 88.4413 66.6019 88.5073 66.6019 88.5402C66.6019 88.5402 66.6019 88.5402 66.6019 88.5073V88.4083C66.6019 88.4083 66.6019 88.1773 66.6019 88.0783C66.6019 87.8474 66.6019 87.6164 66.5384 87.4184C66.4749 87.2205 66.5702 86.9895 66.5702 86.7255C66.5702 86.3296 66.4114 85.9337 66.2526 85.5707C66.0938 85.2408 65.9033 84.8779 65.6493 84.6139C65.2999 84.251 64.8554 83.954 64.379 83.855C63.9027 83.756 63.3628 83.6241 62.8547 83.6901C62.3466 83.756 61.902 84.02 61.4257 84.185C60.8541 84.6469 60.2507 85.2078 59.9967 85.9997C59.9014 86.2966 59.8697 86.4616 59.9014 86.5936C59.9014 86.7255 59.9649 86.8245 60.092 87.0225C60.1237 87.0885 60.1872 87.1215 60.2507 87.1545C60.3142 87.1545 60.346 87.1545 60.4095 87.1545C60.3142 87.1545 60.2507 87.1545 60.1872 87.1545C59.9967 87.2535 59.8697 87.6824 59.9332 88.0783C59.9332 88.1113 59.9332 88.2103 59.9332 88.2433C59.8379 88.3753 59.8697 88.6062 59.9332 88.7052C60.0602 89.0352 60.0602 89.3981 60.1237 89.728C60.1555 89.926 60.1872 90.091 60.219 90.289C60.2507 90.4869 60.346 90.6519 60.4095 90.8499C60.473 90.9818 60.346 91.1798 60.5365 91.3118C60.4413 91.8067 60.9811 92.1037 60.9176 92.5656C60.9176 92.5986 60.9494 92.6976 60.9811 92.6976C61.1717 92.7965 61.2034 93.0605 61.3304 93.2255C61.4575 93.4234 61.648 93.5554 61.7433 93.7864C61.775 93.8854 61.8703 93.9514 61.8703 94.0173C61.9338 94.2813 62.0608 94.5123 62.3149 94.6442C62.3149 94.6442 62.3784 94.7432 62.3784 94.7762C62.3784 94.9412 62.5054 95.0402 62.6007 95.1392C62.7912 95.3701 62.9818 95.6011 63.1723 95.799C63.3946 96.03 63.6169 96.261 63.8392 96.4589C64.0615 96.6239 64.2837 96.7559 64.506 96.9538C65.0141 97.3498 65.5222 97.6797 66.0621 98.0097C66.5702 98.3396 67.1418 98.5706 67.6816 98.9335C67.9992 99.1315 68.3485 99.2305 68.7296 99.3625C69.0472 99.4614 69.3012 99.6924 69.6505 99.7584C69.9681 99.7914 70.2856 99.7584 70.5714 99.9893C70.5714 99.9893 70.635 100.022 70.6667 99.9893C70.9525 99.8904 71.2066 100.022 71.4924 100.055C71.5559 100.055 71.6511 100.154 71.6829 100.121C71.937 100.055 72.191 100.187 72.4133 100.121C72.6673 100.088 72.8896 100.088 73.1119 100.088C73.3025 100.088 73.5247 100.154 73.7153 100.154C73.8423 100.154 74.0011 100.154 74.0964 100.055C74.2234 100.154 74.3822 100.121 74.5409 100.088C75.1761 100.022 75.7794 99.9234 76.4145 99.7584C76.5098 99.7584 76.6368 99.7254 76.7004 99.6594C76.9544 99.4944 77.1767 99.4284 77.4625 99.4284C77.653 99.4284 77.8753 99.3295 78.0023 99.2305C78.1294 99.0985 78.2564 99.0655 78.4152 98.9995C78.7327 98.8345 79.0821 98.7026 79.3679 98.5046C79.7172 98.2736 80.0347 98.2076 80.3841 98.1746C80.5428 98.1417 80.7334 98.0427 80.7651 97.9437C80.8286 97.8117 80.9557 97.7457 81.0509 97.6467C81.178 97.5478 81.2732 97.3828 81.4002 97.2508C81.5273 97.1518 81.686 97.0528 81.8131 96.9538C81.8766 96.9209 81.9719 96.8549 81.9719 96.8219C82.0354 96.5909 82.2259 96.4259 82.3847 96.261C82.5752 96.063 82.7658 95.832 82.9245 95.6341C83.0833 95.4031 83.2738 95.2051 83.4326 94.9742C83.7502 94.5123 83.9725 94.0173 84.3218 93.5884C84.4806 93.3574 84.5758 93.0275 84.6394 92.7306C84.7029 92.4006 84.7981 92.0047 85.0522 91.7407C85.1157 91.6747 85.1157 91.4768 85.1792 91.3778C85.2427 91.2458 85.1157 91.1468 85.2427 91.0148C85.3062 90.9488 85.3062 90.7839 85.338 90.6519C85.5603 89.86 85.4968 89.0682 85.5603 88.2763C85.5603 88.0783 85.6555 87.8144 85.4968 87.6494V87.5504C85.7191 87.3524 85.6238 87.1545 85.4968 86.9565L85.2427 86.8245ZM72.064 92.8625H72.2228L72.2863 92.8955C72.2863 92.8955 72.2863 92.8955 72.2863 92.9285H72.1275L72.064 92.8625C72.064 92.8625 72.064 92.8625 72.0005 92.8625H72.0957H72.064ZM69.9046 92.3016H69.9681L70.0633 92.3676H69.9681L69.9046 92.3016Z" fill="#201512"/>
<path d="M68.063 91.1143H68.0312L68.063 91.1473L68.1265 91.1802L68.1583 91.2132L68.0948 91.1473L68.063 91.1143Z" fill="#201512"/>
<path d="M78.1929 74.6823C78.1929 74.6823 78.0976 74.5174 78.0341 74.4514C78.0341 74.4184 77.9706 74.3524 77.9389 74.3524C77.9071 74.3524 77.8753 74.3524 77.8436 74.3524C77.9706 74.3524 78.0976 74.2534 78.0976 74.1214C78.0976 74.0554 78.1611 74.0224 78.0976 73.9565C78.0659 73.9565 78.1294 73.8245 78.1294 73.7585C78.1294 73.7255 78.0976 73.6595 78.0659 73.6265C78.1294 73.4945 78.0659 73.3956 78.0659 73.2636C78.0659 73.1316 78.0659 72.9996 78.0659 72.9006C78.0024 72.6367 77.9071 72.3727 77.8118 72.1088C77.7801 72.0098 77.7483 71.9108 77.6531 71.8778C77.5895 71.8778 77.5578 71.7788 77.5895 71.7128C77.5895 71.6468 77.5895 71.5809 77.5578 71.5479C77.4943 71.4489 77.4308 71.3499 77.3672 71.2509C77.3037 71.1519 77.2402 71.0529 77.1767 70.954C76.9862 70.954 77.1132 70.756 76.9862 70.69C76.9544 70.69 76.9544 70.624 76.8909 70.624C76.8591 70.624 76.7956 70.591 76.8274 70.558C76.8274 70.459 76.7956 70.426 76.7321 70.393C76.5733 70.2281 76.4146 70.0301 76.1923 69.9311C76.0653 69.8651 75.9382 69.7662 75.843 69.6672C75.7477 69.5352 75.5572 69.5682 75.4301 69.4692C75.3666 69.4362 75.2713 69.4032 75.2396 69.2712C74.9855 69.2052 74.795 68.9743 74.541 68.8753C74.4774 68.8753 74.4139 68.8753 74.3187 68.8753C74.2234 68.8753 74.1916 68.7763 74.1281 68.7433H74.0964C74.0329 68.8093 73.9694 68.7433 73.9058 68.7433C73.8106 68.7433 73.7471 68.7433 73.6835 68.6113C73.4613 68.7103 73.2707 68.5783 73.0802 68.6113C73.0167 68.6113 72.9532 68.5783 72.9214 68.6113C72.7944 68.7103 72.6674 68.6113 72.5086 68.7103C72.3815 68.7763 72.2228 68.7103 72.064 68.7433C72.0322 68.7433 71.9687 68.7433 71.937 68.7433C71.8735 68.6773 71.8099 68.7433 71.7464 68.7433C71.6829 68.7433 71.6194 68.7103 71.5559 68.7433C71.3971 68.7433 71.2383 68.7763 71.1113 68.8093C70.9525 68.8093 70.7937 68.8753 70.6667 68.9083C70.6032 68.9083 70.5397 68.9743 70.4762 68.9743C70.4127 68.9743 70.3492 69.0403 70.2539 69.0073C70.1904 69.0073 70.0951 69.0073 70.0634 69.1063C70.0316 69.1723 69.9999 69.2052 69.9363 69.1723C69.9363 69.2712 69.8411 69.2712 69.8093 69.3042C69.5553 69.4692 69.2695 69.5352 69.0472 69.7332C68.9201 69.8321 68.9201 70.0301 68.6979 70.0301C68.6979 70.0301 68.6979 70.0301 68.6661 70.0961C68.6661 70.1951 68.5708 70.2941 68.5073 70.2941C68.4121 70.2941 68.3803 70.393 68.3168 70.426C68.1262 70.624 67.9992 70.888 67.8722 71.1189C67.7769 71.2839 67.6499 71.4819 67.5546 71.6468C67.4594 71.8448 67.3641 72.0098 67.3006 72.2077C67.3006 72.2737 67.2688 72.3067 67.3006 72.4057C67.3006 72.5377 67.2053 72.6367 67.2688 72.7687C67.1101 72.8676 67.1418 73.0656 67.1101 73.1976C66.983 73.5605 67.0465 73.9565 66.9195 74.3194C66.9195 74.3854 66.9195 74.4844 66.9195 74.5504C66.9195 74.6163 66.9195 74.7153 66.9195 74.7813C66.8242 74.8803 66.983 74.9133 66.9513 74.9793C66.9513 75.1113 66.9513 75.2102 66.983 75.3422C66.983 75.4412 66.983 75.5732 67.0465 75.6722C67.1418 75.7712 67.1418 75.8701 67.1101 76.0021V76.0681C67.2371 76.1341 67.1736 76.2661 67.2688 76.3651C67.3641 76.464 67.3959 76.563 67.4276 76.662C67.4276 76.728 67.4276 76.794 67.4276 76.86C67.4276 76.926 67.4594 76.992 67.5229 77.0249C67.6499 77.1239 67.6817 77.2559 67.7452 77.3549C67.8087 77.4209 67.8087 77.5199 67.9357 77.5529C67.9992 77.5529 67.9992 77.6518 67.9992 77.7178C67.9992 77.8168 68.1262 77.8498 68.0945 77.9818C68.158 77.9818 68.2215 78.0478 68.2533 78.0808C68.3168 78.1798 68.3803 78.2128 68.4438 78.3117C68.5073 78.3777 68.5708 78.4107 68.5708 78.5427C68.5708 78.6747 68.7614 78.6087 68.7931 78.7077C68.7931 78.7077 68.8566 78.7407 68.8566 78.7737C68.8566 78.9056 68.9519 78.9386 69.0472 79.0046L69.46 79.3346L69.9046 79.5985L70.4127 79.9285C70.4444 80.0604 70.5715 80.0274 70.6667 80.0934C70.762 80.1594 70.8255 80.2254 70.9208 80.2584C71.0478 80.2584 71.1748 80.3244 71.3018 80.3574C71.4289 80.3574 71.5559 80.4234 71.6829 80.3574C71.8099 80.3244 71.937 80.3904 72.064 80.3904C72.1275 80.3904 72.1593 80.3574 72.2228 80.3574C72.2863 80.3574 72.3498 80.4234 72.4133 80.4234C72.4768 80.4234 72.5403 80.4234 72.6038 80.3904C72.6356 80.3904 72.7309 80.4894 72.7626 80.4234C72.8896 80.3244 73.0167 80.3574 73.1755 80.3574C73.3025 80.3574 73.3977 80.3244 73.5248 80.2914C73.5565 80.2914 73.62 80.2914 73.62 80.2914C73.7153 80.1594 73.8423 80.1924 73.9376 80.1594C74.0646 80.1264 74.1599 80.0934 74.2869 80.0604C74.2869 80.0604 74.3504 80.0604 74.3822 80.0604C74.5727 79.9285 74.5727 79.9285 74.8585 79.8955C74.8903 79.8955 74.922 79.8295 74.9855 79.7965C74.9855 79.7965 74.9855 79.7305 75.0173 79.7635C75.1761 79.7965 75.2713 79.6315 75.4301 79.6315C75.5889 79.6315 75.7159 79.5325 75.843 79.4335C76.224 79.1366 76.6686 78.9056 76.8592 78.4107C77.0814 78.2128 77.2085 77.9488 77.4308 77.7178C77.6213 77.5199 77.7166 77.2559 77.8118 77.0249C77.8118 77.0249 77.8118 77.0249 77.8118 76.992C77.7483 76.86 77.8753 76.794 77.8753 76.662C77.8753 76.53 77.8753 76.431 77.9389 76.3321C78.0341 76.1341 78.0659 75.9031 78.0976 75.7052C78.0976 75.5072 78.2882 75.3092 78.2564 75.1113C78.2564 74.9793 78.2882 74.8803 78.2564 74.7813L78.1929 74.6823Z" fill="#5D8E5F"/>
</g>
<defs>
<clipPath id="clip0_522_4125">
<rect width="65.0363" height="40.0224" fill="white" transform="translate(40.0215 60.0332)"/>
</clipPath>
</defs>
</svg>
