<svg width="21" height="20" viewBox="0 0 21 20" fill="none" xmlns="http://www.w3.org/2000/svg">
<g id="mdi:cards-heart-outline">
<path id="Vector" d="M10.1866 15.3162L10.1031 15.3987L10.0114 15.3162C6.04921 11.7629 3.43 9.4132 3.43 7.03055C3.43 5.38165 4.68122 4.14499 6.3495 4.14499C7.63408 4.14499 8.88529 4.96943 9.32739 6.09068H10.8789C11.321 4.96943 12.5722 4.14499 13.8568 4.14499C15.5251 4.14499 16.7763 5.38165 16.7763 7.03055C16.7763 9.4132 14.1571 11.7629 10.1866 15.3162ZM13.8568 2.49609C12.4054 2.49609 11.0124 3.16389 10.1031 4.21094C9.19392 3.16389 7.80091 2.49609 6.3495 2.49609C3.78034 2.49609 1.76172 4.48301 1.76172 7.03055C1.76172 10.1387 4.5978 12.6862 8.89363 16.5364L10.1031 17.6247L11.3126 16.5364C15.6085 12.6862 18.4446 10.1387 18.4446 7.03055C18.4446 4.48301 16.4259 2.49609 13.8568 2.49609Z" fill="#272D35"/>
</g>
</svg>
