<svg width="99" height="58" viewBox="0 0 99 58" fill="none" xmlns="http://www.w3.org/2000/svg">
<path d="M8.29548 26.3497C3.05425 26.3497 0 22.6284 0 16.6142C0 10.788 3.3559 7.17944 8.52172 7.17944C11.5383 7.17944 13.3482 8.23192 14.14 9.88582H14.1777V0H21.6437V26.049H14.1777C14.2531 25.3724 14.3286 23.944 14.404 22.1773H14.3286C13.6121 24.5454 11.7268 26.3497 8.29548 26.3497ZM10.671 21.0497C12.7449 21.0497 14.1777 19.5837 14.1777 16.9525V15.8624C14.14 13.8702 12.7826 12.4794 10.7464 12.4794C8.71026 12.4794 7.42823 14.0206 7.42823 16.6894C7.42823 19.3958 8.67255 21.0497 10.671 21.0497Z" fill="#272D35"/>
<path d="M25.2438 26.0525V7.48368H32.7098L32.559 11.0821C33.3131 7.77431 35.0853 7.18297 38.6674 7.18297C42.5889 7.18297 44.4743 9.58864 44.4743 14.5879C44.4743 15.9411 44.3612 17.8206 44.2857 18.873H37.8756C37.951 18.0085 37.951 16.9936 37.951 16.4298C37.951 14.2872 37.1592 13.4227 35.764 13.4227C33.9164 13.4227 32.7098 14.9638 32.7098 18.2716V26.0525H25.2438Z" fill="#272D35"/>
<path d="M71.738 26.0525L66.9493 7.48368H74.8677L77.3186 19.2113H77.394L80.1466 7.48368H87.1601L89.7996 19.2113H89.875L92.439 7.48368H99L94.2112 26.0525H85.1616L82.7861 15.5652H82.7107L80.222 26.0525H71.738Z" fill="#272D35"/>
<path d="M11.6335 50.5574V31.9886H19.0994L18.9109 36.8752H18.9486C19.8158 33.7929 21.7389 31.6879 25.2456 31.6879C28.8278 31.6879 30.977 33.417 31.4295 36.6496H31.4672C32.2214 33.7177 34.2575 31.6879 37.7643 31.6879C41.9497 31.6879 44.0613 34.2064 44.0613 38.717V50.5574H36.5953V40.5964C36.5953 38.8674 35.8035 37.8901 34.3706 37.8901C32.7116 37.8901 31.5426 39.1681 31.5426 41.8369V50.5574H24.0767V40.5964C24.0767 38.8674 23.3226 37.8901 21.852 37.8901C20.2683 37.8901 19.0994 39.2057 19.0994 41.912V50.5574H11.6335Z" fill="#272D35"/>
<path d="M68.2313 58V31.9886H75.6972L75.5841 35.522H75.6218C76.4137 33.1163 78.4875 31.6879 81.768 31.6879C86.8207 31.6879 89.875 35.1837 89.875 40.8596C89.875 47.212 86.6322 50.8582 81.6172 50.8582C78.3367 50.8582 76.4137 49.5425 75.5841 47.4752H75.5464C75.6218 48.6028 75.6972 50.3319 75.6972 51.0837V58H68.2313ZM79.2794 45.5581C81.2024 45.5581 82.4468 43.9418 82.4468 41.1227C82.4468 38.4915 81.2024 36.9879 79.2417 36.9879C77.1678 36.9879 75.6972 38.5291 75.6972 41.1979V42.0248C75.7727 44.205 77.2055 45.5581 79.2794 45.5581Z" fill="#272D35"/>
<path d="M58.6536 14.7224V15.5756H53.196C50.8077 15.5756 49.0182 16.1265 47.8179 17.1297C46.6051 18.1434 46.0596 19.5638 46.0596 21.15C46.0596 22.876 46.6861 24.3784 47.9655 25.4394C49.2333 26.4909 51.0858 27.0628 53.4599 27.0628C55.2636 27.0628 56.701 26.672 57.7739 25.9312C58.1623 25.663 58.4972 25.3528 58.7811 25.0066C58.7445 25.4746 58.7014 25.8933 58.6587 26.1912L58.5769 26.7621H59.1536H66.6196H67.1196V26.2621V15.3238C67.1196 12.747 66.2759 10.6091 64.493 9.12713C62.7251 7.65765 60.1046 6.89258 56.665 6.89258C53.4084 6.89258 50.9066 7.51124 49.2053 8.69741C47.4779 9.90176 46.6252 11.6578 46.6252 13.7827C46.6252 14.2221 46.6649 14.7069 46.7481 15.1214L46.8286 15.5231H47.2383H53.7616H54.3142L54.2591 14.9732C54.2239 14.6222 54.2239 14.341 54.2239 14.2714V14.2713C54.2239 13.7606 54.3984 13.4063 54.6965 13.1672C55.0107 12.9153 55.5253 12.7415 56.2879 12.7415C57.2208 12.7415 57.7926 12.9234 58.1306 13.2131C58.4513 13.4881 58.6536 13.9415 58.6536 14.7224ZM55.3075 19.5827H58.6536C58.6509 20.3285 58.3848 20.87 57.9335 21.2364C57.4659 21.6161 56.7428 21.8529 55.76 21.8529C55.0668 21.8529 54.5806 21.7046 54.2813 21.4876C54.0029 21.2858 53.8468 20.9982 53.8468 20.5862C53.8468 20.2805 53.9617 20.0527 54.1696 19.8892C54.3904 19.7155 54.7597 19.5827 55.3075 19.5827Z" fill="#5D8E5F" stroke="#272D35"/>
<path d="M58.4466 39.2282V40.0814H52.9889C50.6007 40.0814 48.8111 40.6324 47.6109 41.6355C46.398 42.6492 45.8525 44.0697 45.8525 45.6559C45.8525 47.3819 46.4791 48.8842 47.7584 49.9453C49.0263 50.9968 50.8787 51.5687 53.2529 51.5687C55.0565 51.5687 56.494 51.1779 57.5669 50.437C57.9553 50.1688 58.2901 49.8587 58.5741 49.5125C58.5374 49.9804 58.4943 50.3991 58.4517 50.697L58.3698 51.268H58.9466H66.4125H66.9125V50.768V39.8297C66.9125 37.2528 66.0689 35.115 64.2859 33.633C62.518 32.1635 59.8975 31.3984 56.458 31.3984C53.2013 31.3984 50.6996 32.0171 48.9983 33.2033C47.2709 34.4076 46.4181 36.1637 46.4181 38.2885C46.4181 38.7279 46.4579 39.2128 46.541 39.6273L46.6216 40.0289H47.0313H53.5545H54.1072L54.052 39.479C54.0168 39.128 54.0168 38.8468 54.0168 38.7773V38.7772C54.0168 38.2664 54.1913 37.9122 54.4895 37.6731C54.8037 37.4211 55.3183 37.2474 56.0809 37.2474C57.0138 37.2474 57.5856 37.4292 57.9236 37.719C58.2443 37.9939 58.4466 38.4474 58.4466 39.2282ZM55.1005 44.0885H58.4466C58.4439 44.8343 58.1777 45.3759 57.7265 45.7423C57.2589 46.122 56.5357 46.3587 55.553 46.3587C54.8598 46.3587 54.3736 46.2105 54.0743 45.9935C53.7959 45.7917 53.6398 45.5041 53.6398 45.0921C53.6398 44.7863 53.7547 44.5585 53.9626 44.395C54.1834 44.2214 54.5527 44.0885 55.1005 44.0885Z" fill="#5D8E5F" stroke="#272D35"/>
</svg>
