<svg width="70" height="76" viewBox="0 0 70 76" fill="none" xmlns="http://www.w3.org/2000/svg">
<path d="M25.4972 75.7738L20.0762 67.1497L10.1113 69.1814L21.3337 42.9175L36.7197 49.5099L25.4972 75.7738Z" fill="#5D8E5F"/>
<path d="M23.9115 74.7684C23.5628 74.4086 23.5311 73.8161 23.193 73.3716C22.8548 72.9272 22.5801 72.4404 22.2947 71.9537C22.1468 71.7103 21.9672 71.5092 21.7558 71.3188C21.555 71.1389 21.5339 70.7897 21.2169 70.6944C21.1852 70.6944 21.1746 70.631 21.1535 70.5992C20.7942 70.0278 20.3504 69.4987 20.1073 68.8744C20.0122 68.6416 19.896 68.4194 19.7797 68.2077C19.748 68.1442 19.7269 68.1125 19.6952 68.0596C19.6212 68.0807 19.6212 68.0702 19.4839 68.0807C18.332 68.5887 17.0851 68.6416 15.8804 68.9379C15.5106 69.0331 15.1407 69.1601 14.718 69.0754C14.3587 69.0119 14.01 69.3294 13.6085 69.1601C13.5768 69.1495 13.5134 69.213 13.4711 69.2342C13.3549 69.2871 13.2386 69.3717 13.1224 69.3717C12.7631 69.3717 12.5834 69.3717 12.4249 69.4035C12.3087 69.4246 12.0657 69.5093 11.5479 69.6786C11.4211 69.7209 11.3048 69.6363 11.178 69.6574C10.6496 69.7527 10.153 69.8373 9.60348 69.9749C9.38157 70.0278 9.20193 70.049 9.01172 70.0701C9.13853 69.795 9.22306 69.5834 9.13853 69.4458C9.10682 69.3929 9.25477 69.1495 9.32874 68.9908C9.54008 68.4934 9.77256 67.9961 9.96277 67.4988L10.1424 67.0755L10.2692 66.8004C10.3326 66.6416 10.3855 66.4723 10.3643 66.2713C10.3432 66.102 10.6391 65.9856 10.6285 65.8903C10.6074 65.6999 10.6496 65.5517 10.7342 65.4141C10.8082 65.2766 10.9561 65.1708 11.0195 65.0226C11.0723 64.8956 11.0301 64.7263 11.0829 64.5994C11.1991 64.2713 11.4316 63.975 11.4633 63.6364C11.495 63.2766 11.643 62.9909 11.7698 62.6841C11.8966 62.356 12.0551 62.0492 12.1713 61.7211C12.2559 61.4672 12.4461 61.2873 12.5834 61.0756C12.7314 60.864 12.6891 60.5465 12.9956 60.4196C13.0061 60.4196 13.0061 60.3878 13.0167 60.3667C13.2598 59.9011 13.5239 59.446 13.7458 58.9699L14.8237 56.4832C14.9294 56.2504 14.9611 55.9752 15.2253 55.8271C15.2781 55.7953 15.2675 55.6684 15.3204 55.626C15.5211 55.4356 15.2675 55.1181 15.5106 54.9594C15.7325 54.8218 15.7431 54.5784 15.8487 54.3774C15.965 54.1552 16.0389 53.9118 16.1446 53.6896C16.2186 53.5308 16.2503 53.3827 16.2186 53.2028C16.4933 53.1182 16.4616 52.8113 16.6413 52.642C16.7575 52.5362 16.9055 52.3457 16.8843 52.2187C16.8315 51.933 16.99 51.7425 17.064 51.5203C17.1802 51.1817 17.381 50.8854 17.3704 50.5045C17.3704 50.3457 17.4761 50.1764 17.5712 50.0283C17.6557 49.8907 17.7931 49.7849 17.8565 49.6368C17.9833 49.3722 18.089 49.0971 18.0995 48.7902C18.0995 48.5151 18.4166 48.314 18.3003 47.986C18.2898 47.9437 18.332 47.8696 18.3637 47.8273C18.5645 47.6051 18.7124 47.404 18.7124 47.0654C18.7124 46.7903 18.9132 46.5363 19.0295 46.2718C19.1457 45.9861 19.2302 45.6792 19.4099 45.4358C19.5156 45.2771 19.2831 45.0654 19.5473 44.9385C19.6846 44.8644 19.7375 44.621 19.8114 44.4517C19.896 44.2824 19.9277 44.0708 20.0439 43.9226C20.1179 43.8274 20.1919 43.7216 20.2553 43.6157C20.3292 43.4782 20.4349 43.2666 20.5194 43.0972C20.6885 42.7375 20.847 42.3777 20.995 42.0073L22.0834 42.4518L22.6118 42.6846L22.9393 42.8433C23.2986 43.0338 23.7636 43.0338 24.0172 43.4359C24.3554 43.3618 24.6195 43.6581 24.926 43.6475C25.1162 43.6475 25.2536 43.711 25.4015 43.7639L28.3181 45.002C28.9627 45.2665 29.6284 45.4676 30.2836 45.7215C30.4632 45.7956 30.6534 45.8485 30.8014 46.039C30.907 46.1871 31.1712 46.3035 31.4248 46.24C31.4777 46.2294 31.5622 46.24 31.5834 46.2718C31.837 46.695 32.3125 46.5681 32.6718 46.7162C33.3798 46.9913 33.9927 47.4569 34.6901 47.732C34.8381 47.7955 34.9754 47.9437 35.1656 47.8167C35.2185 48.0178 35.3347 47.9754 35.5038 47.9754C35.6834 47.9754 35.9159 48.0601 36.011 48.1976C36.0427 48.2823 36.1907 48.367 36.3386 48.4304L36.7719 48.6209L37.7018 49.023L37.7863 49.0653L36.9515 50.8748L36.4232 51.9436C36.3492 52.0811 36.2224 52.1975 36.1273 52.3351C36.0322 52.4727 36.0533 52.6631 35.842 52.7372C35.7574 52.769 35.7363 52.9277 35.694 53.0335C35.5355 53.4039 35.2713 53.7636 35.2502 54.1552C35.2291 54.5361 34.9332 54.8218 35.0177 55.2239C35.0388 55.3403 34.912 55.4673 34.8698 55.5943C34.7113 56.1128 34.3097 56.5466 34.3414 57.1392C34.1195 57.2556 34.0561 57.4778 33.9821 57.6895C33.9293 57.8376 33.7708 57.9752 33.887 58.1762C33.8976 58.1974 33.887 58.2503 33.8553 58.282C33.7391 58.4408 33.5594 58.5572 33.5066 58.7688C33.4643 58.9487 33.5066 59.1286 33.4221 59.3085C33.1367 59.9645 32.6612 60.536 32.4604 61.2344C32.2491 61.3613 32.1857 61.573 32.0906 61.774C31.9321 62.1338 31.9532 62.5465 31.7524 62.8957C31.5622 63.2343 31.3614 63.5835 31.3086 63.9539C31.2241 64.5994 30.8859 65.1179 30.664 65.7104C30.6112 65.8586 30.6006 66.0491 30.3787 66.1125C30.3259 66.1231 30.273 66.2924 30.3047 66.3559C30.3681 66.4935 30.2519 66.5781 30.2519 66.684C30.2519 66.9908 29.7235 67.0649 29.9243 67.4458L29.565 68.2924L29.1952 69.1389C29.1318 69.2659 29.1106 69.414 28.9521 69.4987C28.8359 69.5622 28.7302 69.7738 28.7619 69.8902C28.8253 70.1759 28.6668 70.3664 28.5823 70.5886C28.3181 71.2447 28.0328 71.9008 27.7474 72.5568C27.6206 72.8425 27.4304 73.0965 27.2719 73.3716C27.1134 73.6467 27.0923 73.9959 26.8281 74.2182C26.807 74.2287 26.807 74.2711 26.7964 74.2922C26.7753 74.4192 26.7753 74.5568 26.7119 74.6626C26.6379 74.8002 26.416 74.9377 26.4371 75.0435C26.4899 75.2552 26.3103 75.3081 26.2469 75.4351C26.0567 75.7843 25.6551 75.8689 25.2958 75.6679C25.2219 75.6255 25.1479 75.5409 25.1056 75.4668C24.8415 74.9695 24.8626 74.98 25.0634 74.4404C25.317 73.7631 25.8242 73.2129 26.025 72.5145C26.416 72.1653 26.4794 71.6574 26.7119 71.2235C26.9549 70.7791 27.3248 70.3876 27.3987 69.8796C27.4727 69.3823 27.684 68.9485 27.8848 68.504C28.0328 68.1654 28.2547 67.8585 28.4237 67.5305C28.5928 67.1813 28.6985 66.8004 28.8993 66.4829C29.0261 66.2818 29.2586 66.1125 29.2586 65.8797C29.2797 65.3612 29.6178 64.9697 29.7129 64.4935C29.8503 63.8375 30.1885 63.2555 30.3681 62.6311C30.4632 62.2925 30.5478 61.9433 30.6957 61.6259C30.7591 61.4777 30.8119 61.3402 30.9599 61.2132C31.1078 61.0862 31.2135 60.8534 31.1818 60.5995C31.1712 60.4936 31.1924 60.3455 31.2663 60.2926C31.5622 60.0704 31.6256 59.7212 31.7524 59.4143C31.837 59.2238 32.0906 59.0757 32.0694 58.9275C32.0377 58.6842 32.1646 58.5254 32.228 58.335C32.2702 58.1974 32.2808 58.0281 32.4816 57.9752C32.5344 57.9646 32.5978 57.8376 32.5872 57.7847C32.4921 57.4884 32.6929 57.2768 32.788 57.0334C33.0205 56.462 33.253 55.8906 33.5172 55.3297C33.7285 54.8641 33.7074 54.3245 33.9927 53.8906C33.9187 53.5203 34.1406 53.2346 34.278 52.9383C34.3837 52.7055 34.5422 52.5044 34.6796 52.2822C34.8169 52.06 34.8803 51.8272 35.0705 51.6155C35.303 51.3616 35.3664 50.9595 35.5249 50.6314C35.5672 50.5468 35.5883 50.4304 35.62 50.3352C35.6412 50.2822 35.6623 50.2399 35.694 50.2082C35.7151 50.1976 35.7574 50.187 35.8103 50.187C35.842 50.187 35.8525 50.1447 35.8314 50.1235C35.6729 50.0071 35.7257 49.9754 35.8525 49.8484V49.8272C35.8737 49.7637 35.7997 49.7108 35.7257 49.6791L35.4404 49.5521C35.1656 49.4145 34.8698 49.3193 34.595 49.1817C34.3942 49.0865 34.1829 49.0336 34.0033 48.8643C33.8659 48.7267 33.6017 48.7479 33.4115 48.6738C33.2107 48.5998 33.0205 48.5151 32.8303 48.4304L32.1963 48.1553L31.5622 47.8802C31.3297 47.785 31.0973 47.7003 30.8753 47.5839C30.664 47.4781 30.4844 47.3088 30.273 47.203C29.6812 46.9173 28.9944 46.8749 28.4132 46.5363C28.1913 46.5998 28.075 46.4411 27.906 46.3353C27.758 46.24 27.5995 46.1025 27.3776 46.1765C27.3142 46.1977 27.2402 46.1554 27.1662 46.1342C27.0077 46.0919 26.9443 45.9014 26.7224 45.9332C26.5639 45.9543 26.4054 45.8062 26.2469 45.7533C26.0778 45.7004 25.9299 45.5205 25.7185 45.6369C25.5389 45.2453 25.0845 45.531 24.852 45.2877C24.778 45.2136 24.6829 45.1501 24.5984 45.0866C24.5561 45.0549 24.5139 44.9914 24.4716 44.9914C23.5945 44.8961 22.8865 44.3671 22.0834 44.1025C21.9566 44.0602 21.9883 44.1343 21.946 44.1448C21.946 44.1448 21.9249 44.1554 21.9249 44.1448C21.8721 44.039 21.8298 43.9967 21.8087 44.0284C21.8087 44.0496 21.8087 44.0813 21.8298 44.1448C21.8404 44.1872 21.8298 44.1766 21.8298 44.1977C21.8298 44.2295 21.8298 44.2401 21.8298 44.2612C21.8087 44.3247 21.7452 44.5152 21.7452 44.6633C21.7452 44.9914 21.4071 45.2136 21.1958 45.4676C21.0055 45.6898 20.8153 45.912 20.6991 46.1977C20.4138 46.9173 20.0968 47.6156 19.8009 48.3246C19.7586 48.4093 19.6741 48.5151 19.6952 48.5892C19.8009 48.8749 19.8537 49.1077 19.4416 49.1606C19.4205 49.1606 19.3888 49.2347 19.3993 49.2664C19.5261 49.5309 19.3359 49.7108 19.2408 49.9013C18.8921 50.642 18.8076 51.478 18.406 52.1975C18.3426 52.3139 18.3215 52.5044 18.2264 52.5467C18.015 52.642 18.2264 52.8113 18.1101 52.9171C18.0256 53.0123 18.0361 53.2028 17.941 53.2769C17.5923 53.5203 17.4972 53.9224 17.4338 54.261C17.3704 54.5784 17.3176 54.9171 17.1379 55.1499C16.7786 55.6049 16.6201 56.1551 16.3771 56.663C16.134 57.1921 15.9121 57.7212 15.7008 58.2609C15.6162 58.4831 15.426 58.6736 15.5211 58.9593C15.5423 59.0122 15.4789 59.1074 15.4366 59.1709C15.3309 59.3191 15.1936 59.4566 15.1302 59.6154C15.0562 59.7741 15.0667 59.9751 15.0245 60.1444C14.9928 60.282 14.9188 60.3984 14.9505 60.5783C14.9822 60.7053 14.8448 60.8534 14.6863 60.9698C14.3587 61.192 14.0312 61.4354 13.8938 61.8481C13.7775 62.2079 13.5873 62.5571 13.45 62.9169C13.3866 63.065 13.3126 63.2026 13.3443 63.4036C13.3654 63.5835 13.228 63.8057 13.0907 63.9539C12.8793 64.1867 12.7525 64.43 12.7525 64.7475C12.7525 64.8533 12.6997 64.9697 12.6574 65.0649L11.8649 66.9273C11.8015 67.0755 11.7698 67.2554 11.5796 67.3083C11.643 67.3929 11.643 67.467 11.6113 67.5411C11.6007 67.5728 11.5796 67.6152 11.5584 67.6469L11.5267 67.6786C11.4845 67.7421 11.3576 67.8268 11.2942 67.922C11.2308 68.0384 11.1886 68.1654 11.3048 68.1548C11.3788 68.1442 11.2942 68.2395 11.2625 68.303C11.2942 68.303 11.3471 68.2712 11.4528 68.1971C11.5056 68.1548 11.3999 68.2818 11.4422 68.2712C11.5479 68.2077 11.6007 68.3665 11.7909 68.0807C11.8015 68.0596 11.812 68.0596 11.8226 68.0807C11.8226 68.2077 11.9177 68.1971 11.96 68.1654C12.1079 68.0913 12.2559 68.0278 12.4038 67.9538C12.742 67.8162 13.1118 67.9432 13.4605 67.8691C13.8515 67.7845 14.2531 67.6257 14.6441 67.6469C15.3204 67.6786 15.9544 67.467 16.599 67.3506C17.2647 67.2342 17.9199 67.0966 18.5751 66.9485C18.7124 66.9168 18.8604 66.8638 18.9978 66.8109C19.1351 66.758 19.2514 66.7051 19.5156 66.6416C19.8114 66.5676 20.1179 66.5041 20.4243 66.4512L20.7836 67.0332L21.3754 67.9855C21.4494 68.1125 21.5973 68.2077 21.5339 68.3982C21.5233 68.4405 21.555 68.5146 21.5973 68.5358C21.8721 68.6733 21.9989 68.8955 22.02 69.2024C22.02 69.2871 22.1151 69.3611 22.1468 69.4564C22.2313 69.6998 22.4638 69.8056 22.6329 69.9855C22.7808 70.1442 22.7808 70.4299 23.0767 70.4722C23.119 70.4722 23.1718 70.5675 23.1613 70.6098C23.0662 71.1812 23.8693 71.2553 23.7953 71.8055C24.07 71.8373 23.9538 72.1124 24.0595 72.2182C24.2074 72.3558 24.3554 72.4933 24.461 72.6626C24.5561 72.832 24.6512 73.0013 24.7675 73.1494C24.9788 73.4351 25.0845 73.7843 25.4226 73.9854C25.5389 74.0489 25.6868 74.2182 25.6129 74.4298C25.6023 74.4721 25.6446 74.5356 25.6763 74.5674C25.9404 74.8531 26.025 75.3504 25.8136 75.6044C25.6868 75.7525 25.4861 75.8689 25.3064 75.9324C25.2113 75.9642 25.0739 75.8583 24.9577 75.8054C24.7569 75.7102 24.5244 75.6573 24.3765 75.5091C24.1968 75.3398 24.1017 75.0964 23.9327 74.8319L23.9115 74.7684Z" fill="#272D35"/>
<path d="M45.5525 75.7743L50.9735 67.1502L60.9384 69.1819L49.716 42.918L34.3301 49.5104L45.5525 75.7743Z" fill="#5D8E5F"/>
<path d="M45.7746 73.9116C45.9543 73.4461 46.4615 73.1498 46.7151 72.6524C46.9687 72.1551 47.2963 71.7001 47.6028 71.2345C47.7613 71.0017 47.8564 70.7477 47.9409 70.4726C48.0149 70.208 48.3213 70.0493 48.2685 69.7107C48.2685 69.6789 48.3108 69.6472 48.3213 69.6155C48.6806 69.044 48.9659 68.4091 49.4098 67.9224C49.5788 67.7319 49.7268 67.5414 49.8642 67.3298L50.5616 66.2293C50.9949 66.314 51.5127 66.4198 51.8825 66.515C53.14 66.5044 54.313 66.9383 55.5282 67.1393C55.9086 67.2028 56.2996 67.2346 56.6589 67.4674C56.9654 67.6684 57.4197 67.5097 57.7156 67.8166C57.7368 67.8377 57.8213 67.806 57.8741 67.806C58.0009 67.806 58.1489 67.7742 58.2546 67.806C58.5927 67.9435 58.7512 68.007 58.9097 68.0494C59.1105 68.0917 59.1528 68.0705 59.2162 68.0176C59.2267 68.007 59.2796 68.1234 59.3113 68.134C59.4275 68.1658 59.5649 68.2187 59.6494 68.2081C59.6811 68.2081 59.7551 68.2398 59.8185 68.261C59.8185 68.2187 59.7657 68.134 59.5543 67.9753C59.4804 67.9118 59.5226 67.933 59.5121 67.9012C59.4804 67.8377 59.4698 67.7637 59.4169 67.7002C59.4064 67.679 59.3958 67.6578 59.3958 67.6473C59.3958 67.6473 59.343 67.4991 59.3113 67.4356C59.2373 67.2769 59.1528 67.1182 58.9943 67.0018C58.8569 66.896 58.9837 66.6102 58.8992 66.5468C58.7512 66.4304 58.6667 66.2928 58.6244 66.1446C58.5716 65.9965 58.6033 65.8166 58.5399 65.6685C58.487 65.5415 58.3391 65.4568 58.2757 65.3299C58.1277 65.023 58.0643 64.642 57.8424 64.3881C57.61 64.1235 57.5043 63.8061 57.3563 63.5098C57.2084 63.1923 57.1027 62.8643 56.9442 62.5574C56.8174 62.3141 56.8174 62.0601 56.7646 61.8061C56.7117 61.5522 56.4581 61.3617 56.5744 61.0548C56.5744 61.0442 56.5638 61.0231 56.5532 61.0019C56.3841 60.5046 56.2362 59.9967 56.046 59.5099L54.9893 57.0126C54.8942 56.7798 54.7145 56.5576 54.7885 56.2613C54.8096 56.1978 54.704 56.1237 54.704 56.0497C54.704 55.7745 54.2918 55.7322 54.3552 55.4465C54.4081 55.1925 54.239 55.0127 54.165 54.8116C54.0805 54.5788 53.9643 54.3566 53.8797 54.1238C53.8163 53.9651 53.7318 53.8275 53.5838 53.7428C53.7106 53.4783 53.4676 53.2878 53.4782 53.0444C53.4782 52.8857 53.457 52.6529 53.3408 52.5788C53.0977 52.4201 53.0766 52.1767 52.9604 51.9651C52.8019 51.6477 52.7173 51.2985 52.4426 51.0445C52.3263 50.9387 52.2841 50.7376 52.2312 50.5789C52.189 50.4202 52.1995 50.2509 52.1467 50.1027C52.041 49.8276 51.9248 49.563 51.7029 49.3408C51.5126 49.1504 51.5761 48.78 51.259 48.6424C51.2168 48.6213 51.1956 48.5472 51.1956 48.4837C51.1745 48.1874 51.1217 47.944 50.8892 47.7112C50.699 47.5208 50.6461 47.1927 50.5299 46.9282C50.4137 46.6425 50.2446 46.3674 50.1812 46.0711C50.1389 45.8806 49.8219 45.9123 49.9064 45.6266C49.9487 45.4785 49.8113 45.2774 49.7479 45.0976C49.674 44.9177 49.5577 44.7484 49.526 44.5685C49.5049 44.4415 49.4837 44.3251 49.452 44.2087L49.4309 44.05C49.4098 43.9547 49.3781 43.8701 49.3358 43.796L49.0928 43.923L48.9659 43.9759L48.6278 44.1029C48.2368 44.2299 47.9198 44.5685 47.4548 44.4732C47.2646 44.7695 46.8736 44.7484 46.6729 44.9812C46.546 45.1293 46.3981 45.1822 46.2502 45.2457L43.3336 46.5049C42.6996 46.7906 42.0867 47.1293 41.4632 47.4255C41.2836 47.5102 41.125 47.6054 40.8714 47.5737C40.6918 47.5525 40.4276 47.6583 40.3008 47.8806C40.2797 47.9229 40.2057 47.9864 40.174 47.9758C39.6985 47.8594 39.4554 48.2932 39.1067 48.4626C38.4198 48.78 37.659 48.907 36.9721 49.2244C36.8242 49.2879 36.6234 49.2879 36.5811 49.5101C36.4015 49.4043 36.3487 49.5101 36.2324 49.6477C36.1162 49.7853 35.8837 49.8911 35.7146 49.8593C35.5772 49.8593 35.5561 49.8382 35.535 49.8382C35.5138 49.8382 35.4927 49.8593 35.4716 49.8593C35.4187 49.8593 35.387 49.9017 35.3448 49.9122H35.3236L35.3553 50.0498L35.3765 50.1239V50.1662L35.4293 50.2932L35.8309 51.4149C35.8837 51.563 35.8731 51.7323 35.9048 51.891C35.9365 52.0498 36.0845 52.1767 35.9999 52.3778C35.9682 52.4519 36.0739 52.5894 36.1162 52.6952C36.2747 53.0656 36.3487 53.51 36.6128 53.7852C36.877 54.0603 36.877 54.4836 37.2257 54.6952C37.3208 54.7587 37.3314 54.9386 37.3948 55.055C37.659 55.5312 37.7013 56.1237 38.1451 56.5047C38.0711 56.7481 38.1979 56.9491 38.293 57.1396C38.367 57.2877 38.3564 57.4888 38.5783 57.5417C38.5995 57.5417 38.6312 57.5946 38.6312 57.6369C38.6629 57.838 38.6312 58.039 38.7474 58.2295C38.8425 58.3882 39.0116 58.4729 39.0856 58.6634C39.3603 59.33 39.4449 60.0601 39.8041 60.6845C39.7513 60.9278 39.857 61.1183 39.9415 61.33C40.0895 61.6897 40.4065 61.9649 40.5227 62.3458C40.639 62.7162 40.7446 63.1077 40.9877 63.404C41.3892 63.9119 41.5372 64.5256 41.8119 65.0759C41.8859 65.2135 42.0127 65.3616 41.907 65.5627C41.8859 65.6156 41.9704 65.7637 42.0338 65.7849C42.1818 65.8378 42.1606 65.9753 42.2346 66.0494C42.4565 66.261 42.1395 66.6949 42.5516 66.8113L42.9109 67.6578L43.2702 68.5044C43.323 68.6419 43.4076 68.7478 43.3653 68.9382C43.3336 69.0652 43.4076 69.2874 43.5132 69.3509C43.7669 69.4991 43.788 69.753 43.8937 69.9647C44.1895 70.6101 44.4643 71.2662 44.7285 71.9329C44.8447 72.2186 44.8976 72.536 44.9927 72.8323C45.0772 73.1392 45.3202 73.3931 45.2991 73.7423C45.2991 73.7635 45.3202 73.7953 45.3308 73.8164C45.4048 73.9222 45.4999 74.0175 45.5422 74.1339C45.595 74.282 45.5422 74.536 45.6373 74.5995C45.8275 74.7159 45.7429 74.8746 45.7852 75.0121C45.9014 75.3931 45.6901 75.7423 45.2991 75.8587C45.2146 75.8799 45.1089 75.8799 45.0244 75.8587C44.4854 75.7105 44.5066 75.6894 44.253 75.1815C43.9465 74.536 43.8937 73.7847 43.5238 73.1603C43.5449 72.6418 43.2174 72.2397 43.0694 71.7741C42.9215 71.2874 42.8898 70.7477 42.5728 70.3456C42.2557 69.9435 42.0972 69.4885 41.907 69.044C41.7697 68.7054 41.7062 68.3351 41.5689 67.9859C41.4421 67.6261 41.2307 67.2875 41.1356 66.9171C41.0722 66.6843 41.1145 66.4092 40.9454 66.2399C40.5861 65.8695 40.5333 65.351 40.2585 64.9489C39.8781 64.3987 39.6985 63.7532 39.3603 63.1923C39.1807 62.8855 38.9905 62.5892 38.8637 62.2611C38.8003 62.113 38.7369 61.9754 38.7474 61.785C38.758 61.5839 38.6629 61.3511 38.4621 61.203C38.3776 61.1395 38.2825 61.0125 38.293 60.9278C38.3353 60.5575 38.1345 60.2718 37.9971 59.9755C37.9126 59.785 37.976 59.4993 37.8598 59.4147C37.659 59.2665 37.6379 59.0655 37.5428 58.8962C37.4793 58.7692 37.3631 58.6422 37.4582 58.4623C37.4793 58.4094 37.4371 58.2824 37.3948 58.2612C37.1095 58.1237 37.0989 57.838 36.9933 57.6052C36.7396 57.0443 36.4966 56.4835 36.2641 55.9121C36.0739 55.4359 35.6723 55.0761 35.5561 54.5682C35.2391 54.3672 35.1863 54.0074 35.0594 53.7005C34.9643 53.4677 34.9326 53.2032 34.8692 52.9598C34.8058 52.7164 34.679 52.4942 34.6579 52.2191C34.6368 51.8699 34.3831 51.5524 34.2563 51.2032C34.2246 51.108 34.1612 51.0233 34.119 50.9281C34.0978 50.8858 34.0767 50.8329 34.0767 50.78C34.0661 50.7059 34.0556 50.6212 34.0767 50.5472C34.0873 50.5048 34.0344 50.3778 33.9816 50.3355C33.6329 50.0075 33.4427 49.4784 33.4004 49.1927C33.4427 49.1927 33.4744 49.1715 33.4955 49.1715C33.8548 49.0869 34.1295 48.9916 34.3937 48.8858C34.6368 48.7906 34.9643 48.6319 35.1229 48.5789C35.4082 48.4731 35.6829 48.325 35.9788 48.2192C36.1901 48.1451 36.3698 48.0181 36.6128 48.0075C36.803 48.0075 36.9721 47.8065 37.1623 47.7112C37.3525 47.616 37.5533 47.5419 37.7435 47.4573L38.3776 47.1822L39.0116 46.907C39.2441 46.8118 39.466 46.6954 39.6985 46.6213C39.9204 46.5473 40.174 46.5367 40.3853 46.452C40.9982 46.2192 41.5055 45.7536 42.1501 45.5631C42.2557 45.3515 42.4565 45.3833 42.6467 45.3409C42.8158 45.2986 43.0272 45.2774 43.1223 45.0658C43.154 45.0023 43.2385 44.9812 43.3019 44.9388C43.4393 44.8542 43.6295 44.9388 43.7563 44.7589C43.8514 44.632 44.0627 44.6214 44.2213 44.5367C44.3798 44.4521 44.6122 44.4732 44.6756 44.2299C45.0772 44.3674 45.1829 43.8489 45.5316 43.8383C45.6373 43.8383 45.7429 43.8066 45.8486 43.796C45.9014 43.796 45.9754 43.796 46.0071 43.7643C46.6729 43.1928 47.5499 43.0447 48.3002 42.6532C48.4376 42.5579 48.5855 42.4627 48.7335 42.3675C48.818 42.3146 48.9131 42.2722 48.9976 42.2511C49.5788 42.0818 49.6951 42.0606 50.0966 41.8384C50.1283 41.8701 50.2023 41.9865 50.2974 42.1558C50.3925 42.3146 50.4665 42.5368 50.5616 42.7272C50.6778 42.9812 50.7835 43.2246 50.8997 43.468C50.9949 43.6796 51.0477 43.7537 51.1639 43.8807C51.3964 44.1135 51.3224 44.505 51.3647 44.833C51.3964 45.1187 51.4175 45.415 51.5549 45.6901C51.8825 46.3885 52.1678 47.0975 52.4637 47.8065C52.506 47.8911 52.5165 48.0393 52.5799 48.0604C52.8653 48.1768 53.066 48.3038 52.823 48.6424C52.8124 48.6636 52.8441 48.7271 52.8653 48.7377C53.1506 48.8223 53.14 49.0975 53.2245 49.2879C53.5204 50.0498 54.0594 50.6847 54.3024 51.4783C54.3447 51.6053 54.4609 51.7429 54.4292 51.8487C54.3552 52.0603 54.6089 52.0392 54.6194 52.1873C54.6194 52.3143 54.7779 52.4413 54.7568 52.5577C54.6934 52.981 54.9153 53.3196 55.1161 53.6053C55.3063 53.8698 55.5071 54.1449 55.5493 54.4412C55.6339 55.0232 55.9086 55.51 56.12 56.0285C56.3313 56.5682 56.5638 57.0973 56.7963 57.6158C56.8914 57.8274 56.9125 58.1025 57.1767 58.2189C57.2295 58.2401 57.2507 58.3459 57.2718 58.42C57.3141 58.5999 57.3035 58.7903 57.3775 58.9491C57.4514 59.1078 57.5888 59.2453 57.6839 59.3935C57.7579 59.5205 57.7896 59.6475 57.9481 59.7427C58.0643 59.8168 58.0749 60.0072 58.0432 60.2083C57.9798 60.5998 57.927 61.0125 58.1277 61.3934C58.3074 61.7321 58.4342 62.1024 58.5927 62.4516C58.6561 62.5998 58.7089 62.7479 58.8675 62.8643C59.0154 62.9701 59.0788 63.2241 59.0894 63.4251C59.1105 63.7426 59.2056 63.9966 59.4275 64.2188C59.5015 64.2928 59.5543 64.4092 59.5966 64.5045L60.3891 66.3669C60.4525 66.515 60.5582 66.6632 60.4737 66.843C60.5793 66.8536 60.6322 66.9065 60.6639 66.97C60.685 67.0018 60.6956 67.0335 60.7062 67.0758C60.7273 67.1287 60.7484 67.1922 60.7696 67.2451C60.8964 67.5838 60.9386 67.8906 61.0443 68.1869C61.1817 68.5467 61.3402 68.8747 61.6572 69.3615C61.8474 69.6578 61.9003 69.88 62.0059 70.134C61.858 70.1022 61.7206 70.0916 61.6466 70.134C61.6044 70.1551 61.2979 69.9858 61.2028 69.9752C60.7379 69.9223 60.1672 69.6366 59.8396 69.8165C59.8079 69.8271 59.7023 69.8165 59.6494 69.7742C59.3324 69.5837 59.0788 69.5202 58.8041 69.4885C58.6033 69.4673 58.4553 69.4991 58.2757 69.4991C57.9058 69.4991 57.6205 69.2345 57.2718 69.171C56.8702 69.097 56.4476 69.0864 56.0883 68.9171C55.4754 68.6208 54.8096 68.5679 54.1756 68.4197C53.5204 68.261 52.8653 68.134 52.1995 68.0176C52.0516 67.9965 51.9036 67.9859 51.7557 67.9859C51.6078 67.9859 51.4387 67.9753 51.4175 67.9859C51.3541 67.9859 51.2907 67.9753 51.2168 67.9541L51.1322 68.0811L50.7412 68.6948C50.6567 68.8112 50.6356 68.9911 50.4454 69.0123C50.4031 69.0123 50.3503 69.0864 50.3503 69.1287C50.3503 69.4356 50.2023 69.6472 49.9381 69.7954C49.8642 69.8377 49.8325 69.9541 49.7691 70.0176C49.5788 70.1975 49.5894 70.462 49.5049 70.6842C49.4203 70.8853 49.1667 71.0122 49.2618 71.298C49.2724 71.3403 49.2196 71.4249 49.1773 71.4355C48.6278 71.5942 48.9025 72.3561 48.3742 72.5254C48.4693 72.79 48.1628 72.8006 48.1206 72.9381C48.0572 73.1286 48.0043 73.3191 47.8881 73.4884C47.7824 73.6471 47.6767 73.8058 47.5816 73.9751C47.4231 74.282 47.1484 74.536 47.1061 74.9275C47.0955 75.0545 47.011 75.2661 46.7891 75.2979C46.7468 75.2979 46.7151 75.3719 46.694 75.4143C46.546 75.774 46.1339 76.0703 45.8169 75.9857C45.6267 75.9328 45.4365 75.8058 45.2991 75.6682C45.2251 75.5942 45.2674 75.4248 45.2674 75.2979C45.2674 75.0756 45.2146 74.8428 45.278 74.6418C45.3519 74.409 45.5316 74.2185 45.7007 73.954L45.7746 73.9116Z" fill="#272D35"/>
<path d="M35.2388 52.5996C49.5898 52.5996 61.2236 40.9498 61.2236 26.5791C61.2236 12.2084 49.5898 0.558594 35.2388 0.558594C20.8877 0.558594 9.25391 12.2084 9.25391 26.5791C9.25391 40.9498 20.8877 52.5996 35.2388 52.5996Z" fill="#F8F5F2"/>
<path d="M61.8477 29.6056C61.7948 30.4839 61.4356 31.3728 61.2559 32.3357C61.1608 32.8225 61.034 33.2986 60.9072 33.7854L60.717 34.505L60.4528 35.2034C60.2732 35.669 60.1569 36.1346 60.0618 36.6213C59.9878 37.1081 59.5651 37.5102 59.5863 38.0075C59.5863 38.0499 59.5334 38.1345 59.5017 38.1874C59.0262 39.2985 58.4345 40.3884 57.7159 41.3302C57.3038 41.8699 56.8494 42.3778 56.4584 42.928C56.078 43.4783 55.6341 43.9968 55.1586 44.4624C53.9222 46.3248 52.0201 47.584 50.266 48.9173C49.6848 49.2877 49.1141 49.7004 48.4273 49.9226C47.8566 50.1448 47.2754 50.6315 46.6203 50.695C46.5674 50.695 46.4723 50.8009 46.3984 50.8538C46.2082 50.9702 46.0179 51.1395 45.8277 51.203C44.6019 51.5416 44.6019 51.5204 43.6509 51.9966C43.5346 52.0495 43.3656 52.0072 43.2282 52.0601C42.6681 52.1977 42.0975 52.3246 41.548 52.4939C41.0513 52.6527 40.4913 52.6527 40.0369 52.9278C39.9418 52.9913 39.7093 52.9807 39.5402 53.0124L37.9129 53.2558C37.2894 53.3087 36.6448 53.2347 36.0425 53.4675C35.7783 53.5627 35.3873 53.3616 35.2288 53.4145C34.9329 53.4886 34.6582 53.4992 34.3623 53.4675C34.077 53.4357 33.8022 53.3299 33.5275 53.3193C33.2844 53.3087 33.0308 53.3934 32.7772 53.3934C32.1537 53.3722 31.5197 53.1394 30.9385 53.1712C30.315 53.1923 29.7338 53.0865 29.1632 52.9278C28.5609 52.7902 27.9585 52.5998 27.3456 52.4728C26.8807 52.3458 26.5002 52.0918 26.0987 51.8908C25.6971 51.6897 25.1582 51.658 24.8623 51.3088C24.8518 51.2982 24.7989 51.277 24.7672 51.2665C23.943 50.8114 23.1187 50.3882 22.3156 49.9226L20.2656 48.6528L18.3318 47.2031C17.9936 46.9068 17.5921 46.6316 17.4018 46.2084C17.3596 46.1237 17.1799 46.0285 17.1165 45.9333C16.8735 45.5523 16.3346 45.5946 16.176 45.1502C16.0281 44.7693 15.7005 44.5259 15.4469 44.2296C15.1722 43.8804 14.8234 43.5947 14.5804 43.2243C14.4007 42.9704 14.2105 42.7693 13.9781 42.6317C13.9464 42.2296 13.5448 41.9334 13.3969 41.563C13.2912 41.3196 13.1538 40.9281 12.9953 40.8117C12.636 40.5366 12.4881 40.1345 12.2556 39.7853C11.8857 39.2773 11.7061 38.6636 11.294 38.1874C11.1249 37.9758 11.0087 37.6477 10.8924 37.362C10.7762 37.0975 10.7445 36.8224 10.6705 36.5472C10.5014 36.0499 10.3218 35.5737 10.0365 35.1187C9.77229 34.7272 9.81456 34.1346 9.48698 33.7642C9.44471 33.7113 9.41301 33.5632 9.41301 33.468C9.38131 32.96 9.32847 32.5262 9.06429 32.0183C8.88465 31.595 8.88465 31.013 8.81067 30.5051C8.7367 29.9654 8.56763 29.4151 8.62046 28.8755C8.6416 28.5369 8.33515 28.3781 8.50422 27.9654C8.59933 27.7432 8.52536 27.32 8.50422 26.9813C8.48309 26.6427 8.46196 26.2829 8.52536 25.9549C8.71557 25.1084 8.69443 24.2407 8.82124 23.3941C8.95862 22.5476 9.00088 21.6799 9.24393 20.8545C9.45528 20.1667 9.46584 19.3731 9.8991 18.7805C9.8674 18.2302 10.2584 17.7012 10.2901 17.1932C10.3218 16.8652 10.4169 16.6112 10.512 16.3467C10.8819 15.479 11.3151 14.6324 11.7272 13.7859C12.2239 12.9817 12.6889 12.1563 13.2172 11.3733C13.9464 10.368 14.6121 9.30983 15.468 8.3998C15.7005 8.13525 15.9119 7.86013 16.2606 7.66966C16.5248 7.53209 16.9052 7.21464 17.0743 6.84428C17.106 6.77021 17.2011 6.65381 17.2539 6.63264C17.9619 6.3681 18.2895 5.66971 18.8601 5.25702C19.4096 4.84433 19.9486 4.44222 20.5403 4.12477C21.1321 3.80732 21.7238 3.48987 22.305 3.14067C22.5375 2.97136 22.8968 2.92903 23.0025 2.65391C23.2772 2.70682 23.3935 2.55867 23.6048 2.37878C23.8267 2.18831 24.2494 1.97668 24.503 1.95551C24.8518 1.91319 25.1371 1.7862 25.4435 1.68039L26.4157 1.33119C27.092 1.07723 27.8 0.90792 28.508 0.759775C29.216 0.601049 29.9135 0.410578 30.632 0.357669C30.9174 0.325924 31.1921 0.357669 31.4774 0.347087C31.7627 0.347087 32.048 0.198943 32.3334 0.325924C32.439 0.368251 32.7138 0.294178 32.9251 0.294178C33.6331 0.262433 34.4045 0.325924 35.0386 0.156616C35.6726 0.00847126 36.3383 0.24127 36.9407 0.019053C37.1098 -0.0338557 37.4056 0.0402165 37.6487 0.0402165C38.6209 0.06138 39.5508 0.452905 40.5335 0.325924C40.84 0.54814 41.2415 0.632794 41.622 0.717448C41.9073 0.780939 42.1926 0.950247 42.4779 0.833848C42.5096 0.823266 42.6047 0.844429 42.6681 0.865593C42.9957 0.992574 43.2599 1.18305 43.6297 1.28886C43.9362 1.37352 44.2215 1.35235 44.5597 1.47933C45.7855 1.88144 46.7999 2.68565 47.994 3.15125C48.2265 3.45812 48.5752 3.64859 48.9134 3.84965C49.4946 4.23059 50.1814 4.37873 50.7204 4.86549C51.2382 5.30993 51.7982 5.76494 52.3583 6.09298C53.2671 6.72788 54.0913 7.48977 54.8205 8.31514C55.0212 8.5162 55.2854 8.71725 55.3171 9.02412C55.3171 9.09819 55.5496 9.30983 55.6447 9.34157C55.856 9.40506 55.9406 9.60612 56.078 9.72252C56.4689 10.0505 56.395 10.7172 56.9656 10.9077C57.3038 11.3415 57.6208 11.786 57.8955 12.2727L58.7515 13.6801C58.8888 13.9023 59.0051 14.1139 59.0262 14.4102C59.0262 14.6113 59.2059 14.9922 59.3432 15.1192C59.6814 15.4261 59.8082 15.8388 59.9878 16.2197C60.4211 17.4154 60.9283 18.59 61.1819 19.8387C61.2982 20.3783 61.4038 20.9286 61.4567 21.4788C61.499 22.0397 61.7103 22.6005 61.6363 23.1613C61.6363 23.2037 61.6363 23.2566 61.6575 23.2989C61.7103 23.5105 61.816 23.7327 61.816 23.9444C61.816 24.2301 61.6892 24.611 61.7631 24.7698C61.9111 25.0766 61.7737 25.2988 61.7737 25.5422C61.7737 26.2406 61.4567 26.6639 61.0446 26.5898C60.9495 26.5687 60.8544 26.4946 60.7804 26.3993C60.3154 25.8068 60.3366 25.8068 60.2626 24.8544C60.2415 24.5581 60.2415 24.2513 60.2309 23.955L60.1569 23.0661C60.1041 22.4735 60.0829 21.8598 59.9033 21.2778C59.9139 20.463 59.5863 19.6694 59.3961 18.8757C59.1425 18.0715 59.0474 17.1721 58.593 16.4525C58.1069 15.7647 57.811 15.0028 57.4094 14.2832C57.0924 13.7542 56.8388 13.1722 56.5323 12.6219C56.2048 12.0505 55.7292 11.5849 55.4017 11.0241C55.1903 10.6855 55.0635 10.241 54.7359 10.0294C54.0279 9.55321 53.6264 8.78074 52.9606 8.31514C52.0518 7.65907 51.291 6.82312 50.3294 6.27287C49.8222 5.95541 49.3361 5.63796 48.8288 5.34167C48.5964 5.20411 48.3744 5.06655 48.1737 4.84433C47.9623 4.62211 47.603 4.36815 47.212 4.31524C47.0535 4.29408 46.7999 4.22001 46.7048 4.12477C46.3033 3.72266 45.7432 3.54277 45.236 3.29939C44.9084 3.16183 44.5914 2.87612 44.3695 2.86554C43.989 2.86554 43.7037 2.69623 43.3867 2.59042C43.1542 2.52693 42.89 2.47402 42.7315 2.26238C42.6893 2.20947 42.4673 2.1354 42.3828 2.15657C41.939 2.26238 41.5163 2.04017 41.1042 1.94493L40.3433 1.76504L39.5719 1.64864L38.0291 1.40526C37.1732 1.32061 36.3383 1.52166 35.4824 1.3841C34.9646 1.57457 34.3834 1.54282 33.8233 1.56399C33.4007 1.58515 32.9674 1.52166 32.5447 1.53224C32.122 1.55341 31.7099 1.65922 31.2555 1.63806C30.6849 1.60632 30.0403 1.79679 29.4485 1.95551C29.1209 2.02958 28.7933 2.23064 28.4446 2.11424C28.4023 2.10366 28.2438 2.14598 28.2016 2.17773C27.8211 2.46344 27.3034 2.62216 26.9018 2.67507C26.2572 2.78089 25.6866 3.01369 25.1054 3.25707L23.6894 3.9343C23.3406 4.08244 23.0342 4.2835 22.6643 4.42106C22.3684 4.5163 22.0937 4.82317 21.7872 5.02422C21.4914 5.22527 21.1638 5.384 20.8785 5.60622L19.938 6.31519C19.6315 6.54799 19.3039 6.78079 19.0081 7.02417C18.691 7.30988 18.3952 7.60617 18.0676 7.88129C17.7611 8.13525 17.4018 8.33631 17.1165 8.61143C16.3557 9.44739 15.7217 10.3574 15.0242 11.2357C14.9608 11.5743 14.6966 11.7436 14.4853 11.9764C14.2845 12.1881 14.0309 12.4314 14.0203 12.7806C14.0203 12.8759 13.9252 13.0029 13.8724 13.1087C13.7561 13.3521 13.5025 13.479 13.4286 13.8071C13.3757 14.0399 13.1327 14.2938 12.9953 14.5584C12.8791 14.8441 12.636 15.1086 12.6889 15.4155C12.2028 15.7753 12.3718 16.4208 12.0337 16.844C11.9386 16.9816 11.8646 17.1509 11.7695 17.3096C11.7272 17.3837 11.6533 17.4684 11.6427 17.5424C11.3468 18.9498 10.8079 20.2831 10.5543 21.6905C10.5331 21.8704 10.5648 22.0397 10.5648 22.2196C10.5648 22.3042 10.5648 22.3995 10.5331 22.4735C10.3112 23.2248 10.3112 23.2248 10.3112 23.955C10.3112 24.1349 10.3007 24.3359 10.2901 24.5264C10.2901 25.0131 10.2267 25.4999 10.3112 26.0078C10.3852 26.5157 10.2056 27.066 10.1421 27.5951C10.0787 28.0713 10.0153 28.5369 10.047 29.0554C10.2584 30.3358 10.3746 31.6373 10.7445 32.886C10.7867 33.0447 10.7973 33.2669 10.8713 33.341C11.1777 33.6478 11.3574 33.923 11.1566 34.3568C11.1566 34.378 11.1883 34.505 11.22 34.5261C11.5476 34.7589 11.5793 35.1716 11.6955 35.5208C11.8118 35.8489 11.928 36.1663 12.076 36.4732L12.5832 37.362C12.9108 37.9546 13.2383 38.5472 13.5659 39.1504C13.6716 39.3408 13.8724 39.5736 13.8724 39.7218C13.883 40.0392 14.1683 40.0181 14.2422 40.2509C14.3056 40.4519 14.5276 40.653 14.591 40.8117C14.7706 41.4254 15.2356 41.9334 15.6371 42.346C15.9964 42.7376 16.4719 43.0656 16.7255 43.4783C16.9897 43.8698 17.275 44.2613 17.6238 44.5788L18.6699 45.5311C19.3462 46.2295 20.1916 46.7375 20.9524 47.33C21.2589 47.5734 21.597 47.838 22.0092 47.8697C22.0937 47.8697 22.2311 47.9861 22.3367 48.0602C22.5692 48.2401 22.7806 48.4623 23.0342 48.621C23.2772 48.7903 23.5942 48.8221 23.869 48.9279C24.0909 49.0125 24.2917 49.1289 24.5559 49.1395C24.7461 49.1395 25.0103 49.3406 25.2216 49.5628C25.6443 50.0072 26.141 50.367 26.8384 50.5998L27.7577 50.9173L28.7088 51.1606C28.973 51.2241 29.216 51.3088 29.5225 51.277C29.7972 51.2559 30.2093 51.4146 30.5158 51.5098C30.9913 51.6897 31.4563 51.7744 31.9529 51.7321C32.122 51.7215 32.3228 51.7426 32.513 51.7744C33.0731 51.8273 33.6437 51.8379 34.2143 51.8696C34.785 51.9014 35.345 51.9437 35.9157 51.8908C36.1904 51.8802 36.4757 51.8273 36.7082 51.9649C36.8773 51.785 37.1626 51.8273 37.4056 51.8273C37.7755 51.8484 38.1348 51.859 38.5046 51.8273C38.9379 51.7744 39.3606 51.7003 39.7621 51.531C40.1426 51.3934 40.6392 51.4463 41.0302 51.1818C41.1042 51.1395 41.2838 51.1818 41.4001 51.1501C41.865 50.9913 42.4356 51.0231 42.7949 50.6633C42.8266 50.6315 42.9217 50.5998 42.9746 50.5998C43.5769 50.6315 44.0524 50.2718 44.5491 50.0178C45.0986 49.7744 45.6692 49.6686 46.2082 49.4146C46.8211 49.1184 47.4234 48.748 48.0152 48.4729C48.5329 48.2507 49.0296 47.9861 49.4946 47.6898L50.8366 46.6846C51.3121 46.3671 51.7348 45.9862 52.1575 45.5946C52.5696 45.2031 53.0135 44.8433 53.3939 44.4095C53.7215 44.0391 53.9856 43.6159 54.3027 43.2349C54.6725 42.8328 55.0107 42.3989 55.3383 41.9439L56.2682 40.6953C56.395 40.4837 56.4795 40.2191 56.712 40.1239C56.7648 40.1027 56.8494 39.9757 56.8599 39.9122C56.955 39.4466 57.177 39.0869 57.5468 38.7694C57.6525 38.6742 57.6947 38.4837 57.7793 38.3567C58.0223 37.9969 58.054 37.6054 58.1808 37.2245C58.2865 36.8753 58.6458 36.579 58.5296 36.1769C58.519 36.124 58.5718 35.9547 58.6247 35.9123C59.2164 35.3621 58.9523 34.378 59.47 33.796C59.3327 33.4574 59.6497 33.2352 59.6708 33.0024C59.7025 32.6637 59.7342 32.3463 59.8188 32.0183C59.9139 31.7114 59.9667 31.3834 59.9984 31.0659C60.0618 30.4839 60.252 29.9019 60.1569 29.2987C60.1358 29.0977 60.0935 28.7273 60.2837 28.5051C60.3154 28.4628 60.3154 28.3358 60.3154 28.2512C60.2837 27.6057 60.5162 26.8226 60.8332 26.6639C61.0234 26.5687 61.2453 26.5792 61.4356 26.6639C61.5307 26.7062 61.5729 26.9919 61.6363 27.1824C61.742 27.5104 61.8899 27.8279 61.9216 28.1877C61.9428 28.6109 61.9216 29.0765 61.8371 29.6268L61.8477 29.6056Z" fill="#272D35"/>
<path d="M35.2423 45.56C45.7034 45.56 54.1838 37.068 54.1838 26.5925C54.1838 16.117 45.7034 7.625 35.2423 7.625C24.7812 7.625 16.3008 16.117 16.3008 26.5925C16.3008 37.068 24.7812 45.56 35.2423 45.56Z" fill="#F8F5F2"/>
<path d="M54.7569 28.8093C54.7384 29.4586 54.4327 30.0985 54.303 30.8127C54.1456 31.5176 54.0066 32.2411 53.7195 32.9089C53.5898 33.2521 53.5065 33.5952 53.4509 33.9477C53.4138 34.3094 53.0711 34.5877 53.1174 34.9772C53.1174 35.0143 53.0804 35.07 53.0526 35.1164C52.7006 35.9326 52.2746 36.7395 51.7374 37.4258C51.4224 37.8247 51.0982 38.1957 50.8111 38.5945C50.524 39.0026 50.2091 39.3736 49.8571 39.7168C48.9772 41.108 47.56 42.017 46.2818 42.9909C45.8558 43.2691 45.4389 43.5752 44.9203 43.7143C44.4942 43.8535 44.0866 44.243 43.5865 44.2616C43.5494 44.2616 43.4846 44.345 43.429 44.3821C43.2901 44.4749 43.1604 44.5955 43.0122 44.6511C42.1045 44.883 42.1045 44.8644 41.4191 45.2355C41.3357 45.2818 41.206 45.2355 41.1042 45.2633C40.6874 45.3653 40.2706 45.4488 39.8723 45.5786C39.5018 45.6992 39.0942 45.6807 38.7701 45.9125C38.696 45.9682 38.5292 45.9589 38.4088 45.9775L37.214 46.1537C36.7509 46.2001 36.2877 46.1259 35.8431 46.3206C35.6486 46.4041 35.3615 46.2279 35.2411 46.265C35.0281 46.3299 34.8243 46.3392 34.6113 46.3206C34.3982 46.2928 34.2037 46.2093 33.9999 46.1908C33.824 46.1815 33.6294 46.265 33.4535 46.2557C32.9996 46.2372 32.5272 46.0609 32.1012 46.098C31.638 46.1259 31.2212 46.0517 30.7952 45.9311C30.3506 45.8291 29.906 45.6899 29.4614 45.5972C29.1187 45.5044 28.8501 45.3097 28.5537 45.152C28.2573 44.9943 27.859 44.9943 27.6552 44.7068C27.646 44.6975 27.6089 44.6882 27.5904 44.6789L25.8027 43.6772L24.3022 42.7497L22.8851 41.6924C22.635 41.4698 22.3294 41.2843 22.2182 40.9504C22.1904 40.8854 22.0515 40.8205 22.0052 40.7463C21.8385 40.4588 21.4124 40.5237 21.3105 40.1805C21.2179 39.8837 20.9678 39.7168 20.7826 39.4942C20.588 39.2345 20.3287 39.0304 20.1527 38.7522C20.023 38.5667 19.8841 38.4276 19.6989 38.3255C19.6989 38.0102 19.3932 37.8061 19.2913 37.5279C19.2172 37.3424 19.1339 37.0548 19.0042 36.9714C18.7263 36.7859 18.6244 36.4798 18.4484 36.2294C18.1706 35.8584 18.0502 35.4132 17.726 35.0607C17.587 34.9123 17.5129 34.6619 17.4296 34.4578C17.3462 34.263 17.337 34.0497 17.2814 33.8549C17.161 33.4932 17.0313 33.1408 16.7997 32.8161C16.5867 32.5379 16.6515 32.0927 16.3829 31.8237C16.3459 31.7866 16.3274 31.6753 16.3274 31.6104C16.3181 31.2394 16.281 30.9147 16.068 30.5437C15.9198 30.2377 15.9383 29.811 15.8735 29.44C15.8179 29.0412 15.6883 28.6424 15.7346 28.2435C15.7531 27.9931 15.4845 27.8818 15.6327 27.5757C15.716 27.4088 15.6512 27.1027 15.6512 26.8523C15.6327 26.6018 15.6142 26.3329 15.6697 26.101C15.8272 25.4796 15.8179 24.8489 15.9106 24.2274C16.0032 23.606 16.0402 22.966 16.2255 22.3631C16.3829 21.8623 16.3737 21.2687 16.7164 20.8513C16.6608 20.4432 16.9757 20.0629 16.985 19.6826C16.985 19.4415 17.0683 19.256 17.1424 19.0612C17.4111 18.4212 17.7352 17.8091 18.0316 17.1784C18.4021 16.594 18.7356 15.9819 19.1153 15.4068C19.6525 14.6648 20.1342 13.8857 20.7548 13.2086C20.9215 13.0139 21.0789 12.8098 21.3476 12.68C21.5513 12.5872 21.8292 12.3553 21.9403 12.0678C21.9589 12.0122 22.0237 11.9194 22.07 11.9101C22.6165 11.7432 22.8295 11.2052 23.2463 10.8991C23.6446 10.6023 24.0429 10.3055 24.4875 10.0737C24.9321 9.84179 25.3674 9.61919 25.7842 9.35949C25.9602 9.23891 26.2288 9.22036 26.2937 8.98848C26.5067 9.04413 26.5808 8.93283 26.7382 8.78443C26.8957 8.63603 27.2014 8.47835 27.4051 8.46908C27.6645 8.45053 27.8683 8.3485 28.0998 8.2743C28.3406 8.2001 28.5722 8.09808 28.813 8.0146C29.3132 7.8291 29.8319 7.70852 30.3506 7.59722C30.8693 7.48592 31.3787 7.3468 31.9066 7.3097C32.1104 7.29114 32.3235 7.31897 32.5272 7.3097C32.731 7.3097 32.944 7.19839 33.1571 7.3097C33.2312 7.3468 33.4349 7.29115 33.5831 7.28187C34.1018 7.25404 34.6668 7.31897 35.1299 7.17984C35.5931 7.05927 36.084 7.24477 36.5286 7.04999C36.649 6.99434 36.8713 7.06854 37.0473 7.06854C37.7605 7.06854 38.4366 7.39317 39.1683 7.26332C39.3906 7.44882 39.6778 7.50447 39.9649 7.5694C40.1687 7.61577 40.3817 7.7549 40.5947 7.63432C40.6225 7.62505 40.6874 7.63432 40.7337 7.65287C40.9745 7.7549 41.1597 7.9033 41.4376 7.98678C41.6692 8.04243 41.8822 8.0146 42.123 8.10735C43.0215 8.40415 43.7532 9.02558 44.6331 9.35021C44.7906 9.60064 45.0499 9.73049 45.2907 9.87889C45.7168 10.1571 46.2355 10.2406 46.6245 10.6116C46.995 10.9455 47.4026 11.2794 47.8194 11.5113C48.5048 11.9565 49.0976 12.5223 49.6348 13.1252C49.783 13.2736 49.9775 13.4127 49.996 13.6538C49.996 13.7095 50.1628 13.8672 50.2368 13.8857C50.4036 13.9228 50.4591 14.0712 50.561 14.1547C50.8667 14.3866 50.7555 14.9153 51.2094 15.0266C51.4595 15.3419 51.691 15.6758 51.8855 16.0283L52.5061 17.0671C52.608 17.2247 52.7006 17.3824 52.7006 17.605C52.7006 17.7534 52.8118 18.0317 52.9322 18.1244C53.2008 18.3378 53.2842 18.6438 53.4138 18.9221C53.738 19.7939 54.1085 20.6565 54.2845 21.5748C54.3679 21.9736 54.442 22.3724 54.4697 22.7805C54.4975 23.1886 54.6643 23.5967 54.5902 24.0141C54.5902 24.0419 54.5902 24.0883 54.6087 24.1161C54.655 24.2738 54.7291 24.4315 54.7384 24.5891C54.7384 24.8025 54.6179 25.0807 54.6828 25.192C54.8032 25.4146 54.6828 25.5816 54.6828 25.7578C54.6735 26.2679 54.3956 26.5833 54.0437 26.5276C53.9603 26.5184 53.877 26.4534 53.8121 26.3885C53.4046 25.9619 53.4231 25.9619 53.3675 25.2755C53.349 24.8396 53.3397 24.4129 53.3027 23.977C53.2749 23.5411 53.2656 23.1051 53.1267 22.6878C53.173 22.0942 52.9137 21.5191 52.7747 20.944C52.5988 20.3597 52.5524 19.6919 52.2097 19.1818C51.8392 18.6902 51.6262 18.1337 51.3391 17.6143C51.1075 17.2247 50.9408 16.7981 50.7185 16.3993C50.4869 15.9819 50.1257 15.648 49.9034 15.2399C49.7552 14.9895 49.6811 14.6556 49.431 14.5071C48.8938 14.1825 48.6159 13.6075 48.125 13.2736C47.4489 12.8098 46.9117 12.1977 46.1985 11.8081C45.828 11.5855 45.4667 11.3722 45.0962 11.1496C44.9295 11.0475 44.7721 10.9548 44.6239 10.7786C44.4757 10.6023 44.2163 10.4261 43.9292 10.3983C43.8088 10.3983 43.6235 10.3426 43.5587 10.2684C43.2808 9.95309 42.8733 9.83251 42.5028 9.65629C42.2712 9.55426 42.0489 9.32239 41.8822 9.33166C41.6043 9.34094 41.3913 9.22036 41.1597 9.14616C40.993 9.09978 40.7985 9.07196 40.6874 8.89573C40.6596 8.84936 40.4928 8.79371 40.4373 8.81226C40.1038 8.91428 39.8074 8.74733 39.5018 8.67313C38.7793 8.4598 38.0198 8.43198 37.2788 8.28358C36.6582 8.21865 36.0469 8.40415 35.4356 8.28358C35.0558 8.4598 34.639 8.4227 34.2408 8.43198C33.9351 8.45053 33.6202 8.3856 33.3145 8.3856C33.0089 8.39488 32.7125 8.47835 32.379 8.44125C31.9622 8.40415 31.4991 8.55255 31.073 8.66386C30.8322 8.71951 30.6006 8.87718 30.3413 8.76588C30.3043 8.74733 30.1931 8.78443 30.1653 8.81226C29.906 9.05341 29.517 9.15543 29.2298 9.18326C28.7574 9.23891 28.3406 9.41514 27.9238 9.59136L26.8957 10.0829C26.6456 10.185 26.4233 10.3426 26.1455 10.4261C25.9324 10.491 25.7287 10.7229 25.5156 10.8713C25.3026 11.0197 25.0618 11.131 24.858 11.2887L24.1726 11.7988C23.9503 11.9751 23.7095 12.1327 23.4964 12.3182C23.2649 12.5223 23.0518 12.7449 22.811 12.9397C22.5887 13.1252 22.3108 13.255 22.1071 13.4591C21.5513 14.0619 21.116 14.7483 20.6066 15.379C20.5788 15.6387 20.375 15.75 20.2175 15.917C20.0693 16.0654 19.8748 16.2416 19.8841 16.5013C19.8841 16.5755 19.8193 16.6682 19.7822 16.7424C19.6989 16.9187 19.4951 17.0021 19.458 17.2526C19.4302 17.4288 19.245 17.605 19.1524 17.7998C19.069 18.0038 18.8745 18.1894 18.9486 18.4305C18.5596 18.6717 18.7356 19.1632 18.4762 19.4693C18.4021 19.5713 18.3466 19.6919 18.2725 19.8032C18.2354 19.8589 18.1891 19.9145 18.1798 19.9702C18.0038 20.9997 17.5778 21.955 17.4111 22.9846C17.4018 23.1144 17.4296 23.2443 17.4388 23.3741C17.4388 23.439 17.4388 23.504 17.4203 23.5596C17.2443 24.0976 17.2443 24.1068 17.2629 24.6355C17.2629 24.7654 17.2536 24.9138 17.2536 25.0529C17.2536 25.4054 17.198 25.7578 17.2906 26.1195C17.3647 26.4813 17.198 26.8801 17.1424 27.2696C17.0869 27.6128 17.022 27.956 17.0498 28.327C17.2073 29.2545 17.2906 30.2006 17.5593 31.1002C17.587 31.2115 17.5963 31.3785 17.6519 31.4341C17.902 31.6475 18.0594 31.8423 17.8556 32.1762C17.8464 32.1947 17.8834 32.2875 17.902 32.2967C18.1706 32.4544 18.1798 32.7605 18.2632 33.0109C18.3466 33.2428 18.4299 33.4747 18.5411 33.6973L18.9116 34.3372C19.1616 34.7546 19.3839 35.1906 19.6248 35.6265C19.6989 35.7656 19.8471 35.9326 19.8471 36.0439C19.8378 36.285 20.0693 36.2479 20.1157 36.4241C20.1527 36.5725 20.3287 36.7117 20.3657 36.8322C20.4676 37.296 20.8103 37.6577 21.1067 37.9545C21.3753 38.2328 21.7273 38.4554 21.9033 38.7707C22.246 39.3829 22.8017 39.8095 23.3019 40.2733C23.7928 40.7834 24.4041 41.1451 24.9506 41.5718C25.1729 41.748 25.4137 41.9521 25.7286 41.9521C25.7935 41.9521 25.8954 42.0356 25.9602 42.0912C26.1269 42.2303 26.2751 42.3973 26.4604 42.5086C26.6364 42.6292 26.8772 42.6384 27.081 42.7126C27.2477 42.7683 27.3866 42.861 27.5811 42.8518C27.7293 42.8518 27.9053 43.0002 28.0535 43.1671C28.3406 43.5196 28.6926 43.8071 29.202 43.974C29.6466 44.1224 30.0912 44.2801 30.5636 44.3821C30.7581 44.4285 30.9341 44.4842 31.1564 44.4563C31.3602 44.4285 31.6566 44.5491 31.8789 44.6233C32.2216 44.7717 32.555 44.8274 32.9255 44.781C33.0552 44.7624 33.1941 44.781 33.333 44.8088C33.7406 44.8459 34.1574 44.8552 34.5649 44.883C34.9725 44.9016 35.3893 44.9387 35.7968 44.9016C35.9913 44.8923 36.2044 44.8459 36.3711 44.9665C36.4915 44.8088 36.7045 44.8459 36.8805 44.8459C37.1491 44.8644 37.4085 44.883 37.6771 44.8459C37.992 44.8088 38.2977 44.7531 38.5941 44.614C38.8627 44.4934 39.2332 44.5584 39.511 44.345C39.5574 44.3079 39.7055 44.3636 39.7796 44.3358C40.1131 44.2152 40.5299 44.2616 40.7892 43.9648C40.8078 43.9369 40.8819 43.9091 40.9189 43.9184C41.3728 43.9833 41.7062 43.6865 42.0582 43.4917C42.4565 43.3062 42.8733 43.2599 43.2716 43.0744C43.7161 42.861 44.1515 42.5828 44.5868 42.3973C44.9666 42.2489 45.3278 42.0541 45.6705 41.8408L46.6431 41.108C46.9858 40.8762 47.3007 40.5979 47.6063 40.3197C47.9027 40.0321 48.2269 39.7724 48.5048 39.4571C48.7456 39.1881 48.9309 38.8728 49.1532 38.5945C49.4218 38.2977 49.6718 37.9823 49.9034 37.6577L50.5796 36.7488C50.6722 36.6004 50.7278 36.3963 50.913 36.3407C50.9501 36.3314 51.0149 36.2386 51.0241 36.1923C51.0705 35.8398 51.2372 35.5801 51.5243 35.3668C51.6077 35.3019 51.6262 35.1627 51.691 35.07C51.8763 34.8103 51.8763 34.5135 51.9689 34.2445C52.043 33.9941 52.3209 33.7807 52.2005 33.4839C52.1819 33.4468 52.2283 33.3263 52.2653 33.2984C52.7469 32.9182 52.4691 32.1762 52.8951 31.7681C52.7655 31.5084 53.0248 31.36 53.0433 31.193C53.0619 30.9518 53.0711 30.7107 53.136 30.4695C53.2101 30.2469 53.2471 30.0151 53.2656 29.7832C53.3027 29.3565 53.4602 28.9392 53.3675 28.5032C53.349 28.3548 53.312 28.0858 53.4694 27.9282C53.4972 27.9003 53.4972 27.8076 53.4972 27.7427C53.4601 27.2696 53.6547 26.7131 53.9418 26.5926C54.1085 26.5184 54.303 26.5276 54.4697 26.5926C54.5531 26.6204 54.5902 26.8337 54.6457 26.9728C54.7384 27.214 54.868 27.4459 54.9051 27.7148C54.9329 28.0302 54.9051 28.3734 54.8402 28.7722L54.7569 28.8093Z" fill="#272D35"/>
<path d="M34.9698 31.0238C32.5653 31.0238 30.8414 29.7006 30.796 27.7876H33.0946C33.1324 28.6042 33.9263 29.1411 34.9849 29.1486C36.0737 29.1411 36.8525 28.5362 36.8449 27.6515C36.8525 26.7593 36.0586 26.1317 34.7732 26.1242H33.76V24.4456H34.7732C35.8544 24.4456 36.6105 23.8558 36.603 22.9938C36.6105 22.1545 35.9678 21.5799 35 21.5875C34.0322 21.5799 33.2383 22.1243 33.2004 22.9636H31.0228C31.0606 21.0809 32.7543 19.7728 35 19.7728C37.2835 19.7728 38.8033 21.1262 38.7957 22.8577C38.8033 24.0826 37.9489 24.9522 36.7239 25.1714V25.2622C38.3345 25.4588 39.2191 26.4342 39.204 27.8027C39.2191 29.6779 37.4423 31.0238 34.9698 31.0238Z" fill="#272D35"/>
</svg>
