<svg width="87" height="95" viewBox="0 0 87 95" fill="none" xmlns="http://www.w3.org/2000/svg">
<path d="M31.6686 93.9855L24.9355 83.2887L12.5586 85.8087L26.4973 53.2324L45.6073 61.4093L31.6686 93.9855Z" fill="#5D8E5F"/>
<path d="M29.6996 92.7385C29.2665 92.2923 29.2271 91.5573 28.8071 91.006C28.3871 90.4548 28.0459 89.851 27.6915 89.2473C27.5077 88.9454 27.2846 88.696 27.0221 88.4598C26.7727 88.2366 26.7465 87.8035 26.3527 87.6854C26.3134 87.6854 26.3002 87.6066 26.274 87.5673C25.8277 86.8585 25.2765 86.2023 24.9746 85.4279C24.8565 85.1391 24.7121 84.8635 24.5677 84.601C24.5284 84.5223 24.5021 84.4829 24.4627 84.4173C24.3709 84.4435 24.3709 84.4304 24.2002 84.4435C22.7696 85.0735 21.2209 85.1391 19.7246 85.5066C19.2652 85.6248 18.8059 85.7823 18.2809 85.6773C17.8346 85.5985 17.4015 85.9923 16.9027 85.7823C16.8634 85.7691 16.7846 85.8479 16.7321 85.8741C16.5877 85.9398 16.4434 86.0448 16.299 86.0448C15.8527 86.0448 15.6296 86.0448 15.4327 86.0841C15.2884 86.1104 14.9865 86.2154 14.3434 86.4254C14.1859 86.4779 14.0415 86.3729 13.884 86.3991C13.2277 86.5173 12.6109 86.6223 11.9284 86.7929C11.6527 86.8585 11.4296 86.8848 11.1934 86.911C11.3509 86.5698 11.4559 86.3073 11.3509 86.1366C11.3115 86.071 11.4952 85.7691 11.5871 85.5723C11.8496 84.9554 12.1384 84.3385 12.3746 83.7216L12.5977 83.1966L12.7552 82.8554C12.834 82.6585 12.8996 82.4485 12.8734 82.1991C12.8471 81.9891 13.2146 81.8448 13.2015 81.7266C13.1752 81.4904 13.2277 81.3066 13.3327 81.136C13.4246 80.9654 13.6084 80.8341 13.6871 80.6504C13.7527 80.4929 13.7002 80.2829 13.7659 80.1254C13.9102 79.7185 14.199 79.351 14.2384 78.931C14.2777 78.4848 14.4615 78.1304 14.619 77.7498C14.7765 77.3429 14.9734 76.9623 15.1177 76.5554C15.2227 76.2404 15.459 76.0173 15.6296 75.7548C15.8134 75.4923 15.7609 75.0985 16.1415 74.941C16.1546 74.941 16.1546 74.9016 16.1677 74.8754C16.4696 74.2979 16.7977 73.7335 17.0734 73.1429L18.4121 70.0585C18.5434 69.7698 18.5827 69.4285 18.9109 69.2448C18.9765 69.2054 18.9634 69.0479 19.029 68.9954C19.2784 68.7591 18.9634 68.3654 19.2652 68.1685C19.5409 67.9979 19.554 67.696 19.6852 67.4466C19.8296 67.171 19.9215 66.8691 20.0527 66.5935C20.1446 66.3966 20.184 66.2129 20.1446 65.9898C20.4859 65.8848 20.4465 65.5041 20.6696 65.2941C20.814 65.1629 20.9977 64.9266 20.9715 64.7691C20.9059 64.4148 21.1027 64.1785 21.1946 63.9029C21.339 63.4829 21.5884 63.1154 21.5752 62.6429C21.5752 62.446 21.7065 62.236 21.8246 62.0523C21.9296 61.8816 22.1002 61.7504 22.179 61.5666C22.3365 61.2385 22.4677 60.8973 22.4809 60.5166C22.4809 60.1754 22.8746 59.926 22.7302 59.5191C22.7171 59.4666 22.7696 59.3748 22.809 59.3223C23.0584 59.0466 23.2421 58.7973 23.2421 58.3773C23.2421 58.036 23.4915 57.721 23.6359 57.3929C23.7802 57.0385 23.8852 56.6579 24.1084 56.356C24.2396 56.1591 23.9509 55.8966 24.279 55.7391C24.4496 55.6473 24.5152 55.3454 24.6071 55.1354C24.7121 54.9254 24.7515 54.6629 24.8959 54.4791C24.9877 54.361 25.0796 54.2298 25.1584 54.0985C25.2502 53.9279 25.3815 53.6654 25.4865 53.4554C25.6965 53.0091 25.8934 52.5629 26.0771 52.1035L27.429 52.6548L28.0852 52.9435L28.4921 53.1404C28.9384 53.3766 29.5159 53.3766 29.8309 53.8754C30.2509 53.7835 30.579 54.151 30.9596 54.1379C31.1959 54.1379 31.3665 54.2166 31.5502 54.2823L35.1727 55.8179C35.9734 56.146 36.8002 56.3954 37.614 56.7104C37.8371 56.8023 38.0734 56.8679 38.2571 57.1041C38.3884 57.2879 38.7165 57.4323 39.0315 57.3535C39.0971 57.3404 39.2021 57.3535 39.2284 57.3929C39.5434 57.9179 40.134 57.7604 40.5802 57.9441C41.4596 58.2854 42.2209 58.8629 43.0871 59.2041C43.2709 59.2829 43.4415 59.4666 43.6777 59.3091C43.7434 59.5585 43.8877 59.506 44.0977 59.506C44.3209 59.506 44.6096 59.611 44.7277 59.7816C44.7671 59.8866 44.9509 59.9916 45.1346 60.0704L45.6727 60.3066L46.8277 60.8054L46.9327 60.8579L45.8959 63.1023L45.2396 64.4279C45.1477 64.5985 44.9902 64.7429 44.8721 64.9135C44.754 65.0841 44.7802 65.3204 44.5177 65.4123C44.4127 65.4516 44.3865 65.6485 44.334 65.7798C44.1371 66.2391 43.809 66.6854 43.7827 67.171C43.7565 67.6435 43.389 67.9979 43.494 68.4966C43.5202 68.641 43.3627 68.7985 43.3102 68.956C43.1134 69.5991 42.6146 70.1373 42.654 70.8723C42.3784 71.0166 42.2996 71.2923 42.2077 71.5548C42.1421 71.7385 41.9452 71.9091 42.0896 72.1585C42.1027 72.1848 42.0896 72.2504 42.0502 72.2898C41.9059 72.4866 41.6827 72.631 41.6171 72.8935C41.5646 73.1166 41.6171 73.3398 41.5121 73.5629C41.1577 74.3766 40.5671 75.0854 40.3177 75.9516C40.0552 76.1091 39.9765 76.3716 39.8584 76.621C39.6615 77.0673 39.6877 77.5791 39.4384 78.0123C39.2021 78.4323 38.9527 78.8654 38.8871 79.3248C38.7821 80.1254 38.3621 80.7685 38.0865 81.5035C38.0209 81.6873 38.0077 81.9235 37.7321 82.0023C37.6665 82.0154 37.6009 82.2254 37.6402 82.3041C37.719 82.4748 37.5746 82.5798 37.5746 82.711C37.5746 83.0916 36.9184 83.1835 37.1677 83.656L36.7215 84.706L36.2621 85.756C36.1834 85.9135 36.1571 86.0973 35.9602 86.2023C35.8159 86.281 35.6846 86.5435 35.724 86.6879C35.8027 87.0423 35.6059 87.2785 35.5009 87.5541C35.1727 88.3679 34.8184 89.1816 34.464 89.9954C34.3065 90.3498 34.0702 90.6648 33.8734 91.006C33.6765 91.3473 33.6502 91.7804 33.3221 92.056C33.2959 92.0691 33.2959 92.1216 33.2827 92.1479C33.2565 92.3054 33.2565 92.476 33.1777 92.6073C33.0859 92.7779 32.8102 92.9485 32.8365 93.0798C32.9021 93.3423 32.679 93.4079 32.6002 93.5654C32.364 93.9985 31.8652 94.1035 31.419 93.8541C31.3271 93.8016 31.2352 93.6966 31.1827 93.6048C30.8546 92.9879 30.8809 93.001 31.1302 92.3316C31.4452 91.4916 32.0752 90.8091 32.3246 89.9429C32.8102 89.5098 32.889 88.8798 33.1777 88.3416C33.4796 87.7904 33.939 87.3048 34.0309 86.6748C34.1227 86.0579 34.3852 85.5198 34.6346 84.9685C34.8184 84.5485 35.094 84.1679 35.304 83.761C35.514 83.3279 35.6452 82.8554 35.8946 82.4616C36.0521 82.2123 36.3409 82.0023 36.3409 81.7135C36.3671 81.0704 36.7871 80.5848 36.9052 79.9941C37.0759 79.1804 37.4959 78.4585 37.719 77.6841C37.8371 77.2641 37.9421 76.831 38.1259 76.4373C38.2046 76.2535 38.2702 76.0829 38.454 75.9254C38.6377 75.7679 38.769 75.4791 38.7296 75.1641C38.7165 75.0329 38.7427 74.8491 38.8346 74.7835C39.2021 74.5079 39.2809 74.0748 39.4384 73.6941C39.5434 73.4579 39.8584 73.2741 39.8321 73.0904C39.7927 72.7885 39.9502 72.5916 40.029 72.3554C40.0815 72.1848 40.0946 71.9748 40.344 71.9091C40.4096 71.896 40.4884 71.7385 40.4752 71.6729C40.3571 71.3054 40.6065 71.0429 40.7246 70.741C41.0134 70.0323 41.3021 69.3235 41.6302 68.6279C41.8927 68.0504 41.8665 67.381 42.2209 66.8429C42.129 66.3835 42.4046 66.0291 42.5752 65.6616C42.7065 65.3729 42.9034 65.1235 43.074 64.8479C43.2446 64.5723 43.3234 64.2835 43.5596 64.021C43.8484 63.706 43.9271 63.2073 44.124 62.8004C44.1765 62.6954 44.2027 62.551 44.2421 62.4329C44.2684 62.3673 44.2946 62.3148 44.334 62.2754C44.3602 62.2623 44.4127 62.2491 44.4784 62.2491C44.5177 62.2491 44.5309 62.1966 44.5046 62.1704C44.3077 62.026 44.3734 61.9866 44.5309 61.8291V61.8029C44.5571 61.7241 44.4652 61.6585 44.3734 61.6191L44.019 61.4616C43.6777 61.291 43.3102 61.1729 42.969 61.0023C42.7196 60.8841 42.4571 60.8185 42.234 60.6085C42.0634 60.4379 41.7352 60.4641 41.499 60.3723C41.2496 60.2804 41.0134 60.1754 40.7771 60.0704L39.9896 59.7291L39.2021 59.3879C38.9134 59.2698 38.6246 59.1648 38.349 59.0204C38.0865 58.8891 37.8634 58.6791 37.6009 58.5479C36.8659 58.1935 36.0127 58.141 35.2909 57.721C35.0152 57.7998 34.8709 57.6029 34.6609 57.4716C34.4771 57.3535 34.2802 57.1829 34.0046 57.2748C33.9259 57.301 33.834 57.2485 33.7421 57.2223C33.5452 57.1698 33.4665 56.9335 33.1909 56.9729C32.994 56.9991 32.7971 56.8154 32.6002 56.7498C32.3902 56.6841 32.2065 56.461 31.944 56.6054C31.7209 56.1198 31.1565 56.4741 30.8677 56.1723C30.7759 56.0804 30.6577 56.0016 30.5527 55.9229C30.5002 55.8835 30.4477 55.8048 30.3952 55.8048C29.3059 55.6866 28.4265 55.0304 27.429 54.7023C27.2715 54.6498 27.3109 54.7416 27.2584 54.7548C27.2584 54.7548 27.2321 54.7679 27.2321 54.7548C27.1665 54.6235 27.114 54.571 27.0877 54.6104C27.0877 54.6366 27.0877 54.676 27.114 54.7548C27.1271 54.8073 27.114 54.7941 27.114 54.8204C27.114 54.8598 27.114 54.8729 27.114 54.8991C27.0877 54.9779 27.009 55.2141 27.009 55.3979C27.009 55.8048 26.589 56.0804 26.3265 56.3954C26.0902 56.671 25.854 56.9466 25.7096 57.301C25.3552 58.1935 24.9615 59.0598 24.594 59.9391C24.5415 60.0441 24.4365 60.1754 24.4627 60.2673C24.594 60.6216 24.6596 60.9104 24.1477 60.976C24.1215 60.976 24.0821 61.0679 24.0952 61.1073C24.2527 61.4354 24.0165 61.6585 23.8984 61.8948C23.4652 62.8135 23.3602 63.8504 22.8615 64.7429C22.7827 64.8873 22.7565 65.1235 22.6384 65.176C22.3759 65.2941 22.6384 65.5041 22.494 65.6354C22.389 65.7535 22.4021 65.9898 22.284 66.0816C21.8509 66.3835 21.7327 66.8823 21.654 67.3023C21.5752 67.696 21.5096 68.116 21.2865 68.4048C20.8402 68.9691 20.6434 69.6516 20.3415 70.2816C20.0396 70.9379 19.764 71.5941 19.5015 72.2635C19.3965 72.5391 19.1602 72.7754 19.2784 73.1298C19.3046 73.1954 19.2259 73.3135 19.1734 73.3923C19.0421 73.576 18.8715 73.7466 18.7927 73.9435C18.7009 74.1404 18.714 74.3898 18.6615 74.5998C18.6221 74.7704 18.5302 74.9148 18.5696 75.1379C18.609 75.2954 18.4384 75.4791 18.2415 75.6235C17.8346 75.8991 17.4277 76.201 17.2571 76.7129C17.1127 77.1591 16.8765 77.5923 16.7059 78.0385C16.6271 78.2223 16.5352 78.3929 16.5746 78.6423C16.6009 78.8654 16.4302 79.141 16.2596 79.3248C15.9971 79.6135 15.8396 79.9154 15.8396 80.3091C15.8396 80.4404 15.774 80.5848 15.7215 80.7029L14.7371 83.0129C14.6584 83.1966 14.619 83.4198 14.3827 83.4854C14.4615 83.5904 14.4615 83.6823 14.4221 83.7741C14.409 83.8135 14.3827 83.866 14.3565 83.9054L14.3171 83.9448C14.2646 84.0235 14.1071 84.1285 14.0284 84.2466C13.9496 84.391 13.8971 84.5485 14.0415 84.5354C14.1334 84.5223 14.0284 84.6404 13.989 84.7191C14.0284 84.7191 14.094 84.6798 14.2252 84.5879C14.2909 84.5354 14.1596 84.6929 14.2121 84.6798C14.3434 84.601 14.409 84.7979 14.6452 84.4435C14.6584 84.4173 14.6715 84.4173 14.6846 84.4435C14.6846 84.601 14.8027 84.5879 14.8552 84.5485C15.039 84.4566 15.2227 84.3779 15.4065 84.286C15.8265 84.1154 16.2859 84.2729 16.719 84.181C17.2046 84.076 17.7034 83.8791 18.189 83.9054C19.029 83.9448 19.8165 83.6823 20.6171 83.5379C21.444 83.3935 22.2577 83.2229 23.0715 83.0391C23.2421 82.9998 23.4259 82.9341 23.5965 82.8685C23.7671 82.8029 23.9115 82.7373 24.2396 82.6585C24.6071 82.5666 24.9877 82.4879 25.3684 82.4223L25.8146 83.1441L26.5496 84.3254C26.6415 84.4829 26.8252 84.601 26.7465 84.8373C26.7334 84.8898 26.7727 84.9816 26.8252 85.0079C27.1665 85.1785 27.324 85.4541 27.3502 85.8348C27.3502 85.9398 27.4684 86.0316 27.5077 86.1498C27.6127 86.4516 27.9015 86.5829 28.1115 86.806C28.2952 87.0029 28.2952 87.3573 28.6627 87.4098C28.7152 87.4098 28.7809 87.5279 28.7677 87.5804C28.6496 88.2891 29.6471 88.381 29.5552 89.0635C29.8965 89.1029 29.7521 89.4441 29.8834 89.5754C30.0671 89.746 30.2509 89.9166 30.3821 90.1266C30.5002 90.3366 30.6184 90.5466 30.7627 90.7304C31.0252 91.0848 31.1565 91.5179 31.5765 91.7673C31.7209 91.846 31.9046 92.056 31.8127 92.3185C31.7996 92.371 31.8521 92.4498 31.8915 92.4891C32.2196 92.8435 32.3246 93.4604 32.0621 93.7754C31.9046 93.9591 31.6552 94.1035 31.4321 94.1823C31.314 94.2216 31.1434 94.0904 30.999 94.0248C30.7496 93.9066 30.4609 93.841 30.2771 93.6573C30.054 93.4473 29.9359 93.1454 29.7259 92.8173L29.6996 92.7385Z" fill="#272D35"/>
<path d="M56.5794 93.9855L63.3125 83.2887L75.6894 85.8087L61.7506 53.2324L42.6406 61.4093L56.5794 93.9855Z" fill="#5D8E5F"/>
<path d="M56.8557 91.6754C57.0788 91.0979 57.7088 90.7304 58.0238 90.1135C58.3388 89.4967 58.7457 88.9323 59.1263 88.3548C59.3232 88.0661 59.4413 87.7511 59.5463 87.4098C59.6382 87.0817 60.0188 86.8848 59.9532 86.4648C59.9532 86.4254 60.0057 86.3861 60.0188 86.3467C60.4651 85.6379 60.8195 84.8504 61.3707 84.2467C61.5807 84.0104 61.7645 83.7742 61.9351 83.5117L62.8013 82.1467C63.3395 82.2517 63.9826 82.3829 64.442 82.5011C66.0038 82.4879 67.4607 83.0261 68.9701 83.2754C69.4426 83.3542 69.9282 83.3936 70.3745 83.6823C70.7551 83.9317 71.3195 83.7348 71.687 84.1154C71.7132 84.1417 71.8182 84.1023 71.8838 84.1023C72.0413 84.1023 72.2251 84.0629 72.3563 84.1023C72.7763 84.2729 72.9732 84.3517 73.1701 84.4042C73.4195 84.4567 73.472 84.4304 73.5507 84.3648C73.5638 84.3517 73.6295 84.4961 73.6688 84.5092C73.8132 84.5486 73.9838 84.6142 74.0888 84.6011C74.1282 84.6011 74.2201 84.6404 74.2988 84.6667C74.2988 84.6142 74.2332 84.5092 73.9707 84.3123C73.8788 84.2336 73.9313 84.2598 73.9182 84.2204C73.8788 84.1417 73.8657 84.0498 73.8001 83.971C73.787 83.9448 73.7738 83.9186 73.7738 83.9054C73.7738 83.9054 73.7082 83.7217 73.6688 83.6429C73.577 83.4461 73.472 83.2492 73.2751 83.1048C73.1045 82.9736 73.262 82.6192 73.157 82.5404C72.9732 82.3961 72.8682 82.2254 72.8157 82.0417C72.7501 81.8579 72.7895 81.6348 72.7107 81.451C72.6451 81.2936 72.4613 81.1886 72.3826 81.0311C72.1988 80.6504 72.1201 80.1779 71.8445 79.8629C71.5557 79.5348 71.4245 79.1411 71.2407 78.7736C71.057 78.3798 70.9257 77.9729 70.7288 77.5923C70.5713 77.2904 70.5713 76.9754 70.5057 76.6604C70.4401 76.3454 70.1251 76.1092 70.2695 75.7286C70.2695 75.7154 70.2563 75.6892 70.2432 75.6629C70.0332 75.0461 69.8495 74.416 69.6132 73.8123L68.3007 70.7148C68.1826 70.4261 67.9595 70.1504 68.0513 69.7829C68.0776 69.7042 67.9463 69.6123 67.9463 69.5204C67.9463 69.1792 67.4345 69.1267 67.5132 68.7723C67.5788 68.4573 67.3688 68.2342 67.277 67.9848C67.172 67.6961 67.0276 67.4204 66.9226 67.1317C66.8438 66.9348 66.7388 66.7642 66.5551 66.6592C66.7126 66.3311 66.4107 66.0948 66.4238 65.7929C66.4238 65.5961 66.3976 65.3073 66.2532 65.2154C65.9513 65.0186 65.9251 64.7167 65.7807 64.4542C65.5838 64.0604 65.4788 63.6273 65.1376 63.3123C64.9932 63.1811 64.9407 62.9317 64.8751 62.7348C64.8226 62.5379 64.8357 62.3279 64.7701 62.1442C64.6388 61.8029 64.4945 61.4748 64.2188 61.1992C63.9826 60.9629 64.0613 60.5036 63.6676 60.3329C63.6151 60.3067 63.5888 60.2148 63.5888 60.1361C63.5626 59.7686 63.497 59.4667 63.2082 59.1779C62.972 58.9417 62.9063 58.5348 62.762 58.2067C62.6176 57.8523 62.4076 57.5111 62.3288 57.1436C62.2763 56.9073 61.8826 56.9467 61.9876 56.5923C62.0401 56.4086 61.8695 56.1592 61.7907 55.9361C61.6988 55.7129 61.5545 55.5029 61.5151 55.2798C61.4888 55.1223 61.4626 54.9779 61.4232 54.8336L61.397 54.6367C61.3707 54.5185 61.3313 54.4136 61.2788 54.3217L60.977 54.4792L60.8195 54.5448L60.3995 54.7023C59.9138 54.8598 59.5201 55.2798 58.9426 55.1617C58.7063 55.5292 58.2207 55.5029 57.9713 55.7917C57.8138 55.9754 57.6301 56.0411 57.4463 56.1198L53.8238 57.6817C53.0363 58.0361 52.2751 58.4561 51.5007 58.8236C51.2776 58.9286 51.0807 59.0467 50.7657 59.0073C50.5426 58.9811 50.2145 59.1123 50.057 59.3879C50.0307 59.4404 49.9388 59.5192 49.8995 59.5061C49.3088 59.3617 49.007 59.8998 48.5738 60.1098C47.7207 60.5036 46.7757 60.6611 45.9226 61.0548C45.7388 61.1336 45.4895 61.1336 45.437 61.4092C45.2138 61.2779 45.1482 61.4092 45.0038 61.5798C44.8595 61.7504 44.5707 61.8817 44.3607 61.8423C44.1901 61.8423 44.1638 61.8161 44.1376 61.8161C44.1113 61.8161 44.0851 61.8423 44.0588 61.8423C43.9932 61.8423 43.9538 61.8948 43.9013 61.9079H43.8751L43.9145 62.0786L43.9407 62.1704V62.2229L44.0063 62.3804L44.5051 63.7717C44.5707 63.9554 44.5576 64.1654 44.597 64.3623C44.6363 64.5592 44.8201 64.7167 44.7151 64.9661C44.6757 65.0579 44.807 65.2286 44.8595 65.3598C45.0563 65.8192 45.1482 66.3704 45.4763 66.7117C45.8045 67.0529 45.8045 67.5779 46.2376 67.8404C46.3557 67.9192 46.3688 68.1423 46.4476 68.2867C46.7757 68.8773 46.8282 69.6123 47.3795 70.0848C47.2876 70.3867 47.4451 70.6361 47.5632 70.8723C47.6551 71.0561 47.642 71.3054 47.9176 71.371C47.9438 71.371 47.9832 71.4367 47.9832 71.4892C48.0226 71.7386 47.9832 71.9879 48.1276 72.2242C48.2457 72.4211 48.4557 72.5261 48.5476 72.7623C48.8888 73.5892 48.9938 74.4948 49.4401 75.2692C49.3745 75.5711 49.5057 75.8073 49.6107 76.0698C49.7945 76.5161 50.1882 76.8573 50.3326 77.3298C50.477 77.7892 50.6082 78.2748 50.9101 78.6423C51.4088 79.2723 51.5926 80.0336 51.9338 80.7161C52.0257 80.8867 52.1832 81.0704 52.052 81.3198C52.0257 81.3854 52.1307 81.5692 52.2095 81.5954C52.3932 81.6611 52.367 81.8317 52.4588 81.9236C52.7345 82.1861 52.3407 82.7242 52.8526 82.8686L53.2988 83.9186L53.7451 84.9686C53.8107 85.1392 53.9157 85.2704 53.8632 85.5067C53.8238 85.6642 53.9157 85.9398 54.047 86.0186C54.362 86.2023 54.3882 86.5173 54.5195 86.7798C54.887 87.5804 55.2282 88.3942 55.5563 89.221C55.7007 89.5754 55.7663 89.9692 55.8845 90.3367C55.9895 90.7173 56.2913 91.0323 56.2651 91.4654C56.2651 91.4917 56.2913 91.5311 56.3045 91.5573C56.3963 91.6886 56.5145 91.8067 56.567 91.951C56.6326 92.1348 56.567 92.4498 56.6851 92.5286C56.9213 92.6729 56.8163 92.8698 56.8688 93.0404C57.0132 93.5129 56.7507 93.9461 56.2651 94.0904C56.1601 94.1167 56.0288 94.1167 55.9238 94.0904C55.2545 93.9067 55.2807 93.8804 54.9657 93.2504C54.5851 92.4498 54.5195 91.5179 54.0601 90.7436C54.0863 90.1004 53.6795 89.6017 53.4957 89.0242C53.312 88.4204 53.2726 87.751 52.8788 87.2523C52.4851 86.7535 52.2882 86.1892 52.052 85.6379C51.8813 85.2179 51.8026 84.7586 51.632 84.3254C51.4745 83.8792 51.212 83.4592 51.0938 82.9998C51.0151 82.7111 51.0676 82.3698 50.8576 82.1598C50.4113 81.7004 50.3457 81.0573 50.0045 80.5585C49.532 79.876 49.3088 79.0754 48.8888 78.3798C48.6657 77.9992 48.4295 77.6317 48.272 77.2248C48.1932 77.0411 48.1145 76.8704 48.1276 76.6342C48.1407 76.3848 48.0226 76.0961 47.7732 75.9123C47.6682 75.8336 47.5501 75.6761 47.5632 75.5711C47.6157 75.1117 47.3663 74.7573 47.1957 74.3898C47.0907 74.1536 47.1695 73.7992 47.0251 73.6942C46.7757 73.5104 46.7495 73.2611 46.6313 73.0511C46.5526 72.8936 46.4082 72.7361 46.5263 72.5129C46.5526 72.4473 46.5001 72.2898 46.4476 72.2635C46.0932 72.0929 46.0801 71.7386 45.9488 71.4498C45.6338 70.7542 45.332 70.0586 45.0432 69.3498C44.807 68.7592 44.3082 68.3129 44.1638 67.6829C43.7701 67.4336 43.7045 66.9873 43.547 66.6067C43.4288 66.3179 43.3895 65.9898 43.3107 65.6879C43.232 65.3861 43.0745 65.1104 43.0482 64.7692C43.022 64.3361 42.707 63.9423 42.5495 63.5092C42.5101 63.3911 42.4313 63.286 42.3788 63.1679C42.3526 63.1154 42.3263 63.0498 42.3263 62.9842C42.3132 62.8923 42.3001 62.7873 42.3263 62.6954C42.3395 62.6429 42.2738 62.4854 42.2082 62.4329C41.7751 62.0261 41.5388 61.3698 41.4863 61.0154C41.5388 61.0154 41.5782 60.9892 41.6045 60.9892C42.0507 60.8842 42.392 60.7661 42.7201 60.6348C43.022 60.5167 43.4288 60.3198 43.6257 60.2542C43.9801 60.1229 44.3213 59.9392 44.6888 59.8079C44.9513 59.7161 45.1745 59.5586 45.4763 59.5454C45.7126 59.5454 45.9226 59.2961 46.1588 59.1779C46.3951 59.0598 46.6445 58.9679 46.8807 58.8629L47.6682 58.5217L48.4557 58.1804C48.7445 58.0623 49.0201 57.9179 49.3088 57.8261C49.5845 57.7342 49.8995 57.7211 50.162 57.6161C50.9232 57.3273 51.5532 56.7498 52.3538 56.5136C52.4851 56.2511 52.7345 56.2904 52.9707 56.2379C53.1807 56.1854 53.4432 56.1592 53.5613 55.8967C53.6007 55.8179 53.7057 55.7917 53.7845 55.7392C53.9551 55.6342 54.1913 55.7392 54.3488 55.5161C54.467 55.3586 54.7295 55.3454 54.9263 55.2404C55.1232 55.1354 55.412 55.1617 55.4907 54.8598C55.9895 55.0304 56.1207 54.3873 56.5538 54.3742C56.6851 54.3742 56.8163 54.3348 56.9476 54.3217C57.0132 54.3217 57.1051 54.3217 57.1445 54.2823C57.9713 53.5736 59.0607 53.3898 59.9926 52.9042C60.1632 52.7861 60.347 52.6679 60.5307 52.5498C60.6357 52.4842 60.7538 52.4317 60.8588 52.4054C61.5807 52.1954 61.7251 52.1692 62.2238 51.8936C62.2632 51.9329 62.3551 52.0773 62.4732 52.2873C62.5913 52.4842 62.6832 52.7598 62.8013 52.996C62.9457 53.311 63.077 53.6129 63.2213 53.9148C63.3395 54.1773 63.4051 54.2692 63.5495 54.4267C63.8382 54.7154 63.7463 55.2011 63.7988 55.6079C63.8382 55.9623 63.8645 56.3298 64.0351 56.6711C64.442 57.5373 64.7963 58.4167 65.1638 59.2961C65.2163 59.4011 65.2295 59.5848 65.3082 59.6111C65.6626 59.7554 65.912 59.9129 65.6101 60.3329C65.597 60.3592 65.6363 60.4379 65.6626 60.451C66.017 60.5561 66.0038 60.8973 66.1088 61.1336C66.4763 62.0786 67.1457 62.8661 67.4476 63.8504C67.5001 64.0079 67.6445 64.1786 67.6051 64.3098C67.5132 64.5723 67.8282 64.5461 67.8413 64.7298C67.8413 64.8873 68.0382 65.0448 68.012 65.1892C67.9332 65.7142 68.2088 66.1342 68.4582 66.4886C68.6945 66.8167 68.9438 67.1579 68.9963 67.5254C69.1013 68.2473 69.4426 68.8511 69.7051 69.4942C69.9676 70.1636 70.2563 70.8198 70.5451 71.4629C70.6632 71.7254 70.6895 72.0667 71.0176 72.2111C71.0832 72.2373 71.1095 72.3686 71.1357 72.4604C71.1882 72.6836 71.1751 72.9198 71.267 73.1167C71.3588 73.3136 71.5295 73.4842 71.6476 73.6679C71.7395 73.8254 71.7788 73.9829 71.9757 74.1011C72.1201 74.1929 72.1332 74.4292 72.0938 74.6786C72.0151 75.1642 71.9495 75.6761 72.1988 76.1486C72.422 76.5686 72.5795 77.0279 72.7763 77.4611C72.8551 77.6448 72.9207 77.8286 73.1176 77.9729C73.3013 78.1042 73.3801 78.4192 73.3932 78.6686C73.4195 79.0623 73.5376 79.3773 73.8132 79.6529C73.9051 79.7448 73.9707 79.8892 74.0232 80.0073L75.0076 82.3173C75.0863 82.5011 75.2176 82.6848 75.1126 82.9079C75.2438 82.9211 75.3095 82.9867 75.3488 83.0654C75.3751 83.1048 75.3882 83.1442 75.4013 83.1967C75.4276 83.2623 75.4538 83.3411 75.4801 83.4067C75.6376 83.8267 75.6901 84.2073 75.8213 84.5748C75.992 85.0211 76.1888 85.4279 76.5826 86.0317C76.8188 86.3992 76.8845 86.6748 77.0157 86.9898C76.832 86.9504 76.6613 86.9373 76.5695 86.9898C76.517 87.0161 76.1363 86.806 76.0182 86.7929C75.4407 86.7273 74.732 86.3729 74.3251 86.596C74.2857 86.6092 74.1545 86.5961 74.0888 86.5436C73.6951 86.3073 73.3801 86.2285 73.0388 86.1892C72.7895 86.1629 72.6057 86.2023 72.3826 86.2023C71.9232 86.2023 71.5688 85.8742 71.1357 85.7954C70.637 85.7036 70.112 85.6904 69.6657 85.4804C68.9045 85.1129 68.0776 85.0473 67.2901 84.8635C66.4763 84.6667 65.6626 84.5092 64.8357 84.3648C64.652 84.3386 64.4682 84.3254 64.2845 84.3254C64.1007 84.3254 63.8907 84.3123 63.8645 84.3254C63.7857 84.3254 63.707 84.3123 63.6151 84.2861L63.5101 84.4436L63.0245 85.2048C62.9195 85.3492 62.8932 85.5723 62.657 85.5986C62.6045 85.5986 62.5388 85.6904 62.5388 85.7429C62.5388 86.1236 62.3551 86.3861 62.027 86.5698C61.9351 86.6223 61.8957 86.7667 61.817 86.8454C61.5807 87.0686 61.5938 87.3967 61.4888 87.6723C61.3838 87.9217 61.0688 88.0792 61.187 88.4335C61.2001 88.486 61.1345 88.5911 61.082 88.6042C60.3995 88.8011 60.7407 89.7461 60.0845 89.9561C60.2026 90.2842 59.822 90.2973 59.7695 90.4679C59.6907 90.7042 59.6251 90.9404 59.4807 91.1504C59.3495 91.3473 59.2182 91.5442 59.1001 91.7542C58.9032 92.1348 58.562 92.4498 58.5095 92.9354C58.4963 93.0929 58.3913 93.3554 58.1157 93.3948C58.0632 93.3948 58.0238 93.4867 57.9976 93.5392C57.8138 93.9854 57.302 94.3529 56.9082 94.2479C56.672 94.1823 56.4357 94.0248 56.2651 93.8542C56.1732 93.7623 56.2257 93.5523 56.2257 93.3948C56.2257 93.1192 56.1601 92.8304 56.2388 92.5811C56.3307 92.2923 56.5538 92.0561 56.7638 91.7279L56.8557 91.6754Z" fill="#272D35"/>
<path d="M43.7705 65.2416C61.5951 65.2416 76.0448 50.7919 76.0448 32.9672C76.0448 15.1426 61.5951 0.692871 43.7705 0.692871C25.9458 0.692871 11.4961 15.1426 11.4961 32.9672C11.4961 50.7919 25.9458 65.2416 43.7705 65.2416Z" fill="#F8F5F2"/>
<path d="M76.8185 36.7211C76.7528 37.8105 76.3066 38.913 76.0835 40.1074C75.9653 40.7111 75.8078 41.3018 75.6503 41.9055L75.4141 42.798L75.086 43.6643C74.8628 44.2418 74.7185 44.8193 74.6003 45.423C74.5085 46.0268 73.9835 46.5255 74.0097 47.1424C74.0097 47.1949 73.9441 47.2999 73.9047 47.3655C73.3141 48.7436 72.5791 50.0955 71.6866 51.2636C71.1747 51.933 70.6103 52.563 70.1247 53.2455C69.6522 53.928 69.101 54.5711 68.5103 55.1486C66.9747 57.4586 64.6122 59.0205 62.4335 60.6743C61.7116 61.1336 61.0028 61.6455 60.1497 61.9211C59.441 62.1968 58.7191 62.8005 57.9053 62.8793C57.8397 62.8793 57.7216 63.0105 57.6297 63.0761C57.3935 63.2205 57.1572 63.4305 56.921 63.5093C55.3985 63.9293 55.3985 63.903 54.2172 64.4936C54.0728 64.5593 53.8628 64.5068 53.6922 64.5724C52.9966 64.743 52.2878 64.9005 51.6053 65.1105C50.9885 65.3074 50.2928 65.3074 49.7285 65.6486C49.6103 65.7274 49.3216 65.7143 49.1116 65.7536L47.0903 66.0555C46.316 66.1211 45.5153 66.0293 44.7672 66.318C44.4391 66.4361 43.9535 66.1868 43.7566 66.2524C43.3891 66.3443 43.0478 66.3574 42.6803 66.318C42.326 66.2786 41.9847 66.1474 41.6435 66.1343C41.3416 66.1211 41.0266 66.2261 40.7116 66.2261C39.9372 66.1999 39.1497 65.9111 38.4278 65.9505C37.6535 65.9768 36.9316 65.8455 36.2228 65.6486C35.4747 65.478 34.7266 65.2418 33.9653 65.0843C33.3878 64.9268 32.9153 64.6118 32.4166 64.3624C31.9178 64.113 31.2485 64.0736 30.881 63.6405C30.8678 63.6274 30.8022 63.6011 30.7628 63.588C29.7391 63.0236 28.7153 62.4986 27.7178 61.9211L25.1716 60.3461L22.7697 58.548C22.3497 58.1805 21.851 57.8393 21.6147 57.3143C21.5622 57.2093 21.3391 57.0911 21.2603 56.973C20.9585 56.5005 20.2891 56.553 20.0922 56.0018C19.9085 55.5293 19.5016 55.2274 19.1866 54.8599C18.8453 54.4268 18.4122 54.0724 18.1103 53.613C17.8872 53.298 17.651 53.0486 17.3622 52.878C17.3228 52.3793 16.8241 52.0118 16.6403 51.5524C16.5091 51.2505 16.3385 50.7649 16.1416 50.6205C15.6953 50.2793 15.5116 49.7805 15.2228 49.3474C14.7635 48.7174 14.5403 47.9561 14.0285 47.3655C13.8185 47.103 13.6741 46.6961 13.5297 46.3418C13.3853 46.0136 13.346 45.6724 13.2541 45.3311C13.0441 44.7143 12.821 44.1236 12.4666 43.5593C12.1385 43.0736 12.191 42.3386 11.7841 41.8793C11.7316 41.8136 11.6922 41.6299 11.6922 41.5118C11.6528 40.8818 11.5872 40.3436 11.2591 39.7136C11.036 39.1886 11.036 38.4668 10.9441 37.8368C10.8522 37.1674 10.6422 36.4849 10.7078 35.8155C10.7341 35.3955 10.3535 35.1986 10.5635 34.6868C10.6816 34.4111 10.5897 33.8861 10.5635 33.4661C10.5372 33.0461 10.511 32.5999 10.5897 32.193C10.826 31.143 10.7997 30.0668 10.9572 29.0168C11.1278 27.9668 11.1803 26.8905 11.4822 25.8668C11.7447 25.0136 11.7578 24.0293 12.296 23.2943C12.2566 22.6118 12.7422 21.9555 12.7816 21.3255C12.821 20.9186 12.9391 20.6036 13.0572 20.2755C13.5166 19.1993 14.0547 18.1493 14.5666 17.0993C15.1835 16.1018 15.761 15.078 16.4172 14.1068C17.3228 12.8599 18.1497 11.5474 19.2128 10.4186C19.5016 10.0905 19.7641 9.74926 20.1972 9.51301C20.5253 9.34238 20.9978 8.94863 21.2078 8.48926C21.2472 8.39738 21.3653 8.25301 21.431 8.22676C22.3103 7.89863 22.7172 7.03238 23.426 6.52051C24.1085 6.00863 24.7778 5.50988 25.5128 5.11613C26.2478 4.72238 26.9828 4.32863 27.7047 3.89551C27.9935 3.68551 28.4397 3.63301 28.571 3.29176C28.9122 3.35738 29.0566 3.17363 29.3191 2.95051C29.5947 2.71426 30.1197 2.45176 30.4347 2.42551C30.8678 2.37301 31.2222 2.21551 31.6028 2.08426L32.8103 1.65113C33.6503 1.33613 34.5297 1.12613 35.4091 0.942382C36.2885 0.745507 37.1547 0.509257 38.0472 0.443632C38.4016 0.404257 38.7428 0.443632 39.0972 0.430507C39.4516 0.430507 39.806 0.246757 40.1603 0.404257C40.2916 0.456757 40.6328 0.364882 40.8953 0.364882C41.7747 0.325507 42.7328 0.404257 43.5203 0.194257C44.3078 0.0105073 45.1347 0.299257 45.8828 0.0236323C46.0928 -0.0419927 46.4603 0.0498823 46.7622 0.0498823C47.9697 0.0761323 49.1247 0.561757 50.3453 0.404257C50.726 0.679882 51.2247 0.784882 51.6972 0.889882C52.0516 0.968632 52.406 1.17863 52.7603 1.03426C52.7997 1.02113 52.9178 1.04738 52.9966 1.07363C53.4035 1.23113 53.7316 1.46738 54.191 1.59863C54.5716 1.70363 54.926 1.67738 55.346 1.83488C56.8685 2.33363 58.1285 3.33113 59.6116 3.90863C59.9003 4.28926 60.3335 4.52551 60.7535 4.77488C61.4753 5.24738 62.3285 5.43113 62.9978 6.03488C63.641 6.58613 64.3366 7.15051 65.0322 7.55738C66.161 8.34488 67.1847 9.28988 68.0903 10.3136C68.3397 10.563 68.6678 10.8124 68.7072 11.193C68.7072 11.2849 68.996 11.5474 69.1141 11.5868C69.3766 11.6655 69.4816 11.9149 69.6522 12.0593C70.1378 12.4661 70.046 13.293 70.7547 13.5293C71.1747 14.0674 71.5685 14.6186 71.9097 15.2224L72.9728 16.968C73.1435 17.2436 73.2878 17.5061 73.3141 17.8736C73.3141 18.123 73.5372 18.5955 73.7078 18.753C74.1278 19.1336 74.2853 19.6455 74.5085 20.118C75.0466 21.6011 75.6766 23.058 75.9916 24.6068C76.136 25.2761 76.2672 25.9586 76.3328 26.6411C76.3853 27.3368 76.6478 28.0324 76.556 28.728C76.556 28.7805 76.556 28.8461 76.5822 28.8986C76.6478 29.1611 76.7791 29.4368 76.7791 29.6993C76.7791 30.0536 76.6216 30.5261 76.7135 30.723C76.8972 31.1036 76.7266 31.3793 76.7266 31.6811C76.7266 32.5474 76.3328 33.0724 75.821 32.9805C75.7028 32.9543 75.5847 32.8624 75.4928 32.7443C74.9153 32.0093 74.9416 32.0093 74.8497 30.828C74.8235 30.4605 74.8235 30.0799 74.8103 29.7124L74.7185 28.6099C74.6528 27.8749 74.6266 27.1136 74.4035 26.3918C74.4166 25.3811 74.0097 24.3968 73.7735 23.4124C73.4585 22.4149 73.3403 21.2993 72.776 20.4068C72.1722 19.5536 71.8047 18.6086 71.306 17.7161C70.9122 17.0599 70.5972 16.338 70.2166 15.6555C69.8097 14.9468 69.2191 14.3693 68.8122 13.6736C68.5497 13.2536 68.3922 12.7024 67.9853 12.4399C67.106 11.8493 66.6072 10.8911 65.7803 10.3136C64.6516 9.49988 63.7066 8.46301 62.5122 7.78051C61.8822 7.38676 61.2785 6.99301 60.6485 6.62551C60.3597 6.45488 60.0841 6.28426 59.8347 6.00863C59.5722 5.73301 59.126 5.41801 58.6403 5.35238C58.4435 5.32613 58.1285 5.23426 58.0103 5.11613C57.5116 4.61738 56.816 4.39426 56.186 4.09238C55.7791 3.92176 55.3853 3.56738 55.1097 3.55426C54.6372 3.55426 54.2828 3.34426 53.8891 3.21301C53.6003 3.13426 53.2722 3.06863 53.0753 2.80613C53.0228 2.74051 52.7472 2.64863 52.6422 2.67488C52.091 2.80613 51.566 2.53051 51.0541 2.41238L50.1091 2.18926L49.151 2.04488L47.2347 1.74301C46.1716 1.63801 45.1347 1.88738 44.0716 1.71676C43.4285 1.95301 42.7066 1.91363 42.011 1.93988C41.486 1.96613 40.9478 1.88738 40.4228 1.90051C39.8978 1.92676 39.386 2.05801 38.8216 2.03176C38.1128 1.99238 37.3122 2.22863 36.5772 2.42551C36.1703 2.51738 35.7635 2.76676 35.3303 2.62238C35.2778 2.60926 35.081 2.66176 35.0285 2.70113C34.556 3.05551 33.9128 3.25238 33.4141 3.31801C32.6135 3.44926 31.9047 3.73801 31.1828 4.03988L29.4241 4.87988C28.991 5.06363 28.6103 5.31301 28.151 5.48363C27.7835 5.60176 27.4422 5.98238 27.0616 6.23176C26.6941 6.48113 26.2872 6.67801 25.9328 6.95363L24.7647 7.83301C24.3841 8.12176 23.9772 8.41051 23.6097 8.71238C23.216 9.06676 22.8485 9.43426 22.4416 9.77551C22.061 10.0905 21.6147 10.3399 21.2603 10.6811C20.3153 11.718 19.5278 12.8468 18.6616 13.9361C18.5828 14.3561 18.2547 14.5661 17.9922 14.8549C17.7428 15.1174 17.4278 15.4193 17.4147 15.8524C17.4147 15.9705 17.2966 16.128 17.231 16.2593C17.0866 16.5611 16.7716 16.7186 16.6797 17.1255C16.6141 17.4143 16.3122 17.7293 16.1416 18.0574C15.9972 18.4118 15.6953 18.7399 15.761 19.1205C15.1572 19.5668 15.3672 20.3674 14.9472 20.8924C14.8291 21.063 14.7372 21.273 14.6191 21.4699C14.5666 21.5618 14.4747 21.6668 14.4616 21.7586C14.0941 23.5043 13.4247 25.158 13.1097 26.9036C13.0835 27.1268 13.1228 27.3368 13.1228 27.5599C13.1228 27.6649 13.1228 27.783 13.0835 27.8749C12.8078 28.8068 12.8078 28.8068 12.8078 29.7124C12.8078 29.9355 12.7947 30.1849 12.7816 30.4211C12.7816 31.0249 12.7028 31.6286 12.8078 32.2586C12.8997 32.8886 12.6766 33.5711 12.5978 34.2274C12.5191 34.818 12.4403 35.3955 12.4797 36.0386C12.7422 37.6268 12.8866 39.2411 13.346 40.7899C13.3985 40.9868 13.4116 41.2624 13.5035 41.3543C13.8841 41.7349 14.1072 42.0761 13.8578 42.6143C13.8578 42.6405 13.8972 42.798 13.9366 42.8243C14.3435 43.113 14.3828 43.6249 14.5272 44.058C14.6716 44.4649 14.816 44.8586 14.9997 45.2393L15.6297 46.3418C16.0366 47.0768 16.4435 47.8118 16.8503 48.5599C16.9816 48.7961 17.231 49.0849 17.231 49.2686C17.2441 49.6624 17.5985 49.6361 17.6903 49.9249C17.7691 50.1743 18.0447 50.4236 18.1235 50.6205C18.3466 51.3818 18.9241 52.0118 19.4228 52.5236C19.8691 53.0093 20.4597 53.4161 20.7747 53.928C21.1028 54.4136 21.4572 54.8993 21.8903 55.293L23.1897 56.4743C24.0297 57.3405 25.0797 57.9705 26.0247 58.7055C26.4053 59.0074 26.8253 59.3355 27.3372 59.3749C27.4422 59.3749 27.6128 59.5193 27.7441 59.6111C28.0328 59.8343 28.2953 60.1099 28.6103 60.3068C28.9122 60.5168 29.306 60.5561 29.6472 60.6874C29.9228 60.7924 30.1722 60.9368 30.5003 60.9499C30.7366 60.9499 31.0647 61.1993 31.3272 61.4749C31.8522 62.0261 32.4691 62.4724 33.3353 62.7611L34.4772 63.1549L35.6585 63.4568C35.9866 63.5355 36.2885 63.6405 36.6691 63.6011C37.0103 63.5749 37.5222 63.7718 37.9028 63.8899C38.4935 64.113 39.071 64.218 39.6878 64.1655C39.8978 64.1524 40.1472 64.1786 40.3835 64.218C41.0791 64.2836 41.7878 64.2968 42.4966 64.3361C43.2053 64.3755 43.901 64.428 44.6097 64.3624C44.951 64.3493 45.3053 64.2836 45.5941 64.4543C45.8041 64.2311 46.1585 64.2836 46.4603 64.2836C46.9197 64.3099 47.366 64.323 47.8253 64.2836C48.3635 64.218 48.8885 64.1261 49.3872 63.9161C49.8597 63.7455 50.4766 63.8111 50.9622 63.483C51.0541 63.4305 51.2772 63.483 51.4216 63.4436C51.9991 63.2468 52.7078 63.2861 53.1541 62.8399C53.1935 62.8005 53.3116 62.7611 53.3772 62.7611C54.1253 62.8005 54.716 62.3543 55.3328 62.0393C56.0153 61.7374 56.7241 61.6061 57.3935 61.2911C58.1547 60.9236 58.9028 60.4643 59.6378 60.123C60.281 59.8474 60.8978 59.5193 61.4753 59.1518L63.1422 57.9049C63.7328 57.5111 64.2578 57.0386 64.7828 56.553C65.2947 56.0674 65.846 55.6211 66.3185 55.083C66.7253 54.6236 67.0535 54.0986 67.4472 53.6261C67.9066 53.1274 68.3266 52.5893 68.7335 52.0249L69.8885 50.4761C70.046 50.2136 70.151 49.8855 70.4397 49.7674C70.5053 49.7411 70.6103 49.5836 70.6235 49.5049C70.7416 48.9274 71.0172 48.4811 71.4766 48.0874C71.6078 47.9693 71.6603 47.733 71.7653 47.5755C72.0672 47.1293 72.1066 46.6436 72.2641 46.1711C72.3953 45.738 72.8416 45.3705 72.6972 44.8718C72.6841 44.8061 72.7497 44.5961 72.8153 44.5436C73.5503 43.8611 73.2222 42.6405 73.8653 41.9186C73.6947 41.4986 74.0885 41.223 74.1147 40.9343C74.1541 40.5143 74.1935 40.1205 74.2985 39.7136C74.4166 39.333 74.4822 38.9261 74.5216 38.5324C74.6003 37.8105 74.8366 37.0886 74.7185 36.3405C74.6922 36.0911 74.6397 35.6318 74.876 35.3561C74.9153 35.3036 74.9153 35.1461 74.9153 35.0411C74.876 34.2405 75.1647 33.2693 75.5585 33.0724C75.7947 32.9543 76.0703 32.9674 76.3066 33.0724C76.4247 33.1249 76.4772 33.4793 76.556 33.7155C76.6872 34.1224 76.871 34.5161 76.9103 34.9624C76.9366 35.4874 76.9103 36.0649 76.8053 36.7474L76.8185 36.7211Z" fill="#272D35"/>
<path d="M43.7723 56.51C56.7655 56.51 67.2986 45.9769 67.2986 32.9838C67.2986 19.9906 56.7655 9.45752 43.7723 9.45752C30.7791 9.45752 20.2461 19.9906 20.2461 32.9838C20.2461 45.9769 30.7791 56.51 43.7723 56.51Z" fill="#F8F5F2"/>
<path d="M68.011 35.7334C67.988 36.5387 67.6084 37.3325 67.4473 38.2184C67.2517 39.0927 67.0792 39.99 66.7225 40.8183C66.5615 41.244 66.4579 41.6696 66.3889 42.1068C66.3429 42.5555 65.9172 42.9006 65.9747 43.3838C65.9747 43.4298 65.9287 43.4988 65.8942 43.5563C65.4571 44.5687 64.9279 45.5696 64.2606 46.4209C63.8695 46.9156 63.4668 47.3758 63.1102 47.8704C62.7536 48.3766 62.3624 48.8368 61.9252 49.2625C60.8323 50.9881 59.0722 52.1155 57.4846 53.3235C56.9554 53.6686 56.4377 54.0482 55.7935 54.2208C55.2643 54.3934 54.7581 54.8765 54.1369 54.8996C54.0908 54.8996 54.0103 55.0031 53.9413 55.0491C53.7687 55.1642 53.6077 55.3137 53.4236 55.3827C52.2962 55.6703 52.2962 55.6473 51.4449 56.1075C51.3413 56.165 51.1803 56.1075 51.0537 56.142C50.536 56.2686 50.0183 56.3721 49.5236 56.5332C49.0635 56.6827 48.5573 56.6597 48.1546 56.9473C48.0626 57.0163 47.8555 57.0048 47.706 57.0278L46.2219 57.2464C45.6467 57.3039 45.0715 57.2119 44.5193 57.4535C44.2777 57.557 43.9211 57.3385 43.7715 57.3845C43.5069 57.465 43.2538 57.4765 42.9892 57.4535C42.7246 57.419 42.483 57.3155 42.2299 57.2924C42.0114 57.2809 41.7698 57.3845 41.5512 57.373C40.9875 57.35 40.4008 57.1314 39.8716 57.1774C39.2963 57.2119 38.7786 57.1199 38.2495 56.9703C37.6972 56.8438 37.145 56.6712 36.5928 56.5562C36.1672 56.4411 35.8336 56.1995 35.4654 56.004C35.0973 55.8084 34.6026 55.8084 34.3495 55.4518C34.338 55.4403 34.292 55.4287 34.269 55.4172L32.0486 54.1748L30.185 53.0244L28.4248 51.7129C28.1142 51.4368 27.7345 51.2067 27.5965 50.7925C27.562 50.712 27.3894 50.6315 27.3319 50.5394C27.1248 50.1828 26.5956 50.2633 26.4691 49.8377C26.354 49.4695 26.0434 49.2625 25.8133 48.9864C25.5717 48.6642 25.2496 48.4111 25.031 48.066C24.87 47.8359 24.6974 47.6634 24.4673 47.5368C24.4673 47.1457 24.0877 46.8926 23.9611 46.5475C23.8691 46.3174 23.7656 45.9607 23.6045 45.8572C23.2594 45.6271 23.1328 45.2475 22.9143 44.9369C22.5691 44.4767 22.4196 43.9245 22.0169 43.4873C21.8444 43.3033 21.7523 42.9926 21.6488 42.7395C21.5452 42.498 21.5337 42.2334 21.4647 41.9918C21.3152 41.5431 21.1541 41.1059 20.8665 40.7033C20.6019 40.3582 20.6824 39.806 20.3488 39.4723C20.3028 39.4263 20.2798 39.2883 20.2798 39.2077C20.2683 38.7476 20.2223 38.3449 19.9577 37.8847C19.7736 37.5051 19.7966 36.9759 19.7161 36.5157C19.647 36.021 19.486 35.5264 19.5435 35.0317C19.5665 34.7211 19.2329 34.583 19.417 34.2034C19.5205 33.9963 19.44 33.6167 19.44 33.306C19.417 32.9954 19.394 32.6618 19.463 32.3742C19.6585 31.6034 19.647 30.8211 19.7621 30.0503C19.8771 29.2795 19.9231 28.4858 20.1532 27.738C20.3488 27.1167 20.3373 26.3805 20.763 25.8628C20.6939 25.3566 21.0851 24.8849 21.0966 24.4132C21.0966 24.1141 21.2001 23.884 21.2922 23.6425C21.6258 22.8487 22.0284 22.0894 22.3966 21.3071C22.8567 20.5823 23.2709 19.823 23.7426 19.1098C24.4098 18.1894 25.008 17.2231 25.7788 16.3833C25.9859 16.1417 26.1815 15.8886 26.5151 15.7275C26.7682 15.6125 27.1133 15.3249 27.2514 14.9682C27.2744 14.8992 27.3549 14.7842 27.4124 14.7727C28.0912 14.5656 28.3558 13.8983 28.8735 13.5187C29.3682 13.1506 29.8628 12.7824 30.415 12.4948C30.9672 12.2072 31.5079 11.9311 32.0256 11.609C32.2442 11.4594 32.5778 11.4364 32.6584 11.1488C32.923 11.2178 33.015 11.0798 33.2106 10.8957C33.4062 10.7117 33.7858 10.5161 34.0389 10.5046C34.361 10.4816 34.6141 10.355 34.9017 10.263C35.2008 10.1709 35.4884 10.0444 35.7875 9.94086C36.4088 9.71078 37.053 9.56122 37.6972 9.42317C38.3415 9.28512 38.9742 9.11256 39.63 9.06654C39.8831 9.04353 40.1477 9.07804 40.4008 9.06654C40.6538 9.06654 40.9184 8.92849 41.183 9.06654C41.2751 9.11256 41.5282 9.04353 41.7122 9.03203C42.3565 8.99751 43.0582 9.07804 43.6335 8.90548C44.2087 8.75592 44.8184 8.98601 45.3706 8.74442C45.5202 8.6754 45.7963 8.76743 46.0148 8.76743C46.9007 8.76743 47.7405 9.17008 48.6493 9.00902C48.9254 9.2391 49.282 9.30813 49.6387 9.38866C49.8918 9.44618 50.1564 9.61874 50.421 9.46919C50.4555 9.45769 50.536 9.46919 50.5935 9.4922C50.8926 9.61874 51.1227 9.80281 51.4679 9.90635C51.7555 9.97538 52.0201 9.94086 52.3192 10.0559C53.4351 10.424 54.3439 11.1948 55.4368 11.5975C55.6324 11.9081 55.9545 12.0692 56.2536 12.2532C56.7828 12.5984 57.4271 12.7019 57.9103 13.1621C58.3704 13.5762 58.8766 13.9904 59.3943 14.278C60.2456 14.8302 60.9819 15.5319 61.6491 16.2797C61.8332 16.4638 62.0748 16.6364 62.0978 16.9355C62.0978 17.0045 62.3049 17.2001 62.3969 17.2231C62.604 17.2691 62.673 17.4532 62.7996 17.5567C63.1792 17.8443 63.0412 18.5 63.6049 18.6381C63.9155 19.0292 64.2031 19.4434 64.4447 19.8806L65.2155 21.169C65.342 21.3646 65.4571 21.5602 65.4571 21.8363C65.4571 22.0203 65.5951 22.3655 65.7447 22.4805C66.0783 22.7451 66.1818 23.1248 66.3429 23.4699C66.7455 24.5513 67.2057 25.6212 67.4243 26.7601C67.5278 27.2548 67.6199 27.7495 67.6544 28.2557C67.6889 28.7619 67.896 29.268 67.8039 29.7857C67.8039 29.8202 67.8039 29.8778 67.8269 29.9123C67.8845 30.1079 67.9765 30.3034 67.988 30.499C67.988 30.7636 67.8384 31.1087 67.919 31.2468C68.0685 31.5229 67.919 31.73 67.919 31.9485C67.9075 32.5813 67.5623 32.9724 67.1252 32.9034C67.0216 32.8919 66.9181 32.8114 66.8376 32.7308C66.3314 32.2016 66.3544 32.2016 66.2854 31.3503C66.2624 30.8096 66.2509 30.2804 66.2048 29.7397C66.1703 29.199 66.1588 28.6583 65.9863 28.1406C66.0438 27.4043 65.7217 26.6911 65.5491 25.9778C65.3305 25.253 65.273 24.4247 64.8473 23.792C64.3872 23.1823 64.1226 22.492 63.7659 21.8478C63.4783 21.3646 63.2712 20.8354 62.9951 20.3407C62.7075 19.823 62.2589 19.4089 61.9828 18.9027C61.7987 18.5921 61.7067 18.1779 61.396 17.9939C60.7288 17.5912 60.3837 16.8779 59.7739 16.4638C58.9341 15.8886 58.2669 15.1293 57.3811 14.6461C56.9209 14.37 56.4722 14.1054 56.012 13.8293C55.805 13.7028 55.6094 13.5877 55.4253 13.3691C55.2413 13.1506 54.9191 12.932 54.5625 12.8975C54.413 12.8975 54.1829 12.8284 54.1023 12.7364C53.7572 12.3453 53.251 12.1957 52.7909 11.9771C52.5032 11.8506 52.2271 11.563 52.0201 11.5745C51.6749 11.586 51.4103 11.4364 51.1227 11.3444C50.9157 11.2869 50.6741 11.2524 50.536 11.0338C50.5015 10.9762 50.2944 10.9072 50.2254 10.9302C49.8112 11.0568 49.4431 10.8497 49.0635 10.7577C48.1661 10.4931 47.2228 10.4586 46.3024 10.2745C45.5317 10.194 44.7724 10.424 44.0131 10.2745C43.5414 10.4931 43.0237 10.4471 42.529 10.4586C42.1494 10.4816 41.7583 10.401 41.3786 10.401C40.999 10.4125 40.6308 10.5161 40.2167 10.4701C39.699 10.424 39.1238 10.6081 38.5946 10.7462C38.2955 10.8152 38.0079 11.0108 37.6857 10.8727C37.6397 10.8497 37.5017 10.8957 37.4672 10.9302C37.145 11.2293 36.6619 11.3559 36.3052 11.3904C35.7185 11.4594 35.2008 11.678 34.6831 11.8966L33.4062 12.5063C33.0955 12.6329 32.8194 12.8284 32.4743 12.932C32.2097 13.0125 31.9566 13.3001 31.692 13.4842C31.4274 13.6682 31.1283 13.8063 30.8752 14.0019L30.0239 14.6346C29.7478 14.8532 29.4487 15.0488 29.1841 15.2788C28.8965 15.5319 28.6319 15.808 28.3328 16.0496C28.0567 16.2797 27.7115 16.4408 27.4584 16.6939C26.7682 17.4416 26.2275 18.293 25.5948 19.0753C25.5602 19.3974 25.3071 19.5354 25.1116 19.7425C24.9275 19.9266 24.6859 20.1452 24.6974 20.4673C24.6974 20.5593 24.6169 20.6743 24.5709 20.7664C24.4673 20.985 24.2142 21.0885 24.1682 21.3991C24.1337 21.6177 23.9036 21.8363 23.7886 22.0779C23.685 22.331 23.4435 22.5611 23.5355 22.8602C23.0523 23.1593 23.2709 23.769 22.9488 24.1486C22.8567 24.2752 22.7877 24.4247 22.6957 24.5628C22.6497 24.6318 22.5921 24.7008 22.5806 24.7699C22.3621 26.0468 21.8329 27.2318 21.6258 28.5088C21.6143 28.6698 21.6488 28.8309 21.6603 28.9919C21.6603 29.0725 21.6603 29.153 21.6373 29.222C21.4187 29.8893 21.4187 29.9008 21.4417 30.5565C21.4417 30.7176 21.4302 30.9016 21.4302 31.0742C21.4302 31.5114 21.3612 31.9485 21.4762 32.3972C21.5683 32.8459 21.3612 33.3406 21.2922 33.8237C21.2231 34.2494 21.1426 34.675 21.1771 35.1352C21.3727 36.2856 21.4762 37.4591 21.8098 38.575C21.8444 38.713 21.8559 38.9201 21.9249 38.9891C22.2355 39.2537 22.4311 39.4953 22.178 39.9095C22.1665 39.9325 22.2125 40.0475 22.2355 40.059C22.5691 40.2546 22.5806 40.6343 22.6842 40.9449C22.7877 41.2325 22.8912 41.5201 23.0293 41.7962L23.4895 42.59C23.8001 43.1077 24.0762 43.6484 24.3753 44.1891C24.4673 44.3616 24.6514 44.5687 24.6514 44.7068C24.6399 45.0059 24.9275 44.9599 24.985 45.1784C25.031 45.3625 25.2496 45.5351 25.2956 45.6846C25.4222 46.2598 25.8478 46.7085 26.216 47.0766C26.5496 47.4218 26.9868 47.6979 27.2054 48.089C27.631 48.8483 28.3213 49.3775 28.9425 49.9527C29.5522 50.5855 30.3115 51.0341 30.9903 51.5633C31.2664 51.7819 31.5655 52.035 31.9566 52.035C32.0371 52.035 32.1637 52.1385 32.2442 52.2076C32.4513 52.3801 32.6354 52.5872 32.8655 52.7252C33.084 52.8748 33.3831 52.8863 33.6362 52.9783C33.8433 53.0474 34.0159 53.1624 34.2575 53.1509C34.4415 53.1509 34.6601 53.335 34.8442 53.542C35.2008 53.9792 35.638 54.3358 36.2707 54.5429C36.8229 54.727 37.3751 54.9226 37.9618 55.0491C38.2034 55.1066 38.422 55.1757 38.6981 55.1411C38.9512 55.1066 39.3193 55.2562 39.5955 55.3482C40.0211 55.5323 40.4353 55.6013 40.8954 55.5438C41.0565 55.5208 41.2291 55.5438 41.4016 55.5783C41.9078 55.6243 42.4255 55.6358 42.9317 55.6703C43.4379 55.6933 43.9556 55.7394 44.4618 55.6934C44.7033 55.6818 44.9679 55.6243 45.175 55.7739C45.3246 55.5783 45.5892 55.6243 45.8078 55.6243C46.1414 55.6473 46.4635 55.6703 46.7971 55.6243C47.1883 55.5783 47.5679 55.5093 47.936 55.3367C48.2697 55.1872 48.7298 55.2677 49.075 55.0031C49.1325 54.9571 49.3166 55.0261 49.4086 54.9916C49.8228 54.842 50.3404 54.8996 50.6626 54.5314C50.6856 54.4969 50.7776 54.4624 50.8236 54.4739C51.3873 54.5544 51.8015 54.1863 52.2386 53.9447C52.7333 53.7146 53.251 53.6571 53.7457 53.427C54.2979 53.1624 54.8386 52.8173 55.3793 52.5872C55.851 52.4031 56.2997 52.1615 56.7253 51.8969L57.9333 50.9881C58.3589 50.7005 58.7501 50.3554 59.1297 50.0102C59.4978 49.6536 59.9005 49.3315 60.2456 48.9403C60.5447 48.6067 60.7748 48.2156 61.0509 47.8704C61.3845 47.5023 61.6952 47.1112 61.9828 46.7085L62.8226 45.5811C62.9376 45.397 63.0066 45.1439 63.2367 45.0749C63.2827 45.0634 63.3633 44.9484 63.3748 44.8908C63.4323 44.4537 63.6394 44.1316 63.996 43.867C64.0996 43.7864 64.1226 43.6139 64.2031 43.4988C64.4332 43.1767 64.4332 42.8086 64.5482 42.4749C64.6403 42.1643 64.9854 41.8997 64.8358 41.5316C64.8128 41.4856 64.8703 41.336 64.9164 41.3015C65.5146 40.8298 65.1694 39.9095 65.6986 39.4033C65.5376 39.0812 65.8597 38.8971 65.8827 38.69C65.9057 38.3909 65.9172 38.0918 65.9978 37.7927C66.0898 37.5166 66.1358 37.229 66.1588 36.9414C66.2048 36.4122 66.4004 35.8945 66.2854 35.3538C66.2624 35.1697 66.2163 34.8361 66.4119 34.6405C66.4464 34.606 66.4464 34.491 66.4464 34.4104C66.4004 33.8237 66.642 33.1335 66.9986 32.9839C67.2057 32.8919 67.4473 32.9034 67.6544 32.9839C67.7579 33.0184 67.8039 33.283 67.873 33.4556C67.988 33.7547 68.1491 34.0423 68.1951 34.3759C68.2296 34.7671 68.1951 35.1927 68.1145 35.6874L68.011 35.7334Z" fill="#272D35"/>
<path d="M45.4224 27.0514V38H43.1389V29.2139H43.0784L40.5681 30.7867V28.7754L43.275 27.0514H45.4224Z" fill="#272D35"/>
</svg>
