<svg width="20" height="19" viewBox="0 0 20 19" fill="none" xmlns="http://www.w3.org/2000/svg">
<path d="M6.099 17.0862L1.00195 18L1.85146 12.8556L13.2858 1.50056C13.4438 1.34195 13.6317 1.21606 13.8387 1.13015C14.0458 1.04423 14.2678 1 14.4921 1C14.7164 1 14.9385 1.04423 15.1455 1.13015C15.3526 1.21606 15.5405 1.34195 15.6984 1.50056L17.4994 3.29435C17.6586 3.45167 17.785 3.63883 17.8713 3.84505C17.9575 4.05126 18.002 4.27245 18.002 4.49585C18.002 4.71924 17.9575 4.94043 17.8713 5.14665C17.785 5.35286 17.6586 5.54003 17.4994 5.69734L6.099 17.0862Z" stroke="#272D35" stroke-width="2" stroke-linecap="round" stroke-linejoin="round"/>
</svg>
