<svg width="110" height="123" viewBox="0 0 110 123" fill="none" xmlns="http://www.w3.org/2000/svg">
<g clip-path="url(#clip0_361_2096)">
<path d="M1.5598 30.3883C1.66041 31.8108 2.90302 32.9153 3.32605 34.3671C3.75964 35.8501 4.47345 37.238 5.23898 38.5737C5.60618 39.2468 5.87997 39.9516 6.00863 40.7403C6.16843 41.5185 7.09555 41.8976 6.87169 42.8753C6.86165 42.9481 6.96613 43.0514 7.02891 43.1341C8.10734 44.6758 9.05171 46.4363 10.5751 47.5497C12.2762 48.8801 13.6253 50.5034 15.326 51.73C17.4401 54.5851 20.8051 56.0101 23.8798 57.6029C24.818 58.1171 25.8084 58.6828 27.0037 58.6242C28.0221 58.5562 28.8801 59.6525 30.0421 59.1889C30.1355 59.1572 30.2716 59.3538 30.4072 59.4466C30.7096 59.6215 31.0125 59.9002 31.366 59.919C33.3934 59.9596 33.3623 59.9702 34.9042 60.6264C35.1021 60.698 35.3918 60.4263 35.6103 60.4562C36.4841 60.576 37.3991 60.6124 38.2836 60.7633C39.1057 60.9353 39.9664 60.5046 40.7083 61.2587C40.865 61.4136 41.218 61.3286 41.4882 61.3063L44.0455 61.2712C45.0228 61.2865 45.9774 60.928 46.9985 61.3794C47.4465 61.5742 47.9626 60.8442 48.2439 60.9569C48.7336 61.1723 49.1805 61.1594 49.6164 61.0116C50.0523 60.8637 50.4355 60.5603 50.8403 60.423C51.2244 60.3274 51.6518 60.5639 52.0466 60.4994C53.0023 60.3486 53.9453 59.7513 54.8709 59.8188C55.8899 59.8547 56.7301 59.4657 57.633 59.1594C58.5982 58.832 59.5312 58.3074 60.5682 57.7822C61.3978 57.3621 61.9346 56.5904 62.4819 55.8499C63.0398 55.1404 64.0868 54.5425 63.8943 53.4633C63.8838 53.4322 63.9561 53.3383 63.9767 53.2966C64.7378 51.6512 64.927 49.957 65.096 48.4084C65.3428 45.7582 65.1114 43.1315 64.4648 40.611C64.2638 39.9162 64.322 39.0641 63.4777 38.6222C63.311 38.54 63.3611 38.1762 63.215 38.0523C62.6821 37.5048 63.4674 36.5448 62.6754 36.1545C61.9978 35.7947 61.9737 35.1093 61.5969 34.6128C61.168 34.0647 60.9047 33.391 60.4447 32.8534C60.1413 32.4708 59.973 32.077 59.991 31.516C59.1488 31.4895 58.9679 30.6491 58.322 30.3827C57.9157 30.2084 57.3321 29.9208 57.2366 29.537C57.0663 28.7277 56.4616 28.3779 55.9397 27.9654C55.1878 27.284 54.2502 26.8738 53.6012 25.9841C53.329 25.5909 52.7459 25.4072 52.2462 25.2645C51.7881 25.1424 51.2789 25.1765 50.852 25.0438C49.9882 24.8513 49.2278 24.5543 48.4041 24.0707C47.6849 23.6904 46.6991 24.0594 45.9266 23.4197C45.8222 23.3165 45.5625 23.3698 45.4068 23.4227C44.535 23.7184 43.8501 23.9507 42.8095 23.7488C41.9662 23.5146 41.0854 24.0908 40.2342 24.3449C39.3835 24.7028 38.3866 24.9369 37.7037 25.5847C37.29 26.0025 36.4652 25.3112 36.2514 26.2161C36.1395 26.7049 35.4339 26.9789 35.0096 27.3656C34.5958 27.7834 34.0359 28.0774 33.7472 28.5568C32.3147 31.0889 30.3076 33.053 29.3432 35.6344C28.943 36.7065 27.9287 37.6055 28.3718 38.9118C27.5116 39.4464 27.7146 40.5567 27.0939 41.1834C26.7008 41.5596 26.6406 41.9962 26.5075 42.4228C25.742 45.2836 25.4134 48.2042 25.1677 51.0621C25.0107 52.9535 24.7292 54.8871 24.7596 56.819C24.7727 57.3694 24.713 57.9099 25.142 58.458C25.4559 58.8718 25.5429 59.6399 25.1301 60.2655C25.0372 60.401 24.976 60.6299 25.0699 60.7021C26.1247 61.6622 25.3198 62.8716 25.5123 63.9508C25.8138 66.0682 26.9355 67.942 27.5796 69.9432C27.7273 70.3786 28.1658 70.7501 27.7319 71.3134C28.3356 71.4555 28.202 71.7782 28.1629 72.277C28.1238 72.7758 28.4288 73.4701 28.8562 73.7066C29.4503 74.0253 29.5774 74.5024 29.8291 74.9373C30.1224 75.3927 30.3329 75.9109 30.6574 76.3557C31.9353 78.2806 33.524 79.996 35.2261 81.5342C35.5707 81.8335 36.0287 81.9556 36.425 82.2027C36.8213 82.4498 37.0212 82.9368 37.6444 82.8295C37.8624 82.7556 38.1452 83.1799 38.3853 83.3759C39.2722 84.0461 40.3973 84.4969 41.0357 85.3554C41.6535 86.2557 42.8181 86.3115 43.3119 87.3578C43.4486 87.6583 43.9478 87.6971 44.2918 87.8925C45.6057 88.6954 47.2584 88.655 48.377 89.9056C49.0615 89.5694 49.614 89.8675 50.2076 90.0823C50.6345 90.215 51.2055 90.056 51.427 90.7091C51.4481 90.7713 51.6043 90.8224 51.7083 90.8218C52.2592 90.8084 52.8091 90.5872 53.3922 90.7709C53.8713 90.9552 54.2164 91.3583 54.7678 91.4487C56.7651 91.7077 58.7383 91.2811 60.7044 91.5506C61.2533 91.1217 61.8776 91.222 62.4596 91.198C63.5303 91.1816 64.5413 91.7057 65.6422 91.4711C66.6913 91.2886 67.771 90.9917 68.7699 91.1731C70.5281 91.4438 72.1572 90.8218 73.809 90.5737C74.2348 90.4986 74.7551 90.5995 75.0222 89.954C75.0734 89.798 75.5515 89.7745 75.7183 89.8567C76.0834 90.1143 76.3315 89.8221 76.6333 89.8931C77.4866 90.0545 77.7907 88.4947 78.7822 89.2682L81.1696 88.5278C81.948 88.2638 82.7264 87.9997 83.5359 87.7251C83.9096 87.5984 84.2837 87.5755 84.5307 87.0756C84.6954 86.7422 85.2659 86.4794 85.5888 86.6126C86.3698 86.8679 86.8875 86.4495 87.4685 86.2178C89.2533 85.543 91.017 84.806 92.7179 83.9863C93.4646 83.629 94.1169 83.0956 94.8215 82.6138C95.5365 82.1632 96.4616 82.1268 96.9878 81.3241C97.0395 81.2719 97.1124 81.2818 97.1746 81.2607C97.4965 81.1862 97.8812 81.1944 98.1404 81.0372C98.5135 80.8066 98.8117 80.1505 99.1135 80.2215C99.7172 80.3636 99.8186 79.8437 100.098 79.6447C100.979 79.0685 101.098 77.8837 100.448 76.7863C100.301 76.5586 100.051 76.3314 99.8317 76.1976C98.4033 75.3642 98.435 75.4576 97.0655 76.0261C95.333 76.7525 93.9993 78.2454 92.1929 78.7541C91.3669 79.9013 90.016 80.0127 88.9067 80.6317C87.7768 81.2925 86.7735 82.3264 85.4226 82.4378C84.1028 82.5387 82.993 83.0539 81.8204 83.4863C80.9174 83.7926 80.1406 84.3682 79.2587 84.7367C78.3458 85.1158 77.3379 85.2149 76.4565 85.6872C75.9172 85.9395 75.4005 86.5657 74.7968 86.4236C73.4544 86.1507 72.3356 86.9463 71.0876 86.8495C69.3614 86.776 67.7524 87.2524 66.0886 87.1578C65.1942 87.0797 64.3203 86.96 63.4369 87.0169C63.0316 87.0503 62.6675 87.0004 62.2116 87.2938C61.7556 87.5872 61.1213 87.5595 60.5994 87.147C60.3699 86.9821 60.0158 86.8594 59.819 86.9955C58.9899 87.5195 58.1256 87.2231 57.3245 87.1133C56.8148 87.0435 56.1414 87.5147 55.8697 87.2253C55.4101 86.7916 54.9114 86.8568 54.4117 86.7141C54.0682 86.6226 53.7136 86.396 53.2998 86.8138C53.1964 86.9183 52.8322 86.8684 52.7589 86.7545C52.3184 85.9675 51.5917 86.1794 50.9981 85.9645C49.5506 85.4844 48.1032 85.0043 46.7281 84.4303C45.5303 83.9696 44.8175 82.7894 43.6408 82.3909C43.3243 81.4578 42.4916 81.2547 41.8552 80.8116C41.365 80.4923 40.7402 80.2881 40.2189 79.9794C39.6664 79.6812 39.3003 79.2158 38.665 78.9805C37.8112 78.7152 37.4218 77.7721 36.7845 77.1213C36.4294 76.7909 36.4157 76.1365 35.6569 76.1512C35.5635 76.1829 35.4168 75.9552 35.4474 75.8407C35.5678 74.9675 35.0244 74.3889 34.4925 74.0491C33.606 73.4827 33.404 72.5801 32.9012 71.8143C32.534 71.1412 32.2914 70.4258 31.9553 69.7421C31.7137 69.2345 31.6694 68.6946 31.1993 68.2298C30.8648 67.8577 31.0174 67.1817 30.9214 66.694L30.5084 65.1694C30.3496 64.599 30.2325 64.0491 30.1049 63.4681C30.019 62.9077 29.8602 62.3373 29.8054 61.7663C29.7295 61.1331 29.6641 60.531 29.5154 59.8878C29.3877 59.3068 29.0939 58.7476 28.9974 58.156C28.8124 56.4847 29.459 54.8087 29.274 53.1374C29.75 52.6985 29.4567 52.2431 29.3713 51.7865C29.2964 51.3611 29.1793 50.8112 29.6764 50.4345C29.811 50.3194 29.7994 50.0806 29.8506 49.9245C29.9631 49.5395 29.5452 49.1264 29.9484 48.6775C30.2276 48.3747 30.0794 47.8354 30.1707 47.3882C30.3038 46.9616 30.041 46.3918 30.7155 46.1283C29.9831 45.1975 31.4882 44.7217 31.2762 43.8919C31.1918 43.6431 31.2319 43.352 31.2098 43.0821C31.1987 42.9471 31.1043 42.771 31.2077 42.6666C32.5504 40.8932 32.6541 38.7425 33.7994 37.0014C33.9335 36.7825 34.2032 36.6564 34.3895 36.4891C34.4723 36.4263 34.5652 36.2908 34.5958 36.1764C34.8398 35.0532 34.9231 35.0942 35.71 34.4458C35.938 34.2991 36.0304 34.0597 36.2061 33.8614C36.6716 33.3913 37.0015 32.8286 37.7176 32.5857C38.4654 32.4361 38.4708 31.4285 38.8835 30.8029C39.2029 30.2091 39.6056 29.6563 40.2278 29.3412C41.7835 28.6054 43.4548 28.1078 45.1282 28.0258C45.3361 28.0246 45.6264 27.8568 45.7519 28.0223C46.2331 28.6221 46.527 29.1813 47.135 28.1081C47.1556 28.0664 47.3324 28.0758 47.364 28.1691C47.669 28.8633 48.2088 28.7149 48.6563 28.8059C50.4156 29.2843 51.608 30.7526 53.1615 31.6476C53.4427 31.7603 53.5904 32.1957 53.8812 32.1318C54.4733 32.035 54.0816 32.7227 54.4252 32.8143C54.727 32.8853 54.7918 33.3836 55.0831 33.4235C56.196 33.5315 56.6165 34.464 56.8803 35.2416C57.154 35.9464 57.2621 36.7768 57.8568 37.1994C58.901 38.1284 59.2402 39.4353 59.6933 40.6688C60.1259 41.9441 60.4027 43.2721 60.4611 44.5702C60.4637 45.0895 60.8304 45.6588 60.2092 46.1816C60.0747 46.2966 60.1485 46.5143 60.1701 46.6804C60.2656 47.0642 60.4444 47.4891 60.4359 47.8735C60.3963 48.2684 60.086 48.5818 59.9213 48.9151C59.7978 49.1651 59.7888 49.4456 59.3946 49.614C59.1144 49.709 59.1993 50.0617 59.3364 50.4661C59.673 51.2536 59.8027 52.2501 59.0464 52.7841C58.3936 53.2136 57.6996 53.7264 56.8489 54.0844C56.4753 54.2111 56.1644 54.4206 55.6647 54.278C55.2067 54.1559 54.6573 54.4809 54.2536 54.826C53.6847 55.4005 52.9997 55.6328 52.2087 55.4503C51.9485 55.3998 51.6683 55.4948 51.3775 55.5588C49.7369 55.9419 48.1168 56.2833 46.4334 56.4382C46.0281 56.4716 45.5912 56.4117 45.313 56.9222C44.9986 56.4046 44.6149 56.6041 44.2513 56.6581C43.7215 56.7338 43.1927 57.0172 42.6523 57.0618C42.008 57.1069 41.3737 57.0793 40.7273 56.709C40.1643 56.3797 39.4181 56.8409 38.8334 56.3456C38.729 56.2423 38.4498 56.5451 38.2936 56.494C37.6065 56.3109 36.7353 56.7105 36.1697 55.8619C36.1486 55.7997 35.9612 55.7592 35.9095 55.8114C34.9458 56.4504 34.2351 55.6857 33.4848 55.316C32.6616 54.9363 31.7381 55.2842 30.8843 55.0189C29.9366 54.6814 29.0295 54.1567 28.0311 54.0792C26.2945 53.9747 24.9173 52.9852 23.4583 52.2662C21.9471 51.4956 20.5493 50.5478 19.255 49.4955C18.712 49.0207 18.2826 48.3687 17.7913 47.8417C17.2479 47.2631 16.5593 46.7683 16.0158 46.1897C15.4518 45.6527 14.95 45.0946 14.4171 44.547C14.1559 44.2888 14.081 43.8633 13.5095 43.9185C13.4161 43.9502 13.2177 43.7747 13.2172 43.6708C13.2025 42.8088 12.7741 42.3645 11.9931 42.1092C11.7952 42.0376 11.7209 41.716 11.533 41.5716C11.0112 41.159 11.0287 40.4941 10.8594 39.8926C10.68 39.3639 9.94073 39.1291 10.3007 38.348C10.3313 38.2336 10.2264 38.0265 10.1118 37.9959C8.54039 37.6619 9.69473 35.6403 8.25785 35.1913C8.66004 34.5347 7.82787 34.4355 7.78464 34.1033C7.71979 33.6051 7.68608 33.0963 7.49669 32.6403C7.34899 32.2049 7.12846 31.7594 7.04303 31.3029C6.831 30.4731 6.29706 29.7178 6.59374 28.7501C6.69616 28.4379 6.68303 27.8875 6.08939 27.6727C5.97489 27.6421 5.94272 27.445 5.97334 27.3305C5.95816 26.3646 5.20472 25.3716 4.19577 25.263C3.59261 25.2248 2.89656 25.3222 2.34667 25.5434C2.06645 25.6384 1.95452 26.1273 1.78983 26.4606C1.52222 27.0022 1.09893 27.5967 1.04978 28.1682C1.04284 28.8642 1.33721 29.5274 1.54925 30.3572L1.5598 30.3883Z" fill="#231815"/>
<path d="M81.6141 67.013C81.6056 67.3974 82.3618 66.8634 82.4568 67.1433C82.5517 67.4233 82.8641 67.5254 83.0831 67.6592C83.2082 67.7208 83.2403 67.918 83.1896 68.178C83.1389 68.4379 83.5844 68.1134 83.2756 68.7384C83.255 68.7801 83.2861 68.7695 83.2967 68.8006C83.5679 68.9861 83.6533 69.4426 84.1309 69.3153C84.6813 69.198 84.7979 69.644 85.2037 69.7144C85.1671 70.7326 86.0294 70.6135 86.4267 71.0683C86.5417 71.2027 86.595 71.4621 87.051 71.1687C87.4552 70.9275 87.147 71.6564 87.737 71.1441C87.7993 71.123 87.7064 71.2585 87.7169 71.2896C87.7174 71.3935 87.6456 71.5913 87.7391 71.5596C88.2478 71.4217 88.2789 71.4111 88.2709 71.8994C88.292 71.9616 88.4884 71.7216 88.5301 71.7421C88.6863 71.7932 88.8424 71.8443 88.9369 72.0203C88.9896 72.1758 89.3833 71.9036 89.0851 72.5596C89.0233 72.6846 89.1167 72.6529 89.1896 72.6629C89.3252 72.7556 89.4502 72.8173 89.5236 72.9311C89.6075 73.0761 89.9394 72.9288 89.724 73.5221C89.6316 73.7615 90.1283 73.2809 90.0665 73.4059C89.9536 73.687 89.9852 73.7803 90.0892 73.7797C90.1931 73.7791 90.4106 73.6013 90.4628 73.653C90.515 73.7046 90.3709 73.9963 90.4232 74.0479C90.5382 74.1823 90.8495 74.0767 90.7577 74.42C90.6764 74.7944 90.8637 74.8349 90.937 74.9487C91.0521 75.0831 91.2394 75.1236 91.3233 75.2686C91.3655 75.393 91.6557 75.2252 91.8531 75.1929C92.0399 75.1296 91.8552 75.6084 92.3829 75.1173C92.6742 75.1572 92.9861 75.1554 93.2051 75.2892C93.5908 75.5052 93.9042 75.8151 94.2693 76.0727C94.3633 76.1449 94.3437 76.3943 94.768 76.0076C94.8509 75.9448 94.7997 76.1009 94.8825 76.0381C95.1622 75.8392 94.5848 76.7981 94.9885 76.453C95.3406 76.1602 95.2899 76.4202 95.4044 76.4507C95.5189 76.4812 95.5922 76.5951 95.7173 76.6567C95.8006 76.6978 95.77 76.8122 95.6571 77.0933C96.1226 76.6233 95.9584 77.0605 96.2486 76.8926C96.4144 76.7671 96.6323 76.6932 96.5605 76.8909C96.3446 77.3803 96.5726 77.2336 96.6459 77.3475C96.7092 77.5341 96.9895 77.439 96.8464 77.9384C96.7852 78.1673 96.8991 78.0939 96.9614 78.0728C97.0237 78.0517 97.1994 77.8534 97.2723 77.8633C97.3657 77.8317 97.3973 77.925 97.1804 78.2066C96.9424 78.4261 97.5229 78.0905 96.9429 78.53C96.8495 78.5617 96.8806 78.5511 96.9429 78.53C97.2437 78.3933 97.4722 78.3504 97.0885 78.5499C96.7671 78.7283 97.0785 78.6227 97.1202 78.6432C97.1202 78.6432 97.0996 78.6849 97.1413 78.7054C97.1413 78.7054 97.1413 78.7054 97.2452 78.7049C97.3803 78.6937 96.2901 78.9595 96.965 78.7999C97.3286 78.7459 97.1418 78.8093 97.1418 78.8093C97.1418 78.8093 96.9861 78.8621 97.1629 78.8715C97.9328 78.9919 97.2162 79.1309 97.394 79.348C97.4367 79.5763 96.813 79.5798 97.5533 80.0223C96.9084 79.9636 97.3675 80.2934 96.9205 80.3063C96.6398 80.2975 96.6403 80.4014 96.6197 80.443C96.435 80.9219 96.3336 81.4418 96.1071 81.9001C95.963 82.1918 95.6421 82.474 95.4564 82.7451C95.4152 82.8285 95.3012 82.9018 95.6452 83.0972C95.8748 83.2622 95.8858 83.3971 95.3761 83.3273C95.2721 83.3279 95.1993 83.3179 95.2515 83.3695C96.0335 83.8326 95.0974 83.7339 95.0151 83.9006C94.8192 84.2445 95.2688 84.7509 95.073 85.0948C95.0318 85.1781 95.2613 85.343 94.6682 85.2321C95.1267 85.4581 94.8666 85.4076 94.6275 85.4193C94.3885 85.431 94.3162 85.5249 94.5769 85.6793C94.9209 85.8747 94.7652 85.9275 94.7657 86.0314C94.7974 86.1247 94.6834 86.198 94.6839 86.3019C94.686 86.7174 94.6463 87.1123 94.6901 87.5483C94.7112 87.6106 94.8679 87.7655 94.9724 87.8688C95.0457 87.9826 94.7544 87.9427 95.2235 88.1998C95.3903 88.2819 95.2657 88.3242 95.214 88.3764C95.1422 88.5742 95.3828 88.8741 94.9464 88.918C94.51 88.962 94.9379 89.3024 94.168 89.1821C93.9495 89.1521 94.1374 89.2965 94.0856 89.3487C93.8371 89.5371 94.3072 90.0019 93.465 89.9754C93.9029 90.2431 93.7784 90.2853 93.7061 90.3792C93.6544 90.4314 93.8945 90.6274 93.3325 90.5059C93.2596 90.496 93.2702 90.5271 93.2702 90.5271C93.3852 90.6614 93.6981 90.8674 93.5424 90.9202C93.4179 90.9625 93.0643 90.9437 93.0543 91.0165C92.9624 91.3598 93.4848 91.8762 93.1222 92.1379C93.5185 92.385 93.4045 92.4583 93.405 92.5622C93.3644 92.7494 92.7718 92.7423 92.8456 92.9601C92.9195 93.1778 92.9933 93.3955 92.6403 93.4806C92.0276 93.619 92.2582 93.9917 92.0618 94.2317C92.0101 94.2839 91.7816 94.3267 92.2818 94.5732C92.4069 94.6349 92.324 94.6977 92.1367 94.6572C91.8037 94.5967 91.981 94.71 91.8565 94.7522C91.4824 94.7751 92.7846 95.3391 91.744 95.1372L91.611 95.5638C91.611 95.5638 91.4981 95.8449 91.478 95.9904C91.4991 96.0526 91.3329 96.0743 91.6769 96.2698C91.8959 96.4036 91.8964 96.5074 91.6779 96.4775C91.137 96.4182 91.3043 96.6042 91.2631 96.6876C91.1296 97.0103 90.996 97.3331 90.9353 97.6658C90.9152 97.8113 91.0619 98.039 91.1252 98.2256C91.1885 98.4123 90.7832 98.4457 91.2006 98.755C91.1072 98.7867 90.9304 98.7773 90.9204 98.85C90.952 98.9433 91.3483 99.1904 91.1298 99.1605C90.7346 99.1211 91.1098 99.306 91.1414 99.3993C91.2153 99.617 92.1635 100.058 93.3297 100.426C93.6004 100.507 93.9022 100.578 94.0895 100.619C95.432 100.892 95.3797 100.84 95.5138 100.621C95.7202 100.309 95.0833 99.7616 95.477 99.4894C94.8823 99.0668 95.4016 98.96 95.3483 98.7006C95.2534 98.4207 94.8044 98.0181 95.2819 97.8908C95.7389 97.8051 95.7168 97.5352 95.7781 97.3063C95.8187 97.1191 95.6304 96.8709 95.6399 96.6943C95.6388 96.4865 95.8774 96.3709 95.7618 96.1327C95.7091 95.9771 95.3128 95.7301 95.6141 95.6972C96.2273 95.6626 95.8511 95.27 96.1936 95.1538C96.6918 94.9849 96.5235 94.5911 96.8966 94.3605C97.104 94.2554 97.3114 94.1504 97.3521 93.9632C97.3621 93.8904 97.4033 93.8071 97.1737 93.6422C96.9442 93.4773 96.9748 93.3629 97.3595 93.3711C97.5363 93.3805 97.6609 93.3382 97.5358 93.2766C97.0351 92.9263 97.3258 92.8623 97.3459 92.7168C97.3871 92.6334 96.9074 92.3453 97.157 92.3647C97.5523 92.404 97.4372 92.2696 97.5095 92.1757C97.5613 92.1235 97.7586 92.0912 97.3106 91.8964C97.1856 91.8347 97.1645 91.7725 97.2684 91.772C97.9238 91.8618 97.6732 91.6347 97.7038 91.5202C97.8585 91.2597 97.9298 90.9581 98.001 90.6564C98.0517 90.3965 98.7794 90.3924 98.6011 90.0714C99.2771 90.1195 99.0576 89.8819 99.1088 89.7258C99.1394 89.6113 98.9721 89.4253 98.8777 89.2492C98.825 89.0937 98.939 89.0204 98.7195 88.7827C98.4271 88.535 98.7802 88.45 98.7792 88.2422C98.7475 88.1489 99.1633 88.1466 98.5903 87.8901C98.5069 87.849 98.5586 87.7968 98.6315 87.8068C99.2868 87.8966 99.1819 87.6894 98.9729 87.4829C98.6284 87.1836 98.8669 87.068 98.8659 86.8602C98.8443 86.6941 98.9788 86.5791 98.9989 86.4336C98.9673 86.3403 99.1541 86.2769 98.9451 86.0703C98.7573 85.926 99.142 85.9342 99.2143 85.8403C99.2866 85.7464 99.2861 85.6426 99.3272 85.5592L99.4297 85.247L99.5321 84.9349C99.5321 84.9349 99.6661 84.716 99.6239 84.5916C99.5817 84.4671 99.3833 84.2917 99.4034 84.1461C99.433 83.824 100.202 83.7366 100.065 83.3322C100.543 83.4127 100.23 83.2067 100.188 83.0822C100.146 82.9578 99.9582 82.8135 100.468 82.8833C100.614 82.9033 100.592 82.8411 100.624 82.8305C100.717 82.7988 100.29 82.5623 100.643 82.5811C100.893 82.6005 100.694 82.425 100.777 82.3622C100.86 82.2994 100.547 82.0934 101.151 82.2355C100.348 81.8141 101.691 82.0871 101.357 81.8188C101.252 81.7156 101.231 81.6534 101.137 81.5812C101.127 81.5501 101.002 81.4884 101.064 81.4673C101.978 81.296 101.435 80.8212 101.848 80.2996C101.889 80.2162 102.097 80.2151 102.201 80.1106C102.263 80.0895 102.284 80.0478 102.262 79.9856C102.104 79.5191 102.084 79.5607 102.529 79.2362C102.643 79.1629 102.601 79.0385 102.673 78.9446C102.859 78.6735 102.785 78.4558 103.272 78.1518C103.79 77.8373 103.155 77.6019 102.884 77.4165C102.686 77.241 102.404 77.1283 102.528 76.8783L102.579 76.7222C102.182 76.3713 101.692 76.052 101.222 75.6911C101.17 75.6394 100.962 75.6406 101.066 75.5362C101.521 75.035 101.695 74.6289 100.659 75.258C100.597 75.2791 100.555 75.2586 100.607 75.2063C101.04 74.643 100.594 74.7597 100.417 74.6465C100.156 74.4921 99.9149 74.0884 99.7994 73.8501C99.7255 73.6324 99.6411 73.3836 99.4021 73.3953C99.3398 73.4164 99.3388 73.2087 99.1836 73.3653C98.8422 73.6893 99.2549 73.0637 99.1098 73.1476C98.9541 73.2004 99.0465 72.961 98.9119 73.076C98.3424 73.5466 98.3203 73.2767 98.3188 72.9651C98.3278 72.6846 98.3368 72.4041 98.0982 72.5196C97.5795 72.7303 97.5051 72.4087 97.255 72.2855C97.0049 72.1622 96.7754 71.9973 96.5976 71.7801C96.5036 71.708 96.2445 71.8652 96.5327 71.2819C96.5945 71.1569 96.5011 71.1886 96.4388 71.2097C96.3142 71.252 96.0863 71.3987 96.034 71.347C95.9818 71.2954 96.0325 71.0354 96.032 70.9315C96.0003 70.8382 95.938 70.8594 96.0716 70.5366C96.1745 70.3283 95.9982 70.4228 95.7291 70.6528C95.2114 71.0712 94.6625 71.5001 94.5575 71.293C94.4942 71.1063 94.2446 71.087 94.119 70.9215C94.0979 70.8593 93.9629 70.8704 94.0964 70.5476C94.2094 70.2666 94.012 70.2988 93.8357 70.3933C93.5143 70.5717 93.3998 70.5412 93.5017 70.1251C93.5323 70.0107 93.4801 69.959 93.4384 69.9385L92.6454 69.3404C92.6454 69.3404 92.5821 69.1538 92.2406 69.4777C92.5293 68.9983 92.353 69.0928 92.2802 69.0828C92.1657 69.0523 91.9377 69.199 91.8232 69.1685C91.6776 69.1485 91.6354 69.0241 91.7272 68.6808C91.8297 68.3686 91.4154 68.6825 91.5795 68.2453C91.6207 68.162 91.3827 68.3815 91.3616 68.3193C91.2983 68.1327 90.8946 68.4777 91.2445 67.7694C91.2651 67.7277 91.2234 67.7072 91.234 67.7383C90.6439 68.2506 90.8699 67.6884 90.8583 67.4496C90.8361 67.1796 90.339 67.5563 90.2034 67.4636C90.0572 67.3398 90.0557 67.0282 89.7132 67.1443C89.1528 67.3344 89.0573 66.9506 88.7655 66.8068C88.4737 66.6631 88.1919 66.4465 87.9724 66.2088C87.868 66.1055 87.9081 65.8145 87.8242 65.6695C87.7403 65.5246 87.5841 65.4735 87.4485 65.3808C87.3129 65.288 87.2084 65.1847 87.0834 65.1231C87 65.082 87.1029 64.8737 86.772 65.2287C86.6892 65.2915 86.6475 65.271 86.6786 65.2604C86.8945 64.771 86.7695 64.7094 86.3863 65.0128C86.2723 65.0861 86.3029 64.9717 86.2407 64.9928C86.0227 65.0667 86.2286 64.6501 86.207 64.484C86.1853 64.3179 85.8333 64.6107 86.1838 64.0063C86.225 63.923 86.1833 63.9024 86.1316 63.9547C85.2623 64.7697 86.2414 63.0504 85.4239 63.8132C85.7744 63.2088 85.2366 63.7727 85.2361 63.6688C85.2456 63.4922 85.2863 63.305 85.1923 63.2328C85.109 63.1917 85.0256 63.1506 84.9628 63.0679C84.8995 62.8813 84.5364 63.0391 84.7624 62.4769C84.8341 62.2792 84.8231 62.1442 84.4299 62.5203C84.347 62.5831 84.3365 62.552 84.3365 62.552C84.3144 62.2821 83.765 62.6072 83.1554 63.3688C82.7833 63.8072 82.3495 64.3705 82.0296 64.8605C81.8644 65.09 81.8032 65.3188 81.7314 65.5166C81.5773 65.881 81.3508 66.3393 81.3413 66.5159C81.3112 66.7342 81.5086 66.702 81.6442 66.7947L81.6141 67.013Z" fill="#231815"/>
</g>
<defs>
<clipPath id="clip0_361_2096">
<rect width="101.552" height="81.2419" fill="white" transform="matrix(0.321226 0.947003 0.947003 -0.321226 0 26.0967)"/>
</clipPath>
</defs>
</svg>
