<svg width="52" height="66" viewBox="0 0 52 66" fill="none" xmlns="http://www.w3.org/2000/svg">
<path d="M18.5 26.4001C18.5 30.5679 21.8584 34.0001 26 34.0001C30.1416 34.0001 33.5 30.5679 33.5 26.4001C33.5 22.2323 30.1416 18.8001 26 18.8001C21.8584 18.8001 18.5 22.2323 18.5 26.4001ZM26 7.6001C36.308 7.6001 44.5 15.6058 44.5 27.0601C44.5 30.6565 43.0189 34.9551 39.8435 39.9192C36.7851 44.7005 32.1976 50.0322 26 55.8541C19.8024 50.0322 15.2149 44.7005 12.1565 39.9192C8.98108 34.9551 7.5 30.6565 7.5 27.0601C7.5 15.6058 15.692 7.6001 26 7.6001Z" fill="#F8F5F2" stroke="#272D35" stroke-width="2"/>
<circle cx="26.5" cy="26.5" r="11.5" fill="#F8F5F2" stroke="#272D35" stroke-width="2"/>
<g clip-path="url(#clip0_361_2915)">
<path d="M32.2393 25.8085C32.2393 25.8085 32.2173 25.7741 32.2062 25.7569C32.2007 25.7455 32.1952 25.734 32.1842 25.734C32.1787 25.734 32.1676 25.734 32.1621 25.734C32.1952 25.734 32.2173 25.7111 32.2173 25.6824C32.2173 25.671 32.2338 25.6595 32.2173 25.6424C32.2117 25.6366 32.2228 25.6137 32.2283 25.6023C32.2283 25.5908 32.2228 25.5793 32.2173 25.5736C32.2173 25.5736 32.2173 25.5736 32.2173 25.5679C32.2283 25.5392 32.2173 25.5106 32.2173 25.482C32.2173 25.4533 32.2173 25.4247 32.2117 25.4018C32.2007 25.3388 32.1787 25.2815 32.1566 25.2242C32.1456 25.207 32.1456 25.1841 32.118 25.1726C32.107 25.1726 32.1015 25.1497 32.1015 25.1383C32.107 25.1211 32.1015 25.1096 32.0905 25.0982C32.0794 25.0753 32.0629 25.0523 32.0519 25.0294C32.0408 25.0065 32.0243 24.9836 32.0078 24.9607C31.9637 24.9607 31.9912 24.9149 31.9637 24.9034C31.9581 24.9034 31.9526 24.8862 31.9416 24.8862C31.9361 24.8862 31.9251 24.8748 31.9251 24.869C31.9306 24.8461 31.914 24.8404 31.9085 24.8289C31.8699 24.7888 31.8368 24.7488 31.7872 24.7258C31.7597 24.7144 31.7321 24.6915 31.71 24.6686C31.688 24.6399 31.6494 24.6456 31.6218 24.6285C31.6053 24.617 31.5888 24.6113 31.5832 24.5884C31.5226 24.5712 31.484 24.5196 31.4234 24.4967C31.4068 24.491 31.3903 24.4967 31.3737 24.4967C31.3572 24.4967 31.3462 24.4795 31.3296 24.4681C31.3296 24.4681 31.3241 24.4681 31.3186 24.4681C31.3021 24.4853 31.291 24.4681 31.2745 24.4681C31.258 24.4681 31.2359 24.4681 31.2249 24.4394C31.1753 24.4623 31.1312 24.428 31.0871 24.4337C31.076 24.4337 31.0595 24.428 31.054 24.4337C31.0264 24.4566 30.9933 24.4337 30.9658 24.4509C30.9382 24.4681 30.8996 24.4566 30.8665 24.4566C30.8555 24.4566 30.8445 24.4623 30.839 24.4566C30.8224 24.4394 30.8114 24.4566 30.8004 24.4509C30.7893 24.4509 30.7728 24.4452 30.7618 24.4452C30.7287 24.4452 30.6956 24.4566 30.6625 24.4623C30.6295 24.4681 30.5964 24.4738 30.5633 24.4853C30.5468 24.4853 30.5302 24.4967 30.5192 24.5024C30.5027 24.5024 30.4916 24.5139 30.4751 24.5082C30.4585 24.5082 30.442 24.5139 30.431 24.5311C30.42 24.5425 30.42 24.554 30.4034 24.5425C30.4034 24.5654 30.3869 24.5654 30.3758 24.5712C30.3207 24.6055 30.2546 24.6227 30.2049 24.6686C30.1774 24.6915 30.1774 24.7373 30.1278 24.7373C30.1278 24.7373 30.1222 24.743 30.1222 24.7488C30.1222 24.7717 30.1002 24.7888 30.0836 24.7946C30.0616 24.7946 30.0506 24.8118 30.0395 24.8289C30.001 24.8748 29.9734 24.9321 29.9348 24.9779C29.9127 25.018 29.8907 25.0581 29.8631 25.0982C29.8411 25.1383 29.8245 25.1841 29.808 25.2242C29.808 25.2356 29.797 25.2471 29.8025 25.27C29.808 25.2987 29.7804 25.3216 29.7915 25.3502C29.7584 25.3731 29.7639 25.419 29.7529 25.4476C29.7253 25.5278 29.7418 25.6137 29.7088 25.6996C29.7032 25.7168 29.7088 25.734 29.7088 25.7512C29.7088 25.7684 29.7143 25.7913 29.7088 25.797C29.6867 25.8199 29.7198 25.8257 29.7198 25.8428C29.7143 25.8715 29.7198 25.8944 29.7253 25.923C29.7253 25.9459 29.7253 25.9803 29.7363 25.9975C29.7584 26.0204 29.7584 26.0433 29.7529 26.072C29.7529 26.072 29.7529 26.0834 29.7529 26.0892C29.7804 26.1063 29.7694 26.135 29.7859 26.1522C29.808 26.1693 29.8135 26.1923 29.8245 26.2209C29.8245 26.2324 29.8245 26.2495 29.8245 26.261C29.8245 26.2782 29.83 26.2954 29.8466 26.3011C29.8741 26.3183 29.8797 26.3527 29.8962 26.3756C29.9072 26.3927 29.9127 26.4157 29.9348 26.4214C29.9458 26.4214 29.9513 26.4443 29.9513 26.4615C29.9513 26.4844 29.9789 26.4901 29.9679 26.5188C29.9844 26.5188 29.9954 26.5302 30.001 26.5417C30.012 26.5589 30.0285 26.5761 30.0395 26.5932C30.0506 26.6104 30.0671 26.6161 30.0726 26.6391C30.0726 26.6677 30.1112 26.6505 30.1222 26.6734C30.1222 26.6792 30.1333 26.6792 30.1333 26.6849C30.1333 26.7135 30.1553 26.725 30.1719 26.7364L30.2656 26.8052L30.3648 26.8682L30.4806 26.9427C30.4916 26.9713 30.5192 26.9656 30.5357 26.977C30.5523 26.9885 30.5688 27.0057 30.5909 27.0114C30.6184 27.0114 30.6515 27.0286 30.6791 27.0343C30.7066 27.04 30.7342 27.0458 30.7673 27.04C30.7949 27.0343 30.8279 27.0515 30.8555 27.0515C30.8665 27.0515 30.8776 27.04 30.8941 27.04C30.9051 27.04 30.9217 27.0515 30.9327 27.0515C30.9492 27.0515 30.9602 27.0515 30.9713 27.04C30.9768 27.04 30.9988 27.0572 31.0099 27.0515C31.0374 27.0286 31.0705 27.04 31.0981 27.0343C31.1256 27.0343 31.1477 27.0286 31.1753 27.0229C31.1808 27.0229 31.1973 27.0229 31.1973 27.0229C31.2139 26.9942 31.2414 27.0057 31.269 26.9942C31.2966 26.9828 31.3241 26.977 31.3462 26.9713C31.3517 26.9713 31.3627 26.977 31.3682 26.9713C31.4123 26.9427 31.4123 26.9427 31.473 26.9312C31.484 26.9312 31.4895 26.9197 31.5005 26.9083C31.5005 26.9083 31.5061 26.8968 31.5116 26.8968C31.5502 26.9083 31.5722 26.8682 31.5998 26.8682C31.6384 26.8682 31.6659 26.8453 31.688 26.8224C31.7707 26.7536 31.8699 26.7021 31.914 26.599C31.9637 26.5531 31.9912 26.4959 32.0408 26.45C32.0794 26.4099 32.107 26.3527 32.129 26.2954C32.129 26.2954 32.129 26.2896 32.129 26.2839C32.118 26.2553 32.1456 26.2381 32.1456 26.2094C32.1456 26.1808 32.1456 26.1579 32.1566 26.135C32.1732 26.0892 32.1842 26.0433 32.1952 25.9918C32.2007 25.9459 32.2338 25.9058 32.2338 25.86C32.2338 25.8314 32.2393 25.8085 32.2338 25.7913L32.2393 25.8085Z" fill="#272D35"/>
<path d="M23.464 25.7569C23.464 25.7569 23.453 25.734 23.442 25.734C23.4365 25.734 23.4255 25.734 23.4199 25.734C23.453 25.734 23.4751 25.7111 23.4751 25.6824C23.4751 25.671 23.4916 25.6595 23.4751 25.6424C23.4696 25.6366 23.4806 25.6137 23.4861 25.6023C23.4861 25.5908 23.4806 25.5793 23.4751 25.5736C23.4751 25.5736 23.4751 25.5736 23.4751 25.5679C23.4861 25.5392 23.4751 25.5106 23.4751 25.482C23.4751 25.4533 23.4751 25.4247 23.4696 25.4018C23.4585 25.3388 23.4365 25.2815 23.4144 25.2242C23.4034 25.207 23.4034 25.1841 23.3758 25.1726C23.3648 25.1726 23.3593 25.1497 23.3593 25.1383C23.3648 25.1211 23.3593 25.1096 23.3483 25.0982C23.3372 25.0753 23.3207 25.0523 23.3097 25.0294C23.2986 25.0065 23.2821 24.9836 23.2656 24.9607C23.2215 24.9607 23.249 24.9149 23.2215 24.9034C23.2159 24.9034 23.2104 24.8862 23.1994 24.8862C23.1939 24.8862 23.1829 24.8748 23.1829 24.869C23.1884 24.8461 23.1718 24.8404 23.1663 24.8289C23.1277 24.7888 23.0947 24.7488 23.045 24.7258C23.0175 24.7144 22.9899 24.6915 22.9679 24.6686C22.9458 24.6399 22.9072 24.6456 22.8796 24.6285C22.8631 24.617 22.8466 24.6113 22.8411 24.5884C22.7804 24.5712 22.7418 24.5196 22.6812 24.4967C22.6646 24.491 22.6481 24.4967 22.6316 24.4967C22.615 24.4967 22.604 24.4795 22.5874 24.4681C22.5874 24.4681 22.5819 24.4681 22.5764 24.4681C22.5599 24.4853 22.5489 24.4681 22.5323 24.4681C22.5158 24.4681 22.4937 24.4681 22.4827 24.4394C22.4331 24.4623 22.389 24.428 22.3449 24.4337C22.3338 24.4337 22.3173 24.428 22.3118 24.4337C22.2842 24.4566 22.2511 24.4337 22.2236 24.4509C22.196 24.4681 22.1574 24.4566 22.1243 24.4566C22.1133 24.4566 22.1023 24.4623 22.0968 24.4566C22.0802 24.4394 22.0692 24.4566 22.0582 24.4509C22.0472 24.4509 22.0306 24.4452 22.0196 24.4452C21.9865 24.4452 21.9534 24.4566 21.9203 24.4623C21.8873 24.4681 21.8542 24.4738 21.8211 24.4853C21.8046 24.4853 21.788 24.4967 21.777 24.5024C21.7605 24.5024 21.7494 24.5139 21.7329 24.5082C21.7164 24.5082 21.6998 24.5139 21.6888 24.5311C21.6778 24.5425 21.6778 24.554 21.6612 24.5425C21.6612 24.5654 21.6447 24.5654 21.6337 24.5712C21.5785 24.6055 21.5124 24.6227 21.4628 24.6686C21.4352 24.6915 21.4352 24.7373 21.3856 24.7373C21.3856 24.7373 21.3801 24.743 21.3801 24.7488C21.3801 24.7717 21.358 24.7888 21.3415 24.7946C21.3194 24.7946 21.3084 24.8118 21.2974 24.8289C21.2588 24.8748 21.2312 24.9321 21.1926 24.9779C21.1706 25.018 21.1485 25.0581 21.1209 25.0982C21.0989 25.1383 21.0823 25.1841 21.0658 25.2242C21.0658 25.2356 21.0548 25.2471 21.0603 25.27C21.0658 25.2987 21.0382 25.3216 21.0493 25.3502C21.0162 25.3731 21.0217 25.419 21.0107 25.4476C20.9831 25.5278 20.9996 25.6137 20.9666 25.6996C20.9611 25.7168 20.9666 25.734 20.9666 25.7512C20.9666 25.7684 20.9721 25.7913 20.9666 25.797C20.9445 25.8199 20.9776 25.8257 20.9776 25.8428C20.9721 25.8715 20.9776 25.8944 20.9831 25.923C20.9831 25.9459 20.9831 25.9803 20.9941 25.9975C21.0162 26.0204 21.0162 26.0433 21.0107 26.072C21.0107 26.072 21.0107 26.0834 21.0107 26.0892C21.0382 26.1063 21.0272 26.135 21.0437 26.1522C21.0658 26.1693 21.0713 26.1923 21.0823 26.2209C21.0823 26.2324 21.0823 26.2495 21.0823 26.261C21.0823 26.2782 21.0879 26.2954 21.1044 26.3011C21.132 26.3183 21.1375 26.3527 21.154 26.3756C21.165 26.3927 21.1706 26.4157 21.1926 26.4214C21.2036 26.4214 21.2091 26.4443 21.2091 26.4615C21.2091 26.4844 21.2367 26.4901 21.2257 26.5188C21.2422 26.5188 21.2533 26.5302 21.2588 26.5417C21.2698 26.5589 21.2863 26.5761 21.2974 26.5932C21.3084 26.6104 21.3249 26.6161 21.3304 26.6391C21.3304 26.6677 21.369 26.6505 21.3801 26.6734C21.3801 26.6792 21.3911 26.6792 21.3911 26.6849C21.3911 26.7135 21.4131 26.725 21.4297 26.7364L21.5234 26.8052L21.6226 26.8682L21.7384 26.9427C21.7494 26.9713 21.777 26.9656 21.7935 26.977C21.8101 26.9885 21.8266 27.0057 21.8487 27.0114C21.8762 27.0114 21.9093 27.0286 21.9369 27.0343C21.9645 27.04 21.992 27.0458 22.0251 27.04C22.0527 27.0343 22.0857 27.0515 22.1133 27.0515C22.1243 27.0515 22.1354 27.04 22.1519 27.04C22.1629 27.04 22.1795 27.0515 22.1905 27.0515C22.207 27.0515 22.2181 27.0515 22.2291 27.04C22.2346 27.04 22.2567 27.0572 22.2677 27.0515C22.2952 27.0286 22.3283 27.04 22.3559 27.0343C22.3835 27.0343 22.4055 27.0286 22.4331 27.0229C22.4386 27.0229 22.4551 27.0229 22.4551 27.0229C22.4717 26.9942 22.4992 27.0057 22.5268 26.9942C22.5544 26.9828 22.5819 26.977 22.604 26.9713C22.6095 26.9713 22.6205 26.977 22.626 26.9713C22.6701 26.9427 22.6701 26.9427 22.7308 26.9312C22.7418 26.9312 22.7473 26.9197 22.7584 26.9083C22.7584 26.9083 22.7639 26.8968 22.7694 26.8968C22.808 26.9083 22.83 26.8682 22.8576 26.8682C22.8962 26.8682 22.9238 26.8453 22.9458 26.8224C23.0285 26.7536 23.1277 26.7021 23.1718 26.599C23.2215 26.5531 23.249 26.4959 23.2986 26.45C23.3372 26.4099 23.3648 26.3527 23.3869 26.2954C23.3869 26.2954 23.3869 26.2896 23.3869 26.2839C23.3758 26.2553 23.4034 26.2381 23.4034 26.2094C23.4034 26.1808 23.4034 26.1579 23.4144 26.135C23.431 26.0892 23.442 26.0433 23.453 25.9918C23.4585 25.9459 23.4916 25.9058 23.4916 25.86C23.4916 25.8314 23.4971 25.8085 23.4916 25.7913C23.4916 25.7741 23.4696 25.7569 23.4585 25.7397L23.464 25.7569Z" fill="#272D35"/>
<path d="M28.8009 29.0735C28.8009 29.0735 28.8009 29.0392 28.8009 29.022C28.7844 28.8788 28.7293 28.747 28.63 28.6439C28.5914 28.6038 28.5584 28.5637 28.5198 28.5294C28.4757 28.4893 28.4205 28.4377 28.3599 28.4377C28.2992 28.4377 28.2441 28.4263 28.189 28.4377C28.1669 28.4377 28.1449 28.4377 28.1283 28.4492C28.0511 28.4778 28.0567 28.4778 27.974 28.5007C27.9629 28.5007 27.9574 28.5064 27.9464 28.5122C27.9299 28.5236 27.9188 28.5408 27.9023 28.5523C27.8416 28.5981 27.7755 28.6497 27.7314 28.7127C27.6818 28.7757 27.6487 28.8559 27.6432 28.9361C27.6432 28.9418 27.6377 28.9532 27.6321 28.9647C27.6321 28.9819 27.6211 29.0048 27.6156 29.022C27.5991 29.0907 27.6487 29.1251 27.6156 29.1766C27.6377 29.1996 27.6266 29.2339 27.6266 29.2568C27.6266 29.2683 27.6266 29.2855 27.6266 29.3027H27.6211C27.6211 29.3027 27.6101 29.337 27.6211 29.3485H27.6321C27.6321 29.3485 27.6321 29.36 27.6321 29.3771C27.6321 29.3771 27.6321 29.3886 27.6321 29.3943C27.6321 29.4058 27.6266 29.4172 27.6211 29.423C27.6101 29.4516 27.5936 29.4745 27.6046 29.5032C27.5936 29.5318 27.588 29.5604 27.577 29.5891C27.577 29.6063 27.5715 29.6177 27.5605 29.6349C27.566 29.6234 27.5715 29.612 27.5825 29.6063C27.566 29.6464 27.555 29.6693 27.5384 29.7036C27.5219 29.738 27.4943 29.7724 27.4778 29.7953C27.4778 29.7953 27.4723 29.8068 27.4667 29.8068L27.4337 29.8468L27.4116 29.8698L27.3399 29.9442C27.3399 29.9442 27.2903 29.9843 27.3124 29.9671C27.3289 29.9557 27.3124 29.9786 27.2958 29.9843C27.2848 29.9958 27.2738 30.0015 27.2628 30.0072C27.2297 30.0187 27.2131 30.0359 27.1801 30.0531C27.1745 30.0531 27.169 30.0531 27.1635 30.0588L27.1525 30.0244C27.1525 30.0244 27.1304 30.0244 27.1194 30.0359H27.1139L27.1249 30.0702V30.0817H27.1194C27.0808 30.0989 27.0367 30.1103 26.9926 30.1161C26.9595 30.1161 26.9209 30.1161 26.8879 30.1447H26.8713C26.8713 30.1447 26.8603 30.1447 26.8548 30.1447C26.7997 30.1447 26.739 30.1562 26.6894 30.1447C26.6508 30.1333 26.6122 30.1333 26.5791 30.1275V30.1161H26.546L26.5295 30.1046C26.5185 30.1046 26.5075 30.1046 26.4909 30.0932C26.4689 30.0874 26.4413 30.0817 26.4192 30.0874C26.3531 30.0531 26.2759 30.0588 26.2042 30.0359L26.1546 30.013C26.1546 30.013 26.127 30.0015 26.1105 29.9901L26.0278 29.9442C25.9947 29.927 25.9672 29.8927 25.9231 29.8927C25.9175 29.8927 25.901 29.8812 25.8955 29.8698C25.89 29.8468 25.8734 29.8354 25.8514 29.8297L25.8679 29.8468C25.8679 29.8468 25.8679 29.8583 25.8679 29.864C25.8679 29.864 25.8679 29.864 25.8679 29.8583C25.8679 29.8583 25.8514 29.8468 25.8459 29.8411C25.8459 29.8411 25.8348 29.8297 25.8348 29.8239C25.8238 29.8125 25.8183 29.7953 25.8073 29.7838C25.7687 29.7495 25.7301 29.7151 25.7136 29.6693C25.7136 29.6635 25.7136 29.6578 25.6915 29.6464C25.6915 29.6464 25.6915 29.6521 25.6915 29.6578C25.6915 29.6578 25.6915 29.6693 25.6915 29.675C25.6915 29.6807 25.6915 29.675 25.686 29.675C25.686 29.675 25.6805 29.6635 25.6805 29.6578C25.6805 29.6578 25.6805 29.6521 25.6805 29.6464C25.6805 29.6406 25.6805 29.6349 25.675 29.6292L25.6584 29.6005L25.6474 29.5834V29.5719C25.6474 29.5719 25.6364 29.5719 25.6364 29.5834C25.6143 29.5261 25.5978 29.486 25.5867 29.4344L25.5702 29.36V29.3428C25.5702 29.3428 25.5647 29.337 25.5647 29.3313C25.5647 29.3313 25.5647 29.3428 25.5647 29.3485C25.5647 29.3542 25.5647 29.3657 25.5647 29.3714C25.5647 29.3714 25.5647 29.3714 25.5647 29.3657V29.3485C25.5647 29.3485 25.5647 29.3084 25.5647 29.2912C25.5647 29.2511 25.5647 29.211 25.5537 29.1766C25.5426 29.1423 25.5592 29.1022 25.5592 29.0564C25.5592 28.9876 25.5316 28.9189 25.504 28.8559C25.4765 28.7986 25.4434 28.7356 25.3993 28.6898C25.3387 28.6267 25.2615 28.5752 25.1788 28.558C25.0961 28.5408 25.0023 28.5179 24.9141 28.5294C24.8259 28.5408 24.7487 28.5866 24.666 28.6153C24.5668 28.6955 24.4621 28.7929 24.4179 28.9303C24.4014 28.9819 24.3959 29.0105 24.4014 29.0334C24.4014 29.0564 24.4124 29.0735 24.4345 29.1079C24.44 29.1194 24.451 29.1251 24.4621 29.1308C24.4731 29.1308 24.4786 29.1308 24.4896 29.1308C24.4731 29.1308 24.4621 29.1308 24.451 29.1308C24.4179 29.148 24.3959 29.2225 24.4069 29.2912C24.4069 29.2969 24.4069 29.3141 24.4069 29.3199C24.3904 29.3428 24.3959 29.3829 24.4069 29.4C24.429 29.4573 24.429 29.5203 24.44 29.5776C24.4455 29.612 24.451 29.6406 24.4565 29.675C24.4621 29.7094 24.4786 29.738 24.4896 29.7724C24.5006 29.7953 24.4786 29.8297 24.5117 29.8526C24.4951 29.9385 24.5889 29.9901 24.5778 30.0702C24.5778 30.076 24.5833 30.0932 24.5889 30.0932C24.6219 30.1103 24.6275 30.1562 24.6495 30.1848C24.6716 30.2192 24.7046 30.2421 24.7212 30.2822C24.7267 30.2994 24.7432 30.3108 24.7432 30.3223C24.7543 30.3681 24.7763 30.4082 24.8204 30.4311C24.8204 30.4311 24.8314 30.4483 24.8314 30.454C24.8314 30.4827 24.8535 30.4999 24.87 30.5171C24.9031 30.5571 24.9362 30.5972 24.9693 30.6316C25.0079 30.6717 25.0465 30.7118 25.085 30.7462C25.1236 30.7748 25.1622 30.7977 25.2008 30.8321C25.289 30.9008 25.3772 30.9581 25.471 31.0154C25.5592 31.0727 25.6584 31.1128 25.7521 31.1758C25.8073 31.2102 25.8679 31.2273 25.9341 31.2503C25.9892 31.2674 26.0333 31.3075 26.094 31.319C26.1491 31.3247 26.2042 31.319 26.2538 31.3591C26.2538 31.3591 26.2649 31.3648 26.2704 31.3591C26.32 31.3419 26.3641 31.3648 26.4137 31.3706C26.4248 31.3706 26.4413 31.3877 26.4468 31.382C26.4909 31.3706 26.535 31.3935 26.5736 31.382C26.6177 31.3763 26.6563 31.3763 26.6949 31.3763C26.728 31.3763 26.7666 31.3877 26.7997 31.3877C26.8217 31.3877 26.8493 31.3877 26.8658 31.3706C26.8879 31.3877 26.9154 31.382 26.943 31.3763C27.0533 31.3648 27.158 31.3476 27.2683 31.319C27.2848 31.319 27.3069 31.3133 27.3179 31.3018C27.362 31.2732 27.4006 31.2617 27.4502 31.2617C27.4833 31.2617 27.5219 31.2445 27.5439 31.2273C27.566 31.2044 27.588 31.1987 27.6156 31.1873C27.6707 31.1586 27.7314 31.1357 27.781 31.1013C27.8416 31.0612 27.8968 31.0498 27.9574 31.044C27.985 31.0383 28.0181 31.0211 28.0236 31.0039C28.0346 30.981 28.0567 30.9696 28.0732 30.9524C28.0953 30.9352 28.1118 30.9066 28.1338 30.8837C28.1559 30.8665 28.1835 30.8493 28.2055 30.8321C28.2165 30.8264 28.2331 30.8149 28.2331 30.8092C28.2441 30.7691 28.2772 30.7405 28.3048 30.7118C28.3378 30.6774 28.3709 30.6373 28.3985 30.603C28.426 30.5629 28.4591 30.5285 28.4867 30.4884C28.5418 30.4082 28.5804 30.3223 28.6411 30.2478C28.6686 30.2077 28.6852 30.1504 28.6962 30.0989C28.7072 30.0416 28.7238 29.9729 28.7679 29.927C28.7789 29.9156 28.7789 29.8812 28.7899 29.864C28.8009 29.8411 28.7789 29.8239 28.8009 29.801C28.812 29.7896 28.812 29.7609 28.8175 29.738C28.8561 29.6005 28.845 29.4631 28.8561 29.3256C28.8561 29.2912 28.8726 29.2454 28.845 29.2167V29.1996C28.8836 29.1652 28.8671 29.1308 28.845 29.0965L28.8009 29.0735ZM26.513 30.1218H26.5405L26.5516 30.1275C26.5516 30.1275 26.5516 30.1275 26.5516 30.1333H26.524L26.513 30.1218C26.513 30.1218 26.513 30.1218 26.5019 30.1218H26.5185H26.513ZM26.1381 30.0244H26.1491L26.1656 30.0359H26.1491L26.1381 30.0244Z" fill="#272D35"/>
<path d="M25.818 29.8184H25.8125L25.818 29.8241L25.829 29.8298L25.8346 29.8355L25.8235 29.8241L25.818 29.8184Z" fill="#272D35"/>
<path d="M27.5758 26.9657C27.5758 26.9657 27.5593 26.9371 27.5483 26.9256C27.5483 26.9199 27.5372 26.9084 27.5317 26.9084C27.5262 26.9084 27.5207 26.9084 27.5152 26.9084C27.5372 26.9084 27.5593 26.8913 27.5593 26.8683C27.5593 26.8569 27.5703 26.8512 27.5593 26.8397C27.5538 26.8397 27.5648 26.8168 27.5648 26.8053C27.5648 26.7996 27.5593 26.7881 27.5538 26.7824C27.5648 26.7595 27.5538 26.7423 27.5538 26.7194C27.5538 26.6965 27.5538 26.6736 27.5538 26.6564C27.5427 26.6106 27.5262 26.5647 27.5097 26.5189C27.5041 26.5017 27.4986 26.4845 27.4821 26.4788C27.4711 26.4788 27.4656 26.4616 27.4711 26.4502C27.4711 26.4387 27.4711 26.4273 27.4656 26.4215C27.4545 26.4044 27.4435 26.3872 27.4325 26.37C27.4215 26.3528 27.4104 26.3356 27.3994 26.3184C27.3663 26.3184 27.3884 26.2841 27.3663 26.2726C27.3608 26.2726 27.3608 26.2611 27.3498 26.2611C27.3443 26.2611 27.3332 26.2554 27.3388 26.2497C27.3388 26.2325 27.3332 26.2268 27.3222 26.221C27.2946 26.1924 27.2671 26.158 27.2285 26.1409C27.2064 26.1294 27.1844 26.1122 27.1678 26.095C27.1513 26.0721 27.1182 26.0778 27.0962 26.0607C27.0851 26.0549 27.0686 26.0492 27.0631 26.0263C27.019 26.0148 26.9859 25.9747 26.9418 25.9576C26.9308 25.9576 26.9198 25.9576 26.9032 25.9576C26.8867 25.9576 26.8812 25.9404 26.8701 25.9346H26.8646C26.8536 25.9461 26.8426 25.9346 26.8315 25.9346C26.815 25.9346 26.804 25.9346 26.7929 25.9117C26.7544 25.9289 26.7213 25.906 26.6882 25.9117C26.6772 25.9117 26.6661 25.906 26.6606 25.9117C26.6386 25.9289 26.6165 25.9117 26.589 25.9289C26.5669 25.9404 26.5393 25.9289 26.5118 25.9346C26.5063 25.9346 26.4952 25.9346 26.4897 25.9346C26.4787 25.9232 26.4677 25.9346 26.4566 25.9346C26.4456 25.9346 26.4346 25.9289 26.4236 25.9346C26.396 25.9346 26.3684 25.9404 26.3464 25.9461C26.3188 25.9461 26.2912 25.9576 26.2692 25.9633C26.2582 25.9633 26.2471 25.9747 26.2361 25.9747C26.2251 25.9747 26.2141 25.9862 26.1975 25.9805C26.1865 25.9805 26.17 25.9805 26.1644 25.9976C26.1589 26.0091 26.1534 26.0148 26.1424 26.0091C26.1424 26.0263 26.1259 26.0263 26.1203 26.032C26.0762 26.0607 26.0266 26.0721 25.988 26.1065C25.966 26.1237 25.966 26.158 25.9274 26.158C25.9274 26.158 25.9274 26.158 25.9219 26.1695C25.9219 26.1867 25.9053 26.2039 25.8943 26.2039C25.8778 26.2039 25.8722 26.221 25.8612 26.2268C25.8281 26.2611 25.8061 26.307 25.784 26.3471C25.7675 26.3757 25.7454 26.4101 25.7289 26.4387C25.7124 26.4731 25.6958 26.5017 25.6848 26.5361C25.6848 26.5476 25.6793 26.5533 25.6848 26.5705C25.6848 26.5934 25.6683 26.6106 25.6793 26.6335C25.6517 26.6507 25.6572 26.685 25.6517 26.7079C25.6297 26.771 25.6407 26.8397 25.6186 26.9027C25.6186 26.9142 25.6186 26.9313 25.6186 26.9428C25.6186 26.9543 25.6186 26.9714 25.6186 26.9829C25.6021 27.0001 25.6297 27.0058 25.6241 27.0173C25.6241 27.0402 25.6241 27.0574 25.6297 27.0803C25.6297 27.0975 25.6297 27.1204 25.6407 27.1376C25.6572 27.1547 25.6572 27.1719 25.6517 27.1948V27.2063C25.6738 27.2178 25.6627 27.2407 25.6793 27.2579C25.6958 27.275 25.7013 27.2922 25.7068 27.3094C25.7068 27.3209 25.7068 27.3323 25.7068 27.3438C25.7068 27.3552 25.7124 27.3667 25.7234 27.3724C25.7454 27.3896 25.751 27.4125 25.762 27.4297C25.773 27.4412 25.773 27.4583 25.7951 27.4641C25.8061 27.4641 25.8061 27.4813 25.8061 27.4927C25.8061 27.5099 25.8281 27.5156 25.8226 27.5385C25.8337 27.5385 25.8447 27.55 25.8502 27.5557C25.8612 27.5729 25.8722 27.5786 25.8833 27.5958C25.8943 27.6073 25.9053 27.613 25.9053 27.6359C25.9053 27.6588 25.9384 27.6474 25.9439 27.6646C25.9439 27.6646 25.9549 27.6703 25.9549 27.676C25.9549 27.6989 25.9715 27.7047 25.988 27.7161L26.0597 27.7734L26.1369 27.8192L26.2251 27.8765C26.2306 27.8994 26.2527 27.8937 26.2692 27.9051C26.2857 27.9166 26.2968 27.9281 26.3133 27.9338C26.3354 27.9338 26.3574 27.9452 26.3795 27.951C26.4015 27.951 26.4236 27.9624 26.4456 27.951C26.4677 27.9452 26.4897 27.9567 26.5118 27.9567C26.5228 27.9567 26.5283 27.951 26.5393 27.951C26.5504 27.951 26.5614 27.9624 26.5724 27.9624C26.5834 27.9624 26.5945 27.9624 26.6055 27.9567C26.611 27.9567 26.6276 27.9739 26.6331 27.9624C26.6551 27.9452 26.6772 27.951 26.7047 27.951C26.7268 27.951 26.7433 27.9452 26.7654 27.9395C26.7709 27.9395 26.7819 27.9395 26.7819 27.9395C26.7985 27.9166 26.8205 27.9223 26.8371 27.9166C26.8591 27.9109 26.8756 27.9051 26.8977 27.8994C26.8977 27.8994 26.9087 27.8994 26.9142 27.8994C26.9473 27.8765 26.9473 27.8765 26.9969 27.8708C27.0024 27.8708 27.008 27.8593 27.019 27.8536C27.019 27.8536 27.019 27.8421 27.0245 27.8479C27.0521 27.8536 27.0686 27.8249 27.0962 27.8249C27.1237 27.8249 27.1458 27.8078 27.1678 27.7906C27.234 27.739 27.3112 27.6989 27.3443 27.613C27.3829 27.5786 27.4049 27.5328 27.4435 27.4927C27.4766 27.4583 27.4931 27.4125 27.5097 27.3724C27.5097 27.3724 27.5097 27.3724 27.5097 27.3667C27.4986 27.3438 27.5207 27.3323 27.5207 27.3094C27.5207 27.2865 27.5207 27.2693 27.5317 27.2521C27.5483 27.2178 27.5538 27.1777 27.5593 27.1433C27.5593 27.1089 27.5924 27.0746 27.5868 27.0402C27.5868 27.0173 27.5924 27.0001 27.5868 26.9829L27.5758 26.9657Z" fill="#5D8E5F"/>
</g>
<defs>
<clipPath id="clip0_361_2915">
<rect width="11.291" height="6.94833" fill="white" transform="translate(20.9492 24.4224)"/>
</clipPath>
</defs>
</svg>
