<svg width="20" height="20" viewBox="0 0 20 20" fill="none" xmlns="http://www.w3.org/2000/svg">
<g id="Group 312">
<path id="Vector" d="M1.84066 15.8333C1.84066 15.6123 1.7438 15.4004 1.57139 15.2441C1.39898 15.0878 1.16514 15 0.921308 15C0.67748 15 0.443638 15.0878 0.271226 15.2441C0.0988133 15.4004 0.00195313 15.6123 0.00195312 15.8333V18.0556C0.00195312 19.1289 0.962985 20 2.14711 20H16.8568C17.4257 20 17.9714 19.7951 18.3736 19.4305C18.7759 19.0658 19.002 18.5713 19.002 18.0556V15.8333C19.002 15.6123 18.9051 15.4004 18.7327 15.2441C18.5603 15.0878 18.3264 15 18.0826 15C17.8388 15 17.6049 15.0878 17.4325 15.2441C17.2601 15.4004 17.1632 15.6123 17.1632 15.8333V18.0556C17.1632 18.1292 17.131 18.1999 17.0735 18.252C17.016 18.3041 16.9381 18.3333 16.8568 18.3333H2.14711C2.06584 18.3333 1.98789 18.3041 1.93042 18.252C1.87295 18.1999 1.84066 18.1292 1.84066 18.0556V15.8333Z" fill="#272D35"/>
<path id="Vector_2" fill-rule="evenodd" clip-rule="evenodd" d="M8.47066 15C8.0175 15.0002 7.58074 14.8432 7.24657 14.5599C6.9124 14.2766 6.70512 13.8877 6.66564 13.4699C6.49427 11.6602 6.45089 9.8421 6.53575 8.02715C6.43336 8.02075 6.33099 8.014 6.22864 8.00693L4.41998 7.8856C4.15584 7.86774 3.90124 7.78671 3.68109 7.65044C3.46095 7.51417 3.28282 7.32734 3.16413 7.10822C3.04544 6.88911 2.99027 6.64523 3.00401 6.40045C3.01776 6.15568 3.09994 5.9184 3.24253 5.71185C4.57414 3.78412 7.0128 1.62722 9.02054 0.292643C9.30693 0.102353 9.65061 0 10.0032 0C10.3557 0 10.6994 0.102353 10.9858 0.292643C12.9923 1.62722 15.431 3.78412 16.7614 5.71185C16.904 5.9184 16.9862 6.15568 16.9999 6.40045C17.0136 6.64523 16.9585 6.88911 16.8398 7.10822C16.7211 7.32734 16.543 7.51417 16.3228 7.65044C16.1027 7.78671 15.8481 7.86774 15.5839 7.8856L13.7753 8.00693L13.4694 8.02715C13.5543 9.84254 13.5106 11.6602 13.3395 13.4699C13.3 13.8877 13.0927 14.2766 12.7586 14.5599C12.4244 14.8432 11.9876 15.0002 11.5345 15H8.47066ZM8.40268 7.28796C8.26443 9.29587 8.28999 11.3106 8.47916 13.3149H11.526C11.7153 11.3108 11.7408 9.29657 11.6037 7.28796C11.5961 7.17665 11.6125 7.06505 11.6519 6.95965C11.6914 6.85425 11.753 6.75714 11.8333 6.67396C11.9136 6.59078 12.0109 6.52317 12.1196 6.47507C12.2284 6.42697 12.3463 6.39933 12.4667 6.39375C12.86 6.37577 13.2521 6.3533 13.6442 6.32634L14.9564 6.23872C13.791 4.64985 12.3323 3.26338 10.6471 2.14286L10.0026 1.71485L9.358 2.14286C7.67284 3.26336 6.21414 4.64984 5.04876 6.23872L6.36096 6.32747C6.75304 6.3533 7.14633 6.37577 7.53841 6.39375C7.65878 6.39933 7.77675 6.42697 7.88548 6.47507C7.99422 6.52317 8.09155 6.59078 8.17183 6.67396C8.25212 6.75714 8.31376 6.85425 8.35318 6.95965C8.3926 7.06505 8.40901 7.17665 8.40147 7.28796H8.40268Z" fill="#272D35"/>
</g>
</svg>
