<svg width="1171" height="4" viewBox="0 0 1171 4" fill="none" xmlns="http://www.w3.org/2000/svg">
<path d="M21.1016 0.479923C27.1976 0.299923 33.6747 0.819923 40.5621 0.739923C47.4495 0.659923 54.4248 0.699923 61.3414 0.739923C64.8584 0.739923 68.1409 0.659923 71.5406 0.519923C74.8231 0.379923 78.6038 0.699923 81.7105 0.279923C81.9742 0.239923 82.6483 0.279923 83.1173 0.279923C91.47 0.279923 100.057 0.0999227 108.176 0.319923C117.642 0.579923 126.962 0.399923 136.311 0.499923C151.581 -7.73147e-05 166.997 0.359923 182.325 0.279923C187.131 0.259923 191.938 0.159923 196.861 0.459923C201.053 0.719923 206.181 0.259923 210.578 0.719923C210.929 0.759923 211.809 0.659923 212.453 0.639923C214.007 0.579923 215.648 0.479923 217.113 0.519923C225.906 0.779923 225.876 0.779923 233.233 0.539923C234.112 0.519923 235.167 0.699923 236.163 0.719923C240.208 0.739923 244.282 0.779923 248.326 0.719923C251.96 0.679923 255.829 0.939923 259.287 0.519923C260.049 0.419923 261.603 0.519923 262.804 0.519923C266.644 0.519923 270.454 0.539923 274.264 0.519923C278.631 0.479923 283.086 0.679923 287.335 0.319923C289.211 0.159923 291.907 0.579923 293.021 0.499923C295.073 0.339923 296.978 0.279923 299 0.319923C300.993 0.359923 302.898 0.519923 304.861 0.519923C306.561 0.519923 308.261 0.319923 310.02 0.319923C314.328 0.279923 318.929 0.459923 322.856 0.259923C327.077 0.0399227 331.121 0.0999227 335.254 0.0799227C339.562 0.0599227 343.87 0.119923 348.149 0.0799227C351.49 0.0399227 354.48 0.219923 357.616 0.319923C360.752 0.419923 364.239 0.119923 367.082 0.559923C367.199 0.559923 367.551 0.559923 367.786 0.559923C374.292 0.639923 380.769 0.759923 387.275 0.779923C398.5 0.819923 409.755 0.779923 420.98 0.779923C424.145 0.779923 427.515 0.639923 430.475 0.999923C431.091 1.07992 432.439 0.959923 433.289 0.999923C436.396 1.19992 438.857 0.519923 441.847 0.839923C444.514 1.11992 447.327 0.959923 450.053 0.999923C453.16 1.03992 456.266 0.999923 459.373 0.999923C461.513 0.999923 463.447 0.959923 465.235 0.759923C467.609 1.15992 470.95 0.899923 473.734 1.07992C475.551 1.19992 478.365 1.31992 479.713 1.17992C482.673 0.879923 485.633 1.01992 488.564 0.979923C492.931 0.919923 497.327 1.05992 501.635 0.759923C503.452 0.639923 505.914 0.699923 508.024 0.759923C510.017 0.799923 511.922 0.959923 513.886 0.979923C517.549 1.01992 521.184 0.979923 524.818 0.779923C527.983 0.599923 531.822 0.959923 534.988 0.539923C535.398 0.479923 536.424 0.499923 537.098 0.539923C540.556 0.719923 543.663 0.819923 547.502 0.579923C550.609 0.379923 554.565 0.539923 558.17 0.539923C562.01 0.539923 565.908 0.459923 569.6 0.559923C571.974 0.639923 573.147 0.0599227 575.96 0.419923C577.484 0.619923 580.444 0.519923 582.789 0.519923C585.163 0.519923 587.683 0.439923 589.94 0.519923C601.868 0.979923 613.973 0.599923 625.93 0.759923C631.001 0.819923 636.305 0.479923 641.112 0.979923C644.687 0.599923 649.083 0.919923 652.513 0.679923C654.681 0.519923 656.586 0.539923 658.579 0.539923C671.739 0.539923 684.869 0.539923 698.028 0.539923C706.674 0.519923 715.32 0.379923 723.965 0.319923C726.398 0.319923 728.772 0.259923 731.41 0.499923C733.344 0.679923 736.89 0.679923 739.469 0.379923C739.968 0.319923 740.993 0.279923 741.374 0.319923C746.298 0.859923 751.163 0.299923 755.999 0.279923C765.466 0.239923 774.698 0.579923 784.105 0.539923C786.098 0.539923 788.443 0.699923 789.996 0.319923C791.55 0.619923 792.693 0.479923 794.598 0.319923C796.561 0.179923 799.785 0.159923 801.514 0.319923C803.859 0.559923 806.028 0.479923 808.255 0.499923C810.629 0.519923 813.032 0.499923 815.436 0.499923C825.518 0.579923 835.599 0.639923 845.681 0.739923C847.645 0.739923 849.579 0.899923 851.543 0.959923C853.536 1.01992 855.675 0.839923 857.551 1.15992C858.255 1.27992 860.277 1.19992 861.713 1.19992C866.724 1.19992 872.176 1.39992 876.66 1.13992C881.115 0.899923 885.892 1.19992 890.024 0.739923C891.167 0.619923 893.307 0.739923 894.948 0.719923C901.66 0.599923 908.606 0.979923 915.141 0.499923C917.545 0.799923 920.417 0.739923 923.142 0.719923C925.135 0.719923 927.451 0.879923 929.121 0.519923C929.326 0.479923 930.03 0.479923 930.44 0.499923C932.873 0.579923 935.041 0.799923 937.738 0.739923C939.994 0.679923 941.841 0.479923 944.303 0.479923C953.212 0.479923 962.005 0.899923 970.973 0.739923C973.435 1.01992 976.219 0.959923 978.974 0.979923C983.869 0.979923 988.441 0.639923 993.452 0.719923C998.2 0.799923 1003.24 0.899923 1007.73 0.719923C1015.46 0.399923 1023.17 0.599923 1030.85 0.539923C1032.81 0.539923 1035.04 0.399923 1036.86 0.739923C1037.3 0.819923 1039.44 0.779923 1040.05 0.679923C1041.31 0.459923 1042.78 0.599923 1044.01 0.519923C1047.5 0.299923 1050.9 1.15992 1054.32 0.519923H1065.81C1069.65 0.519923 1073.46 0.519923 1077.27 0.519923C1079.06 0.519923 1080.79 0.459923 1082.64 0.679923C1083.87 0.839923 1086.8 0.859923 1088.03 0.719923C1090.93 0.399923 1093.95 0.519923 1096.88 0.519923C1105.73 0.499923 1114.58 0.479923 1123.4 0.519923C1127.27 0.519923 1131.14 0.659923 1135.01 0.739923C1138.94 0.819923 1143.01 0.579923 1146.82 0.879923C1147.08 0.899923 1147.49 0.879923 1147.82 0.879923C1149.37 0.839923 1150.92 0.719923 1152.45 0.739923C1154.41 0.759923 1157.05 1.03992 1158.16 0.919923C1160.42 0.679923 1161.86 0.939923 1163.56 0.979923C1168.45 1.05992 1171.47 1.67992 1170.91 2.45992C1170.79 2.61992 1170.21 2.81992 1169.51 2.93992C1165.11 3.75992 1165.08 3.71992 1157.99 3.77992C1149.02 3.83992 1140.29 3.35992 1131.32 3.53992C1125.48 3.11992 1119.27 3.39992 1113.26 3.29992C1107.02 3.19992 1100.66 2.85992 1094.54 3.09992C1088.44 3.33992 1082.46 3.29992 1076.42 3.27992C1071.85 3.27992 1067.28 3.09992 1062.68 3.07992C1057.9 3.03992 1053.04 3.15992 1048.38 3.03992C1045.47 2.97992 1042.4 2.69992 1039.67 2.85992C1033.66 3.21992 1027.48 2.89992 1021.59 3.09992C1013.41 3.35992 1005.18 3.17992 997.086 3.35992C992.719 3.43992 988.411 3.55992 984.015 3.53992C982.022 3.53992 980.117 3.53992 977.978 3.37992C975.78 3.21992 972.585 3.19992 969.889 3.43992C968.775 3.53992 966.87 3.61992 965.903 3.51992C961.888 3.15992 957.638 3.31992 953.535 3.31992C950.926 3.31992 947.996 2.99992 946.442 3.13992C943.805 3.37992 941.401 3.25992 938.939 3.29992C937.181 3.29992 935.188 3.41992 933.635 3.11992C933.224 3.03992 931.495 3.01992 930.997 3.07992C928.037 3.47992 924.666 3.27992 921.501 3.29992C913.852 3.31992 906.202 3.31992 898.553 3.29992C892.222 3.27992 886.156 3.69992 879.796 3.53992C875.927 3.93992 871.59 3.75992 867.487 3.75992C864.321 3.75992 861.185 3.61992 858.049 3.53992C854.913 3.45992 851.836 3.53992 848.495 3.35992C844.392 3.13992 839.497 3.33992 834.984 3.29992C832.522 3.27992 829.767 3.49992 827.54 3.11992C827.247 3.05992 826.104 3.07992 825.664 3.11992C822.411 3.51992 818.337 3.39992 815.436 3.25992C810.717 2.99992 806.174 3.11992 801.602 3.07992C797.792 3.03992 793.953 3.07992 790.143 3.07992C787.417 3.05992 784.721 3.13992 781.849 2.95992C779.651 2.83992 776.72 3.03992 774.111 3.07992C771.503 3.09992 768.865 3.07992 766.227 3.07992H749.024C745.917 3.07992 742.781 3.11992 739.704 3.07992C736.773 3.03992 733.901 2.87992 730.97 2.85992C722.764 2.81992 714.704 3.23992 706.469 3.07992C704.241 3.35992 702.072 3.15992 699.757 3.09992C697.617 3.03992 695.097 2.91992 692.958 3.21992C692.371 3.29992 691.228 3.27992 690.32 3.29992C688.327 3.33992 686.598 3.05992 684.253 3.27992C682.583 3.41992 680.033 3.27992 677.893 3.31992C675.637 3.35992 673.116 3.13992 671.211 3.51992C667.284 2.97992 663.503 3.79992 659.576 3.55992C658.345 3.47992 656.997 3.45992 655.678 3.39992C655.033 3.37992 654.3 3.29992 653.743 3.33992C643.281 3.83992 632.583 3.43992 622.062 3.57992C620.772 3.57992 619.512 3.69992 618.222 3.75992C617.607 3.77992 616.903 3.79992 616.288 3.75992C610.514 3.55992 610.514 3.55992 605.122 3.75992C603.773 3.81992 602.279 3.75992 600.872 3.77992C597.238 3.83992 593.662 3.73992 589.911 3.97992C586.159 4.21992 582.027 3.79992 578.1 3.61992C574.612 3.45992 571.183 3.27992 567.373 3.29992C557.818 3.33992 548.264 3.29992 538.68 3.29992C537.479 3.29992 535.838 3.21992 535.163 3.29992C532.409 3.69992 529.976 3.95992 527.367 3.29992C527.25 3.25992 526.254 3.25992 526.019 3.29992C523.675 3.71992 520.597 3.51992 517.96 3.49992C507.819 3.45992 497.854 3.91992 487.714 3.75992C486.073 3.73992 483.845 3.83992 482.907 3.69992C480.856 3.39992 479.889 3.87992 478.101 3.77992C476.635 3.69992 474.437 3.85992 473.177 3.73992C468.693 3.29992 463.681 3.43992 459.432 3.57992C455.475 3.71992 451.372 3.85992 447.826 3.71992C440.792 3.43992 433.846 3.55992 426.841 3.51992C419.661 3.47992 412.51 3.49992 405.329 3.51992C402.398 3.51992 399.262 3.35992 396.537 3.73992C395.98 3.81992 394.661 3.77992 393.723 3.73992C391.525 3.67992 389.327 3.51992 387.129 3.51992C384.931 3.51992 382.762 3.67992 380.535 3.73992C378.747 3.77992 377.076 3.73992 375.259 3.93992C373.911 4.07992 371.566 3.95992 369.456 3.75992C365.265 3.35992 360.898 2.95992 355.535 3.01992C350.787 3.07992 345.98 3.01992 341.203 3.03992C339.21 3.03992 337.305 3.01992 335.166 3.19992C333.232 3.37992 330.008 3.29992 327.663 3.17992C323.97 2.97992 320.57 2.95992 316.966 3.17992C315.735 3.25992 314.24 3.25992 312.862 3.25992C304.51 3.25992 296.128 3.25992 287.775 3.25992C285.753 3.25992 283.613 3.33992 281.972 3.05992C280.653 3.39992 278.543 3.27992 276.784 3.25992C274.088 3.21992 271.45 3.07992 268.754 3.03992C265.559 2.99992 262.453 3.03992 259.258 3.23992C256.327 3.41992 252.781 3.11992 249.616 3.39992C249.03 3.45992 247.769 3.25992 246.89 3.27992C243.256 3.33992 239.329 3.03992 235.988 3.49992C235.695 3.53992 234.933 3.53992 234.61 3.49992C230.448 3.03992 226.287 3.37992 222.154 3.49992C217.641 3.63992 213.538 3.25992 209.112 3.25992C204.101 3.25992 198.854 3.39992 194.107 3.21992C185.9 2.91992 177.723 3.05992 169.546 3.01992C161.194 2.97992 152.812 2.97992 144.459 3.01992C140.825 3.01992 137.22 3.19992 133.586 3.23992C129.541 3.27992 125.467 3.23992 121.393 3.23992C117.554 3.23992 113.744 3.23992 109.905 3.23992C108.117 3.23992 106.124 3.35992 104.571 3.07992C104.248 3.01992 103.164 2.99992 102.695 3.03992C99.4125 3.35992 96.2472 3.33992 92.9354 3.03992C91.9976 2.95992 90.5908 3.03992 89.4771 2.99992C86.3411 2.87992 83.6448 3.15992 80.7433 3.23992C78.0763 3.31992 75.0283 3.03992 72.6543 3.45992C72.3319 3.51992 71.0131 3.51992 70.6028 3.45992C65.2394 2.73992 59.114 3.93992 53.8093 3.27992C51.6698 3.69992 49.4717 3.21992 47.7718 3.27992C45.3393 3.35992 42.9653 3.47992 40.4155 3.47992C38.0123 3.47992 35.6383 3.45992 33.2351 3.47992C28.8682 3.53992 24.472 3.33992 20.1051 3.67992C18.6397 3.79992 15.9141 3.85992 14.1263 3.53992C13.8039 3.47992 12.866 3.47992 12.2213 3.49992C7.44407 3.61992 1.61178 3.25992 0.439463 2.67992C-0.263928 2.31992 -0.176005 1.89992 0.380847 1.53992C0.644619 1.35992 2.72548 1.23992 4.04434 1.11992C6.33037 0.899923 8.52846 0.579923 10.9903 0.479923C13.9504 0.359923 17.1743 0.459923 21.043 0.459923L21.1016 0.479923Z" fill="#221714"/>
</svg>
