<svg width="14" height="14" viewBox="0 0 14 14" fill="none" xmlns="http://www.w3.org/2000/svg">
<path d="M13.2887 11.9615C13.4649 12.1376 13.5638 12.3765 13.5638 12.6256C13.5638 12.8746 13.4649 13.1135 13.2887 13.2896C13.1126 13.4657 12.8737 13.5647 12.6247 13.5647C12.3756 13.5647 12.1367 13.4657 11.9606 13.2896L7.00045 8.3279L2.03874 13.2881C1.86262 13.4642 1.62374 13.5631 1.37467 13.5631C1.1256 13.5631 0.886731 13.4642 0.710611 13.2881C0.53449 13.1119 0.435547 12.8731 0.435547 12.624C0.435547 12.3749 0.53449 12.136 0.710611 11.9599L5.67233 6.99977L0.712173 2.03805C0.536053 1.86193 0.437109 1.62306 0.437109 1.37399C0.437109 1.12492 0.536053 0.886047 0.712173 0.709927C0.888293 0.533807 1.12716 0.434863 1.37624 0.434863C1.62531 0.434863 1.86418 0.533807 2.0403 0.709927L7.00045 5.67165L11.9622 0.709146C12.1383 0.533025 12.3772 0.434082 12.6262 0.434082C12.8753 0.434082 13.1142 0.533025 13.2903 0.709146C13.4664 0.885266 13.5654 1.12414 13.5654 1.37321C13.5654 1.62228 13.4664 1.86115 13.2903 2.03727L8.32858 6.99977L13.2887 11.9615Z" fill="#272D35"/>
</svg>
